<svg xmlns="http://www.w3.org/2000/svg" width="34" height="34" viewBox="0 0 34 34">
  <g id="Grupo_2" data-name="Grupo 2" transform="translate(-108 -123)">
    <rect id="Rectángulo_2" data-name="Rectángulo 2" width="34" height="34" transform="translate(108 123)" fill="none"/>
    <path id="Icon_metro-search" data-name="Icon metro-search" d="M24.535,21.217,19.166,16.65a2.4,2.4,0,0,0-1.628-.707,8.5,8.5,0,1,0-.951.951,2.4,2.4,0,0,0,.707,1.628l4.566,5.369a1.9,1.9,0,1,0,2.675-2.675ZM11.071,16.095a5.667,5.667,0,1,1,5.667-5.667,5.667,5.667,0,0,1-5.667,5.667Z" transform="translate(111.018 126.867)" fill="#fff"/>
  </g>
</svg>
