<?xml version="1.0" encoding="utf-8"?>
<!-- Generator: Adobe Illustrator 23.0.0, SVG Export Plug-In . SVG Version: 6.00 Build 0)  -->
<svg version="1.1" baseProfile="basic" id="Capa_1" xmlns="http://www.w3.org/2000/svg" xmlns:xlink="http://www.w3.org/1999/xlink"
	 x="0px" y="0px" viewBox="0 0 21.97 19.57" xml:space="preserve">
<style type="text/css">
	.st0{fill:#595858;}
</style>
<g>
	<path class="st0" d="M1.77,2.8c-2.72,3.28-2.26,8.15,1.03,10.87s8.15,2.26,10.87-1.03s2.26-8.15-1.03-10.87S4.49-0.49,1.77,2.8z
		 M11.92,11.2c-1.92,2.32-5.36,2.65-7.68,0.73S1.59,6.56,3.51,4.24s5.36-2.65,7.68-0.73S13.84,8.87,11.92,11.2z"/>
	<path class="st0" d="M21.64,18.75l-0.24,0.29c-0.51,0.62-1.43,0.7-2.04,0.19l-7.26-6.01c-0.62-0.51-0.7-1.43-0.19-2.04l0.24-0.29
		c0.51-0.62,1.43-0.7,2.04-0.19l7.26,6.01C22.07,17.22,22.15,18.13,21.64,18.75z"/>
</g>
</svg>
