<svg xmlns="http://www.w3.org/2000/svg" width="56" height="56" viewBox="0 0 56 56">
  <g id="Grupo_2764" data-name="Grupo 2764" transform="translate(-1541 -1255)">
    <rect id="Rectángulo_1470" data-name="Rectángulo 1470" width="56" height="56" transform="translate(1541 1255)" fill="#009fee"/>
    <path id="tw" d="M35.35,11.356c.025.35.025.7.025,1.05,0,10.675-8.125,22.975-22.975,22.975A22.819,22.819,0,0,1,0,31.756a16.7,16.7,0,0,0,1.95.1,16.172,16.172,0,0,0,10.025-3.45,8.089,8.089,0,0,1-7.55-5.6,10.184,10.184,0,0,0,1.525.125,8.54,8.54,0,0,0,2.125-.275A8.076,8.076,0,0,1,1.6,14.731v-.1a8.132,8.132,0,0,0,3.65,1.025,8.087,8.087,0,0,1-2.5-10.8,22.953,22.953,0,0,0,16.65,8.45,9.116,9.116,0,0,1-.2-1.85A8.083,8.083,0,0,1,33.175,5.931,15.9,15.9,0,0,0,38.3,3.981a8.053,8.053,0,0,1-3.55,4.45,16.188,16.188,0,0,0,4.65-1.25,17.358,17.358,0,0,1-4.05,4.175Z" transform="translate(1549 1263.619)" fill="#fff"/>
  </g>
</svg>
