<?xml version="1.0" encoding="utf-8"?>
<!-- Generator: Adobe Illustrator 23.0.0, SVG Export Plug-In . SVG Version: 6.00 Build 0)  -->
<svg version="1.1" id="Capa_1" xmlns="http://www.w3.org/2000/svg" xmlns:xlink="http://www.w3.org/1999/xlink" x="0px" y="0px"
	 viewBox="0 0 272.49 49.9" style="enable-background:new 0 0 272.49 49.9;" xml:space="preserve">
<style type="text/css">
	.st0{fill:#717171;}
	.st1{fill:#9DD4CA;}
	.st2{fill:#005850;}
	.st3{fill:#007F6E;}
	.st4{fill:#004545;}
</style>
<g>
	<path class="st0" d="M66.64,13.87l-8.99,23.45h3.86l2.25-6.34h8.99l2.4,6.34h3.84l-9.03-23.45H66.64z M68.24,18.72l3.33,9.03h-6.62
		L68.24,18.72z"/>
	<path class="st0" d="M134.39,13.49c-3.49,0-6.3,1.14-8.34,3.39c-2.03,2.23-3.06,5.26-3.06,8.99c0,3.48,1.01,6.35,3,8.53
		c2,2.19,4.7,3.31,8.01,3.31c3.39,0,6.13-1.13,8.16-3.35c2.02-2.21,3.04-5.25,3.04-9.03c0-3.49-1-6.36-2.97-8.53
		C140.27,14.6,137.62,13.49,134.39,13.49z M134.2,16.73c2.33,0,4.1,0.75,5.42,2.29c1.31,1.54,1.98,3.78,1.98,6.65
		c0,2.79-0.69,4.98-2.04,6.51c-1.34,1.52-3.21,2.29-5.55,2.29c-2.21,0-3.96-0.78-5.33-2.4c-1.37-1.61-2.07-3.78-2.07-6.45
		c0-2.67,0.71-4.84,2.12-6.47C130.15,17.52,131.94,16.73,134.2,16.73z"/>
	<polygon class="st0" points="148.3,37.32 151.79,37.32 151.79,27.31 159.96,27.31 159.96,24.08 151.79,24.08 151.79,17.11 
		160.62,17.11 160.62,13.87 148.3,13.87 	"/>
	<rect x="165.13" y="13.87" class="st0" width="3.49" height="23.45"/>
	<path class="st0" d="M185.05,15.74c-1.4-1.24-3.39-1.87-5.9-1.87h-6.63v23.45h3.49v-8.54h2.56c2.61,0,4.72-0.73,6.27-2.16
		c1.56-1.44,2.35-3.32,2.35-5.58C187.19,18.78,186.47,16.99,185.05,15.74z M176.01,17.11h2.68c3.28,0,4.87,1.33,4.87,4.05
		c0,1.41-0.42,2.46-1.3,3.22c-0.88,0.76-2.19,1.15-3.91,1.15h-2.35V17.11z"/>
	<path class="st0" d="M201.13,13.49c-3.49,0-6.3,1.14-8.34,3.39c-2.03,2.23-3.06,5.26-3.06,8.99c0,3.48,1.01,6.35,3,8.53
		c2,2.19,4.7,3.31,8.01,3.31c3.39,0,6.13-1.13,8.16-3.35c2.02-2.21,3.04-5.25,3.04-9.03c0-3.49-1-6.36-2.97-8.53
		C207,14.6,204.36,13.49,201.13,13.49z M208.34,25.67c0,2.79-0.69,4.98-2.04,6.51c-1.34,1.52-3.21,2.29-5.55,2.29
		c-2.21,0-3.96-0.78-5.33-2.4c-1.37-1.61-2.07-3.78-2.07-6.45c0-2.67,0.71-4.84,2.12-6.47c1.41-1.63,3.2-2.42,5.47-2.42
		c2.33,0,4.1,0.75,5.42,2.29C207.67,20.57,208.34,22.81,208.34,25.67z"/>
	<path class="st0" d="M227.95,13.87l-8.99,23.45h3.86l2.25-6.34h8.99l2.4,6.34h3.84l-9.03-23.45H227.95z M229.55,18.72l3.33,9.03
		h-6.62L229.55,18.72z"/>
	<path class="st0" d="M258.95,13.49c-3.45,0-6.33,1.17-8.58,3.47c-2.24,2.3-3.38,5.35-3.38,9.06c0,3.46,1.01,6.3,3.01,8.44
		c2.01,2.15,4.71,3.24,8.03,3.24c2.55,0,4.72-0.46,6.44-1.37l0.23-0.12v-3.58l-0.64,0.39c-1.59,0.96-3.5,1.45-5.68,1.45
		c-2.31,0-4.21-0.78-5.62-2.32c-1.43-1.55-2.15-3.66-2.15-6.29c0-2.78,0.78-5.02,2.31-6.66c1.52-1.64,3.54-2.47,6-2.47
		c1.87,0,3.61,0.44,5.15,1.3l0.63,0.35v-3.82l-0.25-0.11C263,13.81,261.15,13.49,258.95,13.49z"/>
	<path class="st0" d="M243.44,32.8c-1.24,0-2.26,1.01-2.26,2.26c0,1.24,1.01,2.26,2.26,2.26c1.24,0,2.26-1.01,2.26-2.26
		C245.7,33.82,244.69,32.8,243.44,32.8z"/>
	<path class="st0" d="M270.24,32.8c-1.24,0-2.26,1.01-2.26,2.26c0,1.24,1.01,2.26,2.26,2.26c1.24,0,2.26-1.01,2.26-2.26
		C272.49,33.82,271.48,32.8,270.24,32.8z"/>
	<g>
		
			<rect x="19.92" y="27.67" transform="matrix(0.7071 -0.7071 0.7071 0.7071 -15.7655 27.1536)" class="st1" width="9.95" height="9.88"/>
		
			<rect x="27.6" y="19.97" transform="matrix(0.7071 -0.7071 0.7071 0.7071 -8.0972 30.368)" class="st1" width="10.01" height="9.98"/>
		
			<rect x="19.92" y="12.28" transform="matrix(0.7071 -0.7071 0.7071 0.7071 -4.9144 22.6881)" class="st1" width="10.01" height="9.98"/>
		<polygon class="st1" points="17.26,32.01 24.3,24.97 17.24,17.91 10.2,24.95 10.2,24.95 10.2,24.95 		"/>
		<polygon class="st2" points="14.67,49.82 24.87,39.62 17.88,32.63 7.69,42.84 		"/>
		
			<rect x="1.42" y="28.59" transform="matrix(0.7071 -0.7071 0.7071 0.7071 -21.2162 15.936)" class="st3" width="14.42" height="9.98"/>
		
			<rect x="26.36" y="3.64" transform="matrix(0.7071 -0.7071 0.7071 0.7071 3.7298 26.2665)" class="st2" width="14.42" height="9.99"/>
		<polygon class="st3" points="39.68,24.94 39.69,24.94 39.69,24.94 49.88,14.75 42.82,7.69 32.62,17.89 		"/>
		
			<rect x="3.67" y="9.11" transform="matrix(0.7071 -0.7071 0.7071 0.7071 -9.0111 10.8799)" class="st2" width="9.92" height="14.42"/>
		
			<rect x="11.29" y="1.43" transform="matrix(0.7071 -0.7071 0.7071 0.7071 -1.3388 14.0579)" class="st3" width="10.02" height="14.42"/>
		<polygon class="st2" points="39.68,24.95 32.6,32.03 42.8,42.22 49.88,35.13 39.69,24.94 39.68,24.95 		"/>
		<polygon class="st4" points="39.68,24.95 39.68,24.95 39.68,24.94 39.67,24.95 		"/>
		<polygon class="st3" points="31.91,32.58 24.87,39.62 35.12,49.9 42.17,42.85 		"/>
	</g>
	<g>
		<path class="st0" d="M111,18.44c0.01-0.02,0.02-0.05,0.03-0.07c0.25-0.38,0.57-0.69,0.97-0.93c0.1-0.06,0.21-0.1,0.31-0.15
			C111.57,17.69,111.17,18.18,111,18.44c-0.03,0.05-0.05,0.12-0.08,0.17"/>
		<path class="st0" d="M111.4,18.08c-0.44,0.42-0.72,1.01-0.73,1.62c0,0,0,0.01,0,0.01c0,0.51,0.09,0.95,0.28,1.3
			c0.19,0.37,0.47,0.71,0.85,1.02c0.4,0.33,0.89,0.65,1.47,0.96c0.6,0.32,1.29,0.68,2.07,1.07c0.82,0.4,1.6,0.83,2.33,1.28
			c0.75,0.46,1.42,0.97,1.98,1.53c0.58,0.57,1.04,1.2,1.38,1.9c0.35,0.71,0.52,1.52,0.52,2.42c0,1.18-0.24,2.2-0.71,3.04
			c-0.47,0.83-1.11,1.51-1.9,2.03c-0.78,0.51-1.69,0.88-2.7,1.11c-0.99,0.22-2.05,0.33-3.15,0.33c-0.37,0-0.84-0.03-1.37-0.09
			c-0.53-0.06-1.09-0.14-1.64-0.26c-0.56-0.11-1.1-0.26-1.6-0.42c-0.52-0.17-0.95-0.37-1.28-0.59l-0.19-0.13v-3.64l0,0
			c1.37,0.72,2.59,1.17,3.68,1.46c0.44,0.13,0.89,0.24,1.34,0.31c0.53,0.09,1.03,0.14,1.47,0.14c1.4,0,2.46-0.24,3.19-0.7
			c0.13-0.07,0.21-0.12,0.21-0.12v0c0.7-0.52,1.04-1.27,1.04-2.27c0-0.53-0.11-0.99-0.34-1.38c-0.24-0.41-0.58-0.78-1.01-1.12
			c-0.45-0.36-0.99-0.7-1.62-1.03c-0.64-0.34-1.34-0.7-2.08-1.08c-0.79-0.4-1.54-0.81-2.23-1.23c-0.71-0.42-1.33-0.9-1.86-1.42
			c-0.54-0.53-0.97-1.13-1.28-1.8c-0.31-0.68-0.47-1.48-0.47-2.38c0-1.1,0.25-2.08,0.74-2.9c0.48-0.81,1.12-1.49,1.91-2.02
			c0.77-0.52,1.66-0.91,2.64-1.16c0.97-0.25,1.97-0.38,2.98-0.38c2.32,0,3.98,0.28,5.07,0.85l0.23,0.12v3.45
			c-2.81-1.14-4.85-1.38-6.31-1.21c-1.09,0.13-2.09,0.6-2.88,1.36C111.42,18.06,111.41,18.07,111.4,18.08z"/>
	</g>
	<polygon class="st0" points="99.73,13.87 92.11,30.56 84.49,13.87 84.49,13.87 84.48,13.87 80.74,13.87 80.74,37.32 84.48,37.32 
		84.48,23.15 86.54,27.83 90.68,37.32 92.11,37.32 93.54,37.32 93.74,36.85 93.75,36.85 99.73,23.2 99.73,37.32 103.47,37.32 
		103.47,13.87 	"/>
</g>
</svg>
