<svg xmlns="http://www.w3.org/2000/svg" width="120.496" height="40" viewBox="0 0 120.496 40">
  <defs>
    <style>
      .cls-1 {
        fill: #9dd4ca;
      }

      .cls-2 {
        fill: #005850;
      }

      .cls-3 {
        fill: #007f6e;
      }

      .cls-4 {
        fill: #004545;
      }

      .cls-5 {
        fill: #195852;
      }
    </style>
  </defs>
  <g id="Grupo_3596" data-name="Grupo 3596" transform="translate(-171 -12)">
    <g id="Grupo_503" data-name="Grupo 503" transform="translate(171 12)">
      <rect id="Rectángulo_707" data-name="Rectángulo 707" class="cls-1" width="7.542" height="7.52" transform="matrix(0.707, 0.707, -0.707, 0.707, 20, 8.667)"/>
      <rect id="Rectángulo_712" data-name="Rectángulo 712" class="cls-1" width="7.542" height="7.52" transform="matrix(0.707, 0.707, -0.707, 0.707, 14, 14.667)"/>
      <rect id="Rectángulo_710" data-name="Rectángulo 710" class="cls-1" width="7.542" height="7.52" transform="matrix(0.707, 0.707, -0.707, 0.707, 25.984, 14.682)"/>
      <rect id="Rectángulo_711" data-name="Rectángulo 711" class="cls-1" width="7.542" height="7.52" transform="matrix(0.707, 0.707, -0.707, 0.707, 20, 20.666)"/>
      <rect id="Rectángulo_705" data-name="Rectángulo 705" class="cls-2" width="7.542" height="11.314" transform="matrix(0.707, 0.707, -0.707, 0.707, 28.668, 0)"/>
      <rect id="Rectángulo_715" data-name="Rectángulo 715" class="cls-2" width="7.542" height="11.314" transform="matrix(0.707, 0.707, -0.707, 0.707, 14, 26.667)"/>
      <rect id="Rectángulo_713" data-name="Rectángulo 713" class="cls-2" width="7.542" height="11.314" transform="translate(39.999 28.667) rotate(135)"/>
      <rect id="Rectángulo_717" data-name="Rectángulo 717" class="cls-2" width="7.542" height="11.314" transform="translate(13.334 14) rotate(135)"/>
      <rect id="Rectángulo_708" data-name="Rectángulo 708" class="cls-3" width="7.542" height="11.314" transform="matrix(0.707, 0.707, -0.707, 0.707, 34.667, 6)"/>
      <rect id="Rectángulo_716" data-name="Rectángulo 716" class="cls-3" width="7.542" height="11.314" transform="matrix(0.707, 0.707, -0.707, 0.707, 8, 20.666)"/>
      <rect id="Rectángulo_714" data-name="Rectángulo 714" class="cls-3" width="7.542" height="11.314" transform="translate(33.999 34.666) rotate(135)"/>
      <rect id="Rectángulo_718" data-name="Rectángulo 718" class="cls-3" width="7.542" height="11.314" transform="translate(19.334 8) rotate(135)"/>
      <path id="Trazado_1295" data-name="Trazado 1295" class="cls-4" d="M0,0,0,0,0,0,0,0Z" transform="translate(15.392 32.467) rotate(90)"/>
    </g>
    <g id="Grupo_502" data-name="Grupo 502" transform="translate(214.999 26)">
      <path id="Trazado_1254" data-name="Trazado 1254" class="cls-5" d="M4271.857,802.3l-4.458,11.624h1.915l1.117-3.141h4.458l1.188,3.141h1.9L4273.5,802.3Zm.8,2.405,1.649,4.479h-3.283Z" transform="translate(-4267.398 -802.114)"/>
      <path id="Trazado_1255" data-name="Trazado 1255" class="cls-5" d="M4338.4,801.924a5.322,5.322,0,0,0-4.132,1.679,6.4,6.4,0,0,0-1.516,4.454,6.047,6.047,0,0,0,1.488,4.228,5.143,5.143,0,0,0,3.973,1.639,5.231,5.231,0,0,0,4.046-1.663,6.421,6.421,0,0,0,1.508-4.478,6.067,6.067,0,0,0-1.473-4.227A5.027,5.027,0,0,0,4338.4,801.924Zm-.094,1.607a3.312,3.312,0,0,1,2.686,1.137,4.964,4.964,0,0,1,.981,3.295,4.738,4.738,0,0,1-1.01,3.229,3.5,3.5,0,0,1-2.75,1.133,3.274,3.274,0,0,1-2.642-1.189,5.462,5.462,0,0,1,.025-6.4A3.386,3.386,0,0,1,4338.31,803.53Z" transform="translate(-4300.359 -801.924)"/>
      <path id="Trazado_1256" data-name="Trazado 1256" class="cls-5" d="M4358.055,813.927h1.73v-4.962h4.048v-1.6h-4.048v-3.457h4.376V802.3h-6.107Z" transform="translate(-4313.115 -802.115)"/>
      <rect id="Rectángulo_687" data-name="Rectángulo 687" class="cls-5" width="1.732" height="11.624" transform="translate(53.284 0.188)"/>
      <path id="Trazado_1257" data-name="Trazado 1257" class="cls-5" d="M4388.49,803.23a4.284,4.284,0,0,0-2.925-.928h-3.289v11.624h1.732v-4.235h1.267a4.416,4.416,0,0,0,3.108-1.071,3.611,3.611,0,0,0,1.164-2.764A3.338,3.338,0,0,0,4388.49,803.23Zm-4.481.679h1.329c1.626,0,2.417.658,2.417,2.01a1.987,1.987,0,0,1-.642,1.6,2.9,2.9,0,0,1-1.938.57h-1.165Z" transform="translate(-4325.332 -802.114)"/>
      <path id="Trazado_1258" data-name="Trazado 1258" class="cls-5" d="M4405.141,801.924a5.326,5.326,0,0,0-4.132,1.679,6.4,6.4,0,0,0-1.516,4.454,6.049,6.049,0,0,0,1.49,4.228,5.137,5.137,0,0,0,3.97,1.639,5.232,5.232,0,0,0,4.048-1.663,6.424,6.424,0,0,0,1.508-4.478,6.069,6.069,0,0,0-1.473-4.227A5.029,5.029,0,0,0,4405.141,801.924Zm3.573,6.039a4.735,4.735,0,0,1-1.01,3.229,3.5,3.5,0,0,1-2.751,1.133,3.274,3.274,0,0,1-2.64-1.189,5.459,5.459,0,0,1,.025-6.4,3.387,3.387,0,0,1,2.711-1.2,3.308,3.308,0,0,1,2.684,1.137A4.96,4.96,0,0,1,4408.713,807.963Z" transform="translate(-4334.011 -801.924)"/>
      <g id="Grupo_496" data-name="Grupo 496" transform="translate(24.479)">
        <path id="Trazado_1269" data-name="Trazado 1269" class="cls-5" d="M4320.719,806.294a.234.234,0,0,1,.016-.034,1.487,1.487,0,0,1,.479-.459c.049-.029.1-.05.156-.075a1.808,1.808,0,0,0-.651.569c-.016.026-.024.058-.038.086" transform="translate(-4318.749 -803.841)"/>
        <path id="Trazado_1270" data-name="Trazado 1270" class="cls-5" d="M4318.952,804.2a1.143,1.143,0,0,0-.361.8v.006a1.4,1.4,0,0,0,.137.647,1.6,1.6,0,0,0,.421.5,4.484,4.484,0,0,0,.727.477q.446.241,1.028.528c.407.2.8.414,1.157.634a5.41,5.41,0,0,1,.983.756,3.437,3.437,0,0,1,.686.94,2.7,2.7,0,0,1,.26,1.2,3.029,3.029,0,0,1-.352,1.506,2.888,2.888,0,0,1-.943,1.006,4.063,4.063,0,0,1-1.339.549,7.192,7.192,0,0,1-1.561.165,6.458,6.458,0,0,1-.68-.045c-.264-.029-.538-.071-.814-.128a6.677,6.677,0,0,1-.795-.21,2.617,2.617,0,0,1-.634-.294l-.091-.062v-1.8h0a8.671,8.671,0,0,0,1.824.722,5.986,5.986,0,0,0,.663.155,4.392,4.392,0,0,0,.73.068,2.97,2.97,0,0,0,1.581-.349c.067-.035.1-.059.1-.059h0a1.474,1.474,0,0,0,.344-1.808,2.029,2.029,0,0,0-.5-.556,5.314,5.314,0,0,0-.8-.511q-.479-.253-1.032-.534c-.392-.2-.765-.4-1.107-.609a4.922,4.922,0,0,1-.922-.7,3.028,3.028,0,0,1-.634-.894,3.054,3.054,0,0,1,.131-2.617,3.11,3.11,0,0,1,.946-1,4.251,4.251,0,0,1,1.312-.576,5.94,5.94,0,0,1,1.479-.186,5.588,5.588,0,0,1,2.511.423l.112.059v1.71a6.477,6.477,0,0,0-3.128-.6,2.475,2.475,0,0,0-1.43.674Z" transform="translate(-4316.782 -801.924)"/>
      </g>
      <path id="Trazado_1271" data-name="Trazado 1271" class="cls-5" d="M4299.912,802.3l-3.777,8.275-3.778-8.275v0H4290.5v11.624h1.857V806.9l1.017,2.321,2.053,4.7h1.418l.1-.234,0,0,2.963-6.767v7h1.855V802.3Z" transform="translate(-4279.048 -802.115)"/>
    </g>
  </g>
</svg>
