<svg xmlns="http://www.w3.org/2000/svg" width="34" height="34" viewBox="0 0 34 34">
  <defs>
    <style>
      .cls-1 {
        fill: #fff;
      }

      .cls-2 {
        fill: #3b5998;
      }

      .cls-3, .cls-4 {
        stroke: none;
      }

      .cls-4 {
        fill: #fff;
      }
    </style>
  </defs>
  <g id="Grupo_3707" data-name="Grupo 3707" transform="translate(4782 5793)">
    <g id="Trazado_4996" data-name="Trazado 4996" class="cls-1" transform="translate(-4782 -5793)">
      <path class="cls-3" d="M 17 33.5 C 12.59269046783447 33.5 8.449179649353027 31.78370094299316 5.33273983001709 28.66725921630859 C 2.216300010681152 25.55081939697266 0.5 21.40731048583984 0.5 17 C 0.5 12.59269046783447 2.216300010681152 8.449179649353027 5.33273983001709 5.33273983001709 C 8.449179649353027 2.216300010681152 12.59269046783447 0.5 17 0.5 C 21.40731048583984 0.5 25.55081939697266 2.216300010681152 28.66725921630859 5.33273983001709 C 31.78370094299316 8.449179649353027 33.5 12.59269046783447 33.5 17 C 33.5 21.40731048583984 31.78370094299316 25.55081939697266 28.66725921630859 28.66725921630859 C 25.55081939697266 31.78370094299316 21.40731048583984 33.5 17 33.5 Z"/>
      <path class="cls-4" d="M 17 1 C 12.72624969482422 1 8.708290100097656 2.664289474487305 5.686290740966797 5.686290740966797 C 2.664289474487305 8.708290100097656 1 12.72624969482422 1 17 C 1 21.27375030517578 2.664289474487305 25.29170989990234 5.686290740966797 28.3137092590332 C 8.708290100097656 31.3357105255127 12.72624969482422 33 17 33 C 21.27375030517578 33 25.29170989990234 31.3357105255127 28.3137092590332 28.3137092590332 C 31.3357105255127 25.29170989990234 33 21.27375030517578 33 17 C 33 12.72624969482422 31.3357105255127 8.708290100097656 28.3137092590332 5.686290740966797 C 25.29170989990234 2.664289474487305 21.27375030517578 1 17 1 M 17 0 C 26.38883972167969 0 34 7.611160278320312 34 17 C 34 26.38883972167969 26.38883972167969 34 17 34 C 7.611160278320312 34 0 26.38883972167969 0 17 C 0 7.611160278320312 7.611160278320312 0 17 0 Z"/>
    </g>
    <path id="_001-facebook" data-name="001-facebook" class="cls-2" d="M32,16A16,16,0,1,0,16,32c.094,0,.188,0,.281-.006V19.544H12.844V15.538h3.438v-2.95c0-3.419,2.087-5.281,5.138-5.281a27.924,27.924,0,0,1,3.081.156v3.575H22.4c-1.656,0-1.981.788-1.981,1.944v2.55h3.969l-.519,4.006h-3.45V31.381A16,16,0,0,0,32,16Z" transform="translate(-4781 -5792)"/>
  </g>
</svg>
