<svg id="Grupo_3382" data-name="Grupo 3382" xmlns="http://www.w3.org/2000/svg" width="40" height="45.771" viewBox="0 0 40 45.771">
  <defs>
    <style>
      .cls-1 {
        fill: #195852;
      }
    </style>
  </defs>
  <path id="Trazado_2880" data-name="Trazado 2880" class="cls-1" d="M169.664,185.855v3.073a1.133,1.133,0,0,0,1.141,1.122h7.327a1.133,1.133,0,0,0,1.141-1.122v-3.073a3.333,3.333,0,0,0-2.317-3.153,3.1,3.1,0,0,0,.712-1.975,3.2,3.2,0,0,0-6.4,0,3.1,3.1,0,0,0,.712,1.975A3.334,3.334,0,0,0,169.664,185.855Zm4.8-6.933a1.806,1.806,0,1,1-1.837,1.805A1.823,1.823,0,0,1,174.468,178.922Zm-3.442,6.933a2,2,0,0,1,2.017-1.982h2.85a2,2,0,0,1,2.016,1.982v2.855H177.2V185.76a.682.682,0,0,0-1.363,0v2.949H173.1V185.76a.681.681,0,0,0-1.363,0v2.949h-.712Zm0,0" transform="translate(-154.469 -161.34)"/>
  <path id="Trazado_2882" data-name="Trazado 2882" class="cls-1" d="M.5,102.909v2.075a1.133,1.133,0,0,0,1.141,1.122H8.968a1.133,1.133,0,0,0,1.141-1.122v-2.075a3.333,3.333,0,0,0-2.317-3.153A3.1,3.1,0,0,0,8.5,97.782a3.2,3.2,0,0,0-6.4,0,3.1,3.1,0,0,0,.712,1.975A3.333,3.333,0,0,0,.5,102.909Zm4.8-6.933a1.806,1.806,0,1,1-1.837,1.806A1.823,1.823,0,0,1,5.3,95.976Zm-3.442,6.933a2,2,0,0,1,2.017-1.982H6.73a2,2,0,0,1,2.017,1.982v1.857H8.035v-1.953a.682.682,0,0,0-1.363,0v1.953H3.937v-1.953a.682.682,0,0,0-1.363,0v1.953H1.863Zm0,0" transform="translate(-0.5 -85.718)"/>
  <path id="Trazado_2883" data-name="Trazado 2883" class="cls-1" d="M338.828,281.508a1.133,1.133,0,0,0,1.141,1.122H347.3a1.133,1.133,0,0,0,1.141-1.122v-2.075a3.333,3.333,0,0,0-2.316-3.153,3.1,3.1,0,0,0,.712-1.975,3.2,3.2,0,0,0-6.4,0,3.1,3.1,0,0,0,.712,1.975,3.333,3.333,0,0,0-2.317,3.153Zm4.8-9.008A1.806,1.806,0,1,1,341.8,274.3,1.823,1.823,0,0,1,343.633,272.5Zm-3.442,6.933a2,2,0,0,1,2.017-1.982h2.85a2,2,0,0,1,2.017,1.982v1.857h-.711v-1.953a.682.682,0,0,0-1.363,0v1.953h-2.735v-1.953a.682.682,0,0,0-1.363,0v1.953h-.712v-1.857Zm0,0" transform="translate(-308.438 -246.655)"/>
  <path id="Trazado_2884" data-name="Trazado 2884" class="cls-1" d="M.5,281.508a1.133,1.133,0,0,0,1.141,1.122H8.968a1.133,1.133,0,0,0,1.141-1.122v-2.075a3.333,3.333,0,0,0-2.317-3.153A3.1,3.1,0,0,0,8.5,274.3a3.2,3.2,0,0,0-6.4,0,3.1,3.1,0,0,0,.712,1.975A3.333,3.333,0,0,0,.5,279.432ZM5.3,272.5A1.806,1.806,0,1,1,3.468,274.3,1.823,1.823,0,0,1,5.3,272.5Zm-3.442,6.933A2,2,0,0,1,3.88,277.45H6.73a2,2,0,0,1,2.017,1.982v1.857H8.035v-1.953a.682.682,0,0,0-1.363,0v1.953H3.937v-1.953a.682.682,0,0,0-1.363,0v1.953H1.863Zm0,0" transform="translate(-0.5 -246.655)"/>
  <path id="Trazado_2886" data-name="Trazado 2886" class="cls-1" d="M169.664,390.371v2.075a1.133,1.133,0,0,0,1.141,1.122h7.327a1.133,1.133,0,0,0,1.141-1.122v-2.075a3.334,3.334,0,0,0-2.317-3.153,3.1,3.1,0,0,0,.712-1.975,3.2,3.2,0,0,0-6.4,0,3.1,3.1,0,0,0,.712,1.975A3.334,3.334,0,0,0,169.664,390.371Zm4.8-6.933a1.806,1.806,0,1,1-1.837,1.806A1.824,1.824,0,0,1,174.468,383.437Zm-3.442,6.933a2,2,0,0,1,2.017-1.983h2.85a2,2,0,0,1,2.016,1.983v1.857H177.2v-1.952a.682.682,0,0,0-1.363,0v1.952H173.1v-1.952a.681.681,0,0,0-1.363,0v1.952h-.712Zm0,0" transform="translate(-154.469 -347.797)"/>
  <path id="Trazado_2881" data-name="Trazado 2881" class="cls-1" d="M338.828,102.909v2.075a1.133,1.133,0,0,0,1.141,1.122H347.3a1.133,1.133,0,0,0,1.141-1.122v-2.075a3.333,3.333,0,0,0-2.316-3.153,3.1,3.1,0,0,0,.712-1.975,3.2,3.2,0,0,0-6.4,0,3.1,3.1,0,0,0,.712,1.975A3.333,3.333,0,0,0,338.828,102.909Zm4.8-6.933a1.806,1.806,0,1,1-1.837,1.806A1.823,1.823,0,0,1,343.633,95.976Zm-3.442,6.933a2,2,0,0,1,2.017-1.982h2.85a2,2,0,0,1,2.017,1.982v1.857h-.711v-1.953a.682.682,0,0,0-1.363,0v1.953h-2.735v-1.953a.682.682,0,0,0-1.363,0v1.953h-.712v-1.857Zm0,0" transform="translate(-308.438 -85.718)"/>
  <path id="Trazado_2885" data-name="Trazado 2885" class="cls-1" d="M113.888,144.518a.688.688,0,0,0,.931.245l1.233-.7a9.2,9.2,0,0,0,6.886,3.911v1.4a.682.682,0,0,0,1.363,0v-1.4a9.2,9.2,0,0,0,6.889-3.908l1.23.7a.688.688,0,0,0,.931-.245.664.664,0,0,0-.249-.915l-1.228-.7a8.869,8.869,0,0,0,.745-2.223.67.67,0,0,0-.542-.783.681.681,0,0,0-.8.533,7.691,7.691,0,1,1-.917-5.289l.009.018.007.01a7.533,7.533,0,0,1,.9,2.384.68.68,0,0,0,.8.533.67.67,0,0,0,.542-.783,8.856,8.856,0,0,0-.745-2.223l1.228-.7a.664.664,0,0,0,.249-.915.688.688,0,0,0-.931-.245l-1.23.7a9.2,9.2,0,0,0-6.889-3.908v-1.4a.682.682,0,0,0-1.363,0v1.4a9.2,9.2,0,0,0-6.886,3.912l-1.233-.7a.688.688,0,0,0-.931.245.664.664,0,0,0,.249.915l1.231.7a8.855,8.855,0,0,0,0,7.819l-1.231.7a.663.663,0,0,0-.249.915Zm0,0" transform="translate(-103.619 -116.089)"/>
  <path id="Trazado_2887" data-name="Trazado 2887" class="cls-1" d="M338.828,102.909v2.075a1.133,1.133,0,0,0,1.141,1.122H347.3a1.133,1.133,0,0,0,1.141-1.122v-2.075a3.333,3.333,0,0,0-2.316-3.153,3.1,3.1,0,0,0,.712-1.975,3.2,3.2,0,0,0-6.4,0,3.1,3.1,0,0,0,.712,1.975A3.333,3.333,0,0,0,338.828,102.909Zm4.8-6.933a1.806,1.806,0,1,1-1.837,1.806A1.823,1.823,0,0,1,343.633,95.976Zm-3.442,6.933a2,2,0,0,1,2.017-1.982h2.85a2,2,0,0,1,2.017,1.982v1.857h-.711v-1.953a.682.682,0,0,0-1.363,0v1.953h-2.735v-1.953a.682.682,0,0,0-1.363,0v1.953h-.712v-1.857Zm0,0" transform="translate(-323.617 -94.637)"/>
</svg>
