<svg xmlns="http://www.w3.org/2000/svg" width="24" height="24" viewBox="0 0 24 24">
  <defs>
    <style>
      .cls-1 {
        fill: #fff;
      }
    </style>
  </defs>
  <path id="icon-foo-youtube" class="cls-1" d="M10.007,11.363l5.1,2.9-5.1,2.9ZM24,4.821V23.679a2.572,2.572,0,0,1-2.571,2.571H2.571A2.572,2.572,0,0,1,0,23.679V4.821A2.572,2.572,0,0,1,2.571,2.25H21.429A2.572,2.572,0,0,1,24,4.821Zm-2.25,9.445a25.742,25.742,0,0,0-.407-4.725,2.445,2.445,0,0,0-1.725-1.736C18.1,7.393,12,7.393,12,7.393s-6.1,0-7.618.413A2.445,2.445,0,0,0,2.657,9.541a25.71,25.71,0,0,0-.407,4.725,25.742,25.742,0,0,0,.407,4.725A2.41,2.41,0,0,0,4.382,20.7c1.516.407,7.618.407,7.618.407s6.1,0,7.618-.413a2.41,2.41,0,0,0,1.725-1.709,25.663,25.663,0,0,0,.407-4.72Z" transform="translate(0 -2.25)"/>
</svg>
