<svg xmlns="http://www.w3.org/2000/svg" width="80" height="56.25" viewBox="0 0 80 56.25">
  <path id="Icon_awesome-youtube" data-name="Icon awesome-youtube" d="M79.378,13.3a10.052,10.052,0,0,0-7.073-7.119C66.067,4.5,41.05,4.5,41.05,4.5S16.033,4.5,9.794,6.183A10.052,10.052,0,0,0,2.722,13.3C1.05,19.581,1.05,32.682,1.05,32.682s0,13.1,1.672,19.381a9.9,9.9,0,0,0,7.073,7.005C16.033,60.75,41.05,60.75,41.05,60.75s25.017,0,31.255-1.683a9.9,9.9,0,0,0,7.073-7.005c1.672-6.279,1.672-19.381,1.672-19.381s0-13.1-1.672-19.381ZM32.868,44.577V20.787l20.909,11.9L32.868,44.577Z" transform="translate(-1.05 -4.5)" fill="#ffcc00"/>
</svg>
