<svg xmlns="http://www.w3.org/2000/svg" width="79" height="56.497" viewBox="0 0 79 56.497">
  <defs>
    <style>
      .cls-1 {
        fill: none;
        stroke: #fff;
        stroke-linecap: round;
        stroke-miterlimit: 10;
        stroke-width: 4px;
      }
    </style>
  </defs>
  <g id="Grupo_711" data-name="Grupo 711" transform="translate(2 2)">
    <path id="Trazado_1760" data-name="Trazado 1760" class="cls-1" d="M4688.137,1678.188c4.509,0,7.5-3.837,7.5-8.571v-2.858c0-4.734-2.991-8.571-7.5-8.571s-7.5,3.837-7.5,8.571v2.858C4680.637,1674.351,4683.627,1678.188,4688.137,1678.188Z" transform="translate(-4650.637 -1658.188)"/>
    <path id="Trazado_1761" data-name="Trazado 1761" class="cls-1" d="M4704.218,1681.4c4.509,0,7.5-3.837,7.5-8.571v-2.858c0-4.734-2.991-8.571-7.5-8.571s-7.5,3.837-7.5,8.571v2.858C4696.718,1677.567,4699.708,1681.4,4704.218,1681.4Z" transform="translate(-4641.718 -1656.404)"/>
    <path id="Trazado_1762" data-name="Trazado 1762" class="cls-1" d="M4672.058,1681.4c4.509,0,7.5-3.837,7.5-8.571v-2.858c0-4.734-2.989-8.571-7.5-8.571s-7.5,3.837-7.5,8.571v2.858C4664.558,1677.567,4667.548,1681.4,4672.058,1681.4Z" transform="translate(-4659.558 -1656.404)"/>
    <path id="Trazado_1763" data-name="Trazado 1763" class="cls-1" d="M4705.813,1700.874v-17.5c0-6.194-9.79-7.5-15-7.5s-15,1.305-15,7.5v15" transform="translate(-4653.314 -1648.377)"/>
    <path id="Trazado_1764" data-name="Trazado 1764" class="cls-1" d="M4695.11,1679.939a33,33,0,0,1,7.5-.847c5.21,0,15,1.306,15,7.5v10" transform="translate(-4642.61 -1646.593)"/>
    <path id="Trazado_1765" data-name="Trazado 1765" class="cls-1" d="M4661.341,1696.59v-10c0-6.192,9.791-7.5,15-7.5a32.976,32.976,0,0,1,7.5.847" transform="translate(-4661.341 -1646.593)"/>
  </g>
</svg>
