<svg id="icon-numero-sucursales" xmlns="http://www.w3.org/2000/svg" width="26.572" height="24" viewBox="0 0 26.572 24">
  <defs>
    <style>
      .cls-1 {
        fill: #fff;
      }
    </style>
  </defs>
  <g id="Grupo_2233" data-name="Grupo 2233">
    <path id="Trazado_3418" data-name="Trazado 3418" class="cls-1" d="M26.571,33V30.857H22.286V29.571h.857V27.429h-3V26.143H21V24H5.571v2.143h.857v1.286h-3v2.143h.857v1.286H0V33H.857V47.143H0V48H26.571v-.857h-.857V33Zm-.857-1.286v.429H22.286v-.429Zm-3.429-3.429v.429H20.143v-.429ZM6.429,24.857H20.143v.429H6.429Zm.857,1.286h12V39.429h-12V26.143Zm-3,2.143H6.429v.429H4.286ZM.857,31.714H4.286v.429H.857ZM1.714,33H4.286V47.143H1.714ZM5.143,47.143V29.571H6.429V47.143Zm12.429,0H13.714V42h3.857Zm-4.714,0H9V42h3.857Zm5.571,0v-6H8.143v6H7.286V40.286h12v6.857Zm1.714-17.571h1.286V47.143H20.143Zm4.714,17.571H22.286V33h2.571Z" transform="translate(0 -24)"/>
    <rect id="Rectángulo_2858" data-name="Rectángulo 2858" class="cls-1" width="6.857" height="0.857" transform="translate(9.857 6.429)"/>
    <rect id="Rectángulo_2859" data-name="Rectángulo 2859" class="cls-1" width="0.857" height="0.857" transform="translate(15.857 8.143)"/>
    <rect id="Rectángulo_2860" data-name="Rectángulo 2860" class="cls-1" width="5.143" height="0.857" transform="translate(9.857 8.143)"/>
    <rect id="Rectángulo_2861" data-name="Rectángulo 2861" class="cls-1" width="0.857" height="2.143" transform="translate(11.571 19.286)"/>
    <rect id="Rectángulo_2862" data-name="Rectángulo 2862" class="cls-1" width="0.857" height="2.143" transform="translate(14.143 19.286)"/>
  </g>
</svg>
