<svg id="money" xmlns="http://www.w3.org/2000/svg" width="79.615" height="79.615" viewBox="0 0 79.615 79.615">
  <defs>
    <style>
      .cls-1 {
        fill: #fff;
      }
    </style>
  </defs>
  <g id="Grupo_2206" data-name="Grupo 2206" transform="translate(0)">
    <g id="Grupo_2205" data-name="Grupo 2205">
      <path id="Trazado_3414" data-name="Trazado 3414" class="cls-1" d="M66.864,44.6v-5.67c3.725-2.448,4.665-5.053,4.665-7.055v-9.33c0-1.861-.846-4.523-4.665-7.045V13.217c0-2.812-1.851-6.811-10.671-9.9C50.078,1.179,41.995,0,33.432,0S16.786,1.179,10.671,3.319C1.851,6.406,0,10.406,0,13.217v9.33a7.053,7.053,0,0,0,1.878,4.675A7.083,7.083,0,0,0,0,31.877v27.99c0,2.812,1.851,6.811,10.671,9.9,6.115,2.14,14.2,3.319,22.761,3.319A85.023,85.023,0,0,0,47.107,72.01,17.879,17.879,0,1,0,66.864,44.6Zm0-22.055v9.33c0,1.316-1.977,3.546-7.547,5.5C53.685,39.344,46.148,40.43,38.1,40.43s-15.588-1.086-21.22-3.057c-5.471-1.915-7.474-4.1-7.544-5.423q.641.251,1.338.5c6.115,2.14,14.2,3.319,22.761,3.319s16.646-1.179,22.761-3.319C65.013,29.359,66.864,25.359,66.864,22.547ZM12.212,7.722c5.633-1.971,13.169-3.057,21.22-3.057S49.02,5.751,54.652,7.722c5.57,1.95,7.547,4.179,7.547,5.5s-1.977,3.546-7.547,5.5c-5.633,1.971-13.169,3.057-21.22,3.057s-15.588-1.086-21.22-3.057c-5.57-1.95-7.547-4.179-7.547-5.5S6.641,9.672,12.212,7.722ZM4.665,20.273a27.412,27.412,0,0,0,6.006,2.843c6.115,2.14,14.2,3.319,22.761,3.319s16.646-1.179,22.761-3.319A27.408,27.408,0,0,0,62.2,20.273v2.275c0,1.316-1.977,3.546-7.547,5.5C49.02,30.014,41.484,31.1,33.432,31.1s-15.588-1.086-21.22-3.057c-5.57-1.95-7.547-4.179-7.547-5.5ZM33.432,68.419c-8.051,0-15.588-1.086-21.22-3.057-5.57-1.95-7.547-4.179-7.547-5.5V57.592a27.412,27.412,0,0,0,6.006,2.843c6.115,2.14,14.2,3.319,22.761,3.319a86.93,86.93,0,0,0,10.473-.618,17.753,17.753,0,0,0,.948,4.5A81.793,81.793,0,0,1,33.432,68.419ZM44.163,58.4a81.525,81.525,0,0,1-10.731.687c-8.051,0-15.588-1.086-21.22-3.057-5.57-1.95-7.547-4.179-7.547-5.5V48.262a27.412,27.412,0,0,0,6.006,2.843c6.115,2.14,14.2,3.319,22.761,3.319a85.593,85.593,0,0,0,12.4-.875A17.75,17.75,0,0,0,44.163,58.4ZM33.432,49.759c-8.051,0-15.588-1.086-21.22-3.057-5.57-1.95-7.547-4.179-7.547-5.5v-9.33c0,2.812,1.851,6.811,10.671,9.9,6.115,2.14,14.2,3.319,22.761,3.319s16.646-1.179,22.761-3.319q.7-.244,1.337-.5c-.039.794-.715,1.714-1.93,2.631a17.8,17.8,0,0,0-9.9,4.031A74.388,74.388,0,0,1,33.432,49.759Zm28.3,25.191A13.217,13.217,0,1,1,74.95,61.733,13.232,13.232,0,0,1,61.733,74.95Z" transform="translate(0 0)"/>
    </g>
  </g>
  <g id="Grupo_2208" data-name="Grupo 2208" transform="translate(51.998 54.758)">
    <g id="Grupo_2207" data-name="Grupo 2207">
      <path id="Trazado_3415" data-name="Trazado 3415" class="cls-1" d="M350.566,352.143l-9,9-3.871-3.871-3.3,3.3,7.169,7.169,12.3-12.3Z" transform="translate(-334.394 -352.143)"/>
    </g>
  </g>
</svg>
