<svg xmlns="http://www.w3.org/2000/svg" width="49.999" height="38" viewBox="0 0 49.999 38">
  <defs>
    <style>
      .cls-1 {
        fill: none;
        stroke: #FFFFFF;
        stroke-linecap: round;
        stroke-miterlimit: 10;
        stroke-width: 2px;
      }
    </style>
  </defs>
  <g id="icon-indicadores-numero-de-clientes" transform="translate(11987 2682)">
    <g id="Grupo_3600" data-name="Grupo 3600" transform="translate(-1735.5 -4123.167)">
      <path id="Trazado_1760" data-name="Trazado 1760" class="cls-1" d="M4685.438,1671.9c2.886,0,4.8-2.631,4.8-5.878v-1.96c0-3.246-1.914-5.878-4.8-5.878s-4.8,2.631-4.8,5.878v1.96C4680.637,1669.271,4682.551,1671.9,4685.438,1671.9Z" transform="translate(-14911.938 -216.021)"/>
      <path id="Trazado_1761" data-name="Trazado 1761" class="cls-1" d="M4701.518,1675.119c2.885,0,4.8-2.631,4.8-5.878v-1.96c0-3.246-1.915-5.877-4.8-5.877s-4.8,2.631-4.8,5.877v1.96C4696.718,1672.488,4698.631,1675.119,4701.518,1675.119Z" transform="translate(-14912.018 -215.809)"/>
      <path id="Trazado_1762" data-name="Trazado 1762" class="cls-1" d="M4669.358,1675.119c2.886,0,4.8-2.631,4.8-5.878v-1.96c0-3.246-1.913-5.877-4.8-5.877s-4.8,2.631-4.8,5.877v1.96C4664.558,1672.488,4666.471,1675.119,4669.358,1675.119Z" transform="translate(-14911.857 -215.809)"/>
      <path id="Trazado_1763" data-name="Trazado 1763" class="cls-1" d="M4695.014,1693.018v-12c0-4.248-6.266-5.143-9.6-5.143s-9.6.9-9.6,5.143V1691.3" transform="translate(-14911.914 -214.851)"/>
      <path id="Trazado_1764" data-name="Trazado 1764" class="cls-1" d="M4695.111,1679.673a19.764,19.764,0,0,1,4.8-.581c3.334,0,9.6.9,9.6,5.142v6.858" transform="translate(-14912.011 -214.639)"/>
      <path id="Trazado_1765" data-name="Trazado 1765" class="cls-1" d="M4661.342,1691.092v-6.858c0-4.246,6.266-5.142,9.6-5.142a19.751,19.751,0,0,1,4.8.581" transform="translate(-14911.842 -214.639)"/>
    </g>
  </g>
</svg>
