<svg xmlns="http://www.w3.org/2000/svg" width="24" height="24" viewBox="0 0 24 24">
  <defs>
    <style>
      .cls-1 {
        fill: #fff;
      }
    </style>
  </defs>
  <path id="icon-foo-linkedin" class="cls-1" d="M26.581,4.5H6.551A1.958,1.958,0,0,0,4.5,6.369V26.443A2.112,2.112,0,0,0,6.551,28.5H26.574A2,2,0,0,0,28.5,26.443V6.369A1.84,1.84,0,0,0,26.581,4.5ZM11.939,24.505H8.5V13.815h3.438Zm-1.6-12.316h-.025A1.765,1.765,0,0,1,8.5,10.345,1.776,1.776,0,0,1,10.358,8.5,1.771,1.771,0,0,1,12.2,10.345,1.775,1.775,0,0,1,10.339,12.189ZM24.505,24.505H21.067V18.66c0-1.4-.5-2.357-1.744-2.357a1.881,1.881,0,0,0-1.763,1.269,2.315,2.315,0,0,0-.119.844v6.089H14V13.815h3.438V15.3a3.48,3.48,0,0,1,3.1-1.738c2.257,0,3.964,1.488,3.964,4.695v6.245Z" transform="translate(-4.5 -4.5)"/>
</svg>
