<svg id="icon-give-money-alt" xmlns="http://www.w3.org/2000/svg" width="38.963" height="32" viewBox="0 0 38.963 32">
  <defs>
    <style>
      .cls-1 {
        fill: #fff;
      }
    </style>
  </defs>
  <g id="Grupo_2210" data-name="Grupo 2210" transform="translate(0 15.022)">
    <g id="Grupo_2209" data-name="Grupo 2209">
      <path id="Trazado_3416" data-name="Trazado 3416" class="cls-1" d="M36.035,245.005a2.872,2.872,0,0,0-1.179.263,2.89,2.89,0,0,0-3.615-.808l-.04.022-1.2.71a2.887,2.887,0,0,0-3.553-.732l-.048.027-4.58,2.805c-1.034-.306-2.183-.641-3.292-.956-1.171-.332-2.3-.641-3.2-.869-.452-.114-.847-.208-1.17-.274-.162-.034-.306-.06-.433-.08a2.413,2.413,0,0,0-.359-.033,2.206,2.206,0,0,0-.268.02c-.337.044-.817.147-1.383.28-1.156.272-2.632.667-3.447.889v-1.38a1.746,1.746,0,0,0-1.741-1.741H1.741A1.747,1.747,0,0,0,0,244.891v13.5a1.746,1.746,0,0,0,1.741,1.741H6.53a1.746,1.746,0,0,0,1.741-1.741v-1.048c1.033.225,3.327.72,5.745,1.217,1.636.336,3.326.672,4.722.925.7.127,1.323.232,1.834.307a9.478,9.478,0,0,0,1.193.122,2.542,2.542,0,0,0,.677-.108,9.371,9.371,0,0,0,1.494-.6,74.823,74.823,0,0,0,7.461-4.536c2.662-1.777,5.151-3.531,6.371-4.371a2.84,2.84,0,0,0,1.193-2.357A2.929,2.929,0,0,0,36.035,245.005Zm-29.07,13.38a.441.441,0,0,1-.435.435H1.741a.441.441,0,0,1-.435-.435V244.891a.441.441,0,0,1,.435-.435H6.53a.441.441,0,0,1,.435.435Zm30.064-9.171c-1.5,1.033-4.857,3.4-8.106,5.514-1.623,1.054-3.22,2.043-4.529,2.76a18.514,18.514,0,0,1-1.7.842,5.4,5.4,0,0,1-.6.214,1.374,1.374,0,0,1-.326.06,8.717,8.717,0,0,1-1-.108c-1.715-.251-4.926-.892-7.69-1.469-1.383-.289-2.658-.561-3.586-.761L8.272,256v-8.376l.5-.135c.688-.187,1.739-.467,2.681-.7.471-.116.915-.22,1.268-.293.176-.037.33-.066.448-.084a1.8,1.8,0,0,1,.207-.025,1.579,1.579,0,0,1,.164.018c.36.054,1.1.227,2,.462,2.712.708,6.987,1.989,8.715,2.513a3.9,3.9,0,0,1,1.494.781,1.736,1.736,0,0,1,.4.531,1.49,1.49,0,0,1,.142.651,1.847,1.847,0,0,1-1.833,1.847l-1.685-.165-5.751-.738a.653.653,0,1,0-.167,1.3l5.77.74,1.786.175h.032a3.155,3.155,0,0,0,3.154-3.154,2.8,2.8,0,0,0-.268-1.211,3.279,3.279,0,0,0-1.147-1.285,5.71,5.71,0,0,0-1.55-.716l-1.121-.339,3.544-2.171a1.575,1.575,0,0,1,1.806.25l-1.751,1.038a.653.653,0,0,0,.667,1.123l4.064-2.41a1.577,1.577,0,0,1,1.867.306l-4.732,2.807a.653.653,0,1,0,.667,1.123l5.117-3.035a.622.622,0,0,0,.4-.24l.16-.095a1.6,1.6,0,0,1,.717-.179,1.622,1.622,0,0,1,1.621,1.622A1.547,1.547,0,0,1,37.029,249.214Z" transform="translate(0 -243.149)"/>
    </g>
  </g>
  <g id="Grupo_2212" data-name="Grupo 2212" transform="translate(16.76)">
    <g id="Grupo_2211" data-name="Grupo 2211">
      <path id="Trazado_3417" data-name="Trazado 3417" class="cls-1" d="M227.079,53.178a5.813,5.813,0,0,0-1.9-.838c-.09-.025-.178-.046-.267-.069V48.285a3.028,3.028,0,0,1,1.421.539,1.617,1.617,0,0,1,.48.583,1.709,1.709,0,0,1,.159.743.653.653,0,0,0,1.306,0,3.014,3.014,0,0,0-.286-1.306,3.087,3.087,0,0,0-1.473-1.433,4.987,4.987,0,0,0-1.606-.44V46.4a.653.653,0,1,0-1.306,0v.538a4.556,4.556,0,0,0-1.274.273A3.225,3.225,0,0,0,220.72,48.5a3.119,3.119,0,0,0-.477,1.65,2.622,2.622,0,0,0,1.23,2.322,6.379,6.379,0,0,0,1.878.749l.258.065v4.288a2.668,2.668,0,0,1-1.449-.552,1.7,1.7,0,0,1-.611-1.345.653.653,0,1,0-1.306,0,3.015,3.015,0,0,0,1.073,2.342,4,4,0,0,0,2.293.873v.567a.653.653,0,1,0,1.306,0v-.591a4.682,4.682,0,0,0,2.02-.622,2.782,2.782,0,0,0,.989-1.04,3.474,3.474,0,0,0-.013-3.094A2.894,2.894,0,0,0,227.079,53.178Zm-3.471-1.242a4.6,4.6,0,0,1-1.518-.626,1.3,1.3,0,0,1-.394-.454,1.529,1.529,0,0,1-.147-.706,1.8,1.8,0,0,1,.508-1.248,2.026,2.026,0,0,1,.743-.474,3.215,3.215,0,0,1,.809-.18v3.688Zm3.166,4.65a1.421,1.421,0,0,1-.366.435,2.468,2.468,0,0,1-.953.436,4.645,4.645,0,0,1-.54.1V53.623a5.526,5.526,0,0,1,1.061.4,1.906,1.906,0,0,1,.73.618,1.809,1.809,0,0,1,.268,1.034A1.884,1.884,0,0,1,226.774,56.586Z" transform="translate(-220.242 -45.744)"/>
    </g>
  </g>
</svg>
