<svg xmlns="http://www.w3.org/2000/svg" width="34" height="40" viewBox="0 0 34 40">
  <defs>
    <style>
      .cls-1 {
        fill: #195852;
      }
    </style>
  </defs>
  <g id="icon-download" transform="translate(-38.4)">
    <g id="Grupo_2" data-name="Grupo 2" transform="translate(59.067 24.667)">
      <g id="Grupo_1" data-name="Grupo 1">
        <path id="Trazado_1" data-name="Trazado 1" class="cls-1" d="M309.4,322.6a.666.666,0,0,0-.943,0l-1.529,1.529V316.4a.667.667,0,0,0-1.333,0v7.724L304.07,322.6a.667.667,0,1,0-.943.943l2.667,2.667a.666.666,0,0,0,.943,0l2.667-2.667A.666.666,0,0,0,309.4,322.6Z" transform="translate(-302.932 -315.734)"/>
      </g>
    </g>
    <g id="Grupo_4" data-name="Grupo 4" transform="translate(52.4 20)">
      <g id="Grupo_3" data-name="Grupo 3">
        <path id="Trazado_2" data-name="Trazado 2" class="cls-1" d="M227.6,256a10,10,0,1,0,10,10A10.011,10.011,0,0,0,227.6,256Zm0,18.667A8.667,8.667,0,1,1,236.267,266,8.677,8.677,0,0,1,227.6,274.667Z" transform="translate(-217.6 -256)"/>
      </g>
    </g>
    <g id="Grupo_6" data-name="Grupo 6" transform="translate(38.4 31.333)">
      <g id="Grupo_5" data-name="Grupo 5">
        <path id="Trazado_3" data-name="Trazado 3" class="cls-1" d="M53.068,406.4H39.734v-4.667a.667.667,0,0,0-1.333,0v5.333a.667.667,0,0,0,.667.667h14a.667.667,0,0,0,0-1.333Z" transform="translate(-38.401 -401.067)"/>
      </g>
    </g>
    <g id="Grupo_8" data-name="Grupo 8" transform="translate(38.4 28.667)">
      <g id="Grupo_7" data-name="Grupo 7">
        <path id="Trazado_4" data-name="Trazado 4" class="cls-1" d="M39.067,366.933a.667.667,0,0,0,0,1.333h.007a.667.667,0,0,0-.007-1.333Z" transform="translate(-38.4 -366.933)"/>
      </g>
    </g>
    <g id="Grupo_10" data-name="Grupo 10" transform="translate(38.4)">
      <g id="Grupo_9" data-name="Grupo 9">
        <path id="Trazado_5" data-name="Trazado 5" class="cls-1" d="M66.2,10.862,55.538.2a.665.665,0,0,0-.471-.2h-16A.667.667,0,0,0,38.4.667v26a.667.667,0,0,0,1.333,0V1.333H54.4v10a.667.667,0,0,0,.667.667h10v6A.667.667,0,1,0,66.4,18V11.333A.664.664,0,0,0,66.2,10.862Zm-10.471-.2V2.276l8.391,8.391H55.733Z" transform="translate(-38.4)"/>
      </g>
    </g>
  </g>
</svg>
