<svg xmlns="http://www.w3.org/2000/svg" width="96" height="87" viewBox="0 0 96 87">
  <defs>
    <style>
      .cls-1 {
        fill: #fff;
      }
    </style>
  </defs>
  <path id="icon-porfolio-alt" class="cls-1" d="M91.2,14.5H70.4V8.056A8.037,8.037,0,0,0,62.4,0H33.6a8.037,8.037,0,0,0-8,8.056V14.5H4.8A4.817,4.817,0,0,0,0,19.333V55.2a4.852,4.852,0,0,0,3.2,4.549V82.167A4.817,4.817,0,0,0,8,87H88a4.817,4.817,0,0,0,4.8-4.833V59.746A4.854,4.854,0,0,0,96,55.2V19.333A4.817,4.817,0,0,0,91.2,14.5ZM28.8,8.056a4.817,4.817,0,0,1,4.8-4.833H62.4a4.817,4.817,0,0,1,4.8,4.833V14.5H64V8.056a1.606,1.606,0,0,0-1.6-1.611H33.6A1.606,1.606,0,0,0,32,8.056V14.5H28.8Zm32,6.444H35.2V9.667H60.8ZM89.6,82.167A1.606,1.606,0,0,1,88,83.778H8a1.606,1.606,0,0,1-1.6-1.611V60.3l35.2,4.888v4.091a4.817,4.817,0,0,0,4.8,4.833h3.2a4.817,4.817,0,0,0,4.8-4.833V65.187L89.6,60.3ZM51.2,69.278a1.606,1.606,0,0,1-1.6,1.611H46.4a1.606,1.606,0,0,1-1.6-1.611V59.611A1.606,1.606,0,0,1,46.4,58h3.2a1.606,1.606,0,0,1,1.6,1.611ZM92.8,55.2a1.608,1.608,0,0,1-1.376,1.6l-.444.061L54.4,61.934V59.611a4.817,4.817,0,0,0-4.8-4.833H46.4a4.817,4.817,0,0,0-4.8,4.833v2.323L4.577,56.793A1.608,1.608,0,0,1,3.2,55.2V19.333a1.606,1.606,0,0,1,1.6-1.611H91.2a1.606,1.606,0,0,1,1.6,1.611Zm0,0"/>
</svg>
