<svg xmlns="http://www.w3.org/2000/svg" width="17.958" height="24" viewBox="0 0 17.958 24">
  <defs>
    <style>
      .cls-1 {
        fill: #fff;
      }
    </style>
  </defs>
  <g id="icon-municipios-atendidos" transform="translate(0)">
    <g id="Grupo_695" data-name="Grupo 695">
      <path id="Trazado_1737" data-name="Trazado 1737" class="cls-1" d="M4679.37,1846.807a.442.442,0,0,1-.321-.138c-.353-.373-8.659-9.208-8.659-14.883a8.979,8.979,0,1,1,17.958,0c0,5.675-8.3,14.51-8.658,14.883A.44.44,0,0,1,4679.37,1846.807Zm0-23.117a8.106,8.106,0,0,0-8.1,8.1c0,4.723,6.557,12.229,8.1,13.928,1.54-1.7,8.1-9.2,8.1-13.928A8.105,8.105,0,0,0,4679.37,1823.69Z" transform="translate(-4670.391 -1822.807)"/>
      <path id="Trazado_1738" data-name="Trazado 1738" class="cls-1" d="M4682.063,1839.5a5.046,5.046,0,1,1,5.046-5.047A5.052,5.052,0,0,1,4682.063,1839.5Zm0-9.21a4.163,4.163,0,1,0,4.164,4.163A4.168,4.168,0,0,0,4682.063,1830.292Z" transform="translate(-4673.069 -1825.476)"/>
      <path id="Trazado_1739" data-name="Trazado 1739" class="cls-1" d="M4683.616,1838.765a2.757,2.757,0,1,1,2.757-2.757A2.76,2.76,0,0,1,4683.616,1838.765Zm0-4.631a1.874,1.874,0,1,0,1.874,1.874A1.876,1.876,0,0,0,4683.616,1834.135Z" transform="translate(-4674.623 -1827.029)"/>
    </g>
  </g>
</svg>
