<svg id="icon-activo-total" xmlns="http://www.w3.org/2000/svg" width="24.116" height="24" viewBox="0 0 24.116 24">
  <defs>
    <style>
      .cls-1 {
        fill: none;
      }

      .cls-2 {
        fill: #fff;
      }
    </style>
  </defs>
  <rect id="Rectángulo_723" data-name="Rectángulo 723" class="cls-1" width="22.021" height="22.021" transform="translate(0 0.231)"/>
  <g id="money" transform="translate(0.116)">
    <g id="Grupo_2206" data-name="Grupo 2206" transform="translate(0)">
      <g id="Grupo_2205" data-name="Grupo 2205">
        <path id="Trazado_3414" data-name="Trazado 3414" class="cls-2" d="M20.156,13.445V11.736a2.572,2.572,0,0,0,1.406-2.127V6.8a2.579,2.579,0,0,0-1.406-2.124V3.984c0-.848-.558-2.053-3.217-2.984a21.553,21.553,0,0,0-6.861-1A21.553,21.553,0,0,0,3.217,1C.558,1.931,0,3.137,0,3.984V6.8A2.126,2.126,0,0,0,.566,8.206,2.135,2.135,0,0,0,0,9.609v8.437c0,.848.558,2.053,3.217,2.984a21.553,21.553,0,0,0,6.861,1,25.63,25.63,0,0,0,4.122-.324,5.39,5.39,0,1,0,5.956-8.262Zm0-6.648V9.609c0,.4-.6,1.069-2.275,1.657a20.136,20.136,0,0,1-6.4.922,20.136,20.136,0,0,1-6.4-.922c-1.649-.577-2.253-1.235-2.274-1.635q.193.076.4.15a21.553,21.553,0,0,0,6.861,1,21.553,21.553,0,0,0,6.861-1C19.6,8.85,20.156,7.644,20.156,6.8ZM3.681,2.328a20.136,20.136,0,0,1,6.4-.922,20.136,20.136,0,0,1,6.4.922c1.679.588,2.275,1.26,2.275,1.657s-.6,1.069-2.275,1.657a20.136,20.136,0,0,1-6.4.922,20.136,20.136,0,0,1-6.4-.922C2,5.053,1.406,4.381,1.406,3.984S2,2.916,3.681,2.328ZM1.406,6.111a8.263,8.263,0,0,0,1.81.857,21.553,21.553,0,0,0,6.861,1,21.553,21.553,0,0,0,6.861-1,8.262,8.262,0,0,0,1.81-.857V6.8c0,.4-.6,1.069-2.275,1.657a20.136,20.136,0,0,1-6.4.922,20.136,20.136,0,0,1-6.4-.922C2,7.866,1.406,7.194,1.406,6.8Zm8.672,14.514a20.136,20.136,0,0,1-6.4-.922C2,19.116,1.406,18.444,1.406,18.047v-.686a8.263,8.263,0,0,0,1.81.857,21.553,21.553,0,0,0,6.861,1,26.2,26.2,0,0,0,3.157-.186,5.352,5.352,0,0,0,.286,1.357A24.656,24.656,0,0,1,10.078,20.625Zm3.235-3.019a24.576,24.576,0,0,1-3.235.207,20.136,20.136,0,0,1-6.4-.922C2,16.3,1.406,15.631,1.406,15.234v-.686a8.263,8.263,0,0,0,1.81.857,21.553,21.553,0,0,0,6.861,1,25.8,25.8,0,0,0,3.739-.264A5.351,5.351,0,0,0,13.313,17.606ZM10.078,15a20.136,20.136,0,0,1-6.4-.922C2,13.491,1.406,12.819,1.406,12.422V9.609c0,.848.558,2.053,3.217,2.984a21.553,21.553,0,0,0,6.861,1,21.553,21.553,0,0,0,6.861-1q.21-.074.4-.149a1.235,1.235,0,0,1-.582.793,5.366,5.366,0,0,0-2.986,1.215A22.424,22.424,0,0,1,10.078,15Zm8.531,7.594a3.984,3.984,0,1,1,3.984-3.984A3.989,3.989,0,0,1,18.609,22.594Z" transform="translate(0 0)"/>
      </g>
    </g>
    <g id="Grupo_2208" data-name="Grupo 2208" transform="translate(15.675 16.507)">
      <g id="Grupo_2207" data-name="Grupo 2207">
        <path id="Trazado_3415" data-name="Trazado 3415" class="cls-2" d="M339.269,352.143l-2.714,2.714-1.167-1.167-.994.994,2.161,2.161,3.708-3.708Z" transform="translate(-334.394 -352.143)"/>
      </g>
    </g>
  </g>
</svg>
