<svg xmlns="http://www.w3.org/2000/svg" width="55" height="57" viewBox="0 0 55 57">
  <defs>
    <style>
      .cls-1 {
        fill: #fff;
      }
    </style>
  </defs>
  <path id="view" class="cls-1" d="M22.527,54.773A2.316,2.316,0,0,1,20.131,57H9.586C4.3,57,0,53,0,48.094V8.906C0,4,4.3,0,9.586,0H39.05c5.285,0,9.586,4,9.586,8.906V30.17a2.4,2.4,0,0,1-4.793,0V8.906A4.638,4.638,0,0,0,39.05,4.453H9.586A4.638,4.638,0,0,0,4.793,8.906V48.094a4.638,4.638,0,0,0,4.793,4.453H20.131a2.316,2.316,0,0,1,2.4,2.227ZM36.654,13.359H11.97a2.316,2.316,0,0,0-2.4,2.227,2.316,2.316,0,0,0,2.4,2.227H36.654a2.316,2.316,0,0,0,2.4-2.227A2.316,2.316,0,0,0,36.654,13.359Zm2.4,11.133a2.316,2.316,0,0,0-2.4-2.227H11.97a2.233,2.233,0,1,0,0,4.453H36.654A2.316,2.316,0,0,0,39.05,24.492ZM11.97,31.172a2.233,2.233,0,1,0,0,4.453H24.564a2.233,2.233,0,1,0,0-4.453ZM54.564,47.481c-.084.112-.373.491-.552.7a32.475,32.475,0,0,1-5.3,5.072A17.168,17.168,0,0,1,38.464,57a17.168,17.168,0,0,1-10.252-3.746,32.465,32.465,0,0,1-5.3-5.072c-.18-.21-.469-.59-.553-.7a2.1,2.1,0,0,1,0-2.56c.084-.111.373-.491.553-.7a32.468,32.468,0,0,1,5.3-5.072A17.168,17.168,0,0,1,38.464,35.4a17.168,17.168,0,0,1,10.252,3.746,32.465,32.465,0,0,1,5.3,5.072c.18.21.469.59.553.7A2.1,2.1,0,0,1,54.564,47.481Zm-5-1.28c-3.811-4.212-7.542-6.346-11.1-6.346s-7.291,2.134-11.1,6.346c3.811,4.212,7.542,6.346,11.1,6.346S45.755,50.413,49.565,46.2Zm-10.981-4.23a4.242,4.242,0,1,0,4.553,4.23A4.4,4.4,0,0,0,38.584,41.971Zm0,0"/>
</svg>
