<svg xmlns="http://www.w3.org/2000/svg" width="75.999" height="75.999" viewBox="0 0 75.999 75.999">
  <g id="technical-support" transform="translate(0 0.001)">
    <path id="Trazado_2371" data-name="Trazado 2371" d="M13.366,58.773a6.2,6.2,0,0,0-2.994.764,35.047,35.047,0,0,1,34.6-55.874,1.484,1.484,0,0,0,.588-2.91A38.282,38.282,0,0,0,38,0,38,38,0,0,0,8.177,61.549a6.237,6.237,0,1,0,5.189-2.776Zm2.309,8.543a3.265,3.265,0,1,1,.957-2.309A3.243,3.243,0,0,1,15.675,67.316Zm0,0" transform="translate(0 0)" fill="#fff"/>
    <path id="Trazado_2372" data-name="Trazado 2372" d="M235.991,41.741a6.221,6.221,0,1,0-2.194,2.014A35.047,35.047,0,0,1,199.26,99.643a1.485,1.485,0,1,0-.583,2.911,38.309,38.309,0,0,0,7.493.739,38,38,0,0,0,29.821-61.551Zm-7.5-1.147a3.267,3.267,0,1,1,2.309.956A3.244,3.244,0,0,1,228.493,40.594Zm0,0" transform="translate(-168.17 -27.294)" fill="#fff"/>
    <path id="Trazado_2373" data-name="Trazado 2373" d="M94.877,126.546a1.485,1.485,0,0,0,1.484,1.484h9.281a1.484,1.484,0,0,0,1.484-1.484v-2.878a23.245,23.245,0,0,0,5.571-2.309l2.032,2.032a1.484,1.484,0,0,0,2.1,0l6.56-6.565a1.485,1.485,0,0,0,0-2.1L121.36,112.7a23.245,23.245,0,0,0,2.309-5.571h2.867a1.484,1.484,0,0,0,1.484-1.484V96.361a1.484,1.484,0,0,0-1.484-1.484h-2.867a23.249,23.249,0,0,0-2.308-5.57l2.018-2.018a1.485,1.485,0,0,0,0-2.1l-6.565-6.56a1.484,1.484,0,0,0-2.1,0L112.7,80.644a23.244,23.244,0,0,0-5.571-2.309V75.484A1.484,1.484,0,0,0,105.642,74H96.361a1.485,1.485,0,0,0-1.484,1.484v2.852a23.225,23.225,0,0,0-5.57,2.308L87.29,78.628a1.485,1.485,0,0,0-2.1,0l-6.565,6.561a1.484,1.484,0,0,0,0,2.1l2.018,2.018a23.24,23.24,0,0,0-2.309,5.57H75.474a1.484,1.484,0,0,0-1.484,1.484l-.005,9.281a1.484,1.484,0,0,0,1.484,1.485h2.867a23.244,23.244,0,0,0,2.309,5.571l-2.029,2.029a1.484,1.484,0,0,0,0,2.1l6.56,6.565a1.485,1.485,0,0,0,1.049.435h0a1.484,1.484,0,0,0,1.049-.435l2.031-2.032a23.264,23.264,0,0,0,5.571,2.309Zm-4.989-8.308a1.485,1.485,0,0,0-1.855.2l-1.807,1.807-4.462-4.465,1.806-1.806a1.484,1.484,0,0,0,.2-1.855,20.317,20.317,0,0,1-2.812-6.786,1.485,1.485,0,0,0-1.451-1.172h-2.55l0-6.313H79.5a1.484,1.484,0,0,0,1.451-1.172,20.319,20.319,0,0,1,2.812-6.785,1.484,1.484,0,0,0-.2-1.855l-1.794-1.795,4.465-4.462,1.792,1.793a1.485,1.485,0,0,0,1.855.2,20.309,20.309,0,0,1,6.785-2.812A1.485,1.485,0,0,0,97.845,79.5V76.969h6.313V79.5a1.484,1.484,0,0,0,1.172,1.451,20.326,20.326,0,0,1,6.785,2.812,1.483,1.483,0,0,0,1.855-.2l1.793-1.792,4.465,4.462-1.794,1.794a1.484,1.484,0,0,0-.2,1.855,20.332,20.332,0,0,1,2.812,6.785,1.484,1.484,0,0,0,1.451,1.172h2.551v6.313H122.5a1.485,1.485,0,0,0-1.451,1.172,20.314,20.314,0,0,1-2.812,6.785,1.485,1.485,0,0,0,.2,1.855l1.806,1.806-4.462,4.465-1.807-1.807a1.484,1.484,0,0,0-1.855-.2,20.331,20.331,0,0,1-6.785,2.812,1.484,1.484,0,0,0-1.172,1.451v2.561H97.845V122.5a1.485,1.485,0,0,0-1.172-1.451,20.319,20.319,0,0,1-6.785-2.812Zm0,0" transform="translate(-63.003 -63.016)" fill="#fff"/>
    <path id="Trazado_2374" data-name="Trazado 2374" d="M197.9,185.636A12.265,12.265,0,1,0,185.636,197.9,12.279,12.279,0,0,0,197.9,185.636Zm-21.562,0a9.3,9.3,0,1,1,9.3,9.3A9.307,9.307,0,0,1,176.34,185.636Zm0,0" transform="translate(-147.637 -147.637)" fill="#fff"/>
    <path id="Trazado_2375" data-name="Trazado 2375" d="M339.562,20.779a1.486,1.486,0,1,0-1.049-.435A1.5,1.5,0,0,0,339.562,20.779Zm0,0" transform="translate(-287.895 -15.166)" fill="#fff"/>
    <path id="Trazado_2376" data-name="Trazado 2376" d="M155.843,474.359a1.485,1.485,0,1,0,1.049.435A1.5,1.5,0,0,0,155.843,474.359Zm0,0" transform="translate(-131.447 -403.948)" fill="#fff"/>
  </g>
</svg>
