<svg id="supermarket" xmlns="http://www.w3.org/2000/svg" width="80" height="72.258" viewBox="0 0 80 72.258">
  <defs>
    <style>
      .cls-1 {
        fill: #fff;
      }
    </style>
  </defs>
  <g id="Grupo_2233" data-name="Grupo 2233">
    <path id="Trazado_3418" data-name="Trazado 3418" class="cls-1" d="M80,51.1V44.645H67.1V40.774h2.581V34.323H60.645V30.452h2.581V24H16.774v6.452h2.581v3.871H10.323v6.452H12.9v3.871H0V51.1H2.581V93.677H0v2.581H80V93.677H77.419V51.1Zm-2.581-3.871v1.29H67.1v-1.29ZM67.1,36.9v1.29H60.645V36.9ZM19.355,26.581h41.29v1.29H19.355Zm2.581,3.871H58.065v40H21.935v-40ZM12.9,36.9h6.452v1.29H12.9ZM2.581,47.226H12.9v1.29H2.581ZM5.161,51.1H12.9V93.677H5.161ZM15.484,93.677v-52.9h3.871v52.9Zm37.419,0H41.29V78.194H52.9Zm-14.194,0H27.1V78.194H38.71Zm16.774,0V75.613H24.516V93.677H21.935V73.032H58.065V93.677Zm5.161-52.9h3.871v52.9H60.645Zm14.194,52.9H67.1V51.1h7.742Z" transform="translate(0 -24)"/>
    <rect id="Rectángulo_2858" data-name="Rectángulo 2858" class="cls-1" width="20.645" height="2.581" transform="translate(29.677 19.355)"/>
    <rect id="Rectángulo_2859" data-name="Rectángulo 2859" class="cls-1" width="2.581" height="2.581" transform="translate(47.742 24.516)"/>
    <rect id="Rectángulo_2860" data-name="Rectángulo 2860" class="cls-1" width="15.484" height="2.581" transform="translate(29.677 24.516)"/>
    <rect id="Rectángulo_2861" data-name="Rectángulo 2861" class="cls-1" width="2.581" height="6.452" transform="translate(34.839 58.065)"/>
    <rect id="Rectángulo_2862" data-name="Rectángulo 2862" class="cls-1" width="2.581" height="6.452" transform="translate(42.581 58.065)"/>
  </g>
</svg>
