<svg id="money_1_" data-name="money (1)" xmlns="http://www.w3.org/2000/svg" width="96" height="78.846" viewBox="0 0 96 78.846">
  <defs>
    <style>
      .cls-1 {
        fill: #fff;
      }
    </style>
  </defs>
  <g id="Grupo_2210" data-name="Grupo 2210" transform="translate(0 37.013)">
    <g id="Grupo_2209" data-name="Grupo 2209">
      <path id="Trazado_3416" data-name="Trazado 3416" class="cls-1" d="M88.788,247.723a7.078,7.078,0,0,0-2.906.648,7.122,7.122,0,0,0-8.908-1.991l-.1.055-2.948,1.748a7.115,7.115,0,0,0-8.754-1.8l-.118.067-11.285,6.912c-2.549-.753-5.378-1.579-8.112-2.354-2.884-.818-5.658-1.579-7.882-2.14-1.113-.281-2.087-.512-2.883-.676-.4-.083-.753-.148-1.067-.2a5.952,5.952,0,0,0-.885-.082,5.428,5.428,0,0,0-.661.049c-.831.109-2.013.363-3.408.69-2.849.669-6.485,1.643-8.494,2.19v-3.4a4.3,4.3,0,0,0-4.291-4.291H4.291A4.3,4.3,0,0,0,0,247.44v33.251a4.3,4.3,0,0,0,4.291,4.291h11.8a4.3,4.3,0,0,0,4.291-4.291v-2.582c2.546.554,8.2,1.775,14.156,3,4.03.827,8.195,1.655,11.635,2.279,1.721.312,3.26.573,4.52.757a23.347,23.347,0,0,0,2.94.3,6.261,6.261,0,0,0,1.669-.267,23.088,23.088,0,0,0,3.68-1.49c4.849-2.364,11.814-6.793,18.383-11.176s12.692-8.7,15.7-10.77A7,7,0,0,0,96,254.937,7.217,7.217,0,0,0,88.788,247.723ZM17.162,280.691a1.087,1.087,0,0,1-1.073,1.072H4.291a1.087,1.087,0,0,1-1.073-1.072V247.44a1.087,1.087,0,0,1,1.073-1.072h11.8a1.087,1.087,0,0,1,1.073,1.072Zm74.075-22.6c-3.7,2.546-11.967,8.387-19.973,13.587-4,2.6-7.933,5.034-11.158,6.8a45.635,45.635,0,0,1-4.2,2.073,13.308,13.308,0,0,1-1.474.528,3.386,3.386,0,0,1-.8.148,21.478,21.478,0,0,1-2.473-.267c-4.226-.619-12.136-2.2-18.948-3.62-3.409-.711-6.548-1.383-8.836-1.876-1.329-.286-2.354-.511-2.994-.649V254.177c.314-.087.726-.2,1.221-.334,1.7-.46,4.284-1.15,6.605-1.721,1.16-.286,2.255-.542,3.125-.723.433-.09.812-.162,1.1-.208a4.428,4.428,0,0,1,.509-.061,3.913,3.913,0,0,1,.4.045c.888.133,2.708.559,4.925,1.139,6.681,1.745,17.216,4.9,21.473,6.192a9.614,9.614,0,0,1,3.681,1.925,4.277,4.277,0,0,1,.992,1.307,3.672,3.672,0,0,1,.35,1.6,4.55,4.55,0,0,1-4.517,4.551l-4.152-.406-14.17-1.819a1.609,1.609,0,1,0-.411,3.192l14.216,1.824,4.4.431h.079a7.775,7.775,0,0,0,7.772-7.772,6.9,6.9,0,0,0-.661-2.985,8.079,8.079,0,0,0-2.825-3.167,14.071,14.071,0,0,0-3.818-1.763c-.746-.226-1.687-.512-2.762-.835l8.732-5.349a3.88,3.88,0,0,1,4.449.617l-4.314,2.558a1.609,1.609,0,0,0,1.643,2.768l10.014-5.939a3.885,3.885,0,0,1,4.6.754l-11.66,6.915a1.609,1.609,0,0,0,1.643,2.767l12.609-7.478a1.532,1.532,0,0,0,1-.591l.394-.234a3.935,3.935,0,0,1,1.768-.441,4,4,0,0,1,3.994,4A3.812,3.812,0,0,1,91.236,258.093Z" transform="translate(0 -243.149)"/>
    </g>
  </g>
  <g id="Grupo_2212" data-name="Grupo 2212" transform="translate(41.295)">
    <g id="Grupo_2211" data-name="Grupo 2211">
      <path id="Trazado_3417" data-name="Trazado 3417" class="cls-1" d="M237.087,64.062A14.325,14.325,0,0,0,232.413,62c-.221-.062-.438-.113-.658-.171V52a7.461,7.461,0,0,1,3.5,1.328,3.987,3.987,0,0,1,1.182,1.436,4.214,4.214,0,0,1,.391,1.832,1.609,1.609,0,0,0,3.218,0,7.428,7.428,0,0,0-.706-3.219,7.607,7.607,0,0,0-3.629-3.53,12.287,12.287,0,0,0-3.958-1.083V47.353a1.609,1.609,0,1,0-3.218,0v1.326a11.226,11.226,0,0,0-3.14.671,7.947,7.947,0,0,0-3.98,3.184,7.684,7.684,0,0,0-1.174,4.065,6.461,6.461,0,0,0,3.03,5.721,15.718,15.718,0,0,0,4.627,1.846c.211.055.424.108.635.161V74.893a6.574,6.574,0,0,1-3.571-1.359,4.185,4.185,0,0,1-1.5-3.313,1.609,1.609,0,0,0-3.218,0,7.43,7.43,0,0,0,2.644,5.77,9.856,9.856,0,0,0,5.649,2.152v1.4a1.609,1.609,0,0,0,3.218,0V78.084a11.537,11.537,0,0,0,4.977-1.534,6.854,6.854,0,0,0,2.436-2.562,8.56,8.56,0,0,0-.032-7.623A7.13,7.13,0,0,0,237.087,64.062ZM228.535,61a11.324,11.324,0,0,1-3.741-1.543,3.2,3.2,0,0,1-.971-1.119,3.766,3.766,0,0,1-.363-1.74,4.437,4.437,0,0,1,1.251-3.075,4.992,4.992,0,0,1,1.83-1.167,7.923,7.923,0,0,1,1.994-.444V61Zm7.8,11.457a3.5,3.5,0,0,1-.9,1.072,6.083,6.083,0,0,1-2.349,1.075,11.444,11.444,0,0,1-1.33.238V65.159a13.617,13.617,0,0,1,2.614.99,4.7,4.7,0,0,1,1.8,1.523,4.457,4.457,0,0,1,.661,2.549A4.642,4.642,0,0,1,236.335,72.459Z" transform="translate(-220.242 -45.744)"/>
    </g>
  </g>
</svg>
