<svg xmlns="http://www.w3.org/2000/svg" width="35.428" height="32" viewBox="0 0 35.428 32">
  <defs>
    <style>
      .cls-1 {
        fill: #fff;
      }
    </style>
  </defs>
  <g id="icon-supermarket-alt" transform="translate(0 -24)">
    <g id="Grupo_2233" data-name="Grupo 2233" transform="translate(0 24)">
      <path id="Trazado_3418" data-name="Trazado 3418" class="cls-1" d="M35.429,36V33.143H29.714V31.429h1.143V28.571h-4V26.857H28V24H7.429v2.857H8.571v1.714h-4v2.857H5.714v1.714H0V36H1.143V54.857H0V56H35.429V54.857H34.286V36Zm-1.143-1.714v.571H29.714v-.571Zm-4.571-4.571v.571H26.857v-.571ZM8.571,25.143H26.857v.571H8.571Zm1.143,1.714h16V44.571h-16V26.857Zm-4,2.857H8.571v.571H5.714ZM1.143,34.286H5.714v.571H1.143ZM2.286,36H5.714V54.857H2.286ZM6.857,54.857V31.429H8.571V54.857Zm16.571,0H18.286V48h5.143Zm-6.286,0H12V48h5.143Zm7.429,0v-8H10.857v8H9.714V45.714h16v9.143Zm2.286-23.429h1.714V54.857H26.857Zm6.286,23.429H29.714V36h3.429Z" transform="translate(0 -24)"/>
      <rect id="Rectángulo_2858" data-name="Rectángulo 2858" class="cls-1" width="9.143" height="1.143" transform="translate(13.143 8.571)"/>
      <rect id="Rectángulo_2859" data-name="Rectángulo 2859" class="cls-1" width="1.143" height="1.143" transform="translate(21.143 10.857)"/>
      <rect id="Rectángulo_2860" data-name="Rectángulo 2860" class="cls-1" width="6.857" height="1.143" transform="translate(13.143 10.857)"/>
      <rect id="Rectángulo_2861" data-name="Rectángulo 2861" class="cls-1" width="1.143" height="2.857" transform="translate(15.429 25.714)"/>
      <rect id="Rectángulo_2862" data-name="Rectángulo 2862" class="cls-1" width="1.143" height="2.857" transform="translate(18.857 25.714)"/>
    </g>
  </g>
</svg>
