<svg xmlns="http://www.w3.org/2000/svg" width="44" height="39.531" viewBox="0 0 44 39.531">
  <defs>
    <style>
      .cls-1, .cls-2 {
        fill: #fff;
      }

      .cls-2 {
        fill-rule: evenodd;
      }
    </style>
  </defs>
  <g id="presentation" transform="translate(0 -26)">
    <path id="Trazado_4429" data-name="Trazado 4429" class="cls-1" d="M44,32.016a2.581,2.581,0,0,0-2.578-2.578H26.3v-.859A2.581,2.581,0,0,0,23.719,26H20.281A2.581,2.581,0,0,0,17.7,28.578v.859H2.578a2.578,2.578,0,0,0-.859,5.008v25.07A2.581,2.581,0,0,0,4.3,62.094H21.141v2.578a.859.859,0,0,0,1.719,0V62.094H39.7a2.581,2.581,0,0,0,2.578-2.578V34.446A2.582,2.582,0,0,0,44,32.016ZM19.422,28.578a.86.86,0,0,1,.859-.859h3.438a.86.86,0,0,1,.859.859v.859H19.422ZM39.7,60.375H4.3a.86.86,0,0,1-.859-.859V34.594H40.562V59.516A.86.86,0,0,1,39.7,60.375Zm1.719-27.5H2.578a.859.859,0,0,1,0-1.719H41.422a.859.859,0,0,1,0,1.719Z"/>
    <path id="Trazado_4430" data-name="Trazado 4430" class="cls-1" d="M96.859,167.719h6.875a.859.859,0,1,0,0-1.719H96.859a.859.859,0,0,0,0,1.719Z" transform="translate(-87.75 -127.969)"/>
    <path id="Trazado_4431" data-name="Trazado 4431" class="cls-1" d="M96.859,207.72h6.875a.859.859,0,0,0,0-1.719H96.859a.859.859,0,1,0,0,1.719Z" transform="translate(-87.75 -164.532)"/>
    <g id="Grupo_3005" data-name="Grupo 3005" transform="translate(10.828 39.75)">
      <path id="Trazado_4432" data-name="Trazado 4432" class="cls-2" d="M128.577,311.156h0a2.578,2.578,0,0,0,0-5.156h0a2.578,2.578,0,0,0,0,5.156Z" transform="translate(-125.999 -295.687)"/>
      <path id="Trazado_4433" data-name="Trazado 4433" class="cls-2" d="M228.578,256.313h0a2.578,2.578,0,0,0,2.578-2.578v-5.156A2.578,2.578,0,0,0,228.578,246h0A2.578,2.578,0,0,0,226,248.578v5.156A2.578,2.578,0,0,0,228.578,256.313Z" transform="translate(-217.406 -240.844)"/>
      <path id="Trazado_4434" data-name="Trazado 4434" class="cls-2" d="M328.58,201.468h0a2.578,2.578,0,0,0,2.578-2.578V188.577A2.578,2.578,0,0,0,328.58,186h0A2.578,2.578,0,0,0,326,188.577V198.89A2.578,2.578,0,0,0,328.58,201.468Z" transform="translate(-308.814 -185.999)"/>
    </g>
  </g>
</svg>
