<svg id="icon-captacion" xmlns="http://www.w3.org/2000/svg" width="29.221" height="24" viewBox="0 0 29.221 24">
  <defs>
    <style>
      .cls-1 {
        fill: #fff;
      }
    </style>
  </defs>
  <g id="Grupo_2210" data-name="Grupo 2210" transform="translate(0 11.267)">
    <g id="Grupo_2209" data-name="Grupo 2209">
      <path id="Trazado_3416" data-name="Trazado 3416" class="cls-1" d="M27.026,244.541a2.155,2.155,0,0,0-.884.2,2.168,2.168,0,0,0-2.712-.606l-.03.017-.9.532a2.166,2.166,0,0,0-2.665-.549l-.036.02-3.435,2.1c-.776-.229-1.637-.481-2.469-.717-.878-.249-1.722-.481-2.4-.651-.339-.086-.635-.156-.878-.206-.121-.025-.229-.045-.325-.06a1.811,1.811,0,0,0-.269-.025,1.649,1.649,0,0,0-.2.015c-.253.033-.613.11-1.037.21-.867.2-1.974.5-2.585.667v-1.035A1.31,1.31,0,0,0,4.9,243.149H1.306A1.31,1.31,0,0,0,0,244.455v10.121a1.31,1.31,0,0,0,1.306,1.306H4.9A1.31,1.31,0,0,0,6.2,254.576v-.786c.775.169,2.5.54,4.309.913,1.227.252,2.494.5,3.541.694.524.1.992.174,1.376.231a7.1,7.1,0,0,0,.895.092,1.905,1.905,0,0,0,.508-.081,7.027,7.027,0,0,0,1.12-.453,56.124,56.124,0,0,0,5.6-3.4c2-1.332,3.863-2.648,4.778-3.278a2.13,2.13,0,0,0,.895-1.768A2.2,2.2,0,0,0,27.026,244.541Zm-21.8,10.035a.331.331,0,0,1-.326.326H1.306a.331.331,0,0,1-.326-.326V244.455a.331.331,0,0,1,.326-.326H4.9a.331.331,0,0,1,.326.326ZM27.772,247.7c-1.125.775-3.643,2.553-6.08,4.136-1.217.791-2.415,1.532-3.4,2.07a13.888,13.888,0,0,1-1.278.631,4.046,4.046,0,0,1-.449.161,1.031,1.031,0,0,1-.244.045,6.545,6.545,0,0,1-.753-.081c-1.286-.188-3.694-.669-5.768-1.1-1.038-.216-1.993-.421-2.69-.571l-.911-.2v-6.282l.372-.1c.516-.14,1.3-.35,2.011-.524.353-.087.686-.165.951-.22.132-.027.247-.049.336-.063a1.356,1.356,0,0,1,.155-.019,1.2,1.2,0,0,1,.123.014c.27.04.824.17,1.5.347,2.034.531,5.241,1.491,6.536,1.885a2.926,2.926,0,0,1,1.121.586,1.3,1.3,0,0,1,.3.4,1.118,1.118,0,0,1,.106.488,1.385,1.385,0,0,1-1.375,1.385l-1.264-.124L12.763,250a.49.49,0,1,0-.125.972l4.327.555,1.339.131h.024a2.367,2.367,0,0,0,2.366-2.366,2.1,2.1,0,0,0-.2-.909,2.459,2.459,0,0,0-.86-.964,4.284,4.284,0,0,0-1.162-.537l-.841-.254L20.288,245a1.181,1.181,0,0,1,1.354.188l-1.313.779a.49.49,0,0,0,.5.842l3.048-1.808a1.182,1.182,0,0,1,1.4.23l-3.549,2.1a.49.49,0,0,0,.5.842l3.838-2.276a.466.466,0,0,0,.3-.18l.12-.071a1.2,1.2,0,0,1,.538-.134,1.216,1.216,0,0,1,1.216,1.216A1.16,1.16,0,0,1,27.772,247.7Z" transform="translate(0 -243.149)"/>
    </g>
  </g>
  <g id="Grupo_2212" data-name="Grupo 2212" transform="translate(12.57)">
    <g id="Grupo_2211" data-name="Grupo 2211">
      <path id="Trazado_3417" data-name="Trazado 3417" class="cls-1" d="M225.37,51.32a4.36,4.36,0,0,0-1.423-.629c-.067-.019-.133-.034-.2-.052v-2.99a2.271,2.271,0,0,1,1.066.4,1.214,1.214,0,0,1,.36.437,1.283,1.283,0,0,1,.119.558.49.49,0,1,0,.979,0,2.261,2.261,0,0,0-.215-.98,2.316,2.316,0,0,0-1.1-1.074,3.74,3.74,0,0,0-1.2-.33v-.431a.49.49,0,0,0-.979,0v.4a3.417,3.417,0,0,0-.956.2,2.419,2.419,0,0,0-1.211.969,2.339,2.339,0,0,0-.358,1.237,1.967,1.967,0,0,0,.922,1.742,4.785,4.785,0,0,0,1.408.562l.193.049v3.216a2,2,0,0,1-1.087-.414,1.274,1.274,0,0,1-.458-1.009.49.49,0,0,0-.979,0,2.262,2.262,0,0,0,.8,1.756,3,3,0,0,0,1.72.655v.425a.49.49,0,0,0,.979,0v-.443a3.512,3.512,0,0,0,1.515-.467,2.086,2.086,0,0,0,.741-.78,2.606,2.606,0,0,0-.01-2.32A2.17,2.17,0,0,0,225.37,51.32Zm-2.6-.931a3.447,3.447,0,0,1-1.139-.47.975.975,0,0,1-.3-.341,1.146,1.146,0,0,1-.11-.53,1.351,1.351,0,0,1,.381-.936,1.52,1.52,0,0,1,.557-.355,2.412,2.412,0,0,1,.607-.135v2.766Zm2.374,3.487a1.065,1.065,0,0,1-.275.326,1.852,1.852,0,0,1-.715.327,3.484,3.484,0,0,1-.4.072V51.654a4.145,4.145,0,0,1,.8.3,1.429,1.429,0,0,1,.548.464,1.357,1.357,0,0,1,.2.776A1.413,1.413,0,0,1,225.141,53.876Z" transform="translate(-220.242 -45.744)"/>
    </g>
  </g>
</svg>
