<svg xmlns="http://www.w3.org/2000/svg" width="24.943" height="33" viewBox="0 0 24.943 33">
  <defs>
    <style>
      .cls-1 {
        isolation: isolate;
      }

      .cls-2 {
        fill: #fff;
        stroke: #fff;
      }
    </style>
  </defs>
  <g id="icon-pin-alt" class="cls-1" transform="translate(0.5 0.5)">
    <g id="Grupo_695" data-name="Grupo 695">
      <path id="Trazado_1737" data-name="Trazado 1737" class="cls-2" d="M4682.363,1854.807a.59.59,0,0,1-.428-.184c-.471-.5-11.545-12.277-11.545-19.844a11.972,11.972,0,1,1,23.944,0c0,7.567-11.072,19.346-11.544,19.844A.588.588,0,0,1,4682.363,1854.807Zm0-30.823a10.808,10.808,0,0,0-10.8,10.795c0,6.3,8.742,16.306,10.8,18.571,2.053-2.265,10.795-12.273,10.795-18.571A10.807,10.807,0,0,0,4682.363,1823.984Z" transform="translate(-4670.391 -1822.807)"/>
      <path id="Trazado_1738" data-name="Trazado 1738" class="cls-2" d="M4683.745,1842.865a6.728,6.728,0,1,1,6.728-6.729A6.736,6.736,0,0,1,4683.745,1842.865Zm0-12.279a5.551,5.551,0,1,0,5.551,5.551A5.557,5.557,0,0,0,4683.745,1830.586Z" transform="translate(-4671.753 -1824.165)"/>
      <path id="Trazado_1739" data-name="Trazado 1739" class="cls-2" d="M4684.535,1840.6a3.676,3.676,0,1,1,3.675-3.676A3.68,3.68,0,0,1,4684.535,1840.6Zm0-6.174a2.5,2.5,0,1,0,2.5,2.5A2.5,2.5,0,0,0,4684.535,1834.429Z" transform="translate(-4672.544 -1824.955)"/>
    </g>
  </g>
</svg>
