<svg id="icon-coin-stack-alt" xmlns="http://www.w3.org/2000/svg" width="32.154" height="32" viewBox="0 0 32.154 32">
  <defs>
    <style>
      .cls-1 {
        fill: none;
      }

      .cls-2 {
        fill: #fff;
      }
    </style>
  </defs>
  <rect id="Rectángulo_723" data-name="Rectángulo 723" class="cls-1" width="29.361" height="29.361" transform="translate(0 0.307)"/>
  <g id="money" transform="translate(0.155)">
    <g id="Grupo_2206" data-name="Grupo 2206" transform="translate(0)">
      <g id="Grupo_2205" data-name="Grupo 2205">
        <path id="Trazado_3414" data-name="Trazado 3414" class="cls-2" d="M26.875,17.927V15.648a3.43,3.43,0,0,0,1.875-2.836V9.063a3.439,3.439,0,0,0-1.875-2.831V5.313c0-1.13-.744-2.738-4.289-3.978A28.738,28.738,0,0,0,13.438,0,28.738,28.738,0,0,0,4.289,1.334C.744,2.575,0,4.182,0,5.313v3.75a2.835,2.835,0,0,0,.755,1.879A2.847,2.847,0,0,0,0,12.813v11.25c0,1.13.744,2.738,4.289,3.978a28.737,28.737,0,0,0,9.149,1.334,34.174,34.174,0,0,0,5.5-.432,7.186,7.186,0,1,0,7.941-11.016Zm0-8.865v3.75c0,.529-.794,1.425-3.033,2.209a26.848,26.848,0,0,1-8.529,1.229,26.848,26.848,0,0,1-8.529-1.229c-2.2-.77-3-1.647-3.032-2.18q.258.1.538.2a28.738,28.738,0,0,0,9.149,1.334,28.738,28.738,0,0,0,9.149-1.334C26.131,11.8,26.875,10.193,26.875,9.063ZM4.908,3.1a26.848,26.848,0,0,1,8.529-1.229A26.848,26.848,0,0,1,21.967,3.1C24.206,3.887,25,4.783,25,5.313s-.794,1.425-3.033,2.209A26.848,26.848,0,0,1,13.438,8.75,26.848,26.848,0,0,1,4.908,7.521c-2.239-.784-3.033-1.68-3.033-2.209S2.669,3.887,4.908,3.1ZM1.875,8.148A11.018,11.018,0,0,0,4.289,9.291a28.738,28.738,0,0,0,9.149,1.334,28.738,28.738,0,0,0,9.149-1.334A11.016,11.016,0,0,0,25,8.148v.914c0,.529-.794,1.425-3.033,2.209A26.848,26.848,0,0,1,13.438,12.5a26.848,26.848,0,0,1-8.529-1.229c-2.239-.784-3.033-1.68-3.033-2.209ZM13.438,27.5a26.848,26.848,0,0,1-8.529-1.229c-2.239-.784-3.033-1.68-3.033-2.209v-.914a11.018,11.018,0,0,0,2.414,1.143,28.738,28.738,0,0,0,9.149,1.334,34.94,34.94,0,0,0,4.21-.248,7.135,7.135,0,0,0,.381,1.809A32.875,32.875,0,0,1,13.438,27.5Zm4.313-4.026a32.768,32.768,0,0,1-4.313.276,26.848,26.848,0,0,1-8.529-1.229c-2.239-.784-3.033-1.68-3.033-2.209V19.4a11.018,11.018,0,0,0,2.414,1.143,28.738,28.738,0,0,0,9.149,1.334,34.4,34.4,0,0,0,4.986-.352A7.134,7.134,0,0,0,17.751,23.474ZM13.438,20a26.848,26.848,0,0,1-8.529-1.229c-2.239-.784-3.033-1.68-3.033-2.209v-3.75c0,1.13.744,2.738,4.289,3.978a28.738,28.738,0,0,0,9.149,1.334,28.738,28.738,0,0,0,9.149-1.334q.28-.1.537-.2a1.647,1.647,0,0,1-.776,1.058,7.155,7.155,0,0,0-3.981,1.62A29.9,29.9,0,0,1,13.438,20ZM24.813,30.125a5.313,5.313,0,1,1,5.313-5.312A5.319,5.319,0,0,1,24.813,30.125Z" transform="translate(0 0)"/>
      </g>
    </g>
    <g id="Grupo_2208" data-name="Grupo 2208" transform="translate(20.9 22.009)">
      <g id="Grupo_2207" data-name="Grupo 2207">
        <path id="Trazado_3415" data-name="Trazado 3415" class="cls-2" d="M340.894,352.143l-3.618,3.618-1.556-1.556-1.326,1.326,2.882,2.882,4.944-4.944Z" transform="translate(-334.394 -352.143)"/>
      </g>
    </g>
  </g>
</svg>
