<svg id="Grupo_2984" data-name="Grupo 2984" xmlns="http://www.w3.org/2000/svg" width="32" height="32" viewBox="0 0 32 32">
  <defs>
    <style>
      .cls-1 {
        fill: #195852;
      }
    </style>
  </defs>
  <path id="Trazado_2871" data-name="Trazado 2871" class="cls-1" d="M31.4,30.675a14.467,14.467,0,0,0-5.989-6.433,18.481,18.481,0,0,0-8.488-2.455V9.836a9.528,9.528,0,0,1,4.307.246,16.573,16.573,0,0,0,3.335.453,6.848,6.848,0,0,0,2.653-.5l.582-.24V1.542l-1.3.535c-1.546.636-3.17.3-4.889-.052a12.03,12.03,0,0,0-4.688-.332V0H15.04V21.789a18.475,18.475,0,0,0-8.45,2.453A14.467,14.467,0,0,0,.6,30.675L0,32H32ZM16.923,3.617a9.527,9.527,0,0,1,4.307.246,12.028,12.028,0,0,0,4.688.333v4.3a9.529,9.529,0,0,1-4.307-.246,12.031,12.031,0,0,0-4.688-.332ZM3.031,30.124a13.067,13.067,0,0,1,4.512-4.263A16.732,16.732,0,0,1,16,23.642a16.732,16.732,0,0,1,8.457,2.218,13.067,13.067,0,0,1,4.512,4.263Z"/>
</svg>
