<svg xmlns="http://www.w3.org/2000/svg" width="40" height="40" viewBox="0 0 40 40">
  <defs>
    <style>
      .cls-1 {
        fill: #195852;
      }
    </style>
  </defs>
  <g id="Grupo_3383" data-name="Grupo 3383" transform="translate(-779 -708)">
    <path id="Trazado_2872" data-name="Trazado 2872" class="cls-1" d="M39.733,132.705c-3.636-4.429-11.333-9.6-19.733-9.6-8.431,0-16.128,5.2-19.733,9.6a1.176,1.176,0,0,0,0,1.492C3.988,138.734,11.7,143.8,20,143.8c8.591,0,16.255-5.361,19.733-9.6A1.177,1.177,0,0,0,39.733,132.705Zm-11.741.746A7.992,7.992,0,1,1,20,125.46,8,8,0,0,1,27.991,133.452Zm-25.226,0a28.415,28.415,0,0,1,9-6.253,10.318,10.318,0,0,0,0,12.5,27.9,27.9,0,0,1-9-6.25Zm25.47,6.252a10.318,10.318,0,0,0,0-12.5,27.9,27.9,0,0,1,9,6.25A28.414,28.414,0,0,1,28.235,139.7Z" transform="translate(779.001 594.548)"/>
    <path id="Trazado_2873" data-name="Trazado 2873" class="cls-1" d="M204,208a4,4,0,1,0,4-4A4,4,0,0,0,204,208Zm5.647,0A1.647,1.647,0,1,1,208,206.353,1.649,1.649,0,0,1,209.647,208Z" transform="translate(591 520)"/>
    <path id="Trazado_2874" data-name="Trazado 2874" class="cls-1" d="M241.176,5.1a1.177,1.177,0,0,0,1.176-1.176V1.176a1.176,1.176,0,0,0-2.353,0V3.922A1.176,1.176,0,0,0,241.176,5.1Z" transform="translate(557.824 708)"/>
    <path id="Trazado_2875" data-name="Trazado 2875" class="cls-1" d="M337.523,26.973a1.177,1.177,0,0,0,1.6-.439l1.566-2.745a1.176,1.176,0,1,0-2.044-1.166l-1.566,2.745A1.177,1.177,0,0,0,337.523,26.973Z" transform="translate(468.497 687.699)"/>
    <path id="Trazado_2876" data-name="Trazado 2876" class="cls-1" d="M124.825,26.534a1.176,1.176,0,1,0,2.044-1.166L125.3,22.623a1.176,1.176,0,0,0-2.044,1.166Z" transform="translate(665.551 687.699)"/>
    <path id="Trazado_2877" data-name="Trazado 2877" class="cls-1" d="M241.176,445A1.177,1.177,0,0,0,240,446.177v2.745a1.176,1.176,0,0,0,2.353,0v-2.745A1.177,1.177,0,0,0,241.176,445Z" transform="translate(557.824 297.902)"/>
    <path id="Trazado_2878" data-name="Trazado 2878" class="cls-1" d="M126.429,423.121a1.177,1.177,0,0,0-1.6.439l-1.566,2.745a1.176,1.176,0,0,0,2.044,1.166l1.566-2.745A1.176,1.176,0,0,0,126.429,423.121Z" transform="translate(665.551 318.207)"/>
    <path id="Trazado_2879" data-name="Trazado 2879" class="cls-1" d="M339.128,423.56a1.176,1.176,0,1,0-2.044,1.166l1.566,2.745a1.176,1.176,0,1,0,2.044-1.166Z" transform="translate(468.497 318.208)"/>
  </g>
</svg>
