<svg xmlns="http://www.w3.org/2000/svg" width="40" height="40.14" viewBox="0 0 40 40.14">
  <defs>
    <style>
      .cls-1 {
        fill: #195852;
      }
    </style>
  </defs>
  <g id="Grupo_3000" data-name="Grupo 3000" transform="translate(5132 5228)">
    <path id="Trazado_3408" data-name="Trazado 3408" class="cls-1" d="M246.085,6.777a1.049,1.049,0,0,0,1.049-1.049V1.049a1.049,1.049,0,0,0-2.1,0V5.728a1.049,1.049,0,0,0,1.049,1.049Z" transform="translate(-5358.154 -5228)"/>
    <path id="Trazado_3409" data-name="Trazado 3409" class="cls-1" d="M40.124,101.538l-1.395-1.3a2.709,2.709,0,0,0-1.862-.72,2.767,2.767,0,0,0-1.266.3l-2.628-2.46.128-.12a2.456,2.456,0,0,0,0-3.626,2.769,2.769,0,0,0-1.374-.7,2.433,2.433,0,0,0,.109-.72,2.464,2.464,0,0,0-.8-1.813,2.77,2.77,0,0,0-1.374-.7,2.433,2.433,0,0,0,.109-.72,2.464,2.464,0,0,0-.8-1.814,2.783,2.783,0,0,0-1.373-.695,2.461,2.461,0,0,0-.691-2.536,2.853,2.853,0,0,0-2.229-.732l-5.208-.924a2.975,2.975,0,0,0-2.412.3,1.38,1.38,0,0,0-.119.116,2.88,2.88,0,0,0-2.881.594,2.467,2.467,0,0,0-.8,1.814,2.436,2.436,0,0,0,.109.72,2.765,2.765,0,0,0-1.372.695,2.464,2.464,0,0,0-.8,1.812,2.429,2.429,0,0,0,.109.722,2.772,2.772,0,0,0-1.374.694,2.469,2.469,0,0,0-.8,1.815A2.438,2.438,0,0,0,9.6,93a2.755,2.755,0,0,0-1.052.613,2.456,2.456,0,0,0,0,3.629l.128.119L6.046,99.816a2.773,2.773,0,0,0-2.987.485l-1.4,1.3a2.363,2.363,0,0,0,0,3.491l1.742,1.63a.827.827,0,0,0,1.117,0,.707.707,0,0,0,0-1.046l-1.742-1.63a.948.948,0,0,1,0-1.4l1.4-1.3a1.111,1.111,0,0,1,1.288-.148.758.758,0,0,0,.1.114.789.789,0,0,0,.227.148l8,7.49a.738.738,0,0,0,.158.215.789.789,0,0,0,.222.146.945.945,0,0,1-.044,1.351l-1.394,1.305a1.112,1.112,0,0,1-1.493,0L9.5,110.338a.827.827,0,0,0-1.117,0,.708.708,0,0,0,0,1.046l1.743,1.634a2.771,2.771,0,0,0,3.723,0l1.4-1.306a2.374,2.374,0,0,0,.77-1.745,2.342,2.342,0,0,0-.4-1.31l2.958-2.769.009-.009c.339-.328,1.282-.267,2.194-.207a12.114,12.114,0,0,0,2.077.013l3.24,3.033a2.336,2.336,0,0,0-.322,1.185,2.373,2.373,0,0,0,.77,1.744l1.4,1.306a2.767,2.767,0,0,0,3.724,0l8.462-7.921a2.363,2.363,0,0,0,0-3.491ZM19.171,83.717l3.425.608-2.05,1.921a4.985,4.985,0,0,1-1.229-.837,3.382,3.382,0,0,1-1.162-1.682h0a.606.606,0,0,1,0-.073,2.85,2.85,0,0,1,1.019.065Zm-4,.6a1.224,1.224,0,0,1,1.473-.131,5.283,5.283,0,0,0,1.584,2.288A5.909,5.909,0,0,0,20.5,87.8a1.039,1.039,0,0,1-.131,1.388,1.221,1.221,0,0,1-1.641,0h0l-3.561-3.331a1.042,1.042,0,0,1,0-1.534ZM13.1,87.549a1.221,1.221,0,0,1,1.641,0l2.867,2.682a1.041,1.041,0,0,1,0,1.536,1.228,1.228,0,0,1-1.644,0h0l-2.175-2.038-.011-.009-.681-.637a1.038,1.038,0,0,1,0-1.534Zm-2.067,3.228a1.225,1.225,0,0,1,1.635-.005l2.182,2.044a1.038,1.038,0,0,1,0,1.533,1.225,1.225,0,0,1-1.641,0l-.791-.74h0l-1.384-1.3a1.041,1.041,0,0,1,0-1.536ZM9.663,94.656a1.223,1.223,0,0,1,1.643,0l.792.741a1.038,1.038,0,0,1,0,1.534,1.221,1.221,0,0,1-1.641,0l-.1-.093,0,0,0,0-.684-.639a1.039,1.039,0,0,1,0-1.535Zm16.09,8.41a.827.827,0,0,0-1.117,0l-.7.658c-.667.626-1.877.547-3.047.471-1.27-.083-2.584-.168-3.433.65l-2.908,2.722-7.273-6.806,2.574-2.408a2.863,2.863,0,0,0,1.43.375,2.812,2.812,0,0,0,1.936-.749,2.465,2.465,0,0,0,.8-1.815c0-.006,0-.013,0-.019h.02a2.815,2.815,0,0,0,1.935-.747,2.465,2.465,0,0,0,.8-1.815c0-.006,0-.013,0-.019h.021a2.823,2.823,0,0,0,1.938-.749,2.478,2.478,0,0,0,.8-1.833h.021a2.813,2.813,0,0,0,1.936-.75,2.467,2.467,0,0,0,.8-1.814,2.433,2.433,0,0,0-.4-1.338l2.256-2.113a1.185,1.185,0,0,1,.593-.3c.024,0,.047-.006.07-.01a1.211,1.211,0,0,1,.981.3,1.041,1.041,0,0,1,0,1.536l-.687.641-.007.006-.791.74a.707.707,0,0,0,0,1.046.827.827,0,0,0,1.117,0l.69-.646h0l.1-.1a1.219,1.219,0,0,1,1.639,0,1.038,1.038,0,0,1,0,1.534l-.691.649h0l-.791.738a.707.707,0,0,0,0,1.046.827.827,0,0,0,1.117,0l.795-.742a1.221,1.221,0,0,1,1.641,0,1.038,1.038,0,0,1,0,1.533l-1.377,1.291a.708.708,0,0,0,0,1.046.827.827,0,0,0,1.117,0l.675-.633.012-.01a1.221,1.221,0,0,1,1.64,0,1.039,1.039,0,0,1,0,1.534l-.686.643h0l-1.089,1.02a.708.708,0,0,0,0,1.046.828.828,0,0,0,1.117,0l.533-.5,2.554,2.391L27.137,107.6l-2.606-2.439a3.078,3.078,0,0,0,.519-.391l.7-.657a.707.707,0,0,0,0-1.046Zm13.256.916L30.546,111.9a1.112,1.112,0,0,1-1.492,0l-1.4-1.306a.946.946,0,0,1,0-1.394l8.462-7.921a1.112,1.112,0,0,1,1.493,0l1.395,1.3a.948.948,0,0,1,0,1.4Z" transform="translate(-5132.894 -5301.596)"/>
    <path id="Trazado_3410" data-name="Trazado 3410" class="cls-1" d="M85.854,8.352a1.049,1.049,0,0,0,1.482-1.485L83.513,3.051a1.049,1.049,0,1,0-1.482,1.485Z" transform="translate(-5207.647 -5230.459)"/>
    <path id="Trazado_3411" data-name="Trazado 3411" class="cls-1" d="M372.7,8.658a1.046,1.046,0,0,0,.741-.307l3.82-3.815a1.049,1.049,0,0,0-1.483-1.484l-3.82,3.815a1.049,1.049,0,0,0,.741,1.791Z" transform="translate(-5475.781 -5230.459)"/>
    <path id="Trazado_3412" data-name="Trazado 3412" class="cls-1" d="M60.231,430.507a1.049,1.049,0,0,0,.013,1.484l0,0a1.049,1.049,0,1,0-.016-1.486Z" transform="translate(-5185.781 -5626.575)"/>
    <path id="Trazado_3413" data-name="Trazado 3413" class="cls-1" d="M333.561,334.217a1.049,1.049,0,1,0-.471-1.986l-.006,0a1.048,1.048,0,0,0,.477,1.983Z" transform="translate(-5438.863 -5534.431)"/>
  </g>
</svg>
