<svg xmlns="http://www.w3.org/2000/svg" width="48" height="48" viewBox="0 0 48 48">
  <defs>
    <style>
      .cls-1 {
        fill: none;
      }

      .cls-2 {
        fill: #FFFFFF;
      }
    </style>
  </defs>
  <g id="icon-indicadores-captacion" transform="translate(11986 2271)">
    <g id="Grupo_3653" data-name="Grupo 3653" transform="translate(-1625 -3682)">
      <rect id="Rectángulo_723" data-name="Rectángulo 723" class="cls-1" width="48" height="48" transform="translate(-10361 1411)"/>
      <g id="money_1_" data-name="money (1)" transform="translate(-10361 1415.5)">
        <g id="Grupo_2210" data-name="Grupo 2210" transform="translate(0 18.507)">
          <g id="Grupo_2209" data-name="Grupo 2209">
            <path id="Trazado_3416" data-name="Trazado 3416" class="cls-2" d="M44.394,245.436a3.539,3.539,0,0,0-1.453.324,3.561,3.561,0,0,0-4.454-1l-.049.027-1.474.874a3.557,3.557,0,0,0-4.377-.9l-.059.033-5.643,3.456c-1.274-.376-2.689-.789-4.056-1.177-1.442-.409-2.829-.789-3.941-1.07-.557-.141-1.044-.256-1.442-.338-.2-.041-.377-.074-.534-.1a2.976,2.976,0,0,0-.442-.041,2.715,2.715,0,0,0-.33.025c-.416.055-1.007.181-1.7.345-1.424.335-3.242.822-4.247,1.1v-1.7a2.152,2.152,0,0,0-2.145-2.145h-5.9A2.152,2.152,0,0,0,0,245.294V261.92a2.152,2.152,0,0,0,2.145,2.145h5.9a2.152,2.152,0,0,0,2.145-2.145v-1.291c1.273.277,4.1.888,7.078,1.5,2.015.414,4.1.828,5.817,1.14.86.156,1.63.286,2.26.379a11.681,11.681,0,0,0,1.47.151,3.13,3.13,0,0,0,.834-.134,11.544,11.544,0,0,0,1.84-.745,92.185,92.185,0,0,0,9.192-5.588c3.279-2.189,6.346-4.35,7.849-5.385a3.5,3.5,0,0,0,1.47-2.9A3.608,3.608,0,0,0,44.394,245.436ZM8.581,261.92a.543.543,0,0,1-.536.536h-5.9a.543.543,0,0,1-.536-.536V245.294a.544.544,0,0,1,.536-.536h5.9a.544.544,0,0,1,.536.536Zm37.037-11.3c-1.848,1.273-5.984,4.193-9.987,6.793-2,1.3-3.966,2.517-5.579,3.4a22.806,22.806,0,0,1-2.1,1.037,6.654,6.654,0,0,1-.737.264,1.7,1.7,0,0,1-.4.074,10.743,10.743,0,0,1-1.237-.134c-2.113-.309-6.068-1.1-9.474-1.81-1.7-.356-3.274-.691-4.418-.938l-1.5-.324V248.663l.61-.167c.848-.23,2.142-.575,3.3-.861.58-.143,1.127-.271,1.562-.361.217-.045.406-.081.551-.1a2.214,2.214,0,0,1,.255-.031,1.954,1.954,0,0,1,.2.023c.444.066,1.354.279,2.463.57,3.341.873,8.608,2.45,10.736,3.1a4.807,4.807,0,0,1,1.841.963,2.138,2.138,0,0,1,.5.654,1.836,1.836,0,0,1,.175.8,2.275,2.275,0,0,1-2.258,2.276l-2.076-.2-7.085-.91a.8.8,0,1,0-.206,1.6l7.108.912,2.2.216h.04a3.888,3.888,0,0,0,3.886-3.886,3.45,3.45,0,0,0-.33-1.492,4.04,4.04,0,0,0-1.413-1.583,7.036,7.036,0,0,0-1.909-.882l-1.381-.417,4.366-2.675a1.94,1.94,0,0,1,2.225.308l-2.157,1.279a.8.8,0,0,0,.822,1.384l5.007-2.97a1.942,1.942,0,0,1,2.3.377l-5.83,3.458a.8.8,0,0,0,.822,1.384l6.3-3.739a.766.766,0,0,0,.5-.3l.2-.117a1.967,1.967,0,0,1,.884-.22,2,2,0,0,1,2,2A1.906,1.906,0,0,1,45.618,250.621Z" transform="translate(0 -243.149)"/>
          </g>
        </g>
        <g id="Grupo_2212" data-name="Grupo 2212" transform="translate(20.648)">
          <g id="Grupo_2211" data-name="Grupo 2211">
            <path id="Trazado_3417" data-name="Trazado 3417" class="cls-2" d="M228.665,54.9a7.162,7.162,0,0,0-2.337-1.033c-.11-.031-.219-.056-.329-.085V48.874a3.73,3.73,0,0,1,1.751.664,1.994,1.994,0,0,1,.591.718,2.107,2.107,0,0,1,.2.916.8.8,0,0,0,1.609,0,3.714,3.714,0,0,0-.353-1.609,3.8,3.8,0,0,0-1.814-1.765A6.144,6.144,0,0,0,226,47.256v-.707a.8.8,0,1,0-1.609,0v.663a5.613,5.613,0,0,0-1.57.336,3.973,3.973,0,0,0-1.99,1.592,3.842,3.842,0,0,0-.587,2.033,3.23,3.23,0,0,0,1.515,2.861,7.859,7.859,0,0,0,2.314.923l.318.08v5.283a3.287,3.287,0,0,1-1.785-.68,2.093,2.093,0,0,1-.752-1.657.8.8,0,1,0-1.609,0,3.715,3.715,0,0,0,1.322,2.885,4.928,4.928,0,0,0,2.825,1.076v.7a.8.8,0,0,0,1.609,0v-.728a5.769,5.769,0,0,0,2.488-.767,3.427,3.427,0,0,0,1.218-1.281,4.28,4.28,0,0,0-.016-3.812A3.565,3.565,0,0,0,228.665,54.9Zm-4.276-1.53a5.662,5.662,0,0,1-1.871-.772,1.6,1.6,0,0,1-.485-.559,1.883,1.883,0,0,1-.181-.87,2.218,2.218,0,0,1,.625-1.537,2.5,2.5,0,0,1,.915-.584,3.962,3.962,0,0,1,1-.222v4.544Zm3.9,5.728a1.75,1.75,0,0,1-.451.536,3.041,3.041,0,0,1-1.174.537,5.722,5.722,0,0,1-.665.119V55.451a6.809,6.809,0,0,1,1.307.495,2.348,2.348,0,0,1,.9.762,2.228,2.228,0,0,1,.33,1.274A2.321,2.321,0,0,1,228.289,59.1Z" transform="translate(-220.242 -45.744)"/>
          </g>
        </g>
      </g>
    </g>
  </g>
</svg>
