<svg xmlns="http://www.w3.org/2000/svg" width="160.644" height="126" viewBox="0 0 160.644 126">
  <defs>
    <style>
      .cls-1 {
        fill: #9dd4ca;
      }

      .cls-2 {
        fill: #005850;
      }

      .cls-3 {
        fill: #007f6e;
      }

      .cls-4 {
        fill: #004545;
      }

      .cls-5 {
        fill: #195852;
      }
    </style>
  </defs>
  <g id="Grupo_3395" data-name="Grupo 3395" transform="translate(-394.001 -1163)">
    <g id="Grupo_503" data-name="Grupo 503" transform="translate(431.8 1163)">
      <rect id="Rectángulo_707" data-name="Rectángulo 707" class="cls-1" width="15.839" height="15.793" transform="matrix(0.707, 0.707, -0.707, 0.707, 42, 18.2)"/>
      <rect id="Rectángulo_712" data-name="Rectángulo 712" class="cls-1" width="15.839" height="15.793" transform="matrix(0.707, 0.707, -0.707, 0.707, 29.4, 30.8)"/>
      <rect id="Rectángulo_710" data-name="Rectángulo 710" class="cls-1" width="15.839" height="15.793" transform="matrix(0.707, 0.707, -0.707, 0.707, 54.567, 30.833)"/>
      <rect id="Rectángulo_711" data-name="Rectángulo 711" class="cls-1" width="15.839" height="15.793" transform="matrix(0.707, 0.707, -0.707, 0.707, 42, 43.401)"/>
      <rect id="Rectángulo_705" data-name="Rectángulo 705" class="cls-2" width="15.839" height="23.759" transform="matrix(0.707, 0.707, -0.707, 0.707, 60.203, 0.001)"/>
      <rect id="Rectángulo_715" data-name="Rectángulo 715" class="cls-2" width="15.839" height="23.759" transform="matrix(0.707, 0.707, -0.707, 0.707, 29.4, 56.001)"/>
      <rect id="Rectángulo_713" data-name="Rectángulo 713" class="cls-2" width="15.839" height="23.759" transform="translate(84 60.201) rotate(135)"/>
      <rect id="Rectángulo_717" data-name="Rectángulo 717" class="cls-2" width="15.839" height="23.759" transform="translate(28.002 29.4) rotate(135)"/>
      <rect id="Rectángulo_708" data-name="Rectángulo 708" class="cls-3" width="15.839" height="23.759" transform="matrix(0.707, 0.707, -0.707, 0.707, 72.803, 12.6)"/>
      <rect id="Rectángulo_716" data-name="Rectángulo 716" class="cls-3" width="15.839" height="23.759" transform="matrix(0.707, 0.707, -0.707, 0.707, 16.8, 43.401)"/>
      <rect id="Rectángulo_714" data-name="Rectángulo 714" class="cls-3" width="15.839" height="23.759" transform="translate(71.4 72.801) rotate(135)"/>
      <rect id="Rectángulo_718" data-name="Rectángulo 718" class="cls-3" width="15.839" height="23.759" transform="translate(40.602 16.8) rotate(135)"/>
      <path id="Trazado_1295" data-name="Trazado 1295" class="cls-4" d="M0,.009.009,0,0,0,0,0Z" transform="translate(32.325 68.181) rotate(90)"/>
    </g>
    <g id="Grupo_502" data-name="Grupo 502" transform="translate(394 1263.8)">
      <path id="Trazado_1254" data-name="Trazado 1254" class="cls-5" d="M4276.762,802.3l-9.363,24.412h4.021l2.345-6.6h9.361l2.5,6.6h4l-9.4-24.412Zm1.673,5.051,3.463,9.405H4275Z" transform="translate(-4267.399 -801.908)"/>
      <path id="Trazado_1255" data-name="Trazado 1255" class="cls-5" d="M4344.617,801.924a11.179,11.179,0,0,0-8.677,3.525,13.444,13.444,0,0,0-3.183,9.353,12.7,12.7,0,0,0,3.126,8.879,10.8,10.8,0,0,0,8.342,3.443,10.985,10.985,0,0,0,8.5-3.492c2.1-2.3,3.166-5.468,3.166-9.4a12.744,12.744,0,0,0-3.093-8.878A10.557,10.557,0,0,0,4344.617,801.924Zm-.2,3.374a6.957,6.957,0,0,1,5.641,2.388c1.368,1.606,2.06,3.935,2.06,6.92a9.953,9.953,0,0,1-2.122,6.781,7.341,7.341,0,0,1-5.774,2.38,6.877,6.877,0,0,1-5.549-2.5,11.471,11.471,0,0,1,.054-13.449A7.11,7.11,0,0,1,4344.419,805.3Z" transform="translate(-4264.721 -801.924)"/>
      <path id="Trazado_1256" data-name="Trazado 1256" class="cls-5" d="M4358.055,826.714h3.633V816.293h8.5v-3.357h-8.5v-7.259h9.19V802.3h-12.824Z" transform="translate(-4263.679 -801.908)"/>
      <rect id="Rectángulo_687" data-name="Rectángulo 687" class="cls-5" width="3.637" height="24.411" transform="translate(111.899 0.394)"/>
      <path id="Trazado_1257" data-name="Trazado 1257" class="cls-5" d="M4395.325,804.251a8.994,8.994,0,0,0-6.142-1.949h-6.906v24.412h3.637v-8.894h2.661a9.275,9.275,0,0,0,6.526-2.25,7.584,7.584,0,0,0,2.445-5.8A7.01,7.01,0,0,0,4395.325,804.251Zm-9.411,1.425h2.792c3.415,0,5.074,1.382,5.074,4.22a4.171,4.171,0,0,1-1.349,3.352,6.08,6.08,0,0,1-4.07,1.2h-2.447Z" transform="translate(-4262.691 -801.908)"/>
      <path id="Trazado_1258" data-name="Trazado 1258" class="cls-5" d="M4411.354,801.924a11.185,11.185,0,0,0-8.678,3.525,13.443,13.443,0,0,0-3.184,9.353,12.707,12.707,0,0,0,3.128,8.879,10.791,10.791,0,0,0,8.339,3.443,10.985,10.985,0,0,0,8.5-3.492c2.1-2.3,3.167-5.468,3.167-9.4a12.75,12.75,0,0,0-3.091-8.878A10.565,10.565,0,0,0,4411.354,801.924Zm7.5,12.682a9.944,9.944,0,0,1-2.121,6.781,7.342,7.342,0,0,1-5.777,2.38,6.88,6.88,0,0,1-5.546-2.5,11.465,11.465,0,0,1,.053-13.449,7.114,7.114,0,0,1,5.693-2.524,6.948,6.948,0,0,1,5.636,2.388C4418.165,809.293,4418.857,811.622,4418.857,814.606Z" transform="translate(-4261.979 -801.924)"/>
      <g id="Grupo_496" data-name="Grupo 496" transform="translate(51.408 0)">
        <path id="Trazado_1269" data-name="Trazado 1269" class="cls-5" d="M4320.76,806.919a.451.451,0,0,1,.033-.071,3.12,3.12,0,0,1,1.007-.965c.1-.062.219-.105.328-.158a3.8,3.8,0,0,0-1.368,1.194c-.032.055-.049.122-.08.181" transform="translate(-4316.624 -801.769)"/>
        <path id="Trazado_1270" data-name="Trazado 1270" class="cls-5" d="M4321.338,806.7a2.4,2.4,0,0,0-.758,1.686v.014a2.951,2.951,0,0,0,.288,1.359,3.36,3.36,0,0,0,.884,1.06,9.415,9.415,0,0,0,1.527,1q.936.505,2.159,1.109c.855.421,1.671.868,2.43,1.332a11.3,11.3,0,0,1,2.065,1.589,7.221,7.221,0,0,1,1.439,1.973,5.667,5.667,0,0,1,.547,2.524,6.381,6.381,0,0,1-.737,3.162,6.08,6.08,0,0,1-1.981,2.113,8.532,8.532,0,0,1-2.812,1.152,15.113,15.113,0,0,1-3.278.347,13.48,13.48,0,0,1-1.428-.094c-.554-.06-1.129-.15-1.71-.268a14.033,14.033,0,0,1-1.669-.44,5.474,5.474,0,0,1-1.331-.618l-.191-.131v-3.789h0a18.2,18.2,0,0,0,3.832,1.516,12.521,12.521,0,0,0,1.391.326,9.224,9.224,0,0,0,1.534.143,6.237,6.237,0,0,0,3.319-.733,2.424,2.424,0,0,0,.215-.123h0a3.093,3.093,0,0,0,.722-3.8,4.261,4.261,0,0,0-1.047-1.167,11.123,11.123,0,0,0-1.684-1.073q-1.006-.532-2.166-1.122c-.823-.414-1.606-.844-2.324-1.279a10.357,10.357,0,0,1-1.938-1.473,6.368,6.368,0,0,1-1.331-1.878,6.409,6.409,0,0,1,.275-5.5,6.528,6.528,0,0,1,1.986-2.1,8.937,8.937,0,0,1,2.754-1.21,12.473,12.473,0,0,1,3.105-.391,11.74,11.74,0,0,1,5.274.888l.236.124v3.59a13.607,13.607,0,0,0-6.57-1.263,5.2,5.2,0,0,0-3,1.415Z" transform="translate(-4316.781 -801.924)"/>
      </g>
      <path id="Trazado_1271" data-name="Trazado 1271" class="cls-5" d="M4310.267,802.3l-7.932,17.377L4294.4,802.3l0,0v0h-3.9v24.411h3.9v-14.75l2.134,4.875,4.312,9.875h2.977l.213-.491.011,0,6.222-14.21v14.7h3.9V802.3Z" transform="translate(-4266.456 -801.908)"/>
    </g>
  </g>
</svg>
