<svg id="surface1" xmlns="http://www.w3.org/2000/svg" width="40" height="40" viewBox="0 0 40 40">
  <defs>
    <style>
      .cls-1 {
        fill: #fff;
      }
    </style>
  </defs>
  <path id="Trazado_2314" data-name="Trazado 2314" class="cls-1" d="M39.77,11.771,31.4.474a1.172,1.172,0,0,0-1.883,0l-8.368,11.3a1.172,1.172,0,0,0,.942,1.87H25.1V19.3a4.28,4.28,0,0,0-1.966-.477H21.046a4.315,4.315,0,0,0-4.31,4.31v2.443A4.281,4.281,0,0,0,14.77,25.1H12.678a4.315,4.315,0,0,0-4.31,4.31v2.443A4.285,4.285,0,0,0,6.4,31.38H4.31A4.315,4.315,0,0,0,0,35.69v3.138A1.172,1.172,0,0,0,1.172,40H34.644a1.172,1.172,0,0,0,1.172-1.172V13.641h3.012a1.172,1.172,0,0,0,.942-1.87ZM2.344,35.69A1.968,1.968,0,0,1,4.31,33.724H6.4A1.969,1.969,0,0,1,8.368,35.69v1.966H2.344Zm8.368,0V29.414a1.968,1.968,0,0,1,1.966-1.966H14.77a1.968,1.968,0,0,1,1.966,1.966v8.242H10.712Zm8.368-6.276V23.138a1.968,1.968,0,0,1,1.966-1.966h2.092A1.968,1.968,0,0,1,25.1,23.138V37.656H19.08ZM34.644,11.3a1.172,1.172,0,0,0-1.172,1.172V37.656H27.448V12.469A1.172,1.172,0,0,0,26.276,11.3H24.418L30.46,3.141,36.5,11.3Zm0,0"/>
</svg>
