<svg xmlns="http://www.w3.org/2000/svg" width="47.715" height="34" viewBox="0 0 47.715 34">
  <defs>
    <style>
      .cls-1 {
        fill: none;
        stroke: #fff;
        stroke-linecap: round;
        stroke-miterlimit: 10;
        stroke-width: 2px;
      }
    </style>
  </defs>
  <g id="icon-people-alt" transform="translate(1 1)">
    <path id="Trazado_1760" data-name="Trazado 1760" class="cls-1" d="M4685.209,1670.379c2.748,0,4.571-2.339,4.571-5.224v-1.742c0-2.886-1.823-5.225-4.571-5.225s-4.572,2.339-4.572,5.225v1.742C4680.637,1668.04,4682.459,1670.379,4685.209,1670.379Z" transform="translate(-4662.351 -1658.188)"/>
    <path id="Trazado_1761" data-name="Trazado 1761" class="cls-1" d="M4701.29,1673.6c2.749,0,4.572-2.339,4.572-5.225v-1.742c0-2.886-1.823-5.224-4.572-5.224s-4.571,2.339-4.571,5.224v1.742C4696.718,1671.256,4698.541,1673.6,4701.29,1673.6Z" transform="translate(-4663.193 -1658.356)"/>
    <path id="Trazado_1762" data-name="Trazado 1762" class="cls-1" d="M4669.129,1673.6c2.749,0,4.572-2.339,4.572-5.225v-1.742c0-2.886-1.823-5.224-4.572-5.224s-4.572,2.339-4.572,5.224v1.742C4664.558,1671.256,4666.38,1673.6,4669.129,1673.6Z" transform="translate(-4661.51 -1658.356)"/>
    <path id="Trazado_1763" data-name="Trazado 1763" class="cls-1" d="M4694.1,1691.114v-10.666c0-3.776-5.967-4.572-9.143-4.572s-9.143.8-9.143,4.572v9.142" transform="translate(-4662.099 -1659.114)"/>
    <path id="Trazado_1764" data-name="Trazado 1764" class="cls-1" d="M4695.11,1679.609a20.111,20.111,0,0,1,4.572-.516c3.175,0,9.143.8,9.143,4.57v6.1" transform="translate(-4663.109 -1659.282)"/>
    <path id="Trazado_1765" data-name="Trazado 1765" class="cls-1" d="M4661.341,1689.758v-6.1c0-3.774,5.969-4.57,9.145-4.57a20.1,20.1,0,0,1,4.571.516" transform="translate(-4661.341 -1659.282)"/>
  </g>
</svg>
