<svg xmlns="http://www.w3.org/2000/svg" width="79.45" height="96" viewBox="0 0 79.45 96">
  <defs>
    <style>
      .cls-1 {
        fill: #fff;
      }
    </style>
  </defs>
  <g id="icon-award-alt" transform="translate(-39.995)">
    <g id="Grupo_1573" data-name="Grupo 1573" transform="translate(39.995)">
      <g id="Grupo_1572" data-name="Grupo 1572">
        <path id="Trazado_2340" data-name="Trazado 2340" class="cls-1" d="M119.1,83.4,109.025,70.451a14.578,14.578,0,0,0,7.968-5.9c2.372-4.1,1.3-9.1.262-13.937a38.067,38.067,0,0,1-1.121-7.581,38.053,38.053,0,0,1,1.121-7.587c1.031-4.836,2.11-9.837-.262-13.93-2.456-4.244-7.4-5.815-12.185-7.331a35.447,35.447,0,0,1-6.881-2.695,33.624,33.624,0,0,1-5.513-4.469C88.865,3.729,84.842,0,79.72,0s-9.145,3.729-12.7,7.021a33.634,33.634,0,0,1-5.512,4.471,35.438,35.438,0,0,1-6.879,2.688c-4.783,1.516-9.729,3.087-12.185,7.331-2.372,4.1-1.3,9.1-.262,13.937a38.054,38.054,0,0,1,1.119,7.587,38.053,38.053,0,0,1-1.121,7.587c-1.031,4.836-2.11,9.837.262,13.93a14.579,14.579,0,0,0,7.976,5.9L40.344,83.4a1.655,1.655,0,0,0,1.513,2.658l11.834-1.478L56.613,94.8a1.655,1.655,0,0,0,1.276,1.17A1.688,1.688,0,0,0,58.2,96a1.655,1.655,0,0,0,1.308-.639l10.57-13.6a15.305,15.305,0,0,0,9.64,4.3,15.305,15.305,0,0,0,9.64-4.3L99.93,95.356a1.655,1.655,0,0,0,1.308.644,1.688,1.688,0,0,0,.314-.03,1.655,1.655,0,0,0,1.276-1.17l2.921-10.221,11.834,1.478A1.655,1.655,0,0,0,119.1,83.4ZM58.9,90.755,56.483,82.3a1.655,1.655,0,0,0-1.8-1.187l-9.269,1.159L53.726,71.6l.915.293a35.436,35.436,0,0,1,6.872,2.688,33.625,33.625,0,0,1,5.513,4.469l.569.526Zm20.822-8c-3.823,0-7.039-2.979-10.446-6.137a36.485,36.485,0,0,0-6.106-4.911,38.379,38.379,0,0,0-7.536-2.979c-4.375-1.389-8.508-2.7-10.322-5.834-1.731-2.994-.838-7.167.111-11.586a40.534,40.534,0,0,0,1.2-8.276,40.517,40.517,0,0,0-1.193-8.276c-.948-4.418-1.842-8.59-.111-11.586,1.821-3.135,5.947-4.446,10.322-5.834a38.388,38.388,0,0,0,7.534-2.979,36.484,36.484,0,0,0,6.1-4.911C72.681,6.29,75.9,3.31,79.72,3.31S86.76,6.29,90.166,9.448a36.485,36.485,0,0,0,6.106,4.911,38.379,38.379,0,0,0,7.536,2.979c4.375,1.389,8.508,2.7,10.322,5.834,1.731,2.994.838,7.167-.111,11.586a40.532,40.532,0,0,0-1.2,8.276,40.515,40.515,0,0,0,1.193,8.276c.948,4.418,1.842,8.59.111,11.586-1.821,3.135-5.947,4.446-10.322,5.834a38.39,38.39,0,0,0-7.534,2.979,36.484,36.484,0,0,0-6.1,4.911C86.76,79.779,83.544,82.759,79.72,82.759Zm25.041-1.642a1.655,1.655,0,0,0-1.8,1.187l-2.423,8.451-8.7-11.181.569-.526a33.635,33.635,0,0,1,5.512-4.471,35.438,35.438,0,0,1,6.879-2.688l.915-.293,8.309,10.679Z" transform="translate(-39.995)"/>
      </g>
    </g>
    <g id="Grupo_1575" data-name="Grupo 1575" transform="translate(49.927 13.241)">
      <g id="Grupo_1574" data-name="Grupo 1574" transform="translate(0)">
        <path id="Trazado_2341" data-name="Trazado 2341" class="cls-1" d="M117.793,64a29.793,29.793,0,1,0,29.793,29.793A29.793,29.793,0,0,0,117.793,64Zm0,56.276a26.483,26.483,0,1,1,26.483-26.483A26.483,26.483,0,0,1,117.793,120.276Z" transform="translate(-88 -64)"/>
      </g>
    </g>
    <g id="Grupo_1577" data-name="Grupo 1577" transform="translate(59.986 22.836)">
      <g id="Grupo_1576" data-name="Grupo 1576" transform="translate(0)">
        <path id="Trazado_2342" data-name="Trazado 2342" class="cls-1" d="M175.448,123.66a3.31,3.31,0,0,0-2.675-1.362H162.64l-3.145-9.645a3.31,3.31,0,0,0-6.29,0l-3.137,9.645H139.928a3.31,3.31,0,0,0-1.95,5.987l8.2,5.959-3.133,9.645a3.31,3.31,0,0,0,5.095,3.7l8.208-5.957,8.2,5.959a3.31,3.31,0,0,0,5.095-3.7l-3.133-9.646,8.2-5.959A3.31,3.31,0,0,0,175.448,123.66ZM163.6,132.274a1.655,1.655,0,0,0-.6,1.852l3.506,10.788-9.178-6.667a1.655,1.655,0,0,0-1.945,0l-9.178,6.667,3.5-10.788a1.655,1.655,0,0,0-.6-1.85l-9.176-6.667h11.343a1.655,1.655,0,0,0,1.574-1.144l3.506-10.788,3.506,10.787a1.655,1.655,0,0,0,1.574,1.144l11.343,0Z" transform="translate(-136.616 -110.376)"/>
      </g>
    </g>
  </g>
</svg>
