<svg xmlns="http://www.w3.org/2000/svg" width="95.999" height="96.047" viewBox="0 0 95.999 96.047">
  <defs>
    <style>
      .cls-1 {
        fill: #fff;
      }
    </style>
  </defs>
  <g id="icon-check-list-alt" transform="translate(0 0.001)">
    <path id="Trazado_4435" data-name="Trazado 4435" class="cls-1" d="M120.008,288a16.008,16.008,0,1,0,16.008,16.008A16.008,16.008,0,0,0,120.008,288Zm0,28.814a12.806,12.806,0,1,1,12.806-12.806A12.806,12.806,0,0,1,120.008,316.814Zm0,0" transform="translate(-83.19 -230.373)"/>
    <path id="Trazado_4436" data-name="Trazado 4436" class="cls-1" d="M158.4,324.8c1.955,0,3.2.947,3.2,1.6h3.2c0-2.275-2.015-4.117-4.8-4.642V320h-3.2v1.761c-2.787.521-4.8,2.364-4.8,4.642,0,2.694,2.812,4.8,6.4,4.8,1.955,0,3.2.947,3.2,1.6s-1.247,1.6-3.2,1.6-3.2-.947-3.2-1.6H152c0,2.275,2.015,4.117,4.8,4.642v1.761H160v-1.761c2.787-.521,4.8-2.364,4.8-4.642,0-2.694-2.812-4.8-6.4-4.8-1.955,0-3.2-.947-3.2-1.6S156.448,324.8,158.4,324.8Zm0,0" transform="translate(-121.586 -255.97)"/>
    <path id="Trazado_4437" data-name="Trazado 4437" class="cls-1" d="M81.64,92.845H14.407V54.426H40.019a4.8,4.8,0,0,0,4.8-4.8V9.6H62.43V28.813H81.64V51.224h3.2V26.55L64.694,6.4H44.821V4.8a4.8,4.8,0,0,0-4.8-4.8H4.8A4.8,4.8,0,0,0,0,4.8V49.623a4.8,4.8,0,0,0,4.8,4.8h6.4v41.62H84.841V73.635h-3.2ZM65.632,11.867,79.376,25.612H65.632ZM3.2,49.623V4.8A1.6,1.6,0,0,1,4.8,3.2H40.019a1.6,1.6,0,0,1,1.6,1.6V49.623a1.6,1.6,0,0,1-1.6,1.6H4.8A1.6,1.6,0,0,1,3.2,49.623Zm0,0"/>
    <path id="Trazado_4438" data-name="Trazado 4438" class="cls-1" d="M256,200h3.2v3.2H256Zm0,0" transform="translate(-204.775 -159.981)"/>
    <path id="Trazado_4439" data-name="Trazado 4439" class="cls-1" d="M288,200h19.209v3.2H288Zm0,0" transform="translate(-230.372 -159.981)"/>
    <path id="Trazado_4440" data-name="Trazado 4440" class="cls-1" d="M256,168h3.2v3.2H256Zm0,0" transform="translate(-204.775 -134.384)"/>
    <path id="Trazado_4441" data-name="Trazado 4441" class="cls-1" d="M288,168h19.209v3.2H288Zm0,0" transform="translate(-230.372 -134.384)"/>
    <path id="Trazado_4442" data-name="Trazado 4442" class="cls-1" d="M256,232h3.2v3.2H256Zm0,0" transform="translate(-204.775 -185.578)"/>
    <path id="Trazado_4443" data-name="Trazado 4443" class="cls-1" d="M288,232h19.209v3.2H288Zm0,0" transform="translate(-230.372 -185.578)"/>
    <path id="Trazado_4444" data-name="Trazado 4444" class="cls-1" d="M256,264h3.2v3.2H256Zm0,0" transform="translate(-204.775 -211.175)"/>
    <path id="Trazado_4445" data-name="Trazado 4445" class="cls-1" d="M288,264h19.209v3.2H288Zm0,0" transform="translate(-230.372 -211.175)"/>
    <path id="Trazado_4446" data-name="Trazado 4446" class="cls-1" d="M59.217,24H24V35.205H59.217Zm-3.2,8H27.2V27.2H56.016Zm0,0" transform="translate(-19.198 -19.198)"/>
    <path id="Trazado_4447" data-name="Trazado 4447" class="cls-1" d="M38.4,88H35.2A3.2,3.2,0,0,0,32,91.2v3.2a3.2,3.2,0,0,0,3.2,3.2h3.2a3.2,3.2,0,0,0,3.2-3.2V91.2A3.2,3.2,0,0,0,38.4,88Zm-3.2,6.4V91.2h3.2v3.2Zm0,0" transform="translate(-25.597 -70.392)"/>
    <path id="Trazado_4448" data-name="Trazado 4448" class="cls-1" d="M94.4,88H91.2A3.2,3.2,0,0,0,88,91.2v3.2a3.2,3.2,0,0,0,3.2,3.2h3.2a3.2,3.2,0,0,0,3.2-3.2V91.2A3.2,3.2,0,0,0,94.4,88Zm-3.2,6.4V91.2h3.2v3.2Zm0,0" transform="translate(-70.392 -70.392)"/>
    <path id="Trazado_4449" data-name="Trazado 4449" class="cls-1" d="M150.4,88h-3.2a3.2,3.2,0,0,0-3.2,3.2v3.2a3.2,3.2,0,0,0,3.2,3.2h3.2a3.2,3.2,0,0,0,3.2-3.2V91.2A3.2,3.2,0,0,0,150.4,88Zm-3.2,6.4V91.2h3.2v3.2Zm0,0" transform="translate(-115.186 -70.392)"/>
    <path id="Trazado_4450" data-name="Trazado 4450" class="cls-1" d="M38.4,144H35.2a3.2,3.2,0,0,0-3.2,3.2v3.2a3.2,3.2,0,0,0,3.2,3.2h3.2a3.2,3.2,0,0,0,3.2-3.2v-3.2A3.2,3.2,0,0,0,38.4,144Zm-3.2,6.4v-3.2h3.2v3.2Zm0,0" transform="translate(-25.597 -115.187)"/>
    <path id="Trazado_4451" data-name="Trazado 4451" class="cls-1" d="M94.4,144H91.2a3.2,3.2,0,0,0-3.2,3.2v3.2a3.2,3.2,0,0,0,3.2,3.2h3.2a3.2,3.2,0,0,0,3.2-3.2v-3.2A3.2,3.2,0,0,0,94.4,144Zm-3.2,6.4v-3.2h3.2v3.2Zm0,0" transform="translate(-70.392 -115.187)"/>
    <path id="Trazado_4452" data-name="Trazado 4452" class="cls-1" d="M150.4,144h-3.2a3.2,3.2,0,0,0-3.2,3.2v3.2a3.2,3.2,0,0,0,3.2,3.2h3.2a3.2,3.2,0,0,0,3.2-3.2v-3.2A3.2,3.2,0,0,0,150.4,144Zm-3.2,6.4v-3.2h3.2v3.2Zm0,0" transform="translate(-115.186 -115.187)"/>
    <path id="Trazado_4453" data-name="Trazado 4453" class="cls-1" d="M38.4,200H35.2a3.2,3.2,0,0,0-3.2,3.2v3.2a3.2,3.2,0,0,0,3.2,3.2h3.2a3.2,3.2,0,0,0,3.2-3.2v-3.2A3.2,3.2,0,0,0,38.4,200Zm-3.2,6.4v-3.2h3.2v3.2Zm0,0" transform="translate(-25.597 -159.981)"/>
    <path id="Trazado_4454" data-name="Trazado 4454" class="cls-1" d="M94.4,200H91.2a3.2,3.2,0,0,0-3.2,3.2v3.2a3.2,3.2,0,0,0,3.2,3.2h3.2a3.2,3.2,0,0,0,3.2-3.2v-3.2A3.2,3.2,0,0,0,94.4,200Zm-3.2,6.4v-3.2h3.2v3.2Zm0,0" transform="translate(-70.392 -159.981)"/>
    <path id="Trazado_4455" data-name="Trazado 4455" class="cls-1" d="M150.4,200h-3.2a3.2,3.2,0,0,0-3.2,3.2v3.2a3.2,3.2,0,0,0,3.2,3.2h3.2a3.2,3.2,0,0,0,3.2-3.2v-3.2A3.2,3.2,0,0,0,150.4,200Zm-3.2,6.4v-3.2h3.2v3.2Zm0,0" transform="translate(-115.186 -159.981)"/>
    <path id="Trazado_4456" data-name="Trazado 4456" class="cls-1" d="M318.576,249.827a4.916,4.916,0,0,0-6.79,0l-27.442,27.442a1.62,1.62,0,0,0-.32.463l-3.864,8.392a1.6,1.6,0,0,0,2.123,2.123l8.392-3.864a1.6,1.6,0,0,0,.463-.32l27.44-27.442a4.8,4.8,0,0,0,0-6.792Zm-29.5,31.766-4.194,1.932,1.932-4.194,20.461-20.462,2.264,2.264ZM311.8,258.861,309.54,256.6l1.121-1.121,2.264,2.264Zm4.515-4.514-1.132,1.132-2.264-2.264,1.133-1.132a1.637,1.637,0,0,1,2.262,0A1.6,1.6,0,0,1,316.318,254.347Zm0,0" transform="translate(-223.983 -198.749)"/>
  </g>
</svg>
