<svg xmlns="http://www.w3.org/2000/svg" width="60.86" height="81" viewBox="0 0 60.86 81">
  <defs>
    <style>
      .cls-1 {
        fill: #fff;
        stroke: #fff;
      }
    </style>
  </defs>
  <g id="Grupo_3392" data-name="Grupo 3392" transform="translate(0.5 0.5)">
    <g id="Grupo_695" data-name="Grupo 695">
      <path id="Trazado_1737" data-name="Trazado 1737" class="cls-1" d="M4700.322,1902.807a1.474,1.474,0,0,1-1.069-.461c-1.177-1.243-28.862-30.692-28.862-49.609a29.93,29.93,0,1,1,59.86,0c0,18.917-27.68,48.366-28.86,49.609A1.47,1.47,0,0,1,4700.322,1902.807Zm0-77.057a27.021,27.021,0,0,0-26.991,26.987c0,15.744,21.855,40.765,26.991,46.426,5.133-5.661,26.988-30.683,26.988-46.426A27.018,27.018,0,0,0,4700.322,1825.75Z" transform="translate(-4670.391 -1822.807)"/>
      <path id="Trazado_1738" data-name="Trazado 1738" class="cls-1" d="M4693.838,1863.05a16.821,16.821,0,1,1,16.82-16.822A16.84,16.84,0,0,1,4693.838,1863.05Zm0-30.7a13.878,13.878,0,1,0,13.877,13.877A13.893,13.893,0,0,0,4693.838,1832.352Z" transform="translate(-4663.859 -1816.299)"/>
      <path id="Trazado_1739" data-name="Trazado 1739" class="cls-1" d="M4690.049,1851.63a9.189,9.189,0,1,1,9.188-9.19A9.2,9.2,0,0,1,4690.049,1851.63Zm0-15.435a6.246,6.246,0,1,0,6.245,6.245A6.253,6.253,0,0,0,4690.049,1836.2Z" transform="translate(-4660.07 -1812.51)"/>
    </g>
  </g>
</svg>
