<svg xmlns="http://www.w3.org/2000/svg" width="96" height="96" viewBox="0 0 96 96">
  <g id="pin" transform="translate(0 -0.001)">
    <g id="Grupo_1833" data-name="Grupo 1833" transform="translate(0 0.001)">
      <g id="Grupo_1832" data-name="Grupo 1832" transform="translate(0)">
        <path id="Trazado_2891" data-name="Trazado 2891" d="M95.867,93.181,83.345,59.79a2.086,2.086,0,0,0-1.953-1.354H62.257l7.2-12.7a79.433,79.433,0,0,0,3.746-7.745,29.547,29.547,0,0,0,1.924-9.917C75.131,12.594,62.96,0,48,0S20.871,12.594,20.871,28.07a29.36,29.36,0,0,0,1.941,9.923,80.794,80.794,0,0,0,3.748,7.738l7.194,12.7H14.61a2.091,2.091,0,0,0-1.955,1.354L.133,93.181A2.088,2.088,0,0,0,2.088,96H93.914a2.085,2.085,0,0,0,1.953-2.819ZM30.189,43.675a78.19,78.19,0,0,1-3.514-7.254,25.236,25.236,0,0,1-1.63-8.348c0-13.177,10.3-23.9,22.956-23.9S70.957,14.9,70.957,28.07a25.751,25.751,0,0,1-1.617,8.35,75.324,75.324,0,0,1-3.51,7.252L56.881,59.452c-.008.015-.023.027-.031.042L48.243,74.684a1.86,1.86,0,0,1-.242.346,1.994,1.994,0,0,1-.24-.342l-8.611-15.2a0,0,0,0,0,0,0ZM5.1,91.827,16.056,62.609H36.118l8.008,14.135a.029.029,0,0,0,.006.008l2.051,3.621a2.172,2.172,0,0,0,3.631,0l2.058-3.631v0L59.89,62.609H79.946L90.9,91.827Z" transform="translate(0 -0.001)" fill="#195852"/>
        <path id="Trazado_2892" data-name="Trazado 2892" d="M157.221,62.61a14.609,14.609,0,1,0-14.609,14.609A14.626,14.626,0,0,0,157.221,62.61Zm-25.043,0a10.435,10.435,0,1,1,10.435,10.435A10.447,10.447,0,0,1,132.178,62.61Z" transform="translate(-94.612 -35.479)" fill="#195852"/>
      </g>
    </g>
  </g>
</svg>
