<svg id="clients" xmlns="http://www.w3.org/2000/svg" width="32" height="32" viewBox="0 0 32 32">
  <defs>
    <style>
      .cls-1 {
        fill: #195852;
      }
    </style>
  </defs>
  <path id="Trazado_2311" data-name="Trazado 2311" class="cls-1" d="M31.245,224.766a2.917,2.917,0,0,0-1.788-.74,2.577,2.577,0,0,0-1.966.74l-3.558,3.478a2.281,2.281,0,0,0-2.043-1.136H16.909a10.332,10.332,0,0,1-2.723-.357,6.763,6.763,0,0,0-6.25,1.307,9.023,9.023,0,0,0-1.628,1.726l-.893-.856a.639.639,0,0,0-.44-.177h0a.64.64,0,0,0-.451.192L.177,233.4a.617.617,0,0,0,.019.882l7.343,6.908a.635.635,0,0,0,.885-.016l4.3-4.359a.62.62,0,0,0-.012-.885l-.375-.359.857-.1a13.789,13.789,0,0,1,1.568-.09h7.578a5.743,5.743,0,0,0,3.109-.791l.021-.014a4.177,4.177,0,0,0,.8-.72l5.107-5.936a2.154,2.154,0,0,0-.136-3.154ZM7.957,239.86l-6.434-6.052,3.466-3.555,6.4,6.132Zm22.465-12.746-5.107,5.936a2.929,2.929,0,0,1-.553.5,4.52,4.52,0,0,1-2.42.589H14.763a15.044,15.044,0,0,0-1.711.1l-1.884.209-3.945-3.782a7.789,7.789,0,0,1,1.509-1.64,5.469,5.469,0,0,1,5.118-1.071,11.607,11.607,0,0,0,3.059.4H21.89a1.128,1.128,0,0,1,1.133,1.218,1.336,1.336,0,0,1-.295.863,1.076,1.076,0,0,1-.858.356H17.534a.622.622,0,1,0,0,1.244H21.87a2.347,2.347,0,0,0,1.818-.794,2.536,2.536,0,0,0,.593-1.585l4.1-4.006a1.487,1.487,0,0,1,2.013.033.93.93,0,0,1,.031,1.434Zm0,0" transform="translate(-0.001 -209.356)"/>
  <path id="Trazado_2312" data-name="Trazado 2312" class="cls-1" d="M230.481,333.707a.629.629,0,1,0-1.226.287l.006.026a.63.63,0,0,0,.612.486.637.637,0,0,0,.144-.017.629.629,0,0,0,.469-.757Zm0,0" transform="translate(-214.911 -312.426)"/>
  <path id="Trazado_2313" data-name="Trazado 2313" class="cls-1" d="M45.153,12.5h5.882a1.513,1.513,0,0,0,.858-.263,1.513,1.513,0,0,0,.858.263h5.882a1.513,1.513,0,0,0,.858-.263,1.513,1.513,0,0,0,.858.263H66.23a1.423,1.423,0,0,0,1.461-1.377V8.538a2.967,2.967,0,0,0-1.721-2.666,3.154,3.154,0,0,0,.8-2.091,3.488,3.488,0,0,0-6.964,0,3.154,3.154,0,0,0,.8,2.091,3.118,3.118,0,0,0-1.118.9,3.112,3.112,0,0,0-1.118-.9,3.154,3.154,0,0,0,.8-2.091,3.488,3.488,0,0,0-6.964,0,3.155,3.155,0,0,0,.8,2.091,3.113,3.113,0,0,0-1.118.9,3.115,3.115,0,0,0-1.118-.9,3.153,3.153,0,0,0,.8-2.091,3.488,3.488,0,0,0-6.964,0,3.154,3.154,0,0,0,.8,2.091,2.968,2.968,0,0,0-1.722,2.666v2.584A1.423,1.423,0,0,0,45.152,12.5ZM63.289,1.638a2.214,2.214,0,0,1,2.275,2.143,2.279,2.279,0,0,1-4.549,0A2.214,2.214,0,0,1,63.289,1.638ZM61.72,6.709a3.66,3.66,0,0,0,3.136,0,1.883,1.883,0,0,1,1.627,1.83v2.584a.247.247,0,0,1-.254.24H60.348a.247.247,0,0,1-.254-.24V8.538a1.883,1.883,0,0,1,1.627-1.83ZM55.691,1.638a2.214,2.214,0,0,1,2.275,2.143,2.279,2.279,0,0,1-4.549,0A2.214,2.214,0,0,1,55.691,1.638ZM54.123,6.709a3.66,3.66,0,0,0,3.136,0,1.883,1.883,0,0,1,1.627,1.83v2.584a.247.247,0,0,1-.254.24H52.75a.247.247,0,0,1-.254-.24V8.538a1.883,1.883,0,0,1,1.627-1.83Zm-6.03-5.071a2.214,2.214,0,0,1,2.275,2.143,2.279,2.279,0,0,1-4.549,0A2.214,2.214,0,0,1,48.093,1.638Zm-3.2,6.9a1.883,1.883,0,0,1,1.627-1.83,3.66,3.66,0,0,0,3.136,0,1.883,1.883,0,0,1,1.627,1.83v2.584a.247.247,0,0,1-.254.24H45.152a.247.247,0,0,1-.254-.24Zm0,0" transform="translate(-40.96 -0.5)"/>
</svg>
