<svg xmlns="http://www.w3.org/2000/svg" width="80" height="80" viewBox="0 0 80 80">
  <defs>
    <style>
      .cls-1 {
        fill: #9dd4ca;
      }

      .cls-2 {
        fill: none;
        stroke: #fff;
        stroke-linecap: round;
        stroke-linejoin: round;
        stroke-width: 2px;
      }
    </style>
  </defs>
  <g id="indicadores-municipios-atendidos" transform="translate(10462 -1614)">
    <path id="Trazado_4960" data-name="Trazado 4960" class="cls-1" d="M4,0H76a4,4,0,0,1,4,4V76a4,4,0,0,1-4,4H4a4,4,0,0,1-4-4V4A4,4,0,0,1,4,0Z" transform="translate(-10462 1614)"/>
    <g id="Icon_feather-map-pin" data-name="Icon feather-map-pin" transform="translate(-10446.5 1628.5)">
      <path id="Trazado_4941" data-name="Trazado 4941" class="cls-2" d="M43.773,21.136c0,15.273-19.636,28.364-19.636,28.364S4.5,36.409,4.5,21.136a19.636,19.636,0,0,1,39.273,0Z" transform="translate(0 0)"/>
      <path id="Trazado_4942" data-name="Trazado 4942" class="cls-2" d="M26.591,17.045A6.545,6.545,0,1,1,20.045,10.5,6.545,6.545,0,0,1,26.591,17.045Z" transform="translate(4.091 4.091)"/>
    </g>
  </g>
</svg>
