<svg xmlns="http://www.w3.org/2000/svg" width="80" height="80" viewBox="0 0 80 80">
  <defs>
    <style>
      .cls-1 {
        fill: #9dd4ca;
      }

      .cls-2 {
        fill: #fff;
      }
    </style>
  </defs>
  <g id="indicadores-activo-total" transform="translate(10272 -1617)">
    <path id="Trazado_4962" data-name="Trazado 4962" class="cls-1" d="M4,0H76a4,4,0,0,1,4,4V76a4,4,0,0,1-4,4H4a4,4,0,0,1-4-4V4A4,4,0,0,1,4,0Z" transform="translate(-10272 1617)"/>
    <g id="Grupo_3569" data-name="Grupo 3569" transform="translate(-11114.23 -293)">
      <g id="Grupo_2206" data-name="Grupo 2206" transform="translate(858.231 1926)">
        <g id="Grupo_2205" data-name="Grupo 2205">
          <path id="Trazado_3414" data-name="Trazado 3414" class="cls-2" d="M40.312,26.891V23.472c2.246-1.476,2.813-3.046,2.813-4.254V13.594c0-1.122-.51-2.727-2.813-4.247V7.969c0-1.7-1.116-4.107-6.433-5.968A43.107,43.107,0,0,0,20.156,0,43.107,43.107,0,0,0,6.433,2C1.116,3.862,0,6.274,0,7.969v5.625a4.252,4.252,0,0,0,1.132,2.819A4.271,4.271,0,0,0,0,19.219V36.094c0,1.7,1.116,4.107,6.433,5.968a43.106,43.106,0,0,0,13.723,2,51.26,51.26,0,0,0,8.244-.648A10.78,10.78,0,1,0,40.312,26.891Zm0-13.3v5.625c0,.794-1.192,2.138-4.55,3.313a40.272,40.272,0,0,1-12.794,1.843,40.272,40.272,0,0,1-12.794-1.843c-3.3-1.154-4.506-2.471-4.548-3.27q.386.152.806.3a43.107,43.107,0,0,0,13.723,2,43.107,43.107,0,0,0,13.723-2C39.2,17.7,40.312,15.289,40.312,13.594ZM7.363,4.656A40.272,40.272,0,0,1,20.156,2.812,40.272,40.272,0,0,1,32.95,4.656c3.358,1.175,4.55,2.519,4.55,3.313s-1.192,2.138-4.55,3.313a40.272,40.272,0,0,1-12.794,1.843A40.272,40.272,0,0,1,7.363,11.282C4,10.106,2.812,8.762,2.812,7.969S4,5.831,7.363,4.656Zm-4.55,7.567a16.527,16.527,0,0,0,3.621,1.714,43.106,43.106,0,0,0,13.723,2,43.107,43.107,0,0,0,13.723-2A16.525,16.525,0,0,0,37.5,12.222v1.371c0,.794-1.192,2.138-4.55,3.313A40.272,40.272,0,0,1,20.156,18.75,40.272,40.272,0,0,1,7.363,16.907C4,15.731,2.812,14.387,2.812,13.594ZM20.156,41.25A40.272,40.272,0,0,1,7.363,39.407C4,38.231,2.812,36.887,2.812,36.094V34.722a16.527,16.527,0,0,0,3.621,1.714,43.106,43.106,0,0,0,13.723,2,52.41,52.41,0,0,0,6.314-.373,10.7,10.7,0,0,0,.572,2.713A49.312,49.312,0,0,1,20.156,41.25Zm6.469-6.039a49.151,49.151,0,0,1-6.469.414A40.272,40.272,0,0,1,7.363,33.782C4,32.606,2.812,31.262,2.812,30.469V29.1a16.527,16.527,0,0,0,3.621,1.714,43.107,43.107,0,0,0,13.723,2,51.6,51.6,0,0,0,7.478-.528A10.7,10.7,0,0,0,26.626,35.211ZM20.156,30A40.272,40.272,0,0,1,7.363,28.157C4,26.981,2.812,25.637,2.812,24.844V19.219c0,1.7,1.116,4.107,6.433,5.968a43.106,43.106,0,0,0,13.723,2,43.107,43.107,0,0,0,13.723-2q.421-.147.806-.3a2.47,2.47,0,0,1-1.163,1.586,10.733,10.733,0,0,0-5.972,2.43A44.849,44.849,0,0,1,20.156,30ZM37.219,45.187a7.969,7.969,0,1,1,7.969-7.969A7.978,7.978,0,0,1,37.219,45.187Z" transform="translate(0 0)"/>
        </g>
      </g>
      <g id="Grupo_2208" data-name="Grupo 2208" transform="translate(889.58 1959.014)">
        <g id="Grupo_2207" data-name="Grupo 2207">
          <path id="Trazado_3415" data-name="Trazado 3415" class="cls-2" d="M344.144,352.143l-5.428,5.428-2.334-2.334-1.989,1.989,4.322,4.322,7.416-7.416Z" transform="translate(-334.394 -352.143)"/>
        </g>
      </g>
    </g>
  </g>
</svg>
