<svg xmlns="http://www.w3.org/2000/svg" width="80" height="80" viewBox="0 0 80 80">
  <defs>
    <style>
      .cls-1 {
        fill: #9dd4ca;
      }

      .cls-2 {
        fill: none;
        stroke: #fff;
        stroke-linecap: round;
        stroke-miterlimit: 10;
        stroke-width: 2px;
      }
    </style>
  </defs>
  <g id="indicadores-autorizadas-en-operacion" transform="translate(10470 -1506)">
    <path id="Trazado_4957" data-name="Trazado 4957" class="cls-1" d="M4,0H76a4,4,0,0,1,4,4V76a4,4,0,0,1-4,4H4a4,4,0,0,1-4-4V4A4,4,0,0,1,4,0Z" transform="translate(-10470 1506)"/>
    <g id="Grupo_719" data-name="Grupo 719" transform="translate(-10454 1522)">
      <path id="Trazado_1758" data-name="Trazado 1758" class="cls-2" d="M4674.167,1584.622l12.551,12.746,27.373-25.493" transform="translate(-4666.091 -1563.292)"/>
      <path id="Trazado_1759" data-name="Trazado 1759" class="cls-2" d="M4714.542,1590.028c0,13.256-10.321,24-23.051,24s-23.052-10.744-23.052-24,10.32-24,23.052-24a22.512,22.512,0,0,1,16.021,6.743" transform="translate(-4668.438 -1566.028)"/>
    </g>
  </g>
</svg>
