<svg xmlns="http://www.w3.org/2000/svg" width="34" height="34" viewBox="0 0 34 34">
  <defs>
    <style>
      .cls-1 {
        fill: #fff;
        stroke: #fff;
      }

      .cls-2 {
        fill: #0077b5;
      }

      .cls-3 {
        stroke: none;
      }

      .cls-4 {
        fill: none;
      }
    </style>
  </defs>
  <g id="Grupo_3706" data-name="Grupo 3706" transform="translate(4733 5793)">
    <g id="Elipse_143" data-name="Elipse 143" class="cls-1" transform="translate(-4733 -5793)">
      <circle class="cls-3" cx="17" cy="17" r="17"/>
      <circle class="cls-4" cx="17" cy="17" r="16.5"/>
    </g>
    <path id="_010-linkedin" data-name="010-linkedin" class="cls-2" d="M16,0A16,16,0,1,0,32,16,16,16,0,0,0,16,0ZM11.351,24.188h-3.9V12.464h3.9ZM9.4,10.863H9.377a2.031,2.031,0,1,1,.051-4.051A2.032,2.032,0,1,1,9.4,10.863Zm16,13.324h-3.9V17.916c0-1.576-.564-2.651-1.974-2.651a2.133,2.133,0,0,0-2,1.425,2.668,2.668,0,0,0-.128.951v6.547h-3.9s.051-10.624,0-11.723h3.9v1.66a3.869,3.869,0,0,1,3.512-1.935c2.564,0,4.486,1.676,4.486,5.276Zm0,0" transform="translate(-4732 -5792)"/>
  </g>
</svg>
