<svg xmlns="http://www.w3.org/2000/svg" width="841.931" height="195.841" viewBox="0 0 841.931 195.841">
  <g id="Grupo_239" data-name="Grupo 239" transform="translate(-630.875 -493.796)">
    <rect id="Rectángulo_24" data-name="Rectángulo 24" width="27.845" height="34.971" transform="matrix(0.707, -0.707, 0.707, 0.707, 798.037, 611.499)" fill="#009bbb"/>
    <path id="Trazado_341" data-name="Trazado 341" d="M956.112,689.637a97.921,97.921,0,1,0-69.146-167.066L858.191,493.8H808.734l78.232,78.231L911.694,547.3a62.856,62.856,0,1,1-.094,88.929L797.942,522.571a97.826,97.826,0,1,0,.094,138.386l24.729-24.729L798.038,611.5l-24.73,24.728a63.045,63.045,0,1,1-.095-88.929L886.871,660.957a97.612,97.612,0,0,0,69.241,28.68" fill="#00b3d5"/>
    <path id="Trazado_342" data-name="Trazado 342" d="M1227.5,654.666h37.511l32.048-39.5,31.624,39.5h37.043l-50.376-62.785,50.531-63.114H1328.79l-31.732,39.654-32.247-39.654h-37.419l50.9,62.73Z" fill="#00233d"/>
    <path id="Trazado_343" data-name="Trazado 343" d="M1230.64,614.384c0,25.186-19.776,40.282-38.984,40.282h-71.178v-125.9h67.5c18.231,0,37.416,13.179,37.416,37.581a44.909,44.909,0,0,1-5.025,21.3,40.506,40.506,0,0,1,10.272,26.731m-82.185-36.656h37.779a11.715,11.715,0,0,0,11.182-11.953c0-6.974-5.366-12.527-11.182-12.527h-37.779Zm54.454,37.594c0-7.942-5.893-13.114-12.487-13.114h-41.967v26.229H1190.5C1197.288,628.437,1202.909,622.871,1202.909,615.322Z" fill="#00233d"/>
    <path id="Trazado_344" data-name="Trazado 344" d="M1472.806,626.688v27.977h-97.921v-125.9h27.978v97.921Z" fill="#00233d"/>
  </g>
</svg>
