<svg xmlns="http://www.w3.org/2000/svg" width="240" height="72.816" viewBox="0 0 240 72.816">
  <g id="logo-auxi" transform="translate(-6.593 -29.848)">
    <path id="Trazado_820" data-name="Trazado 820" d="M78.429,101.442H62.706L56.454,85.179H27.836l-5.908,16.263H6.593L34.478,29.848H49.763ZM51.816,73.115,41.948,46.55,32.28,73.115Z" fill="#00023e"/>
    <path id="Trazado_821" data-name="Trazado 821" d="M94.873,29.848h14.455V68.626q0,9.224.538,11.961a11.6,11.6,0,0,0,4.417,7.058q3.488,2.662,9.549,2.663,6.155,0,9.277-2.52a9.911,9.911,0,0,0,3.764-6.176,81.344,81.344,0,0,0,.634-12.16v-39.6h14.454v37.6q0,12.895-1.171,18.219a20.159,20.159,0,0,1-4.325,8.985,21.789,21.789,0,0,1-8.422,5.832q-5.278,2.171-13.771,2.177-10.256,0-15.555-2.37a22.257,22.257,0,0,1-8.379-6.151,19.78,19.78,0,0,1-4.05-7.937q-1.422-6.158-1.415-18.167Z" transform="translate(-8.872)" fill="#00023e"/>
    <path id="Trazado_822" data-name="Trazado 822" d="M257.338,101.442V29.848h14.454v71.594Z" transform="translate(-25.199)" fill="#00023e"/>
    <path id="Trazado_823" data-name="Trazado 823" d="M213.488,71l20.267,30.53H216.319L200.448,76.768l-15.92,24.762h-17.34L187.21,70.965ZM189.173,60.319,169.486,29.936h16.9l14.361,23,14.063-23h16.749L212.143,60.283Z" transform="translate(-16.139 -0.009)" fill="#00023e"/>
  </g>
</svg>
