<svg xmlns="http://www.w3.org/2000/svg" width="240" height="81.842" viewBox="0 0 240 81.842">
  <g id="logo-asp-integra-opciones" transform="translate(-834.088 -1036.367)">
    <g id="Grupo_145" data-name="Grupo 145" transform="translate(834.088 1036.367)">
      <path id="Trazado_750" data-name="Trazado 750" d="M834.088,1130.187a.134.134,0,0,1,.082-.015c.005.376.015.751.015,1.127q0,25.889,0,51.779c0,.376-.008.751-.013,1.127a.207.207,0,0,1-.083-.015Z" transform="translate(-834.088 -1117.831)" fill="#7c93b0"/>
      <path id="Trazado_751" data-name="Trazado 751" d="M834.711,1102.74c0-.376.013-.751.013-1.127q0-25.889,0-51.779c0-.376-.01-.751-.015-1.127a13.235,13.235,0,0,1,11.155-12.175,15.528,15.528,0,0,1,2.247-.166H899.95a13.256,13.256,0,0,1,13.076,10.225c.1.411.149.833.222,1.25-.122.161-.068.348-.068.522q0,26.366,0,52.732c0,.294,0,.589,0,.883,0,.141-.039.308.17.351a12.837,12.837,0,0,1-3.444,8.422,13.042,13.042,0,0,1-7.444,4.123,2.281,2.281,0,0,1-.293.019q-5.129,0-10.258.006H845.92a11.9,11.9,0,0,1-5.255-1.987,13.14,13.14,0,0,1-5.809-8.814C834.771,1103.654,834.758,1103.194,834.711,1102.74Zm11.315,6.838a13.529,13.529,0,0,0,4.415.214,3.21,3.21,0,0,0,1.117.057q7.3.01,14.605,0c.2,0,.451.078.474-.256.174-.161.1-.37.1-.557q.006-17.177,0-34.355c0-.5-.049-.987.487-1.272a.279.279,0,0,0,.1-.263,3.123,3.123,0,0,1,3.543.155.769.769,0,0,1,.409.75c-.02,1.357-.008,2.716-.008,4.073,0,1.381,0,1.392,1.325,1.767a12.863,12.863,0,0,0,12.165-2.223,19.854,19.854,0,0,1,3.625-2.321,12.152,12.152,0,0,1,6.829-1.332,13.613,13.613,0,0,1,7,3.176.705.705,0,0,1,.271.63q-.008,9.448-.009,18.9c0,.113.082.261-.083.353a18.826,18.826,0,0,0-2.056-1.819,9.457,9.457,0,0,0-8.083-1.836,15.652,15.652,0,0,0-5.91,2.978,29.026,29.026,0,0,1-4.9,3.149,13.375,13.375,0,0,1-7.051,1.515,11.332,11.332,0,0,1-3.082-.761.9.9,0,0,0-.038.164c0,3.01,0,6.02-.012,9.031,0,.392.211.36.467.36q14.037,0,28.073,0a8.363,8.363,0,0,0,4.234-1.027,8.136,8.136,0,0,0,3.859-4.923c.139,0,.26-.022.275-.2.029-.373.1-.744.1-1.117q.007-26.972.014-53.944c0-.4-.225-.743-.159-1.146.018-.113-.152-.146-.274-.139a8.221,8.221,0,0,0-3.8-4.735,8.744,8.744,0,0,0-3.44-1.035c-.031-.085-.1-.107-.182-.135a3.966,3.966,0,0,0-1.35.007q-25.015-.008-50.031-.007a6.546,6.546,0,0,1-1.071-.057.741.741,0,0,0-.779.225,8.043,8.043,0,0,0-5.8,3.324,8.437,8.437,0,0,0-1.482,3.78c-.471.3-.172.747-.172,1.112q-.021,25.9-.012,51.8c0,.163,0,.327,0,.49a.192.192,0,0,0,.164.209,7.97,7.97,0,0,0,2.433,5.244,6.942,6.942,0,0,0,3.441,1.935A.271.271,0,0,0,846.026,1109.579Z" transform="translate(-834.628 -1036.367)" fill="#364c6b"/>
      <path id="Trazado_752" data-name="Trazado 752" d="M1810.217,1128.643c-1.08,0-2.16-.023-3.239.012-.39.013-.493-.145-.556-.474a6.649,6.649,0,0,0-1.236-2.9,5.326,5.326,0,0,0-3.694-1.9,12.246,12.246,0,0,0-5.434.356,6.236,6.236,0,0,0-1.461.681,3.38,3.38,0,0,0,.048,5.608,16.685,16.685,0,0,0,4.479,1.677c2.616.7,5.275,1.236,7.836,2.139a28.373,28.373,0,0,1,4.3,2,7.634,7.634,0,0,1,3.774,5.678,11.209,11.209,0,0,1-2.449,9.727,11.323,11.323,0,0,1-5.673,3.5,24.94,24.94,0,0,1-8.155.834,19.313,19.313,0,0,1-5.906-1.068,11.825,11.825,0,0,1-7.83-9.012q-.292-1.289-.536-2.589c-.115-.619.046-.845.671-.847,2.16-.008,4.319.023,6.479.022.315,0,.285.223.318.387a11.741,11.741,0,0,0,.9,2.736,6.871,6.871,0,0,0,5.7,3.942,11.264,11.264,0,0,0,5.42-.478,5.309,5.309,0,0,0,3.539-3.471,3.179,3.179,0,0,0-2.231-4.021c-3.191-1.019-6.472-1.7-9.686-2.626a25.618,25.618,0,0,1-3.75-1.424,10.026,10.026,0,0,1-5.91-8,9.45,9.45,0,0,1,3.77-9.423,12.138,12.138,0,0,1,5.506-2.3,23.105,23.105,0,0,1,11.527.644c4.176,1.415,6.474,4.449,7.243,8.723.072.4.147.8.192,1.209.074.67-.009.743-.668.739-1.1-.008-2.191,0-3.287,0Z" transform="translate(-1659.431 -1106.37)" fill="#364c6b"/>
      <path id="Trazado_753" data-name="Trazado 753" d="M1545.221,1155.965c-.752,0-1.508-.041-2.257.012a1.177,1.177,0,0,1-1.312-.82c-.875-1.952-1.814-3.875-2.712-5.816a.58.58,0,0,0-.621-.4q-7.239.021-14.478,0a.607.607,0,0,0-.67.454c-.79,1.969-1.613,3.926-2.4,5.894a.917.917,0,0,1-.984.681c-1.521-.034-3.043-.017-4.564-.03a3.161,3.161,0,0,1-.677-.088,1.524,1.524,0,0,1-1.276-2,20.025,20.025,0,0,1,1.167-3.166c3.69-9.194,7.577-18.308,11.224-27.52.342-.865.7-1.724,1.013-2.6a4.123,4.123,0,0,1,3.187-2.743,5.365,5.365,0,0,1,4.4.772,3.463,3.463,0,0,1,1.276,1.578q4.369,10.54,8.746,21.077,2.442,5.881,4.885,11.76a5.245,5.245,0,0,1,.331,1.125,1.327,1.327,0,0,1-1.092,1.718,3.8,3.8,0,0,1-.972.1c-.736,0-1.473,0-2.209,0Zm-14.149-29.037c-.07.152-.111.223-.138.3q-2.687,7.608-5.38,15.215c-.142.4-.005.424.331.423,3.319-.008,6.637-.012,9.956.006.451,0,.41-.144.3-.474q-1.669-5.061-3.315-10.131C1532.255,1130.519,1531.678,1128.771,1531.072,1126.928Z" transform="translate(-1423.871 -1106.961)" fill="#364c6b"/>
      <path id="Trazado_754" data-name="Trazado 754" d="M2035.675,1125.179a7.833,7.833,0,0,1-.013-1.764,3.042,3.042,0,0,1,2.756-2.754,8.218,8.218,0,0,1,1.319-.1c3.715.009,7.429-.019,11.144.029a24.4,24.4,0,0,1,6,.517,9.882,9.882,0,0,1,7.506,7.96,13.3,13.3,0,0,1-.554,8.145,10.461,10.461,0,0,1-8.846,6.619,87.608,87.608,0,0,1-11.127.345c-.453,0-.563.123-.561.569.019,3.8.01,7.593.013,11.389,0,.507.017,1.014.035,1.521.026.743-.083.852-.836.807-.112-.137-.268-.094-.409-.094q-2.732,0-5.464,0c-.141,0-.3-.044-.407.1l-.1-.009c-.47-.621-.282-1.343-.286-2.025-.017-2.615-.007-5.23-.007-7.845q0-11.425-.006-22.85C2035.829,1125.549,2035.96,1125.3,2035.675,1125.179Zm13.048,1.835v.015c-1.668,0-3.337,0-5.005,0-.256,0-.418,0-.417.351q.02,5.005,0,10.01c0,.279.084.361.363.36,3.32-.01,6.641.016,9.961-.024a3.8,3.8,0,0,0,3.435-2.081,6.53,6.53,0,0,0,.444-5.312,4.362,4.362,0,0,0-4.562-3.327C2051.539,1127.065,2050.13,1127.015,2048.723,1127.015Z" transform="translate(-1877.556 -1109.485)" fill="#364c6b"/>
      <path id="Trazado_755" data-name="Trazado 755" d="M2449.308,1463.456v-4.5c0-1.047.015-2.094-.009-3.141-.007-.333.1-.428.412-.411.375.021.753.015,1.128,0,.293-.011.427.047.425.4q-.023,5.742,0,11.485c0,.385-.132.41-.468.457a1.954,1.954,0,0,1-2.245-1.236c-1.2-2.245-2.571-4.4-3.884-6.611-.15.123-.083.277-.083.4-.005,2.323-.014,4.646.006,6.969,0,.395-.111.519-.49.476-.5-.056-1.164.217-1.446-.117-.246-.291-.083-.936-.083-1.424.008-3.468.029-6.937.023-10.4,0-.38.126-.41.464-.461a1.917,1.917,0,0,1,2.224,1.247c1.226,2.341,2.606,4.6,3.924,6.895Z" transform="translate(-2230.931 -1400.194)" fill="#364c6b"/>
      <path id="Trazado_756" data-name="Trazado 756" d="M2347.743,1456.292a5.529,5.529,0,0,1,4.839,2.922,6.4,6.4,0,0,1-1.364,8.058,5.434,5.434,0,0,1-7.779-.787,6.359,6.359,0,0,1,2.108-9.738A5.327,5.327,0,0,1,2347.743,1456.292Zm3.565,6.092a2.938,2.938,0,0,0-.1-.875,3.6,3.6,0,0,0-4.47-2.8,3.9,3.9,0,0,0-2.557,4.387,3.581,3.581,0,0,0,7.125-.713Z" transform="translate(-2143.642 -1401.051)" fill="#394c6b"/>
      <path id="Trazado_757" data-name="Trazado 757" d="M2047.525,1456.153a5.947,5.947,0,0,1,5.927,5.091,6.5,6.5,0,0,1-1.257,4.988,5.433,5.433,0,0,1-8.293.53,6.373,6.373,0,0,1,1.716-10.142A4.9,4.9,0,0,1,2047.525,1456.153Zm3.869,6.1a3.27,3.27,0,0,0-.109-.963,3.557,3.557,0,0,0-4.722-2.609,3.9,3.9,0,0,0,1.361,7.467A3.713,3.713,0,0,0,2051.394,1462.249Z" transform="translate(-1883.191 -1400.93)" fill="#394c6b"/>
      <path id="Trazado_758" data-name="Trazado 758" d="M2594.921,1457.861a1.593,1.593,0,0,0-.245,0c-.522.085-.8-.069-1.039-.618a2.213,2.213,0,0,0-3.325-.624,1.127,1.127,0,0,0,.146,1.78,4.218,4.218,0,0,0,1.48.621,11.837,11.837,0,0,1,2.359.8,3.351,3.351,0,0,1,2,2.444,3.783,3.783,0,0,1-1.966,3.76,4.885,4.885,0,0,1-4.436.247,4.135,4.135,0,0,1-2.308-3.717c.01-.2.119-.2.252-.2.474,0,.949.015,1.423-.006.283-.013.3.177.365.361a2.741,2.741,0,0,0,1.854,1.928,2.429,2.429,0,0,0,1.807-.2,1.412,1.412,0,0,0,.715-1.49,1.322,1.322,0,0,0-1.133-1.183,7.631,7.631,0,0,1-3.436-1.334,3.177,3.177,0,0,1-1.36-3.512,3.283,3.283,0,0,1,2.885-2.507,5.046,5.046,0,0,1,3.158.388,3.446,3.446,0,0,1,1.877,2.757c.042.246-.054.318-.287.305C2595.445,1457.849,2595.183,1457.86,2594.921,1457.861Z" transform="translate(-2356.911 -1399.338)" fill="#394c6b"/>
      <path id="Trazado_759" data-name="Trazado 759" d="M2141.04,1462.445q0-2.577,0-5.154a1.332,1.332,0,0,1,1.5-1.511c1.146,0,2.292.029,3.436-.005a3.421,3.421,0,0,1,3.586,3.122,4.488,4.488,0,0,1-.464,3.04,2.888,2.888,0,0,1-2.65,1.559c-.9.015-1.8.015-2.7,0-.318-.007-.419.088-.414.411.021,1.276,0,2.552.026,3.828.006.349-.1.454-.445.434a13.549,13.549,0,0,0-1.472-.005c-.327.016-.415-.093-.412-.414.015-1.767.007-3.534.007-5.3Zm4.063-1.018c.458,0,.916-.008,1.373,0a.891.891,0,0,0,.893-.563,2.584,2.584,0,0,0,.039-2.184.949.949,0,0,0-.861-.694c-.964,0-1.929.022-2.893.016-.259,0-.289.116-.287.326.007.931.011,1.863,0,2.795,0,.244.089.311.315.305C2144.155,1461.419,2144.629,1461.427,2145.1,1461.427Z" transform="translate(-1969.102 -1400.6)" fill="#394c6b"/>
      <path id="Trazado_760" data-name="Trazado 760" d="M2227.469,1464.48c.41.5.782.975,1.183,1.427.148.167.125.258-.013.4a5.889,5.889,0,0,1-5.937,1.806,5.427,5.427,0,0,1-4.289-4.423,6.44,6.44,0,0,1,1.71-6.158,5.914,5.914,0,0,1,8.6.533c.145.18.155.279-.006.44a10.329,10.329,0,0,0-.828.9c-.244.312-.381.345-.685.015a3.8,3.8,0,0,0-3.976-1.153,3.627,3.627,0,0,0-2.809,2.907,4.029,4.029,0,0,0,1.47,4.252,3.662,3.662,0,0,0,4.147.339A4.162,4.162,0,0,0,2227.469,1464.48Z" transform="translate(-2036.156 -1400.731)" fill="#394c6b"/>
      <path id="Trazado_761" data-name="Trazado 761" d="M2526.9,1455.332l.2,0a8.14,8.14,0,0,0,3.536.013l-.406-.02c.833-.018,1.666-.035,2.5-.055.175,0,.276.047.274.247-.006.654-.01,1.309,0,1.963,0,.282-.169.26-.356.26-1.211,0-2.422.012-3.633-.006-.329,0-.468.067-.447.426a13.623,13.623,0,0,1,0,1.521c-.017.318.1.379.394.375,1.211-.014,2.422.012,3.632-.017.42-.01.534.126.5.524a8.963,8.963,0,0,0,0,1.275c.019.307-.086.389-.385.385-1.244-.015-2.488,0-3.731-.014-.336,0-.456.082-.445.433.024.85.021,1.7,0,2.552-.007.306.094.387.392.383,1.211-.016,2.422.012,3.632-.017.406-.01.508.126.483.5-.029.44-.015.883-.007,1.325,0,.211-.032.331-.29.329-2.012-.016-4.024-.019-6.036-.026,0-3.474-.023-6.949.02-10.423A3.483,3.483,0,0,1,2526.9,1455.332Zm4.094.046a2.748,2.748,0,0,0,1.511,0Z" transform="translate(-2304.015 -1400.161)" fill="#394c6b"/>
      <path id="Trazado_762" data-name="Trazado 762" d="M1762.53,1463.8c.72,0,1.44.012,2.159-.006.294-.008.384.056.372.377a5.454,5.454,0,0,1-5.312,5.581,6.466,6.466,0,0,1-6.388-2.917,6.168,6.168,0,0,1,3.862-9.313,7.52,7.52,0,0,1,6.8,1.771c.27.233.353.371.026.65-.584.5-.563.523-1.166.04a5.789,5.789,0,0,0-7.369-.268,4.945,4.945,0,0,0,1.059,8.366,5.5,5.5,0,0,0,4.918.03,4.077,4.077,0,0,0,2.161-2.654c.1-.353.078-.511-.366-.494-.964.036-1.93,0-2.895.02-.363.009-.48-.085-.465-.461.028-.721,0-.721.741-.72Z" transform="translate(-1631.593 -1401.948)" fill="#3b4e6b"/>
      <path id="Trazado_763" data-name="Trazado 763" d="M1869.837,1465.847l4.157,5.388a1.469,1.469,0,0,1-1.879-.544q-1.766-2.29-3.53-4.58a.6.6,0,0,0-.508-.3c-.32,0-.415.092-.412.414.016,1.553-.006,3.106.016,4.659.005.377-.108.5-.468.448-.332-.051-.767.2-.761-.505.034-3.613.024-7.226.005-10.839,0-.435.11-.553.544-.539,1.29.042,2.581-.014,3.872.086a3.1,3.1,0,0,1,.143,6.2C1870.649,1465.769,1870.281,1465.8,1869.837,1465.847Zm-2.163-3.22h0q0,.858,0,1.717c0,.144-.03.311.2.306a16.333,16.333,0,0,0,3.373-.128,1.94,1.94,0,0,0,1.442-1.978,1.916,1.916,0,0,0-1.66-1.834,25.068,25.068,0,0,0-3.084-.09c-.221-.008-.277.086-.274.289C1867.681,1461.482,1867.675,1462.055,1867.675,1462.627Z" transform="translate(-1730.646 -1403.79)" fill="#3b4e6b"/>
      <path id="Trazado_764" data-name="Trazado 764" d="M1688.855,1465.34c0-1.815.009-3.63-.007-5.445,0-.351.068-.479.454-.475,1.978.02,3.957.028,5.935-.005.517-.009.442.273.445.582,0,.328.074.627-.464.614-1.585-.037-3.172-.007-4.758-.021-.309,0-.425.069-.417.4.025.964.031,1.93,0,2.894-.012.395.138.449.479.446,1.537-.017,3.074,0,4.611-.016.368,0,.512.068.493.472-.033.693-.006.694-.714.695-1.455,0-2.911.012-4.366-.007-.367,0-.514.064-.505.474.028,1.258.021,2.518,0,3.777-.005.324.089.417.409.414,1.57-.014,3.14.022,4.709-.018.6-.015.43.357.455.664s.026.532-.436.525c-1.945-.031-3.892-.027-5.837,0-.432.006-.5-.139-.5-.526.02-1.815.009-3.63.009-5.445Z" transform="translate(-1576.404 -1403.763)" fill="#3b4e6b"/>
      <path id="Trazado_765" data-name="Trazado 765" d="M1512.553,1593.023c0,1.3.031,2.589-.013,3.873a1.135,1.135,0,0,1-1.159,1.059c-1.423.018-2.847.021-4.271,0a1.2,1.2,0,0,1-1.167-1.221c-.018-1.375-.021-2.749,0-4.124a1.2,1.2,0,0,1,1.288-1.247c1.293-.011,2.585-.007,3.878-.007a2.822,2.822,0,0,1,.441.024c.211.034.458.078.536.287s-.172.292-.288.409c-.847.863-1.719,1.7-2.557,2.574-.271.282-.4.226-.571-.073-.128-.227-.319-.419-.438-.649-.214-.417-.443-.339-.745-.1-.582.47-.588.458-.122,1.032.412.509.841,1.005,1.218,1.539.215.3.346.291.583.039.974-1.037,1.96-2.062,2.948-3.085C1512.233,1593.237,1512.323,1593.067,1512.553,1593.023Z" transform="translate(-1417.549 -1518.348)" fill="#da202d"/>
      <path id="Trazado_766" data-name="Trazado 766" d="M2287.967,1593.02c0,1.326.038,2.628-.016,3.926a1.121,1.121,0,0,1-1.186,1.019q-2.084.022-4.168,0a1.191,1.191,0,0,1-1.218-1.216q-.027-2.059,0-4.119a1.2,1.2,0,0,1,1.271-1.262c1.34-.011,2.681,0,4.022,0a1.716,1.716,0,0,1,.437.045c.458.123.512.312.18.644-.877.877-1.766,1.742-2.636,2.626-.211.214-.343.266-.5-.038a3.618,3.618,0,0,0-.3-.444c-.5-.7-.722-.7-1.317-.049a.244.244,0,0,0,0,.377c.54.677,1.08,1.352,1.613,2.034.2.261.308.029.414-.081.965-1,1.921-2,2.885-3A1.5,1.5,0,0,1,2287.967,1593.02Z" transform="translate(-2090.976 -1518.353)" fill="#da202d"/>
      <path id="Trazado_767" data-name="Trazado 767" d="M1945.869,1471.415a.151.151,0,0,1-.045.019c-1.132.059-1.132.059-1.617-.964-.406-.856-.819-1.708-1.213-2.569a.512.512,0,0,0-.544-.368c-1.472.021-2.945.018-4.417.005a.477.477,0,0,0-.516.327c-.473,1.041-.99,2.062-1.447,3.109a.648.648,0,0,1-.765.475,6.77,6.77,0,0,0-.789-.006c.439-.937.851-1.822,1.268-2.7q2.049-4.342,4.1-8.683a.546.546,0,0,1,.043-.088c.1-.138.091-.381.322-.389s.253.226.324.376c.434.915.859,1.834,1.288,2.752q1.949,4.173,3.9,8.347C1945.811,1471.165,1945.919,1471.269,1945.869,1471.415Zm-7.66-5c1.318,0,2.528-.007,3.738,0,.316,0,.318-.106.2-.344-.307-.631-.6-1.27-.9-1.9-.319-.673-.641-1.346-.994-2.086Z" transform="translate(-1789.755 -1403.905)" fill="#394d6b"/>
      <path id="Trazado_768" data-name="Trazado 768" d="M1910.863,1593.029c0,1.285.017,2.527-.007,3.769a1.179,1.179,0,0,1-1.2,1.179c-1.39.015-2.78.018-4.169,0a1.187,1.187,0,0,1-1.228-1.252q-.017-2.035,0-4.071a1.19,1.19,0,0,1,1.256-1.267c1.373-.017,2.747-.006,4.12,0a.987.987,0,0,1,.291.033c.184.058.422.095.477.3.045.166-.165.261-.275.372-.862.871-1.738,1.729-2.593,2.607-.212.218-.337.251-.5-.031a6.111,6.111,0,0,0-.481-.68c-.112-.141-.177-.448-.385-.358a2.337,2.337,0,0,0-.871.694c-.027.034.084.2.152.286.495.629,1.007,1.245,1.489,1.883.206.274.33.2.524-.006.962-1.023,1.934-2.037,2.906-3.05A1.1,1.1,0,0,1,1910.863,1593.029Z" transform="translate(-1763.471 -1518.365)" fill="#da202d"/>
      <path id="Trazado_769" data-name="Trazado 769" d="M2443.192,1603.308a2.534,2.534,0,0,1-3.511-.15,3.11,3.11,0,0,1-.007-4.076,2.539,2.539,0,0,1,3.56-.143c-.086-.52.168-.636.6-.565a2.982,2.982,0,0,0,.49,0c1.06,0,1.053,0,1.041,1.044,0,.27-.035.447-.367.41-.282-.031-.25.184-.25.363q0,1.5,0,2.993c0,2.284-1.47,3.419-3.714,2.888a2.379,2.379,0,0,1-1.8-1.362c-.125-.288-.146-.5.287-.446a7.9,7.9,0,0,0,.833.006,1.078,1.078,0,0,1,.829.265,1.286,1.286,0,0,0,1.479.046C2443.142,1604.349,2443.169,1603.89,2443.192,1603.308Zm-2.617-2.212a1.3,1.3,0,0,0,1.311,1.4,1.381,1.381,0,0,0-.009-2.759A1.293,1.293,0,0,0,2440.575,1601.1Z" transform="translate(-2227.803 -1524.363)" fill="#394d6b"/>
      <path id="Trazado_770" data-name="Trazado 770" d="M1577.129,1587.217c-.068-.4.1-.511.43-.471a2.316,2.316,0,0,0,.49,0c.271-.025.378.068.367.357-.022.555-.024,1.113,0,1.668.012.3-.109.361-.373.348-.359-.018-.72-.016-1.079,0a.744.744,0,0,1-.6-.238,1.825,1.825,0,0,0-2.628.1,1.974,1.974,0,0,0,.191,2.811,1.741,1.741,0,0,0,2.56-.253.734.734,0,0,1,.692-.316c.456.018.914,0,1.374,0a3.312,3.312,0,0,1-2.729,2.728,3.639,3.639,0,0,1-3.932-1.86,3.756,3.756,0,0,1,.574-4.365C1573.62,1586.513,1575.256,1586.314,1577.129,1587.217Z" transform="translate(-1474.439 -1514.266)" fill="#394d6b"/>
      <path id="Trazado_771" data-name="Trazado 771" d="M1970.246,1592.89c.577-.093.579.225.57.609-.02.9-.008.9-.886.9-.588,0-1.178-.023-1.765.008-.359.019-.461-.111-.419-.443a2.371,2.371,0,0,0,0-.538c-.035-.343.019-.585.451-.5.207.039.278-.089.342-.26.453-1.205.908-2.411,1.38-3.609.113-.288.025-.352-.24-.312-.294.045-.347-.1-.352-.365-.02-1.078-.028-1.081,1.069-1.076.521,0,1.141-.151,1.536.077s.432.908.62,1.39q.748,1.913,1.467,3.837c.087.234.185.367.446.323s.36.046.364.338c.014,1.134.027,1.134-1.094,1.133h-1.52c-.1,0-.238.039-.287-.01-.345-.347-.073-.786-.15-1.178-.028-.145-.022-.287.207-.3.1,0,.35.137.294-.154-.033-.172-.017-.42-.3-.421-.458,0-.915-.009-1.373,0C1970.262,1592.353,1970.4,1592.694,1970.246,1592.89Zm1.532-1.942c-.079-.286-.14-.521-.21-.752s-.153-.467-.265-.8c-.143.455-.256.805-.362,1.157-.037.122-.058.249-.093.4Z" transform="translate(-1818.606 -1514.783)" fill="#394c6b"/>
      <path id="Trazado_772" data-name="Trazado 772" d="M1715.275,1593.985a2.573,2.573,0,0,1-3.6-.316,3.1,3.1,0,0,1,.147-4.032,2.516,2.516,0,0,1,3.448-.11c.143-.547.145-.552-.372-.746-.144-.054-.136-.157-.148-.271-.12-1.146-.121-1.146,1.039-1.146,1.072,0,1.072,0,1.073,1.069,0,1.4,0,2.81,0,4.214,0,.154-.088.417.216.383.428-.048.379.224.38.49.006.977.008.977-.965.976-.245,0-.492-.02-.735,0C1715.424,1594.531,1715.177,1594.482,1715.275,1593.985Zm-2.595-2.231a1.279,1.279,0,0,0,1.289,1.364,1.3,1.3,0,0,0,1.313-1.393,1.3,1.3,0,1,0-2.6.029Z" transform="translate(-1595.646 -1514.881)" fill="#3b4e6b"/>
      <path id="Trazado_773" data-name="Trazado 773" d="M2025.989,1589.755a1.988,1.988,0,0,1,1.908-.652,1.633,1.633,0,0,1,1.433,1.568c.052.716.049,1.438.047,2.157,0,.266.059.411.352.364s.346.1.353.365c.031,1.1.04,1.105-1.041,1.092-.4,0-.924.18-1.18-.082s-.067-.778-.077-1.183c-.016-.654,0-1.309-.017-1.963-.017-.634-.254-.894-.783-.906a.905.905,0,0,0-.981.877c-.033.521-.008,1.047-.015,1.57,0,.163.058.257.226.23.359-.06.388.137.388.425,0,1.037.01,1.037-1,1.036h-1.423c-.1,0-.242.037-.287-.013-.319-.358-.066-.8-.138-1.193-.035-.194.093-.276.266-.247.411.068.435-.156.43-.482-.017-1.112-.013-2.225,0-3.337,0-.269-.027-.459-.359-.41-.239.035-.3-.078-.312-.3-.067-1.121-.074-1.12,1.021-1.12,1.194,0,1.194,0,1.195,1.19C2025.989,1589.041,2025.989,1589.349,2025.989,1589.755Z" transform="translate(-1867.227 -1515.037)" fill="#3b4e6b"/>
      <path id="Trazado_774" data-name="Trazado 774" d="M2348.46,1591.63c0-1.138,0-1.128,1.135-1.143.336,0,.542.037.578.444a.578.578,0,0,0,.65.538.662.662,0,0,0,.225-1.278c-.487-.227-1-.4-1.478-.648a2.037,2.037,0,0,1-.873-2.812,2.107,2.107,0,0,1,2.72-.972c.394.165.784-.03,1.179-.013.372.016.486.119.458.48-.03.39-.005.784-.008,1.177,0,.1.022.245-.03.283-.331.242-.718.064-1.078.11-.177.022-.371.04-.428-.208a.9.9,0,0,0-.068-.183.581.581,0,0,0-.685-.344.5.5,0,0,0-.449.449.589.589,0,0,0,.335.692c.432.19.889.328,1.313.535a2.07,2.07,0,0,1,1.309,1.858,2.211,2.211,0,0,1-3.149,2.147c-.262-.14-.325.088-.491.108C2348.492,1592.989,2348.459,1592.963,2348.46,1591.63Z" transform="translate(-2149.235 -1513.337)" fill="#394d6b"/>
      <path id="Trazado_775" data-name="Trazado 775" d="M2316.349,1461.9c0,1.928-.006,3.856.007,5.784,0,.305-.057.44-.4.414-.469-.036-1.082.151-1.376-.082-.312-.247-.094-.886-.1-1.352-.009-3.464.006-6.928-.017-10.391,0-.471.144-.591.572-.545a4.622,4.622,0,0,0,.881,0c.342-.029.437.09.434.437C2316.34,1458.072,2316.349,1459.984,2316.349,1461.9Z" transform="translate(-2119.679 -1400.549)" fill="#364c6b"/>
      <path id="Trazado_776" data-name="Trazado 776" d="M1665.857,1602.063c-.556,0-1.111,0-1.667,0-.09,0-.208-.04-.253.082-.039.1.035.183.09.264a1.273,1.273,0,0,0,1.587.327,4.111,4.111,0,0,1,1.922-.145c.266-.01.085.219.028.321a2.727,2.727,0,0,1-1.932,1.372,2.9,2.9,0,0,1-1.939-5.412,2.942,2.942,0,0,1,3.775.958,2.984,2.984,0,0,1,.485,1.859c-.008.3-.144.385-.429.375-.555-.019-1.111-.005-1.667-.005Zm-2.015-1.18c.73,0,1.411-.011,2.092,0,.39.009.311-.147.171-.37a1.19,1.19,0,0,0-1.277-.526A1.156,1.156,0,0,0,1663.842,1600.883Z" transform="translate(-1553.18 -1524.595)" fill="#394d6b"/>
      <path id="Trazado_777" data-name="Trazado 777" d="M2395.766,1601.731a2.9,2.9,0,0,1-5.531-1.707,2.888,2.888,0,0,1,3.132-2.29,2.846,2.846,0,0,1,2.622,3.041c-.006.349-.089.482-.468.472-1.077-.027-2.156-.012-3.234-.007-.1,0-.246-.069-.3.069-.05.119.055.216.118.3a1.188,1.188,0,0,0,1.413.359C2394.238,1601.577,2394.977,1601.834,2395.766,1601.731Zm-1.474-1.69a1.141,1.141,0,0,0-1.328-.885,1.039,1.039,0,0,0-1.007.885Z" transform="translate(-2185.47 -1523.869)" fill="#394d6b"/>
      <path id="Trazado_778" data-name="Trazado 778" d="M2496.173,1603.766a2.041,2.041,0,0,1-2,.634,1.6,1.6,0,0,1-1.4-1.542c-.056-.7-.043-1.405-.045-2.108,0-.274-.009-.5-.382-.436-.243.04-.293-.1-.308-.318-.081-1.144-.086-1.144,1.029-1.144a4.375,4.375,0,0,0,.686-.006c.5-.08.6.139.577.594-.035.865-.02,1.734,0,2.6.012.689.265.96.84.96a.919.919,0,0,0,.94-.976c.02-.474,0-.949.01-1.423,0-.2-.045-.32-.269-.286-.3.045-.342-.112-.348-.37-.023-1.093-.031-1.093,1.035-1.094,1.129,0,1.129,0,1.13,1.1,0,.851.01,1.7-.006,2.552-.005.28.039.445.365.4.135-.02.285,0,.29.177.011.376.014.753,0,1.128-.009.193-.189.14-.309.142-.409.006-.821-.027-1.226.01C2496.334,1604.4,2496.08,1604.311,2496.173,1603.766Z" transform="translate(-2273.907 -1524.837)" fill="#3b4e6b"/>
      <path id="Trazado_779" data-name="Trazado 779" d="M1630.124,1466.073c0,1.618-.013,3.237.01,4.855.005.379-.108.464-.467.453-.761-.024-.762,0-.762-.787,0-3.138,0-6.277.011-9.415,0-.389-.083-.547-.506-.52-.586.038-1.177-.013-1.764.018-.344.018-.434-.116-.4-.421a2.484,2.484,0,0,0,0-.441c-.017-.229.068-.318.306-.317q2.967.011,5.934,0c.249,0,.286.108.295.325.032.844.04.844-.795.844-.49,0-.982.021-1.471-.008-.33-.019-.4.1-.4.411C1630.132,1462.738,1630.124,1464.406,1630.124,1466.073Z" transform="translate(-1522.03 -1403.834)" fill="#3b4e6b"/>
      <path id="Trazado_780" data-name="Trazado 780" d="M2578.518,1603.494a2.85,2.85,0,0,1-2.9-2.923,2.914,2.914,0,0,1,5.827.075A2.836,2.836,0,0,1,2578.518,1603.494Zm1.286-2.912a1.291,1.291,0,0,0-1.313-1.343,1.327,1.327,0,0,0-1.23,1.384,1.276,1.276,0,1,0,2.544-.041Z" transform="translate(-2346.516 -1523.859)" fill="#394d6b"/>
      <path id="Trazado_781" data-name="Trazado 781" d="M1822.5,1604.3a2.842,2.842,0,0,1-2.913-2.864,2.922,2.922,0,0,1,5.843-.029A2.839,2.839,0,0,1,1822.5,1604.3Zm1.278-2.876a1.289,1.289,0,0,0-1.227-1.37,1.316,1.316,0,0,0-1.316,1.348,1.354,1.354,0,0,0,1.293,1.388A1.319,1.319,0,0,0,1823.774,1601.427Z" transform="translate(-1689.942 -1524.571)" fill="#394d6b"/>
      <path id="Trazado_782" data-name="Trazado 782" d="M2078.7,1604.457a2.83,2.83,0,0,1-2.919-2.851,2.913,2.913,0,0,1,5.825-.062A2.829,2.829,0,0,1,2078.7,1604.457Zm1.254-2.868a1.278,1.278,0,0,0-1.27-1.371,1.369,1.369,0,0,0,.028,2.732A1.3,1.3,0,0,0,2079.958,1601.589Z" transform="translate(-1912.441 -1524.726)" fill="#394c6b"/>
      <path id="Trazado_783" data-name="Trazado 783" d="M2189.8,1604.462a2.833,2.833,0,0,1-2.873-2.85,2.914,2.914,0,1,1,5.828.032A2.833,2.833,0,0,1,2189.8,1604.462Zm1.3-2.89a1.28,1.28,0,0,0-1.242-1.349,1.333,1.333,0,0,0-1.291,1.375,1.356,1.356,0,0,0,1.266,1.358A1.3,1.3,0,0,0,2191.106,1601.572Z" transform="translate(-2008.966 -1524.731)" fill="#394d6b"/>
      <path id="Trazado_784" data-name="Trazado 784" d="M1564.1,1463.175l4.2,4.786.418.473c.155-.126.079-.265.08-.382.005-2.7.012-5.394,0-8.091,0-.392.077-.544.5-.522.694.036.695.008.695.707q0,5.345-.005,10.689c0,.157.121.4-.11.469-.2.065-.307-.151-.419-.282-.587-.679-1.167-1.364-1.749-2.047.139-.2.126-.537.011-.574a1.361,1.361,0,0,1-.752-.739c-.114-.193-.325-.193-.527-.154h0a1.059,1.059,0,0,0-.782-.891l0,0c-.067-.7-.609-1.152-.944-1.706a3.537,3.537,0,0,0-1.031-.849c-.369-.272-.337-.4.071-.645a1.414,1.414,0,0,0,.285-.324l.028.035-.034.068Z" transform="translate(-1467.479 -1403.784)" fill="#394c6b"/>
      <path id="Trazado_785" data-name="Trazado 785" d="M2625.172,1602.673c-.005-.82-.005-.822.816-.823.308,0,.624-.092.776.358.087.258.418.28.692.207a.428.428,0,0,0,.371-.4c.01-.309-.237-.41-.467-.491-.4-.141-.823-.222-1.208-.391a1.563,1.563,0,0,1-.962-1.878,1.614,1.614,0,0,1,1.433-1.338,2.21,2.21,0,0,1,1.2.121c.352.141.7-.062,1.064-.036.313.022.464.084.413.414a.624.624,0,0,0,0,.1c0,1.112,0,1.107-1.118,1.069-.2-.006-.322-.041-.406-.249-.113-.279-.374-.282-.629-.225a.355.355,0,0,0-.3.342.464.464,0,0,0,.375.5c.372.121.753.217,1.121.348a1.537,1.537,0,0,1,1.171,1.878,1.731,1.731,0,0,1-1.612,1.459,1.386,1.386,0,0,1-.678-.011,2.86,2.86,0,0,0-1.522-.082c-.422.025-.616-.082-.532-.529A1.825,1.825,0,0,0,2625.172,1602.673Z" transform="translate(-2389.537 -1524.016)" fill="#394c6b"/>
      <path id="Trazado_786" data-name="Trazado 786" d="M1545.685,1463.205a1.419,1.419,0,0,1-.285.324c-.409.245-.44.373-.071.645a3.538,3.538,0,0,1,1.031.849c.335.554.877,1,.944,1.706-1.112-1.144-2.1-2.394-3.164-3.584-.181-.2-.361-.41-.55-.624-.146.159-.08.312-.08.446-.005,2.649-.016,5.3.009,7.946,0,.449-.128.585-.543.516a.944.944,0,0,0-.294,0c-.3.046-.387-.065-.384-.373.017-1.488.008-2.976.008-4.463q0-3.336,0-6.671c0-.117-.074-.276.09-.345.131-.055.211.049.286.135Q1544.185,1461.458,1545.685,1463.205Z" transform="translate(-1449.128 -1403.891)" fill="#374b69"/>
      <path id="Trazado_787" data-name="Trazado 787" d="M1792.387,1592.165c0-.556-.01-1.113,0-1.669.006-.254-.037-.413-.34-.363-.286.048-.377-.091-.352-.363a3.422,3.422,0,0,0,0-.589c-.028-.34.022-.588.458-.508.214.039.233-.1.23-.268-.006-.343.02-.689,0-1.03-.03-.423.283-.381.483-.316.363.118.909-.368,1.089.3a2.4,2.4,0,0,1,.008.782c-.025.345-.014.634.462.541.031-.006.081-.01.1.007.3.37.061.8.131,1.2.034.195-.1.271-.272.243-.375-.062-.43.125-.418.445.021.6,0,1.211.007,1.816,0,.136-.048.342.182.321.389-.035.362.2.361.463,0,1,0,1-.977,1-1.145,0-1.145,0-1.146-1.13Q1792.387,1592.607,1792.387,1592.165Z" transform="translate(-1665.72 -1514.562)" fill="#3b4e6b"/>
      <path id="Trazado_788" data-name="Trazado 788" d="M1512.492,1465.294c0-1.8.011-3.6-.009-5.393,0-.382.091-.549.483-.484a.725.725,0,0,0,.245,0c.413-.076.473.131.469.491-.017,1.7-.007,3.4-.007,5.1,0,1.945-.01,3.89.009,5.834,0,.366-.088.511-.456.45a1.076,1.076,0,0,0-.342,0c-.336.053-.4-.1-.4-.409C1512.5,1469.02,1512.492,1467.157,1512.492,1465.294Z" transform="translate(-1423.24 -1403.752)" fill="#374b69"/>
      <path id="Trazado_789" data-name="Trazado 789" d="M1633.116,1599.936a1.651,1.651,0,0,1,1.081-.746c.247-.052.38-.015.357.272a2.324,2.324,0,0,0,0,.49c.062.47,0,.782-.592.853a.941.941,0,0,0-.78.947c-.033.324-.026.653-.033.98-.008.307-.071.607.443.578.319-.018.186.341.164.509-.039.309.225.841-.161.894a8.282,8.282,0,0,1-2.491,0c-.439-.075-.1-.673-.174-1.026-.031-.14-.1-.428.2-.384.527.078.484-.244.479-.583-.01-.556-.008-1.112,0-1.668,0-.222-.014-.392-.3-.348-.23.035-.3-.071-.318-.3-.075-1.149-.082-1.149,1.073-1.149h.344C1633.049,1599.248,1633.049,1599.248,1633.116,1599.936Z" transform="translate(-1526.059 -1525.133)" fill="#394d6b"/>
      <path id="Trazado_790" data-name="Trazado 790" d="M2126.787,1600.023a2.015,2.015,0,0,1,1.119-.69c.291-.051.35.044.332.293a2.927,2.927,0,0,0,0,.343c.021.484.107.947-.644,1.008-.489.04-.686.512-.727.984-.027.309-.012.621-.02.932s-.019.454.4.579c.488.145.1.76.2,1.156.057.237-.112.257-.295.255-.54-.005-1.08,0-1.619,0-.934,0-.924,0-.935-.912,0-.344,0-.632.471-.55.215.037.231-.114.23-.275,0-.671-.007-1.341,0-2.012,0-.2-.041-.323-.269-.286-.292.047-.346-.1-.351-.361-.018-1.1-.027-1.1,1.093-1.1a2.259,2.259,0,0,0,.392,0C2126.659,1599.3,2126.876,1599.477,2126.787,1600.023Z" transform="translate(-1954.835 -1525.263)" fill="#3b4e6b"/>
      <path id="Trazado_791" data-name="Trazado 791" d="M2546.9,1599.1a1.83,1.83,0,0,1,1.05-.71c.287-.071.446-.038.407.306a1.913,1.913,0,0,0,0,.441c.056.465.006.8-.591.866a.9.9,0,0,0-.768.9c-.043.438-.025.881-.047,1.322-.011.234.117.283.3.262.27-.031.318.1.327.345.041,1.12.049,1.12-1.061,1.119-.474,0-.949-.024-1.422.006-.321.02-.4-.1-.37-.39a3.153,3.153,0,0,0,0-.637c-.034-.321.044-.508.412-.444.262.046.283-.11.281-.317-.008-.654-.01-1.308,0-1.962,0-.219-.035-.349-.29-.312s-.322-.1-.333-.344c-.052-1.106-.059-1.106,1.022-1.106.131,0,.262.01.392,0C2546.657,1598.4,2547.072,1598.387,2546.9,1599.1Z" transform="translate(-2319.687 -1524.425)" fill="#3b4e6b"/>
      <path id="Trazado_792" data-name="Trazado 792" d="M2158.076,1600.068a1.719,1.719,0,0,1,1.132-.746c.263-.045.318.042.3.271a2.892,2.892,0,0,0,0,.538c.059.454-.023.737-.575.8a.938.938,0,0,0-.789.938c-.042.421-.018.848-.035,1.272-.009.216.085.3.289.269.315-.05.33.131.334.376.015,1.083.021,1.083-1.041,1.083-.49,0-.98-.014-1.469,0-.283.011-.38-.089-.35-.365a3.275,3.275,0,0,0,0-.587c-.023-.326-.007-.6.444-.513.191.036.254-.062.252-.25-.008-.686-.011-1.372,0-2.057,0-.221-.085-.3-.286-.27-.262.033-.322-.091-.331-.338-.045-1.117-.053-1.117,1.069-1.117h.343C2158.02,1599.38,2158.02,1599.38,2158.076,1600.068Z" transform="translate(-1981.992 -1525.256)" fill="#3b4e6b"/>
      <path id="Trazado_793" data-name="Trazado 793" d="M1768.3,1601.762c0,.555.008,1.11,0,1.665-.005.245.02.43.332.381s.366.126.373.4c.025,1.064.033,1.064-1.02,1.062-.506,0-1.013-.023-1.518.005-.319.018-.4-.1-.369-.389a3.235,3.235,0,0,0,0-.636c-.033-.326.061-.5.422-.443.221.035.273-.087.271-.288-.009-.653-.011-1.306,0-1.959,0-.245-.061-.379-.326-.341s-.351-.083-.356-.356c-.021-1.094-.031-1.094,1.04-1.094,1.155,0,1.155,0,1.154,1.162Q1768.3,1601.346,1768.3,1601.762Z" transform="translate(-1643.487 -1525.652)" fill="#374b69"/>
      <path id="Trazado_794" data-name="Trazado 794" d="M919.925,1633.328h45.991q5.129,0,10.258-.006a6.715,6.715,0,0,1-1.8.188q-26.255.008-52.51,0A7.934,7.934,0,0,1,919.925,1633.328Z" transform="translate(-908.633 -1554.794)" fill="#4d5b70"/>
      <path id="Trazado_795" data-name="Trazado 795" d="M1431.307,1178.1c-.209-.043-.168-.21-.17-.351,0-.294,0-.589,0-.883q0-26.366,0-52.732c0-.175-.054-.361.068-.522.042.695.121,1.39.121,2.085q.01,25.933,0,51.866C1431.329,1177.738,1431.315,1177.917,1431.307,1178.1Z" transform="translate(-1352.585 -1112.131)" fill="#3d4c61"/>
      <path id="Trazado_796" data-name="Trazado 796" d="M2035.828,1155.669c.285.119.154.37.154.557q.011,11.425.006,22.85c0,2.615-.01,5.23.007,7.845,0,.682-.184,1.4.286,2.025-.375.028-.488-.2-.488-.517,0-.6.01-1.21.01-1.815q0-15.179,0-30.359C2035.8,1156.06,2035.82,1155.864,2035.828,1155.669Z" transform="translate(-1877.709 -1139.975)" fill="#3d4c61"/>
      <path id="Trazado_797" data-name="Trazado 797" d="M1772.18,1587.432c.191.055.567-.128.636.092.108.34.185.869,0,1.082-.293.341-.843.1-1.281.128-.3.017-.146-.258-.188-.405a.376.376,0,0,1,0-.1C1771.345,1587.429,1771.345,1587.429,1772.18,1587.432Z" transform="translate(-1648.048 -1514.923)" fill="#374b69"/>
      <path id="Trazado_798" data-name="Trazado 798" d="M1679.654,1582.62c.251-.474.5-.879.685-1.309a.657.657,0,0,1,.78-.473,5.119,5.119,0,0,0,.685.005,14.03,14.03,0,0,1-1.468,1.747C1680.2,1582.729,1679.929,1582.625,1679.654,1582.62Z" transform="translate(-1568.42 -1509.202)" fill="#3b4e6b"/>
      <path id="Trazado_799" data-name="Trazado 799" d="M2526.292,1455.639a3.481,3.481,0,0,0-.173,1.933c-.042,3.474-.02,6.949-.02,10.423-.2-.1-.1-.289-.1-.431q-.01-5.773-.005-11.546C2526,1455.823,2525.915,1455.549,2526.292,1455.639Z" transform="translate(-2303.408 -1400.469)" fill="#3d4c61"/>
      <path id="Trazado_800" data-name="Trazado 800" d="M2040.27,1408.014c.109-.141.266-.1.407-.1q2.732,0,5.464,0c.141,0,.3-.043.409.094Z" transform="translate(-1881.597 -1359.034)" fill="#3d4c61"/>
      <path id="Trazado_801" data-name="Trazado 801" d="M2533.033,1455.684l.406.02a8.142,8.142,0,0,1-3.536-.013Z" transform="translate(-2306.82 -1400.523)" fill="#3d4c61"/>
      <path id="Trazado_802" data-name="Trazado 802" d="M1586.3,1520.665c.2-.039.413-.039.527.154a1.361,1.361,0,0,0,.752.739c.115.037.128.378-.011.574A10.263,10.263,0,0,1,1586.3,1520.665Z" transform="translate(-1487.344 -1456.938)" fill="#374b69"/>
      <path id="Trazado_803" data-name="Trazado 803" d="M1580.363,1514.024a1.06,1.06,0,0,1,.782.891A3.581,3.581,0,0,1,1580.363,1514.024Z" transform="translate(-1482.191 -1451.188)" fill="#374b69"/>
      <path id="Trazado_804" data-name="Trazado 804" d="M1568.109,1487.565l-.064.026.034-.068A.035.035,0,0,1,1568.109,1487.565Z" transform="translate(-1471.493 -1428.174)" fill="#374b69"/>
      <path id="Trazado_805" data-name="Trazado 805" d="M918.71,1183.419c-.011-.146-.031-.292-.031-.437q0-29.475,0-58.951c0-.415-.176-.918.117-1.23a2.92,2.92,0,0,1,1.735-.842,3.539,3.539,0,0,1,2.581.721c.231.159.219.38.219.609,0,1.62.007,3.24-.008,4.859a.511.511,0,0,0,.4.57,14.462,14.462,0,0,0,7.945.8,12.445,12.445,0,0,0,5.308-2.617,15.415,15.415,0,0,1,7.518-3.591,10.762,10.762,0,0,1,6.812,1.315,18.1,18.1,0,0,1,2.629,1.793.67.67,0,0,1,.308.568q-.012,9.645-.006,19.32c-.209-.033-.3-.2-.415-.312a11.673,11.673,0,0,0-5.254-3.293,9.484,9.484,0,0,0-6.58.777,26.379,26.379,0,0,0-4.66,3.058,18.428,18.428,0,0,1-7.387,3.6,10.035,10.035,0,0,1-6.282-.66,2.538,2.538,0,0,0-.323-.1.151.151,0,0,0-.039-.029.069.069,0,0,0-.042,0c-.013.141-.032.283-.032.424q0,16.186,0,32.372a3.715,3.715,0,0,0,0,.392c.033.307-.108.394-.4.39-.981-.013-1.962,0-2.943,0V1123.8c0-.114,0-.229,0-.343,0-.208-.131-.237-.293-.234h-.1c-.043-.15.108-.4-.128-.436-.149-.025-.254.16-.265.337v.1c-.324.08-.191.344-.191.527q-.009,29.33-.007,58.661a2.4,2.4,0,0,0,.08.627c.049.184.082.244.314.243.562,0,1.093-.212,1.661-.173s1.145,0,1.717.014c.176,0,.489-.109.5.131.011.277-.306.15-.473.152a18.367,18.367,0,0,0-3.434.194.454.454,0,0,0-.354.283.271.271,0,0,1-.252-.066l.054-.117C918.825,1183.606,918.825,1183.512,918.71,1183.419Zm3.134-61.108a6.617,6.617,0,0,0-1.638-.071c-.1.018-.2.014-.184.159.017.119.093.18.2.126.259-.13.506-.017.76,0,.276.017.588.1-1.445.08.214.129.285.33.489.245a.277.277,0,0,0,.042-.257C919.952,1122.469,919.8,1122.534,921.844,1122.311Zm-1.553.906c.058-.016.144-.012.124-.105-.016-.073-.089-.084-.154-.075s-.145.01-.125.1C920.152,1123.212,920.225,1123.216,920.291,1123.216Z" transform="translate(-907.509 -1110.67)" fill="#de1c2a"/>
      <path id="Trazado_806" data-name="Trazado 806" d="M921.511,1191.479c.981,0,1.962-.008,2.943,0,.291,0,.432-.083.4-.39a3.7,3.7,0,0,1,0-.392q0-16.186,0-32.372c0-.141.019-.283.032-.424a.067.067,0,0,1,.042,0,.15.15,0,0,1,.039.028q0,16.456,0,32.912c0,.6-.007,1.21-.012,1.814a13.537,13.537,0,0,1-4.415-.214.454.454,0,0,1,.354-.283,18.356,18.356,0,0,1,3.434-.194c.167,0,.484.125.473-.152-.009-.239-.322-.126-.5-.131-.572-.015-1.147.025-1.717-.014s-1.1.17-1.661.173c-.232,0-.265-.06-.314-.243a2.4,2.4,0,0,1-.08-.627q0-29.33.007-58.661c0-.183-.133-.448.191-.527q0,.2,0,.392,0,29.361,0,58.721c0,.355-.016.678.491.584Zm3.275.932,0-.1h-3.006v.1Z" transform="translate(-909.14 -1119.229)" fill="#dd1f26"/>
      <path id="Trazado_807" data-name="Trazado 807" d="M872.544,1130.308c0,.441-.008.882-.008,1.323q0,26.021,0,52.041c0,.082-.008.163-.012.245a.192.192,0,0,1-.164-.209c0-.164,0-.327,0-.49q0-25.9.012-51.8C872.372,1131.055,872.073,1130.611,872.544,1130.308Z" transform="translate(-867.254 -1117.95)" fill="#3d4c61"/>
      <path id="Trazado_808" data-name="Trazado 808" d="M1390.716,1176.461a13.632,13.632,0,0,0,.264-2.969q-.008-24.987,0-49.974a14.006,14.006,0,0,0-.312-3.6c.122-.008.292.026.274.139-.066.4.159.749.159,1.146q-.017,26.972-.014,53.944c0,.372-.066.744-.1,1.116C1390.976,1176.439,1390.855,1176.458,1390.716,1176.461Z" transform="translate(-1317.449 -1108.922)" fill="#3d4c61"/>
      <path id="Trazado_809" data-name="Trazado 809" d="M983.034,1074.644c-.31,0-.619.008-.929.008H930.5c-.294,0-.587.015-.881.023a.741.741,0,0,1,.779-.225,6.533,6.533,0,0,0,1.071.057q25.015,0,50.031.007a3.969,3.969,0,0,1,1.349-.007C982.935,1074.537,983,1074.558,983.034,1074.644Z" transform="translate(-917.055 -1069.422)" fill="#3d4c61"/>
      <path id="Trazado_810" data-name="Trazado 810" d="M1077.2,1352.429c-.007-.457-.019-.914-.019-1.372q0-17.018-.014-34.036a.944.944,0,0,1,.72-1.039.28.28,0,0,1-.1.263c-.536.285-.487.776-.487,1.272q.007,17.177,0,34.355C1077.291,1352.059,1077.369,1352.269,1077.2,1352.429Z" transform="translate(-1045.187 -1279.199)" fill="#3d4c61"/>
      <path id="Trazado_811" data-name="Trazado 811" d="M2559.5,1456.1h1.511A2.748,2.748,0,0,1,2559.5,1456.1Z" transform="translate(-2332.526 -1400.888)" fill="#3d4c61"/>
      <path id="Trazado_812" data-name="Trazado 812" d="M919.227,1589.383c.115.094.115.187,0,.28Q919.227,1589.523,919.227,1589.383Z" transform="translate(-908.026 -1516.634)" fill="#dd1f26"/>
      <path id="Trazado_813" data-name="Trazado 813" d="M922.629,1190.829c-.508.094-.491-.229-.491-.584q.006-29.36,0-58.721,0-.2,0-.392v-.1l.393.1h.1Z" transform="translate(-910.555 -1118.58)" fill="#de1b2e"/>
      <path id="Trazado_814" data-name="Trazado 814" d="M925.872,1191.481q0-29.849,0-59.7c.162,0,.3.027.293.234,0,.115,0,.229,0,.344v59.12Z" transform="translate(-913.798 -1119.231)" fill="#dd2021"/>
      <path id="Trazado_815" data-name="Trazado 815" d="M931.013,1124.156c-.273.312-.585.229-.861.212-.255-.016-.5-.128-.76,0-.107.054-.184-.007-.2-.126-.02-.145.086-.141.184-.159A6.629,6.629,0,0,1,931.013,1124.156Z" transform="translate(-916.678 -1112.515)" fill="#dd1f26"/>
      <path id="Trazado_816" data-name="Trazado 816" d="M922.556,1128.892l-.393-.1c.011-.177.117-.362.265-.337C922.664,1128.5,922.513,1128.742,922.556,1128.892Z" transform="translate(-910.577 -1116.34)" fill="#dd1f26"/>
      <path id="Trazado_817" data-name="Trazado 817" d="M925.526,1126.55c.259-.069.415-.133.531-.012a.277.277,0,0,1-.042.257C925.811,1126.88,925.74,1126.679,925.526,1126.55Z" transform="translate(-913.497 -1114.617)" fill="#dd1f26"/>
      <path id="Trazado_818" data-name="Trazado 818" d="M930.211,1130.531c-.066,0-.139,0-.155-.077-.02-.093.064-.1.125-.1s.138,0,.154.075C930.355,1130.519,930.269,1130.515,930.211,1130.531Z" transform="translate(-917.429 -1117.985)" fill="#dd1f26"/>
      <path id="Trazado_819" data-name="Trazado 819" d="M933.16,1592.023h-3.008v-.1h3.006Z" transform="translate(-917.515 -1518.842)" fill="#de1c2a"/>
    </g>
  </g>
</svg>
