<svg id="logo" xmlns="http://www.w3.org/2000/svg" width="198.109" height="48" viewBox="0 0 198.109 48">
  <defs>
    <style>
      .cls-1 {
        fill: #383838;
      }

      .cls-2 {
        fill: #9dd4ca;
      }

      .cls-3 {
        fill: #005850;
      }

      .cls-4 {
        fill: #007f6e;
      }

      .cls-5 {
        fill: #004545;
      }
    </style>
  </defs>
  <path id="Trazado_4932" data-name="Trazado 4932" class="cls-1" d="M13.389-14.508H5.309L3.767-10.778H-.36L7.4-28.182h3.978l7.782,17.4H14.93Zm-1.268-3.058-2.76-6.663L6.6-17.566Zm24.688,6.787L36.784-21.22l-5.122,8.6H29.847L24.75-21v10.218H20.971v-17.4H24.3l6.514,10.815,6.414-10.815h3.307l.05,17.4Zm13.624.3a14.239,14.239,0,0,1-3.99-.559,9.359,9.359,0,0,1-3.1-1.454l1.367-3.033a9.279,9.279,0,0,0,2.66,1.318,9.992,9.992,0,0,0,3.083.5,4.925,4.925,0,0,0,2.536-.51,1.54,1.54,0,0,0,.82-1.355,1.3,1.3,0,0,0-.485-1.032,3.675,3.675,0,0,0-1.243-.659q-.758-.249-2.051-.547a28.352,28.352,0,0,1-3.257-.945A5.292,5.292,0,0,1,44.6-20.276,4.1,4.1,0,0,1,43.7-23.06a4.844,4.844,0,0,1,.82-2.747,5.519,5.519,0,0,1,2.474-1.952,10.094,10.094,0,0,1,4.04-.721,13.378,13.378,0,0,1,3.257.4,9.622,9.622,0,0,1,2.785,1.144l-1.243,3.058A9.7,9.7,0,0,0,51-25.248a4.522,4.522,0,0,0-2.5.547,1.67,1.67,0,0,0-.808,1.442,1.41,1.41,0,0,0,.932,1.33,14.638,14.638,0,0,0,2.847.858,28.355,28.355,0,0,1,3.257.945,5.393,5.393,0,0,1,2.175,1.492,4,4,0,0,1,.907,2.76,4.752,4.752,0,0,1-.833,2.722,5.6,5.6,0,0,1-2.5,1.952A10.186,10.186,0,0,1,50.433-10.48ZM69-10.48a10.158,10.158,0,0,1-4.885-1.169,8.673,8.673,0,0,1-3.406-3.22,8.789,8.789,0,0,1-1.231-4.612,8.79,8.79,0,0,1,1.231-4.612,8.673,8.673,0,0,1,3.406-3.22A10.158,10.158,0,0,1,69-28.48a10.086,10.086,0,0,1,4.873,1.169,8.785,8.785,0,0,1,3.406,3.22,8.722,8.722,0,0,1,1.243,4.612,8.722,8.722,0,0,1-1.243,4.612,8.785,8.785,0,0,1-3.406,3.22A10.086,10.086,0,0,1,69-10.48Zm0-3.431a5.523,5.523,0,0,0,2.785-.709A5.085,5.085,0,0,0,73.741-16.6a5.81,5.81,0,0,0,.709-2.884,5.81,5.81,0,0,0-.709-2.884,5.085,5.085,0,0,0-1.952-1.977A5.523,5.523,0,0,0,69-25.049a5.523,5.523,0,0,0-2.785.709,5.085,5.085,0,0,0-1.952,1.977,5.81,5.81,0,0,0-.709,2.884,5.81,5.81,0,0,0,.709,2.884A5.085,5.085,0,0,0,66.22-14.62,5.523,5.523,0,0,0,69-13.911ZM85.588-24.95v4.6h8.055v3.232H85.588v6.34H81.56v-17.4H94.712v3.232Zm11.859-3.232h4.028v17.4H97.447Zm15.688,0a9.668,9.668,0,0,1,4.015.771,5.965,5.965,0,0,1,2.623,2.188,6.027,6.027,0,0,1,.92,3.356,6.043,6.043,0,0,1-.92,3.344,5.859,5.859,0,0,1-2.623,2.188,9.806,9.806,0,0,1-4.015.758h-3.506v4.8H105.6v-17.4Zm-.224,9.323a4.23,4.23,0,0,0,2.76-.783,2.728,2.728,0,0,0,.945-2.225,2.757,2.757,0,0,0-.945-2.25,4.23,4.23,0,0,0-2.76-.783h-3.282v6.041Zm19.318,8.378a10.158,10.158,0,0,1-4.885-1.169,8.673,8.673,0,0,1-3.406-3.22,8.79,8.79,0,0,1-1.231-4.612,8.79,8.79,0,0,1,1.231-4.612,8.673,8.673,0,0,1,3.406-3.22,10.158,10.158,0,0,1,4.885-1.169,10.086,10.086,0,0,1,4.873,1.169,8.785,8.785,0,0,1,3.406,3.22,8.722,8.722,0,0,1,1.243,4.612,8.722,8.722,0,0,1-1.243,4.612,8.785,8.785,0,0,1-3.406,3.22A10.086,10.086,0,0,1,132.228-10.48Zm0-3.431a5.523,5.523,0,0,0,2.785-.709,5.085,5.085,0,0,0,1.952-1.977,5.81,5.81,0,0,0,.709-2.884,5.81,5.81,0,0,0-.709-2.884,5.085,5.085,0,0,0-1.952-1.977,5.523,5.523,0,0,0-2.785-.709,5.522,5.522,0,0,0-2.785.709,5.085,5.085,0,0,0-1.952,1.977,5.81,5.81,0,0,0-.709,2.884,5.81,5.81,0,0,0,.709,2.884,5.085,5.085,0,0,0,1.952,1.977A5.522,5.522,0,0,0,132.228-13.911Z" transform="translate(56.358 43.48)"/>
  <g id="Grupo_3440" data-name="Grupo 3440" transform="translate(-0.001 0)">
    <rect id="Rectángulo_707" data-name="Rectángulo 707" class="cls-2" width="8.21" height="8.186" transform="matrix(0.707, 0.707, -0.707, 0.707, 24.002, 10.759)"/>
    <rect id="Rectángulo_4135" data-name="Rectángulo 4135" class="cls-2" width="8.21" height="8.186" transform="matrix(0.707, 0.707, -0.707, 0.707, 31.449, 18.207)"/>
    <rect id="Rectángulo_4137" data-name="Rectángulo 4137" class="cls-2" width="8.21" height="8.186" transform="matrix(0.707, 0.707, -0.707, 0.707, 24.002, 25.655)"/>
    <rect id="Rectángulo_4136" data-name="Rectángulo 4136" class="cls-2" width="8.21" height="8.186" transform="matrix(0.707, 0.707, -0.707, 0.707, 16.555, 18.207)"/>
    <rect id="Rectángulo_713" data-name="Rectángulo 713" class="cls-3" width="8.193" height="12.874" transform="translate(48.002 34.759) rotate(135)"/>
    <rect id="Rectángulo_4140" data-name="Rectángulo 4140" class="cls-4" width="8.193" height="12.874" transform="translate(42.21 7.448) rotate(45)"/>
    <rect id="Rectángulo_4141" data-name="Rectángulo 4141" class="cls-3" width="8.193" height="12.874" transform="translate(34.763) rotate(45)"/>
    <rect id="Rectángulo_4138" data-name="Rectángulo 4138" class="cls-3" width="8.193" height="12.874" transform="translate(14.899 16.552) rotate(135)"/>
    <rect id="Rectángulo_714" data-name="Rectángulo 714" class="cls-4" width="8.193" height="12.874" transform="translate(40.554 42.207) rotate(135)"/>
    <rect id="Rectángulo_4139" data-name="Rectángulo 4139" class="cls-4" width="8.193" height="12.874" transform="translate(22.347 9.103) rotate(135)"/>
    <path id="Trazado_1295" data-name="Trazado 1295" class="cls-5" d="M0,.005,0,0,0,0,0,0Z" transform="translate(18.61 39.04) rotate(90)"/>
    <rect id="Rectángulo_4142" data-name="Rectángulo 4142" class="cls-4" width="8.193" height="12.874" transform="translate(5.794 40.552) rotate(-135)"/>
    <rect id="Rectángulo_4143" data-name="Rectángulo 4143" class="cls-3" width="8.193" height="12.874" transform="translate(13.241 48) rotate(-135)"/>
  </g>
</svg>
