<svg xmlns="http://www.w3.org/2000/svg" width="240" height="79.902" viewBox="0 0 240 79.902">
  <g id="logo-finamigo" transform="translate(-16.795 -32.191)">
    <g id="Grupo_155" data-name="Grupo 155" transform="translate(87.566 33.264)">
      <g id="Grupo_154" data-name="Grupo 154">
        <g id="Grupo_152" data-name="Grupo 152">
          <g id="Grupo_150" data-name="Grupo 150" transform="translate(2.03)">
            <path id="Trazado_921" data-name="Trazado 921" d="M317.46,41.106c-3.1.915-12.267,6.164-12.267,6.164,7.565-10.1,22.306-13.245,22.306-13.245s17.591-5,34.317,10.626c5.207,4.588,5.819,7.872,5.819,7.872S353.763,40.317,341.994,39c-9.916-2.229-24.534,2.1-24.534,2.1" transform="translate(-305.193 -33.264)" fill="#fff"/>
            <path id="Trazado_922" data-name="Trazado 922" d="M317.46,41.106c-3.1.915-12.267,6.164-12.267,6.164,7.565-10.1,22.306-13.245,22.306-13.245s17.591-5,34.317,10.626c5.207,4.588,5.819,7.872,5.819,7.872S353.763,40.317,341.994,39C332.077,36.772,317.46,41.106,317.46,41.106Z" transform="translate(-305.193 -33.264)" fill="none" stroke="#fff" stroke-linecap="round" stroke-linejoin="round" stroke-width="2.068"/>
            <path id="Trazado_923" data-name="Trazado 923" d="M671.8,202.878c4.089-1.2,16.1-8.276,16.1-8.276-9.538,12.86-28.991,17.717-28.991,17.717s-23.291,7.346-46.583-10.371c-7.061-5.379-8.175-9.175-8.175-9.175s19.2,13.771,35.183,14.556c13.259,1.843,32.468-4.451,32.468-4.451" transform="translate(-528.681 -152.508)" fill="#fff"/>
            <path id="Trazado_924" data-name="Trazado 924" d="M671.8,202.878c4.089-1.2,16.1-8.276,16.1-8.276-9.538,12.86-28.991,17.717-28.991,17.717s-23.291,7.346-46.583-10.371c-7.061-5.379-8.175-9.175-8.175-9.175s19.2,13.771,35.183,14.556C652.588,209.173,671.8,202.878,671.8,202.878Z" transform="translate(-528.681 -152.508)" fill="none" stroke="#fff" stroke-linecap="round" stroke-linejoin="round" stroke-width="2.068"/>
            <path id="Trazado_925" data-name="Trazado 925" d="M442.552,86.687c-.245,1.7,1.113,3.281,2.6,2.883a4.471,4.471,0,0,0,3.348-2.758c.868-2.886-1.237-3.8-3.232-3.018a4.071,4.071,0,0,0-2.718,2.893" transform="translate(-407.857 -70.838)" fill="#fff"/>
            <path id="Trazado_926" data-name="Trazado 926" d="M442.552,86.687c-.245,1.7,1.113,3.281,2.6,2.883a4.471,4.471,0,0,0,3.348-2.758c.868-2.886-1.237-3.8-3.232-3.018A4.071,4.071,0,0,0,442.552,86.687Z" transform="translate(-407.857 -70.838)" fill="none" stroke="#fff" stroke-linecap="round" stroke-linejoin="round" stroke-width="2.068"/>
            <path id="Trazado_927" data-name="Trazado 927" d="M780.241,86.687c-.258,1.7,1.115,3.281,2.6,2.883a4.467,4.467,0,0,0,3.347-2.758c.865-2.886-1.235-3.8-3.218-3.018a4.04,4.04,0,0,0-2.731,2.893" transform="translate(-660.302 -70.838)" fill="#fff"/>
            <path id="Trazado_928" data-name="Trazado 928" d="M780.241,86.687c-.258,1.7,1.115,3.281,2.6,2.883a4.467,4.467,0,0,0,3.347-2.758c.865-2.886-1.235-3.8-3.218-3.018A4.04,4.04,0,0,0,780.241,86.687Z" transform="translate(-660.302 -70.838)" fill="none" stroke="#fff" stroke-linecap="round" stroke-linejoin="round" stroke-width="2.068"/>
            <path id="Trazado_929" data-name="Trazado 929" d="M317.46,41.106c-3.1.915-12.267,6.164-12.267,6.164,7.565-10.1,22.306-13.245,22.306-13.245s17.591-5,34.317,10.626c5.207,4.588,5.819,7.872,5.819,7.872S353.763,40.317,341.994,39c-9.916-2.229-24.534,2.1-24.534,2.1" transform="translate(-305.193 -33.264)" fill="#f46805"/>
            <path id="Trazado_930" data-name="Trazado 930" d="M671.8,203.246c4.089-1.2,16.1-8.276,16.1-8.276-9.538,12.86-28.991,17.717-28.991,17.717s-23.291,7.346-46.583-10.371c-7.061-5.379-8.175-9.051-8.175-9.051s19.2,13.647,35.183,14.432c13.259,1.843,32.468-4.451,32.468-4.451" transform="translate(-528.681 -152.876)" fill="#f46805"/>
            <g id="Grupo_149" data-name="Grupo 149" transform="translate(0.123 9.635)">
              <path id="Trazado_931" data-name="Trazado 931" d="M333.812,73.053c.49.263-.5,1.7,1.114,3.673,2.1,1.576,4.836-.267,4.836-2.759,0-2.622-2.852-2.622-3.109-2.491a13.327,13.327,0,0,0-7.8,2.628,22.307,22.307,0,0,0-6.562,8.925,21.4,21.4,0,0,0-2.974.133l-1.366,1.572h3.342l-1.365,2.758s-5.937,12.594-7.308,14.7c-1.861,3.28-5.577,4.065-6.941,4.2,0,0,3.6,1.182,8.177-2.1,3.722-2.1,9.047-11.022,11.4-16.794,1.108-2.758,1.611-2.894,1.611-2.894h4.089l1.481-1.57-4.7-.138s4.579-9.965,6.072-9.836" transform="translate(-305.68 -71.432)" fill="#fff"/>
              <path id="Trazado_932" data-name="Trazado 932" d="M333.812,73.053c.49.263-.5,1.7,1.114,3.673,2.1,1.576,4.836-.267,4.836-2.759,0-2.622-2.852-2.622-3.109-2.491a13.327,13.327,0,0,0-7.8,2.628,22.307,22.307,0,0,0-6.562,8.925,21.4,21.4,0,0,0-2.974.133l-1.366,1.572h3.342l-1.365,2.758s-5.937,12.594-7.308,14.7c-1.861,3.28-5.577,4.065-6.941,4.2,0,0,3.6,1.182,8.177-2.1,3.722-2.1,9.047-11.022,11.4-16.794,1.108-2.758,1.611-2.894,1.611-2.894h4.089l1.481-1.57-4.7-.138S332.318,72.924,333.812,73.053Z" transform="translate(-305.68 -71.432)" fill="none" stroke="#fff" stroke-linecap="round" stroke-linejoin="round" stroke-width="2.068"/>
              <path id="Trazado_933" data-name="Trazado 933" d="M406.322,122.711s.857-1.837,3.956-2.228a7.43,7.43,0,0,1,3.109,0,1.952,1.952,0,0,1,1.482,1.961c-.5,2.369-1.616,3.81-3.845,7.753-.984,2.1-2.229,3.929-1.861,4.195,1.115.654,3.973-.141,3.973-.141s-.619,1.451-3.716,2.24c0,0-5.827,1.176-5.209-1.973.618-3.278,3.716-7.474,4.714-9.185s1.229-2.623.495-3.014c-.625-.268-3.1.391-3.1.391" transform="translate(-379.304 -107.968)" fill="#fff"/>
              <path id="Trazado_934" data-name="Trazado 934" d="M406.322,122.711s.857-1.837,3.956-2.228a7.43,7.43,0,0,1,3.109,0,1.952,1.952,0,0,1,1.482,1.961c-.5,2.369-1.616,3.81-3.845,7.753-.984,2.1-2.229,3.929-1.861,4.195,1.115.654,3.973-.141,3.973-.141s-.619,1.451-3.716,2.24c0,0-5.827,1.176-5.209-1.973.618-3.278,3.716-7.474,4.714-9.185s1.229-2.623.495-3.014C408.794,122.052,406.322,122.711,406.322,122.711Z" transform="translate(-379.304 -107.968)" fill="none" stroke="#fff" stroke-linecap="round" stroke-linejoin="round" stroke-width="2.068"/>
              <path id="Trazado_935" data-name="Trazado 935" d="M450.466,119.233s6.316-2.1,5.7,2.487c.495,0,6.81-4.719,9.413-2.487,0,0,1.866,1.049-.123,4.587-2.105,3.679.123-.128-3.348,5.648-3.586,5.774,1.982,3.28,2.106,3.409,0,0,0,.792-1.856,1.7-1.983.664-4.095,1.319-5.7.4-3.464-1.31,2.351-8.4,3.836-11.16,1.862-3.538-2.233-2.1-2.233-2.1-3.838,1.582-3.343,2.227-9.531,13.259-.378.393-4.835.262-5.073,0,0,0,4.945-8.661,6.677-11.942,1.739-2.887-2.473-1.576-2.846-1.709.251-1.178,2.976-2.1,2.976-2.1" transform="translate(-408.829 -106.719)" fill="#fff"/>
              <path id="Trazado_936" data-name="Trazado 936" d="M450.466,119.233s6.316-2.1,5.7,2.487c.495,0,6.81-4.719,9.413-2.487,0,0,1.866,1.049-.123,4.587-2.105,3.679.123-.128-3.348,5.648-3.586,5.774,1.982,3.28,2.106,3.409,0,0,0,.792-1.856,1.7-1.983.664-4.095,1.319-5.7.4-3.464-1.31,2.351-8.4,3.836-11.16,1.862-3.538-2.233-2.1-2.233-2.1-3.838,1.582-3.343,2.227-9.531,13.259-.378.393-4.835.262-5.073,0,0,0,4.945-8.661,6.677-11.942,1.739-2.887-2.473-1.576-2.846-1.709C447.741,120.151,450.466,119.233,450.466,119.233Z" transform="translate(-408.829 -106.719)" fill="none" stroke="#fff" stroke-linecap="round" stroke-linejoin="round" stroke-width="2.068"/>
              <path id="Trazado_937" data-name="Trazado 937" d="M614.965,121.008c4.2-3.936,7.927-1.968,7.927-1.968.862,1.187.244,2.36.5,2.36.74,0,5.074-4.719,9.407-2.623a2.5,2.5,0,0,1,.883,2.231c0,.66,2.842-1.573,3.953-2.1,1.115-.663,4.959-1.44,6.074.651,1.364,2.622-5.2,9.454-5.584,12.864.252,1.312,3.478-.266,3.232.521-3.478,2.628-7.2,3.149-8.187.658-.736-4.589,5.958-9.979,4.59-12.33-.994-.923-3.1.657-4.335,1.441-.873,1.182-6.7,11.807-6.815,12.068a35.2,35.2,0,0,1-5.332.136c-.365-.262,7.059-11.55,6.813-13.252-.115-1.707-3.96-.13-5.08,1.048-.99.91-5.455,10.753-6.688,12.068-.246.393-4.83.267-4.83,0,.244-1.179,4.83-9.181,6.444-12.471,1.61-3.274-3.965-.382-2.968-1.306" transform="translate(-534.294 -106.398)" fill="#fff"/>
              <path id="Trazado_938" data-name="Trazado 938" d="M614.965,121.008c4.2-3.936,7.927-1.968,7.927-1.968.862,1.187.244,2.36.5,2.36.74,0,5.074-4.719,9.407-2.623a2.5,2.5,0,0,1,.883,2.231c0,.66,2.842-1.573,3.953-2.1,1.115-.663,4.959-1.44,6.074.651,1.364,2.622-5.2,9.454-5.584,12.864.252,1.312,3.478-.266,3.232.521-3.478,2.628-7.2,3.149-8.187.658-.736-4.589,5.958-9.979,4.59-12.33-.994-.923-3.1.657-4.335,1.441-.873,1.182-6.7,11.807-6.815,12.068a35.2,35.2,0,0,1-5.332.136c-.365-.262,7.059-11.55,6.813-13.252-.115-1.707-3.96-.13-5.08,1.048-.99.91-5.455,10.753-6.688,12.068-.246.393-4.83.267-4.83,0,.244-1.179,4.83-9.181,6.444-12.471C619.543,119.04,613.968,121.932,614.965,121.008Z" transform="translate(-534.294 -106.398)" fill="none" stroke="#fff" stroke-linecap="round" stroke-linejoin="round" stroke-width="2.068"/>
              <path id="Trazado_939" data-name="Trazado 939" d="M744.012,122.711s.867-1.837,3.966-2.228a7.383,7.383,0,0,1,3.1,0,1.949,1.949,0,0,1,1.493,1.961c-.5,2.369-1.616,3.81-3.972,7.753-.991,2.1-2.106,3.929-1.739,4.195,1.12.654,3.966-.141,3.966-.141s-.61,1.451-3.71,2.24c0,0-5.826,1.176-5.209-1.973.625-3.278,3.728-7.474,4.707-9.185s1.25-2.623.5-3.014c-.623-.268-3.1.391-3.1.391" transform="translate(-631.755 -107.968)" fill="#fff"/>
              <path id="Trazado_940" data-name="Trazado 940" d="M744.012,122.711s.867-1.837,3.966-2.228a7.383,7.383,0,0,1,3.1,0,1.949,1.949,0,0,1,1.493,1.961c-.5,2.369-1.616,3.81-3.972,7.753-.991,2.1-2.106,3.929-1.739,4.195,1.12.654,3.966-.141,3.966-.141s-.61,1.451-3.71,2.24c0,0-5.826,1.176-5.209-1.973.625-3.278,3.728-7.474,4.707-9.185s1.25-2.623.5-3.014C746.491,122.052,744.012,122.711,744.012,122.711Z" transform="translate(-631.755 -107.968)" fill="none" stroke="#fff" stroke-linecap="round" stroke-linejoin="round" stroke-width="2.068"/>
              <path id="Trazado_941" data-name="Trazado 941" d="M546.993,132.108c.492-1.307,6.943-11.808,7.059-12.854-.116-.268-5.076.911-5.076.911a6.838,6.838,0,0,0-4.951-1.05c-9.537,1.317-14.124,13.121-11.4,16.145,4.21,2.493,8.788-2.5,8.919-1.978.25,4.608,7.681,1.451,8.177,1.193a2.674,2.674,0,0,0,.494-1.193c.381-.385-4.093,1.058-3.224-1.174m-5.446,0s-2.6,2.368-4.218.655c-1.237-1.831,4.836-13.508,9.048-12.2,1.233.266.857,1.439.746,2.1-.374.92-4.217,8.269-5.576,9.445" transform="translate(-474.757 -106.999)" fill="#fff"/>
              <path id="Trazado_942" data-name="Trazado 942" d="M546.993,132.108c.492-1.307,6.943-11.808,7.059-12.854-.116-.268-5.076.911-5.076.911a6.838,6.838,0,0,0-4.951-1.05c-9.537,1.317-14.124,13.121-11.4,16.145,4.21,2.493,8.788-2.5,8.919-1.978.25,4.608,7.681,1.451,8.177,1.193a2.674,2.674,0,0,0,.494-1.193C550.6,132.9,546.124,134.34,546.993,132.108Zm-5.446,0s-2.6,2.368-4.218.655c-1.237-1.831,4.836-13.508,9.048-12.2,1.233.266.857,1.439.746,2.1C546.747,123.583,542.9,130.931,541.546,132.108Z" transform="translate(-474.757 -106.999)" fill="none" stroke="#fff" stroke-linecap="round" stroke-linejoin="round" stroke-width="2.068"/>
              <path id="Trazado_943" data-name="Trazado 943" d="M796.209,119.023a36.135,36.135,0,0,0-4.951,1.046l-1.613-.913a9.208,9.208,0,0,0-6.946.518c-3.337,1.7-5.082,3.537-7.3,7.222-2.106,3.408-1.86,5.9-.87,7.348a3.841,3.841,0,0,0,2.481,1.442c3.713,0,6.309-2.368,6.567-2.1,0,1.177-4.094,8-7.81,7.483-.244-.268,0-2.1-.742-3.159-.861-1.307-2.851-.784-2.851-.784a2.739,2.739,0,0,0-1.977,3.546c.979,2.89,6.195,1.843,7.063,1.843a14,14,0,0,0,7.309-3.681c2.094-2.23,4.824-6.7,7.309-11.287,2.35-4.462,4.957-8.526,4.334-8.526m-6.684,3.533a86.022,86.022,0,0,1-4.47,8.145c-1.862,2.887-6.561,4.064-5.441-1.056a16.107,16.107,0,0,1,3.579-6.818c1.741-1.841,3.227-2.627,4.837-2.627a1.664,1.664,0,0,1,1.5,2.355" transform="translate(-652.85 -106.769)" fill="#fff"/>
              <path id="Trazado_944" data-name="Trazado 944" d="M796.209,119.023a36.135,36.135,0,0,0-4.951,1.046l-1.613-.913a9.208,9.208,0,0,0-6.946.518c-3.337,1.7-5.082,3.537-7.3,7.222-2.106,3.408-1.86,5.9-.87,7.348a3.841,3.841,0,0,0,2.481,1.442c3.713,0,6.309-2.368,6.567-2.1,0,1.177-4.094,8-7.81,7.483-.244-.268,0-2.1-.742-3.159-.861-1.307-2.851-.784-2.851-.784a2.739,2.739,0,0,0-1.977,3.546c.979,2.89,6.195,1.843,7.063,1.843a14,14,0,0,0,7.309-3.681c2.094-2.23,4.824-6.7,7.309-11.287C794.224,123.087,796.831,119.023,796.209,119.023Zm-6.684,3.533a86.022,86.022,0,0,1-4.47,8.145c-1.862,2.887-6.561,4.064-5.441-1.056a16.107,16.107,0,0,1,3.579-6.818c1.741-1.841,3.227-2.627,4.837-2.627A1.664,1.664,0,0,1,789.525,122.556Z" transform="translate(-652.85 -106.769)" fill="none" stroke="#fff" stroke-linecap="round" stroke-linejoin="round" stroke-width="2.068"/>
              <path id="Trazado_945" data-name="Trazado 945" d="M880.856,117.9a13.812,13.812,0,0,0-8.177,2.622c-2.839,2.091-5.944,6.429-5.944,10.234,0,3.541,4.707,5.91,10.78,3.411,7.811-3.411,9.29-9.845,9.29-9.845.369-1.972,1.483-6.164-5.948-6.422m1.366,3.805a18.029,18.029,0,0,1-3.838,8.4c-4.59,5.9-6.569,2.752-6.569,2.752-1.121-1.448,2.358-7.743,2.358-7.743,1.481-2.622,3.591-5.641,5.572-5.9,2.972-.658,2.6,1.705,2.478,2.5" transform="translate(-725.108 -106.167)" fill="#fff"/>
              <path id="Trazado_946" data-name="Trazado 946" d="M880.856,117.9a13.812,13.812,0,0,0-8.177,2.622c-2.839,2.091-5.944,6.429-5.944,10.234,0,3.541,4.707,5.91,10.78,3.411,7.811-3.411,9.29-9.845,9.29-9.845C887.173,122.346,888.287,118.154,880.856,117.9Zm1.366,3.805a18.029,18.029,0,0,1-3.838,8.4c-4.59,5.9-6.569,2.752-6.569,2.752-1.121-1.448,2.358-7.743,2.358-7.743,1.481-2.622,3.591-5.641,5.572-5.9C882.716,118.546,882.343,120.91,882.222,121.7Z" transform="translate(-725.108 -106.167)" fill="none" stroke="#fff" stroke-linecap="round" stroke-linejoin="round" stroke-width="2.068"/>
              <path id="Trazado_947" data-name="Trazado 947" d="M780.241,86.687c-.258,1.7,1.115,3.281,2.6,2.883a4.467,4.467,0,0,0,3.347-2.758c.865-2.886-1.235-3.8-3.218-3.018a4.04,4.04,0,0,0-2.731,2.893" transform="translate(-660.425 -80.472)" fill="#0c3212"/>
              <path id="Trazado_948" data-name="Trazado 948" d="M333.812,73.053c.49.263-.5,1.7,1.114,3.673,2.1,1.576,4.836-.267,4.836-2.759,0-2.622-2.852-2.622-3.109-2.491a13.327,13.327,0,0,0-7.8,2.628,22.307,22.307,0,0,0-6.562,8.925,21.4,21.4,0,0,0-2.974.133l-1.366,1.572h3.342l-1.365,2.758s-5.937,12.594-7.308,14.7c-1.861,3.28-5.577,4.065-6.941,4.2,0,0,3.6,1.182,8.177-2.1,3.722-2.1,9.047-11.022,11.4-16.794,1.108-2.758,1.611-2.894,1.611-2.894h4.089l1.481-1.57-4.7-.138s4.579-9.965,6.072-9.836" transform="translate(-305.68 -71.432)" fill="#0c3212"/>
              <path id="Trazado_949" data-name="Trazado 949" d="M406.322,122.711s.857-1.837,3.956-2.228a7.43,7.43,0,0,1,3.109,0,1.952,1.952,0,0,1,1.482,1.961c-.5,2.369-1.616,3.81-3.845,7.753-.984,2.1-2.229,3.929-1.861,4.195,1.115.654,3.973-.141,3.973-.141s-.619,1.451-3.716,2.24c0,0-5.827,1.176-5.209-1.973.618-3.278,3.716-7.474,4.714-9.185s1.229-2.623.495-3.014c-.625-.268-3.1.391-3.1.391" transform="translate(-379.304 -107.968)" fill="#0c3212"/>
              <path id="Trazado_950" data-name="Trazado 950" d="M442.552,86.687c-.245,1.7,1.113,3.281,2.6,2.883a4.471,4.471,0,0,0,3.348-2.758c.868-2.886-1.237-3.8-3.232-3.018a4.071,4.071,0,0,0-2.718,2.893" transform="translate(-407.98 -80.472)" fill="#0c3212"/>
              <path id="Trazado_951" data-name="Trazado 951" d="M450.466,119.233s6.316-2.1,5.7,2.487c.495,0,6.81-4.719,9.413-2.487,0,0,1.866,1.049-.123,4.587-2.105,3.679.123-.128-3.348,5.648-3.586,5.774,1.982,3.28,2.106,3.409,0,0,0,.792-1.856,1.7-1.983.664-4.095,1.319-5.7.4-3.464-1.31,2.351-8.4,3.836-11.16,1.862-3.538-2.233-2.1-2.233-2.1-3.838,1.582-3.343,2.227-9.531,13.259-.378.393-4.835.262-5.073,0,0,0,4.945-8.661,6.677-11.942,1.739-2.887-2.473-1.576-2.846-1.709.251-1.178,2.976-2.1,2.976-2.1" transform="translate(-408.829 -106.719)" fill="#0c3212"/>
              <path id="Trazado_952" data-name="Trazado 952" d="M614.965,121.008c4.2-3.936,7.927-1.968,7.927-1.968.862,1.187.244,2.36.5,2.36.74,0,5.074-4.719,9.407-2.623a2.5,2.5,0,0,1,.883,2.231c0,.66,2.842-1.573,3.953-2.1,1.115-.663,4.959-1.44,6.074.651,1.364,2.622-5.2,9.454-5.584,12.864.252,1.312,3.478-.266,3.232.521-3.478,2.628-7.2,3.149-8.187.658-.736-4.589,5.958-9.979,4.59-12.33-.994-.923-3.1.657-4.335,1.441-.873,1.182-6.7,11.807-6.815,12.068a35.2,35.2,0,0,1-5.332.136c-.365-.262,7.059-11.55,6.813-13.252-.115-1.707-3.96-.13-5.08,1.048-.99.91-5.455,10.753-6.688,12.068-.246.393-4.83.267-4.83,0,.244-1.179,4.83-9.181,6.444-12.471,1.61-3.274-3.965-.382-2.968-1.306" transform="translate(-534.294 -106.398)" fill="#0c3212"/>
              <path id="Trazado_953" data-name="Trazado 953" d="M744.012,122.711s.867-1.837,3.966-2.228a7.383,7.383,0,0,1,3.1,0,1.949,1.949,0,0,1,1.493,1.961c-.5,2.369-1.616,3.81-3.972,7.753-.991,2.1-2.106,3.929-1.739,4.195,1.12.654,3.966-.141,3.966-.141s-.61,1.451-3.71,2.24c0,0-5.826,1.176-5.209-1.973.625-3.278,3.728-7.474,4.707-9.185s1.25-2.623.5-3.014c-.623-.268-3.1.391-3.1.391" transform="translate(-631.755 -107.968)" fill="#0c3212"/>
              <path id="Trazado_954" data-name="Trazado 954" d="M546.993,132.108c.492-1.307,6.943-11.808,7.059-12.854-.116-.268-5.076.911-5.076.911a6.838,6.838,0,0,0-4.951-1.05c-9.537,1.317-14.124,13.121-11.4,16.145,4.21,2.493,8.788-2.5,8.919-1.978.25,4.608,7.681,1.451,8.177,1.193a2.674,2.674,0,0,0,.494-1.193c.381-.385-4.093,1.058-3.224-1.174m-5.446,0s-2.6,2.368-4.218.655c-1.237-1.831,4.836-13.508,9.048-12.2,1.233.266.857,1.439.746,2.1-.374.92-4.217,8.269-5.576,9.445" transform="translate(-474.757 -106.999)" fill="#0c3212"/>
              <path id="Trazado_955" data-name="Trazado 955" d="M796.209,119.023a36.135,36.135,0,0,0-4.951,1.046l-1.613-.913a9.208,9.208,0,0,0-6.946.518c-3.337,1.7-5.082,3.537-7.3,7.222-2.106,3.408-1.86,5.9-.87,7.348a3.841,3.841,0,0,0,2.481,1.442c3.713,0,6.309-2.368,6.567-2.1,0,1.177-4.094,8-7.81,7.483-.244-.268,0-2.1-.742-3.159-.861-1.307-2.851-.784-2.851-.784a2.739,2.739,0,0,0-1.977,3.546c.979,2.89,6.195,1.843,7.063,1.843a14,14,0,0,0,7.309-3.681c2.094-2.23,4.824-6.7,7.309-11.287,2.35-4.462,4.957-8.526,4.334-8.526m-6.684,3.533a86.022,86.022,0,0,1-4.47,8.145c-1.862,2.887-6.561,4.064-5.441-1.056a16.107,16.107,0,0,1,3.579-6.818c1.741-1.841,3.227-2.627,4.837-2.627a1.664,1.664,0,0,1,1.5,2.355" transform="translate(-652.85 -106.769)" fill="#0c3212"/>
              <path id="Trazado_956" data-name="Trazado 956" d="M880.856,117.9a13.812,13.812,0,0,0-8.177,2.622c-2.839,2.091-5.944,6.429-5.944,10.234,0,3.541,4.707,5.91,10.78,3.411,7.811-3.411,9.29-9.845,9.29-9.845.369-1.972,1.483-6.164-5.948-6.422m1.366,3.805a18.029,18.029,0,0,1-3.838,8.4c-4.59,5.9-6.569,2.752-6.569,2.752-1.121-1.448,2.358-7.743,2.358-7.743,1.481-2.622,3.591-5.641,5.572-5.9,2.972-.658,2.6,1.705,2.478,2.5" transform="translate(-725.108 -106.167)" fill="#0c3212"/>
            </g>
          </g>
          <g id="Grupo_151" data-name="Grupo 151" transform="translate(0 68.872)">
            <path id="Trazado_957" data-name="Trazado 957" d="M297.153,311.43l1.677-.147a1.789,1.789,0,0,0,.615,1.119,1.992,1.992,0,0,0,1.25.358,2.069,2.069,0,0,0,1.254-.319.919.919,0,0,0,.423-.744.661.661,0,0,0-.177-.465,1.451,1.451,0,0,0-.62-.333q-.3-.1-1.381-.337a4.935,4.935,0,0,1-1.945-.762,1.927,1.927,0,0,1-.786-1.549,1.845,1.845,0,0,1,.37-1.1,2.275,2.275,0,0,1,1.066-.78,4.676,4.676,0,0,1,1.68-.268,3.88,3.88,0,0,1,2.421.636,2.159,2.159,0,0,1,.853,1.7l-1.725.069a1.284,1.284,0,0,0-.474-.854,1.881,1.881,0,0,0-1.092-.26,2.134,2.134,0,0,0-1.176.278.547.547,0,0,0-.274.478.575.575,0,0,0,.256.468,4.83,4.83,0,0,0,1.585.514,9,9,0,0,1,1.861.555,2.321,2.321,0,0,1,.943.783,2.221,2.221,0,0,1-.067,2.467,2.4,2.4,0,0,1-1.153.859,5.3,5.3,0,0,1-1.858.281,3.972,3.972,0,0,1-2.486-.675A2.831,2.831,0,0,1,297.153,311.43Z" transform="translate(-297.153 -306.101)" fill="#0c3212"/>
            <path id="Trazado_958" data-name="Trazado 958" d="M328.855,317.37a2.791,2.791,0,0,1,.4-1.424,2.629,2.629,0,0,1,1.139-1.051,3.673,3.673,0,0,1,1.646-.363,3.273,3.273,0,0,1,2.3.822,2.7,2.7,0,0,1,.9,2.078,2.73,2.73,0,0,1-.906,2.1,3.238,3.238,0,0,1-2.279.833,3.926,3.926,0,0,1-1.623-.346A2.539,2.539,0,0,1,329.257,319,3.118,3.118,0,0,1,328.855,317.37Zm1.677.079a1.73,1.73,0,0,0,.437,1.271,1.532,1.532,0,0,0,2.152,0,1.753,1.753,0,0,0,.434-1.282,1.723,1.723,0,0,0-.434-1.261,1.532,1.532,0,0,0-2.152,0A1.732,1.732,0,0,0,330.532,317.449Z" transform="translate(-320.853 -312.404)" fill="#0c3212"/>
            <path id="Trazado_959" data-name="Trazado 959" d="M363.543,316.308l-1.613.263a1.023,1.023,0,0,0-.37-.656,1.2,1.2,0,0,0-.749-.221,1.286,1.286,0,0,0-.975.381,1.814,1.814,0,0,0-.364,1.274,2.088,2.088,0,0,0,.37,1.4,1.269,1.269,0,0,0,.993.41,1.182,1.182,0,0,0,.763-.239,1.382,1.382,0,0,0,.419-.822l1.608.247a2.531,2.531,0,0,1-.961,1.508,3.2,3.2,0,0,1-1.9.51,2.993,2.993,0,0,1-2.163-.772,3.251,3.251,0,0,1,0-4.29,3.047,3.047,0,0,1,2.19-.77,3.231,3.231,0,0,1,1.8.439A2.425,2.425,0,0,1,363.543,316.308Z" transform="translate(-342.483 -312.404)" fill="#0c3212"/>
            <path id="Trazado_960" data-name="Trazado 960" d="M385.5,307.989v-1.365h1.637v1.365Zm0,6.338v-5.581h1.637v5.581Z" transform="translate(-363.199 -306.492)" fill="#0c3212"/>
            <path id="Trazado_961" data-name="Trazado 961" d="M400.795,318.463l1.631.247a2.445,2.445,0,0,1-.993,1.232,3.157,3.157,0,0,1-1.7.423,2.9,2.9,0,0,1-2.387-.951,2.969,2.969,0,0,1-.612-1.923,2.9,2.9,0,0,1,.8-2.173,2.791,2.791,0,0,1,2.033-.786,2.9,2.9,0,0,1,2.178.822,3.394,3.394,0,0,1,.763,2.52h-4.1a1.405,1.405,0,0,0,.4,1.022,1.305,1.305,0,0,0,.944.366,1.077,1.077,0,0,0,.646-.19A1.152,1.152,0,0,0,400.795,318.463Zm.093-1.492a1.336,1.336,0,0,0-.367-.975,1.269,1.269,0,0,0-1.736.018,1.279,1.279,0,0,0-.343.956Z" transform="translate(-371.598 -312.404)" fill="#0c3212"/>
            <path id="Trazado_962" data-name="Trazado 962" d="M429.493,314.327h-1.519v-.819a2.418,2.418,0,0,1-.893.712,2.505,2.505,0,0,1-1.041.233,2.46,2.46,0,0,1-1.825-.775,2.949,2.949,0,0,1-.761-2.162,2.917,2.917,0,0,1,.74-2.157,2.531,2.531,0,0,1,1.868-.739,2.42,2.42,0,0,1,1.794.777v-2.774h1.636Zm-4.367-2.911a2.348,2.348,0,0,0,.272,1.292,1.32,1.32,0,0,0,2.069.144,1.862,1.862,0,0,0,.4-1.3,2.034,2.034,0,0,0-.385-1.385,1.35,1.35,0,0,0-1.959-.005A1.761,1.761,0,0,0,425.126,311.417Z" transform="translate(-391.572 -306.492)" fill="#0c3212"/>
            <path id="Trazado_963" data-name="Trazado 963" d="M453.721,316.361l-1.485-.241a2.08,2.08,0,0,1,.862-1.2,3.424,3.424,0,0,1,1.817-.389,4.293,4.293,0,0,1,1.63.234,1.6,1.6,0,0,1,.755.594,2.786,2.786,0,0,1,.218,1.322L457.5,318.4a5.373,5.373,0,0,0,.079,1.086,2.941,2.941,0,0,0,.294.749h-1.619c-.043-.1-.1-.244-.158-.436-.026-.087-.046-.146-.058-.174a3.006,3.006,0,0,1-.9.552,2.83,2.83,0,0,1-1.02.183,2.253,2.253,0,0,1-1.5-.467,1.486,1.486,0,0,1-.551-1.183,1.464,1.464,0,0,1,.251-.843,1.584,1.584,0,0,1,.7-.567,5.9,5.9,0,0,1,1.3-.345,9.509,9.509,0,0,0,1.59-.363v-.146a.726.726,0,0,0-.232-.607,1.519,1.519,0,0,0-.88-.181,1.268,1.268,0,0,0-.681.155A1.088,1.088,0,0,0,453.721,316.361Zm2.19,1.2c-.209.063-.542.139-1,.226a3.266,3.266,0,0,0-.891.257.6.6,0,0,0-.321.52.691.691,0,0,0,.256.537.948.948,0,0,0,.652.226,1.523,1.523,0,0,0,.845-.262.938.938,0,0,0,.39-.489,2.7,2.7,0,0,0,.063-.72Z" transform="translate(-412.962 -312.404)" fill="#0c3212"/>
            <path id="Trazado_964" data-name="Trazado 964" d="M484.641,314.327H483.12v-.819a2.4,2.4,0,0,1-.893.712,2.5,2.5,0,0,1-1.039.233,2.465,2.465,0,0,1-1.826-.775,2.954,2.954,0,0,1-.76-2.162,2.92,2.92,0,0,1,.74-2.157,2.533,2.533,0,0,1,1.869-.739A2.424,2.424,0,0,1,483,309.4v-2.774h1.637Zm-4.369-2.911a2.347,2.347,0,0,0,.274,1.292,1.318,1.318,0,0,0,2.068.144,1.862,1.862,0,0,0,.4-1.3,2.031,2.031,0,0,0-.384-1.385,1.27,1.27,0,0,0-.984-.423,1.283,1.283,0,0,0-.975.418A1.761,1.761,0,0,0,480.273,311.417Z" transform="translate(-432.798 -306.492)" fill="#0c3212"/>
            <path id="Trazado_965" data-name="Trazado 965" d="M522.135,314.327v-7.7h5.855v1.3h-4.13v1.823h3.564v1.3H523.86v3.273Z" transform="translate(-465.343 -306.492)" fill="#0c3212"/>
            <path id="Trazado_966" data-name="Trazado 966" d="M550.911,307.989v-1.365h1.637v1.365Zm0,6.338v-5.581h1.637v5.581Z" transform="translate(-486.855 -306.492)" fill="#0c3212"/>
            <path id="Trazado_967" data-name="Trazado 967" d="M569.629,320.239h-1.637v-2.848a3.974,3.974,0,0,0-.1-1.169.823.823,0,0,0-.34-.412,1.052,1.052,0,0,0-.568-.148,1.427,1.427,0,0,0-.764.21,1.084,1.084,0,0,0-.463.557,4.357,4.357,0,0,0-.125,1.282v2.528h-1.637v-5.581h1.52v.82a2.57,2.57,0,0,1,2.038-.946,2.679,2.679,0,0,1,.992.176,1.665,1.665,0,0,1,.678.449,1.558,1.558,0,0,1,.32.62,4.144,4.144,0,0,1,.09.994Z" transform="translate(-496.634 -312.404)" fill="#0c3212"/>
            <path id="Trazado_968" data-name="Trazado 968" d="M592.849,316.361l-1.485-.241a2.08,2.08,0,0,1,.862-1.2,3.42,3.42,0,0,1,1.817-.389,4.3,4.3,0,0,1,1.63.234,1.592,1.592,0,0,1,.754.594,2.783,2.783,0,0,1,.219,1.322l-.018,1.723a5.323,5.323,0,0,0,.08,1.086,2.907,2.907,0,0,0,.293.749h-1.618c-.043-.1-.1-.244-.158-.436a1.779,1.779,0,0,0-.059-.174,2.988,2.988,0,0,1-.9.552,2.837,2.837,0,0,1-1.02.183,2.254,2.254,0,0,1-1.506-.467,1.49,1.49,0,0,1-.551-1.183,1.461,1.461,0,0,1,.252-.843,1.579,1.579,0,0,1,.7-.567,5.915,5.915,0,0,1,1.3-.345,9.537,9.537,0,0,0,1.59-.363v-.146a.723.723,0,0,0-.234-.607,1.516,1.516,0,0,0-.879-.181,1.277,1.277,0,0,0-.682.155A1.087,1.087,0,0,0,592.849,316.361Zm2.19,1.2c-.209.063-.543.139-1,.226a3.272,3.272,0,0,0-.891.257.6.6,0,0,0-.321.52.7.7,0,0,0,.256.537.952.952,0,0,0,.653.226,1.52,1.52,0,0,0,.844-.262.935.935,0,0,0,.391-.489,2.713,2.713,0,0,0,.064-.72Z" transform="translate(-516.97 -312.404)" fill="#0c3212"/>
            <path id="Trazado_969" data-name="Trazado 969" d="M624.777,320.239h-1.636v-2.848a4.013,4.013,0,0,0-.1-1.169.829.829,0,0,0-.343-.412,1.044,1.044,0,0,0-.567-.148,1.422,1.422,0,0,0-.761.21,1.071,1.071,0,0,0-.463.557,4.333,4.333,0,0,0-.127,1.282v2.528H619.14v-5.581h1.52v.82a2.568,2.568,0,0,1,2.038-.946,2.676,2.676,0,0,1,.99.176,1.667,1.667,0,0,1,.678.449,1.575,1.575,0,0,1,.321.62,4.226,4.226,0,0,1,.09.994Z" transform="translate(-537.861 -312.404)" fill="#0c3212"/>
            <path id="Trazado_970" data-name="Trazado 970" d="M652.373,316.308l-1.612.263a1.026,1.026,0,0,0-.371-.656,1.2,1.2,0,0,0-.747-.221,1.293,1.293,0,0,0-.977.381,1.822,1.822,0,0,0-.362,1.274,2.1,2.1,0,0,0,.368,1.4,1.273,1.273,0,0,0,.994.41,1.172,1.172,0,0,0,.762-.239,1.381,1.381,0,0,0,.42-.822l1.608.247a2.538,2.538,0,0,1-.961,1.508,3.207,3.207,0,0,1-1.9.51,2.991,2.991,0,0,1-2.163-.772,3.253,3.253,0,0,1,0-4.29,3.052,3.052,0,0,1,2.19-.77,3.227,3.227,0,0,1,1.8.439A2.429,2.429,0,0,1,652.373,316.308Z" transform="translate(-558.404 -312.404)" fill="#0c3212"/>
            <path id="Trazado_971" data-name="Trazado 971" d="M674.33,307.989v-1.365h1.636v1.365Zm0,6.338v-5.581h1.636v5.581Z" transform="translate(-579.12 -306.492)" fill="#0c3212"/>
            <path id="Trazado_972" data-name="Trazado 972" d="M689.626,318.463l1.631.247a2.443,2.443,0,0,1-.992,1.232,3.156,3.156,0,0,1-1.7.423,2.9,2.9,0,0,1-2.388-.951,2.971,2.971,0,0,1-.611-1.923,2.9,2.9,0,0,1,.8-2.173,2.79,2.79,0,0,1,2.032-.786,2.9,2.9,0,0,1,2.18.822,3.4,3.4,0,0,1,.762,2.52h-4.1a1.413,1.413,0,0,0,.4,1.022,1.3,1.3,0,0,0,.942.366,1.075,1.075,0,0,0,.647-.19A1.149,1.149,0,0,0,689.626,318.463Zm.094-1.492a1.348,1.348,0,0,0-.367-.975,1.271,1.271,0,0,0-1.737.018,1.281,1.281,0,0,0-.342.956Z" transform="translate(-587.521 -312.404)" fill="#0c3212"/>
            <path id="Trazado_973" data-name="Trazado 973" d="M715.1,320.239h-1.637v-5.581h1.52v.793a2.457,2.457,0,0,1,.7-.74,1.383,1.383,0,0,1,.706-.179,2.248,2.248,0,0,1,1.078.279l-.506,1.287a1.548,1.548,0,0,0-.768-.242.976.976,0,0,0-.584.171,1.143,1.143,0,0,0-.375.617,7.865,7.865,0,0,0-.137,1.87Z" transform="translate(-608.372 -312.404)" fill="#0c3212"/>
            <path id="Trazado_974" data-name="Trazado 974" d="M732.071,316.361l-1.485-.241a2.087,2.087,0,0,1,.862-1.2,3.427,3.427,0,0,1,1.817-.389,4.288,4.288,0,0,1,1.63.234,1.6,1.6,0,0,1,.756.594,2.79,2.79,0,0,1,.217,1.322l-.016,1.723a5.369,5.369,0,0,0,.078,1.086,2.927,2.927,0,0,0,.295.749h-1.62c-.043-.1-.094-.244-.158-.436-.026-.087-.045-.146-.057-.174a3.015,3.015,0,0,1-.9.552,2.821,2.821,0,0,1-1.02.183,2.251,2.251,0,0,1-1.5-.467,1.543,1.543,0,0,1-.3-2.026,1.6,1.6,0,0,1,.7-.567,5.875,5.875,0,0,1,1.3-.345,9.487,9.487,0,0,0,1.59-.363v-.146a.729.729,0,0,0-.232-.607,1.519,1.519,0,0,0-.881-.181,1.261,1.261,0,0,0-.68.155A1.091,1.091,0,0,0,732.071,316.361Zm2.19,1.2c-.209.063-.541.139-1,.226a3.266,3.266,0,0,0-.891.257.606.606,0,0,0-.32.52.688.688,0,0,0,.256.537.943.943,0,0,0,.651.226,1.527,1.527,0,0,0,.846-.262.937.937,0,0,0,.389-.489,2.644,2.644,0,0,0,.063-.72Z" transform="translate(-621.05 -312.404)" fill="#0c3212"/>
            <path id="Trazado_975" data-name="Trazado 975" d="M771.579,314.327v-7.7h2.767a11.144,11.144,0,0,1,2.051.115,2.26,2.26,0,0,1,1.229.755,2.232,2.232,0,0,1,.494,1.5,2.312,2.312,0,0,1-.285,1.193,2.187,2.187,0,0,1-.725.759,2.616,2.616,0,0,1-.893.366,10.814,10.814,0,0,1-1.788.111H773.3v2.906Zm1.725-6.4v2.186h.944a4.9,4.9,0,0,0,1.362-.121,1.121,1.121,0,0,0,.538-.378.971.971,0,0,0,.2-.6.937.937,0,0,0-.273-.693,1.242,1.242,0,0,0-.694-.342,9.171,9.171,0,0,0-1.239-.052Z" transform="translate(-651.82 -306.492)" fill="#0c3212"/>
            <path id="Trazado_976" data-name="Trazado 976" d="M801.546,317.37a2.788,2.788,0,0,1,.4-1.424,2.623,2.623,0,0,1,1.137-1.051,3.681,3.681,0,0,1,1.647-.363,3.277,3.277,0,0,1,2.3.822,2.7,2.7,0,0,1,.9,2.078,2.734,2.734,0,0,1-.906,2.1,3.241,3.241,0,0,1-2.282.833,3.92,3.92,0,0,1-1.62-.346A2.524,2.524,0,0,1,801.949,319,3.114,3.114,0,0,1,801.546,317.37Zm1.678.079a1.724,1.724,0,0,0,.438,1.271,1.531,1.531,0,0,0,2.151,0,1.757,1.757,0,0,0,.434-1.282,1.727,1.727,0,0,0-.434-1.261,1.531,1.531,0,0,0-2.151,0A1.726,1.726,0,0,0,803.224,317.449Z" transform="translate(-674.223 -312.404)" fill="#0c3212"/>
            <path id="Trazado_977" data-name="Trazado 977" d="M831.726,314.658h1.526v.82a2.207,2.207,0,0,1,.8-.683,2.407,2.407,0,0,1,1.125-.263,2.467,2.467,0,0,1,1.827.762,2.89,2.89,0,0,1,.752,2.123,2.978,2.978,0,0,1-.756,2.172,2.469,2.469,0,0,1-1.835.775,2.3,2.3,0,0,1-.93-.183,3.128,3.128,0,0,1-.876-.631v2.811h-1.637Zm1.62,2.7a1.992,1.992,0,0,0,.414,1.39,1.313,1.313,0,0,0,1.008.45,1.235,1.235,0,0,0,.949-.412,1.978,1.978,0,0,0,.379-1.354,1.877,1.877,0,0,0-.391-1.3,1.258,1.258,0,0,0-.967-.426,1.316,1.316,0,0,0-1,.418A1.736,1.736,0,0,0,833.346,317.354Z" transform="translate(-696.785 -312.404)" fill="#0c3212"/>
            <path id="Trazado_978" data-name="Trazado 978" d="M864.746,320.613v-.835a2.351,2.351,0,0,1-.889.7,2.725,2.725,0,0,1-1.161.257,2.465,2.465,0,0,1-1.119-.247,1.533,1.533,0,0,1-.717-.693,2.831,2.831,0,0,1-.221-1.235v-3.531h1.637V317.6a6.509,6.509,0,0,0,.09,1.443.8.8,0,0,0,.33.421,1.09,1.09,0,0,0,.606.154,1.383,1.383,0,0,0,.75-.207,1.088,1.088,0,0,0,.455-.515,5.381,5.381,0,0,0,.123-1.505v-2.355h1.637v5.581Z" transform="translate(-718.399 -312.778)" fill="#0c3212"/>
            <path id="Trazado_979" data-name="Trazado 979" d="M889.642,314.327v-7.7h1.637v7.7Z" transform="translate(-740.081 -306.492)" fill="#0c3212"/>
            <path id="Trazado_980" data-name="Trazado 980" d="M902.72,316.361l-1.486-.241a2.091,2.091,0,0,1,.862-1.2,3.427,3.427,0,0,1,1.817-.389,4.287,4.287,0,0,1,1.631.234,1.6,1.6,0,0,1,.756.594,2.792,2.792,0,0,1,.217,1.322L906.5,318.4a5.41,5.41,0,0,0,.078,1.086,2.948,2.948,0,0,0,.3.749h-1.621c-.043-.1-.094-.244-.157-.436-.027-.087-.045-.146-.058-.174a3.026,3.026,0,0,1-.9.552,2.821,2.821,0,0,1-1.02.183,2.251,2.251,0,0,1-1.5-.467,1.545,1.545,0,0,1-.3-2.026,1.6,1.6,0,0,1,.7-.567,5.874,5.874,0,0,1,1.3-.345,9.477,9.477,0,0,0,1.589-.363v-.146a.729.729,0,0,0-.231-.607,1.52,1.52,0,0,0-.881-.181,1.263,1.263,0,0,0-.68.155A1.087,1.087,0,0,0,902.72,316.361Zm2.189,1.2c-.209.063-.54.139-1,.226a3.263,3.263,0,0,0-.891.257.606.606,0,0,0-.32.52.688.688,0,0,0,.256.537.945.945,0,0,0,.652.226,1.526,1.526,0,0,0,.846-.262.938.938,0,0,0,.389-.489,2.657,2.657,0,0,0,.063-.72Z" transform="translate(-748.622 -312.404)" fill="#0c3212"/>
            <path id="Trazado_981" data-name="Trazado 981" d="M930.416,320.239h-1.637v-5.581h1.52v.793a2.485,2.485,0,0,1,.7-.74,1.4,1.4,0,0,1,.709-.179,2.25,2.25,0,0,1,1.078.279l-.508,1.287a1.537,1.537,0,0,0-.768-.242.967.967,0,0,0-.582.171,1.152,1.152,0,0,0-.377.617,8.036,8.036,0,0,0-.135,1.87Z" transform="translate(-769.339 -312.404)" fill="#0c3212"/>
          </g>
        </g>
        <g id="Grupo_153" data-name="Grupo 153" transform="translate(162.636 12.13)">
          <path id="Trazado_982" data-name="Trazado 982" d="M941.438,84.53V81.315h.64l.762,2.276c.07.212.12.371.154.477.035-.117.093-.289.171-.516l.769-2.237h.573V84.53H944.1V81.839l-.934,2.691h-.384l-.93-2.737V84.53Z" transform="translate(-941.438 -81.315)"/>
          <path id="Trazado_983" data-name="Trazado 983" d="M956.337,84.53V81.315h1.424a1.9,1.9,0,0,1,.655.087.711.711,0,0,1,.356.306.918.918,0,0,1,.134.485.813.813,0,0,1-.22.577,1.126,1.126,0,0,1-.684.3,1.164,1.164,0,0,1,.257.16,2.269,2.269,0,0,1,.352.428l.559.875h-.535l-.425-.669q-.187-.29-.307-.443a.981.981,0,0,0-.216-.215.645.645,0,0,0-.194-.086,1.322,1.322,0,0,0-.237-.015h-.494V84.53Zm.425-1.8h.915a1.369,1.369,0,0,0,.456-.06.49.49,0,0,0,.25-.193.531.531,0,0,0,.085-.288.481.481,0,0,0-.165-.375.776.776,0,0,0-.523-.147h-1.018Z" transform="translate(-952.576 -81.315)"/>
        </g>
      </g>
    </g>
    <g id="Grupo_157" data-name="Grupo 157" transform="translate(16.795 34.349)">
      <g id="Grupo_156" data-name="Grupo 156" transform="translate(0 0)">
        <path id="Trazado_984" data-name="Trazado 984" d="M106.624,106.479,80.629,127.5l-21.967-27.16L84.655,79.315Z" transform="translate(-48.094 -68.776)" fill="#ef172f"/>
        <path id="Trazado_985" data-name="Trazado 985" d="M68.023,75.784,38.918,99.329,16.8,71.968,45.9,48.432Z" transform="translate(-16.795 -45.689)" fill="#008d3c" opacity="0.8"/>
        <path id="Trazado_986" data-name="Trazado 986" d="M179.8,135.114l-9.032,7.3-14.159-17.5,9.034-7.305Z" transform="translate(-121.314 -97.401)" fill="#ffcb00"/>
        <path id="Trazado_987" data-name="Trazado 987" d="M90.384,76.647,61.866,99.712l-4.407-5.445L85.98,71.2Z" transform="translate(-47.194 -62.71)" fill="#7f19a8"/>
        <rect id="Rectángulo_89" data-name="Rectángulo 89" width="58.69" height="5.681" transform="translate(14.59 36.906) rotate(-38.963)" fill="#5fa0c8" opacity="0.8"/>
        <path id="Trazado_988" data-name="Trazado 988" d="M178.21,93.1,146.238,53.073l5.181-4.14,31.968,40.025Z" transform="translate(-113.563 -46.063)" fill="#d10071"/>
      </g>
    </g>
  </g>
</svg>
