<svg xmlns="http://www.w3.org/2000/svg" width="176.196" height="48.001" viewBox="0 0 176.196 48.001">
  <defs>
    <style>
      .cls-1 {
        fill: #fff;
      }
    </style>
  </defs>
  <g id="Grupo_3383" data-name="Grupo 3383" transform="translate(16094 4192)">
    <g id="Grupo_503" data-name="Grupo 503" transform="translate(-16094 -4192)">
      <rect id="Rectángulo_707" data-name="Rectángulo 707" class="cls-1" width="9.051" height="9.024" transform="matrix(0.707, 0.707, -0.707, 0.707, 24, 10.4)"/>
      <rect id="Rectángulo_712" data-name="Rectángulo 712" class="cls-1" width="9.051" height="9.024" transform="matrix(0.707, 0.707, -0.707, 0.707, 16.8, 17.6)"/>
      <rect id="Rectángulo_710" data-name="Rectángulo 710" class="cls-1" width="9.051" height="9.024" transform="matrix(0.707, 0.707, -0.707, 0.707, 31.181, 17.619)"/>
      <rect id="Rectángulo_711" data-name="Rectángulo 711" class="cls-1" width="9.051" height="9.024" transform="matrix(0.707, 0.707, -0.707, 0.707, 24, 24.8)"/>
      <rect id="Rectángulo_705" data-name="Rectángulo 705" class="cls-1" width="9.051" height="13.577" transform="matrix(0.707, 0.707, -0.707, 0.707, 34.402, 0)"/>
      <rect id="Rectángulo_715" data-name="Rectángulo 715" class="cls-1" width="9.051" height="13.577" transform="matrix(0.707, 0.707, -0.707, 0.707, 16.8, 32.001)"/>
      <rect id="Rectángulo_713" data-name="Rectángulo 713" class="cls-1" width="9.051" height="13.577" transform="translate(48 34.4) rotate(135)"/>
      <rect id="Rectángulo_717" data-name="Rectángulo 717" class="cls-1" width="9.051" height="13.577" transform="translate(16.001 16.8) rotate(135)"/>
      <rect id="Rectángulo_708" data-name="Rectángulo 708" class="cls-1" width="9.051" height="13.577" transform="matrix(0.707, 0.707, -0.707, 0.707, 41.601, 7.2)"/>
      <rect id="Rectángulo_716" data-name="Rectángulo 716" class="cls-1" width="9.051" height="13.577" transform="matrix(0.707, 0.707, -0.707, 0.707, 9.6, 24.8)"/>
      <rect id="Rectángulo_714" data-name="Rectángulo 714" class="cls-1" width="9.051" height="13.577" transform="translate(40.8 41.6) rotate(135)"/>
      <rect id="Rectángulo_718" data-name="Rectángulo 718" class="cls-1" width="9.051" height="13.577" transform="translate(23.201 9.6) rotate(135)"/>
      <path id="Trazado_1295" data-name="Trazado 1295" class="cls-1" d="M0,.005,0,0,0,0,0,0Z" transform="translate(18.471 38.961) rotate(90)"/>
    </g>
    <path id="Trazado_4926" data-name="Trazado 4926" class="cls-1" d="M7.232-11.064h3.576L17.5,5.712h-3.72l-1.44-3.648H5.7L4.256,5.712H.512ZM11.384-.84,9.008-7.224,6.632-.84ZM18.92-11.064h3.6L27.68.168l5.184-11.232h3.576V5.712H32.96V-3.816L28.52,5.712H26.84L22.424-3.816V5.712h-3.5ZM44,6.072a16.254,16.254,0,0,1-3.048-.288,9.616,9.616,0,0,1-2.472-.768V1.8a12.069,12.069,0,0,0,2.64.936,11.767,11.767,0,0,0,2.616.312,3.82,3.82,0,0,0,2.112-.48,1.526,1.526,0,0,0,.72-1.344,1.6,1.6,0,0,0-.36-1.056,3.263,3.263,0,0,0-1.044-.78q-.684-.348-2.1-.924a9.159,9.159,0,0,1-3.408-2.148A4.265,4.265,0,0,1,38.6-6.624a4.251,4.251,0,0,1,.768-2.508,4.966,4.966,0,0,1,2.16-1.692,8.064,8.064,0,0,1,3.216-.6,13.029,13.029,0,0,1,2.64.24,10.65,10.65,0,0,1,2.256.744v3.12a9.373,9.373,0,0,0-4.224-1.056,4.052,4.052,0,0,0-2.112.468,1.477,1.477,0,0,0-.768,1.332,1.5,1.5,0,0,0,.36,1.032,3.14,3.14,0,0,0,1.008.72q.648.312,2.112.912a15.409,15.409,0,0,1,2.664,1.38A4.213,4.213,0,0,1,50.1-.972a4.878,4.878,0,0,1,.456,2.22A4.236,4.236,0,0,1,48.909,4.8,7.94,7.94,0,0,1,44,6.072Zm17.088,0a9.494,9.494,0,0,1-4.572-1.1,8.2,8.2,0,0,1-3.228-3.084,8.735,8.735,0,0,1-1.176-4.548,8.8,8.8,0,0,1,1.176-4.56,8.176,8.176,0,0,1,3.228-3.1,9.494,9.494,0,0,1,4.572-1.1,9.355,9.355,0,0,1,4.548,1.1,8.219,8.219,0,0,1,3.2,3.1,8.8,8.8,0,0,1,1.176,4.56,8.735,8.735,0,0,1-1.176,4.548,8.245,8.245,0,0,1-3.2,3.084A9.355,9.355,0,0,1,61.089,6.072Zm0-3.36a5.32,5.32,0,0,0,2.628-.66A4.869,4.869,0,0,0,65.6.18a5.612,5.612,0,0,0,.7-2.844,5.641,5.641,0,0,0-.684-2.82,4.786,4.786,0,0,0-1.872-1.872,5.368,5.368,0,0,0-2.652-.66,5.416,5.416,0,0,0-2.676.66,4.869,4.869,0,0,0-1.884,1.872,5.563,5.563,0,0,0-.7,2.82,5.612,5.612,0,0,0,.7,2.844,4.846,4.846,0,0,0,1.9,1.872A5.435,5.435,0,0,0,61.089,2.712ZM72.033-11.064h11.64v3.072H75.681V-4.08h5.88v2.808h-5.88V5.712H72.033Zm13.176,0h3.648V5.712H85.209Zm6.168,0h7.056a6.653,6.653,0,0,1,4.56,1.5A5.258,5.258,0,0,1,104.7-5.4a5.253,5.253,0,0,1-1.692,4.2A6.749,6.749,0,0,1,98.433.264H95.025V5.712H91.377Zm6.528,8.28q3.1,0,3.1-2.616a2.312,2.312,0,0,0-.828-2.04,3.916,3.916,0,0,0-2.268-.576h-2.88v5.232Zm16.608,8.856a9.494,9.494,0,0,1-4.572-1.1,8.2,8.2,0,0,1-3.228-3.084,8.735,8.735,0,0,1-1.176-4.548,8.8,8.8,0,0,1,1.176-4.56,8.176,8.176,0,0,1,3.228-3.1,9.494,9.494,0,0,1,4.572-1.1,9.355,9.355,0,0,1,4.548,1.1,8.219,8.219,0,0,1,3.2,3.1,8.8,8.8,0,0,1,1.176,4.56,8.735,8.735,0,0,1-1.176,4.548,8.245,8.245,0,0,1-3.2,3.084A9.355,9.355,0,0,1,114.514,6.072Zm0-3.36a5.32,5.32,0,0,0,2.628-.66A4.869,4.869,0,0,0,119.026.18a5.612,5.612,0,0,0,.7-2.844,5.641,5.641,0,0,0-.684-2.82,4.786,4.786,0,0,0-1.872-1.872,5.367,5.367,0,0,0-2.652-.66,5.416,5.416,0,0,0-2.676.66,4.869,4.869,0,0,0-1.884,1.872,5.563,5.563,0,0,0-.7,2.82,5.612,5.612,0,0,0,.7,2.844,4.846,4.846,0,0,0,1.9,1.872A5.435,5.435,0,0,0,114.514,2.712Z" transform="translate(-16041.245 -4165.576)"/>
  </g>
</svg>
