<svg xmlns="http://www.w3.org/2000/svg" width="240" height="69.292" viewBox="0 0 240 69.292">
  <g id="logo-te-creemos" transform="translate(-20.658 -33.215)">
    <path id="Trazado_1249" data-name="Trazado 1249" d="M258.27,73.059l-5.759-3.334a4.784,4.784,0,0,0-2.909-.615c.029-.345.039-.65.039-.9a10.608,10.608,0,0,0-.316-2.658,4.767,4.767,0,0,0,1.122-2.585,6.589,6.589,0,0,0,1.727-1.181c.047-.045.093-.09.137-.137a6.637,6.637,0,0,0,1.316-1.956,6.575,6.575,0,0,0-.01-5.262,6.647,6.647,0,0,0-1.311-1.934q-.074-.076-.15-.148a6.77,6.77,0,0,0-1.884-1.253c-.055-.025-.111-.049-.168-.072a6.658,6.658,0,0,0-4.945.006l-.142.06a6.609,6.609,0,0,0-1.948,1.309,6.523,6.523,0,0,0-.488.535,16.476,16.476,0,0,0-3.29-.314,13.755,13.755,0,0,0-9.083,2.928,12.488,12.488,0,0,0-8.378-2.928,14.026,14.026,0,0,0-8.619,2.8,10.129,10.129,0,0,0-7.44-2.8,10.651,10.651,0,0,0-4.62,1,9.936,9.936,0,0,0-4.473-1,11.275,11.275,0,0,0-3.591.6,4.786,4.786,0,0,0-1.164-.144h-4.912a4.784,4.784,0,0,0-3.936,2.068,12.3,12.3,0,0,0-7.754-2.523,13.874,13.874,0,0,0-9.453,3.5,11.933,11.933,0,0,0-8.819-3.5,14.66,14.66,0,0,0-5.65,1.093,4.761,4.761,0,0,0-.582-.338,8.319,8.319,0,0,0-3.788-.754,10.049,10.049,0,0,0-3.335.566,4.8,4.8,0,0,0-1.027-.111h-4.936c-.122,0-.242.007-.362.016a11.174,11.174,0,0,0-1.87-2.536C133.068,48.1,129.5,46.8,125.2,46.8c-9.408,0-16.237,7.319-16.237,17.4a16.55,16.55,0,0,0,1.465,7.136H104.9c.161-.37.312-.749.443-1.145a4.807,4.807,0,0,0,.217-1.018,4.779,4.779,0,0,0,.542-1.615,22.946,22.946,0,0,0,.232-3.358c0-6.706-4.726-11.419-11.536-11.572a4.777,4.777,0,0,0-4.743-5.384H71.926a4.782,4.782,0,0,0-3.691,1.744,23.4,23.4,0,0,0-4.393-3.955,4.784,4.784,0,0,0-2.375-.84,4.785,4.785,0,0,0-2-1.554q-1.044-.431-2.113-.757a7.069,7.069,0,0,0-11.268-7.146A29.879,29.879,0,1,0,73.636,83.2H109.3l-1.729,10.706a4.787,4.787,0,0,0,4.726,5.55h2.53a4.768,4.768,0,0,0,2.659-.811,4.78,4.78,0,0,0,2.653.811h2.425a4.789,4.789,0,0,0,.872-.08,4.767,4.767,0,0,0,.835.08h2.43a4.787,4.787,0,0,0,1.161-.142,4.78,4.78,0,0,0,1.159.142h2.43a4.776,4.776,0,0,0,1.249-.167,7.217,7.217,0,0,0,2.308.363,9.581,9.581,0,0,0,2.179-.233,4.809,4.809,0,0,0,.593.037H140.1a4.761,4.761,0,0,0,.71-.06,4.757,4.757,0,0,0,.709.06h2.433a4.792,4.792,0,0,0,1.162-.142,4.786,4.786,0,0,0,1.159.142H148.7a4.775,4.775,0,0,0,1.687-.307c.022.008.042.017.063.024a9.378,9.378,0,0,0,3.106.478,10.009,10.009,0,0,0,3.281-.519,4.778,4.778,0,0,0,1.711.323h2.425a4.766,4.766,0,0,0,1.757-.337,9.261,9.261,0,0,0,3.226.533,9.667,9.667,0,0,0,3.182-.509,4.775,4.775,0,0,0,1.686.313h2.431a4.766,4.766,0,0,0,2.187-.533,6.883,6.883,0,0,0,3.177.729,9.634,9.634,0,0,0,2.183-.232,4.874,4.874,0,0,0,.592.036h2.321a4.779,4.779,0,0,0,2.854-.953,4.785,4.785,0,0,0,2.863.953h2.53a4.781,4.781,0,0,0,3.813-1.9A6.815,6.815,0,0,0,197.907,99a8.841,8.841,0,0,0,3.541.663h.115c.065,0,.129,0,.194,0a4.752,4.752,0,0,0,4.372,2.855h2.428a4.788,4.788,0,0,0,4.473-3.081,7.553,7.553,0,0,0,1.416-.507,7.383,7.383,0,0,0,3.346.738,8.5,8.5,0,0,0,1.957-.224,4.811,4.811,0,0,0,.516.028h2.323a4.576,4.576,0,0,1,1.707,0h2.424a4.772,4.772,0,0,0,1.3-.181,7.216,7.216,0,0,0,2.348.377,9.561,9.561,0,0,0,2.18-.233,4.793,4.793,0,0,0,.595.037h2.323a4.255,4.255,0,0,1,1.423,0h2.428a4.787,4.787,0,0,0,4.726-4.025l.579-3.59a4.787,4.787,0,0,0,3.153-3.758l.375-2.32a4.79,4.79,0,0,0,.059-.839,4.788,4.788,0,0,0,4.3-.248l5.759-3.337a4.787,4.787,0,0,0,0-8.285Z" fill="#fff"/>
    <g id="Grupo_214" data-name="Grupo 214" transform="translate(25.445 38.002)">
      <g id="Grupo_187" data-name="Grupo 187" transform="translate(45.525 13.584)">
        <g id="Grupo_178" data-name="Grupo 178" transform="translate(0 0.447)">
          <path id="Trazado_1250" data-name="Trazado 1250" d="M263.105,121.9h-6.286l-3.5,16.569H247.76l3.5-16.569h-6.283l.956-4.782h18.126Z" transform="translate(-244.979 -117.118)" fill="#0e1676"/>
        </g>
        <g id="Grupo_179" data-name="Grupo 179" transform="translate(14.242 5.824)">
          <path id="Trazado_1251" data-name="Trazado 1251" d="M313.443,150.547a7.427,7.427,0,0,0-.061,1.048,2.474,2.474,0,0,0,2.748,2.48c1.738,0,2.572-.654,2.962-1.7h4.965c-1.224,3.706-4.37,5.146-8.136,5.146-4.307,0-7.445-2.186-7.445-6.766,0-5.5,3.621-9.663,9.242-9.663,4.008,0,7.09,2.3,7.09,6.792a18.191,18.191,0,0,1-.181,2.664ZM319.9,147.7c.152-1.731-.657-3.164-2.359-3.164-2.095,0-3.2,1.226-3.739,3.164Z" transform="translate(-308.476 -141.091)" fill="#0e1676"/>
        </g>
        <g id="Grupo_180" data-name="Grupo 180" transform="translate(42.776)">
          <path id="Trazado_1252" data-name="Trazado 1252" d="M450.5,123.253c.237-1.972-.842-3.561-3.439-3.561-4.219,0-5.8,4.88-5.8,8.262,0,2.751.811,4.843,3.952,4.843a4.52,4.52,0,0,0,4.514-3.774h5.561c-1.2,5.478-4.636,8.354-10.856,8.354-3.375,0-8.73-1.711-8.73-9.637,0-6.882,4.218-12.616,11.45-12.616,5.355,0,8.978,2.511,8.915,8.129Z" transform="translate(-435.698 -115.124)" fill="#0e1676"/>
        </g>
        <g id="Grupo_181" data-name="Grupo 181" transform="translate(63.526 5.824)">
          <path id="Trazado_1253" data-name="Trazado 1253" d="M531.449,141.546h4.936l-.568,2.537h.06a5.614,5.614,0,0,1,4.871-2.992,3.686,3.686,0,0,1,1.7.276l-.988,4.482a8.359,8.359,0,0,0-2.3-.3c-2.777,0-3.858,1.766-4.368,4.4l-1.492,7.118h-5.088Z" transform="translate(-528.215 -141.091)" fill="#0e1676"/>
        </g>
        <g id="Grupo_182" data-name="Grupo 182" transform="translate(76.836 5.824)">
          <path id="Trazado_1254" data-name="Trazado 1254" d="M592.523,150.547a8.884,8.884,0,0,0-.061,1.048,2.475,2.475,0,0,0,2.75,2.48c1.741,0,2.575-.654,2.965-1.7h4.958c-1.222,3.706-4.366,5.146-8.132,5.146-4.307,0-7.448-2.186-7.448-6.766,0-5.5,3.62-9.663,9.244-9.663,4.008,0,7.085,2.3,7.085,6.792a19.5,19.5,0,0,1-.177,2.664Zm6.456-2.845c.15-1.731-.655-3.164-2.36-3.164-2.094,0-3.2,1.226-3.738,3.164Z" transform="translate(-587.556 -141.091)" fill="#0e1676"/>
        </g>
        <g id="Grupo_183" data-name="Grupo 183" transform="translate(95.111 5.824)">
          <path id="Trazado_1255" data-name="Trazado 1255" d="M674,150.547a8.087,8.087,0,0,0-.059,1.048,2.48,2.48,0,0,0,2.754,2.48c1.73,0,2.571-.654,2.961-1.7h4.958c-1.224,3.706-4.364,5.146-8.127,5.146-4.312,0-7.452-2.186-7.452-6.766,0-5.5,3.616-9.663,9.242-9.663,4.008,0,7.09,2.3,7.09,6.792a19.277,19.277,0,0,1-.185,2.664Zm6.456-2.845c.152-1.731-.653-3.164-2.357-3.164-2.1,0-3.208,1.226-3.744,3.164Z" transform="translate(-669.035 -141.091)" fill="#0e1676"/>
        </g>
        <g id="Grupo_184" data-name="Grupo 184" transform="translate(112.817 5.824)">
          <path id="Trazado_1256" data-name="Trazado 1256" d="M751.206,141.546h4.912l-.415,2h.053a6.645,6.645,0,0,1,5.116-2.456c1.857,0,3.586.664,3.95,2.666a6.2,6.2,0,0,1,5.142-2.666c2.866,0,5,1.224,5,4.131a14.066,14.066,0,0,1-.421,3.112l-1.978,8.731h-5.084l1.738-8.255a9.522,9.522,0,0,0,.332-2.182,1.524,1.524,0,0,0-1.71-1.638c-1.968,0-2.84,1.607-3.283,3.82l-1.741,8.255h-5.08l1.674-8.016a11.921,11.921,0,0,0,.355-2.421,1.521,1.521,0,0,0-1.608-1.638c-1.857,0-2.758,1.126-3.2,3.194l-1.884,8.881h-5.085Z" transform="translate(-747.982 -141.091)" fill="#0e1676"/>
        </g>
        <g id="Grupo_185" data-name="Grupo 185" transform="translate(141.617 5.824)">
          <path id="Trazado_1257" data-name="Trazado 1257" d="M885.63,141.091c4.246,0,7.325,2.4,7.325,6.852,0,5.535-3.5,9.577-9.124,9.577-4.3,0-7.445-2.186-7.445-6.766C876.386,145.251,880.006,141.091,885.63,141.091Zm-1.673,12.687c2.9,0,3.919-3.231,3.919-5.625,0-1.943-.662-3.322-2.574-3.322-2.755,0-3.825,3.65-3.825,5.746C881.476,152.344,882.16,153.778,883.956,153.778Z" transform="translate(-876.386 -141.091)" fill="#0e1676"/>
        </g>
        <g id="Grupo_186" data-name="Grupo 186" transform="translate(159.288 5.824)">
          <path id="Trazado_1258" data-name="Trazado 1258" d="M959.843,151.983a2.127,2.127,0,0,0,.578,1.615,2.855,2.855,0,0,0,2,.633c.863,0,2.269-.337,2.269-1.589,0-1.348-1.232-1.4-3.709-2.034-2.277-.51-4.279-1.316-4.279-4.25,0-4.157,4.183-5.267,7.5-5.267,3.237,0,6.618,1.051,6.4,5.026H966a1.8,1.8,0,0,0-.388-1.346,2.123,2.123,0,0,0-1.522-.534c-1.042,0-2.307.356-2.307,1.465s1.649,1.317,3.467,1.765c2.874.718,4.516,1.373,4.516,4.428,0,4.753-4.3,5.625-7.95,5.625-3.949,0-6.49-1.495-6.645-5.537Z" transform="translate(-955.175 -141.091)" fill="#0e1676"/>
        </g>
      </g>
      <g id="Grupo_206" data-name="Grupo 206" transform="translate(86.854 43.975)">
        <g id="Grupo_205" data-name="Grupo 205">
          <g id="Grupo_188" data-name="Grupo 188" transform="translate(0 0.143)">
            <path id="Trazado_1259" data-name="Trazado 1259" d="M438.29,251.26l-.336,2.072h-4.489l-.474,2.955h4.222l-.338,2.076h-4.219l-.882,5.45h-2.53l2.027-12.554Z" transform="translate(-429.243 -251.26)" fill="#0e1676"/>
          </g>
          <g id="Grupo_189" data-name="Grupo 189" transform="translate(7.842)">
            <path id="Trazado_1260" data-name="Trazado 1260" d="M468.165,253.859l-1.531,9.46h-2.425l1.529-9.46Zm.521-3.238-.337,2.077h-2.43l.34-2.077Z" transform="translate(-464.209 -250.621)" fill="#0e1676"/>
          </g>
          <g id="Grupo_190" data-name="Grupo 190" transform="translate(11.974 2.992)">
            <path id="Trazado_1261" data-name="Trazado 1261" d="M486.48,264.205l-.175,1.1h.035a3.138,3.138,0,0,1,1.167-1.024,3.31,3.31,0,0,1,1.458-.327,2.048,2.048,0,0,1,1.685.636,2.551,2.551,0,0,1,.292,2.053l-1.13,7.017h-2.43l1.059-6.52a1.5,1.5,0,0,0-.088-1.031.825.825,0,0,0-.745-.3c-.853,0-1.363.525-1.529,1.568l-1.017,6.279h-2.43l1.53-9.46Z" transform="translate(-482.631 -263.959)" fill="#0e1676"/>
          </g>
          <g id="Grupo_191" data-name="Grupo 191" transform="translate(20.801 2.992)">
            <path id="Trazado_1262" data-name="Trazado 1262" d="M523.032,266.877a3.492,3.492,0,0,1,.492-1.382,3.115,3.115,0,0,1,.851-.894,3.35,3.35,0,0,1,1.138-.493,5.881,5.881,0,0,1,1.314-.149,5.759,5.759,0,0,1,1.728.208,1.941,1.941,0,0,1,.936.6,1.71,1.71,0,0,1,.357.927,5.062,5.062,0,0,1-.062,1.171l-.8,4.974a6.666,6.666,0,0,0-.112,1.041,3.4,3.4,0,0,0,.114.789h-2.323a1.948,1.948,0,0,1-.11-.485c-.009-.167-.021-.335-.029-.5H526.5a2.575,2.575,0,0,1-1.132.961,4.155,4.155,0,0,1-1.467.221,2.112,2.112,0,0,1-1.039-.221,1.4,1.4,0,0,1-.606-.608,2.359,2.359,0,0,1-.247-.866,3.474,3.474,0,0,1,.037-.961,4.435,4.435,0,0,1,.323-1.155,2.85,2.85,0,0,1,.56-.826,2.917,2.917,0,0,1,.835-.566,6.526,6.526,0,0,1,1.145-.409l1.432-.368a1.759,1.759,0,0,0,.821-.391,1.248,1.248,0,0,0,.328-.723,1.176,1.176,0,0,0-.12-.85.933.933,0,0,0-.82-.3,1.219,1.219,0,0,0-.895.334,1.591,1.591,0,0,0-.434.9l-.042.26H523Zm3.521,2.367a3.981,3.981,0,0,1-.533.17,2.2,2.2,0,0,0-1.14.525,1.728,1.728,0,0,0-.476,1,1.758,1.758,0,0,0,.057.934.615.615,0,0,0,.641.39,1.764,1.764,0,0,0,.521-.084,1.671,1.671,0,0,0,.531-.256,1.846,1.846,0,0,0,.432-.454,1.7,1.7,0,0,0,.245-.671l.3-1.865A2.712,2.712,0,0,1,526.553,269.244Z" transform="translate(-521.987 -263.959)" fill="#0e1676"/>
          </g>
          <g id="Grupo_192" data-name="Grupo 192" transform="translate(29.225 2.992)">
            <path id="Trazado_1263" data-name="Trazado 1263" d="M563.4,264.205l-.175,1.1h.03a3.1,3.1,0,0,1,1.171-1.024,3.3,3.3,0,0,1,1.459-.327,2.052,2.052,0,0,1,1.686.636,2.524,2.524,0,0,1,.285,2.053l-1.125,7.017H564.3l1.056-6.52a1.54,1.54,0,0,0-.081-1.031.852.852,0,0,0-.748-.3c-.859,0-1.369.525-1.539,1.568l-1.009,6.279h-2.433l1.533-9.46Z" transform="translate(-559.546 -263.959)" fill="#0e1676"/>
          </g>
          <g id="Grupo_193" data-name="Grupo 193" transform="translate(38.262 2.992)">
            <path id="Trazado_1264" data-name="Trazado 1264" d="M605.2,266.933a2.421,2.421,0,0,0-.062-.609.9.9,0,0,0-.249-.44.778.778,0,0,0-.544-.163,1.427,1.427,0,0,0-.75.195,1.589,1.589,0,0,0-.522.6,4.775,4.775,0,0,0-.353,1c-.106.408-.193.884-.283,1.43-.1.593-.159,1.1-.191,1.5a4.336,4.336,0,0,0,.024,1.027.95.95,0,0,0,.305.591.967.967,0,0,0,.629.19,1.13,1.13,0,0,0,.98-.537,4.131,4.131,0,0,0,.558-1.68h2.318a4.913,4.913,0,0,1-1.3,2.836,3.975,3.975,0,0,1-2.922.977,4.726,4.726,0,0,1-1.557-.221,1.8,1.8,0,0,1-1-.791,3.261,3.261,0,0,1-.427-1.531,10.351,10.351,0,0,1,.15-2.384,9.682,9.682,0,0,1,.675-2.415,4.738,4.738,0,0,1,1.039-1.529,3.371,3.371,0,0,1,1.339-.806,5.63,5.63,0,0,1,1.589-.224,2.738,2.738,0,0,1,2.382.981,3.592,3.592,0,0,1,.419,2.679h-2.321A5.587,5.587,0,0,0,605.2,266.933Z" transform="translate(-599.836 -263.959)" fill="#0e1676"/>
          </g>
          <g id="Grupo_194" data-name="Grupo 194" transform="translate(46.254)">
            <path id="Trazado_1265" data-name="Trazado 1265" d="M639.425,253.859l-1.531,9.46h-2.425l1.526-9.46Zm.517-3.238-.331,2.077h-2.43l.34-2.077Z" transform="translate(-635.469 -250.621)" fill="#0e1676"/>
          </g>
          <g id="Grupo_195" data-name="Grupo 195" transform="translate(50.588 2.992)">
            <path id="Trazado_1266" data-name="Trazado 1266" d="M657.252,270.059a4.884,4.884,0,0,0-.073.825,2.464,2.464,0,0,0,.084.7,1.144,1.144,0,0,0,.289.491.783.783,0,0,0,.54.19,1.167,1.167,0,0,0,.962-.445,3.764,3.764,0,0,0,.607-1.335h2.177A4.545,4.545,0,0,1,660.556,273a3.906,3.906,0,0,1-2.691.858,3.652,3.652,0,0,1-1.987-.441,2.156,2.156,0,0,1-.9-1.156,4.207,4.207,0,0,1-.169-1.625c.039-.592.112-1.194.21-1.79a13.1,13.1,0,0,1,.43-1.83,4.9,4.9,0,0,1,.779-1.563,3.566,3.566,0,0,1,1.31-1.1,4.547,4.547,0,0,1,2.031-.4,3.5,3.5,0,0,1,1.682.341,2.107,2.107,0,0,1,.906.969,3.641,3.641,0,0,1,.285,1.514,13.4,13.4,0,0,1-.175,1.977l-.092.544h-4.8Zm2.919-3.153a2.42,2.42,0,0,0-.077-.706.783.783,0,0,0-.294-.443,1.061,1.061,0,0,0-.583-.147,1.153,1.153,0,0,0-.639.169,1.51,1.51,0,0,0-.447.437,2.678,2.678,0,0,0-.3.6,4.7,4.7,0,0,0-.169.667l-.061.372h2.48C660.129,267.5,660.158,267.181,660.17,266.906Z" transform="translate(-654.791 -263.959)" fill="#0e1676"/>
          </g>
          <g id="Grupo_196" data-name="Grupo 196" transform="translate(58.53 2.992)">
            <path id="Trazado_1267" data-name="Trazado 1267" d="M694.046,264.205l-.2,1.264h.038a4.231,4.231,0,0,1,1.075-1.1,2.286,2.286,0,0,1,1.351-.415c.07,0,.138.006.215.011a1.286,1.286,0,0,1,.217.025l-.373,2.32c-.131-.014-.256-.019-.372-.025s-.25-.006-.383-.006a2.948,2.948,0,0,0-.642.079,2.115,2.115,0,0,0-.632.3,1.784,1.784,0,0,0-.506.53,2.043,2.043,0,0,0-.287.794l-.912,5.682H690.2l1.529-9.46Z" transform="translate(-690.201 -263.959)" fill="#0e1676"/>
          </g>
          <g id="Grupo_197" data-name="Grupo 197" transform="translate(64.418 2.992)">
            <path id="Trazado_1268" data-name="Trazado 1268" d="M717.5,266.877a3.725,3.725,0,0,1,.483-1.382,3.114,3.114,0,0,1,.859-.894,3.3,3.3,0,0,1,1.138-.493,5.845,5.845,0,0,1,1.312-.149,5.756,5.756,0,0,1,1.73.208,2,2,0,0,1,.941.6,1.741,1.741,0,0,1,.349.927,4.6,4.6,0,0,1-.053,1.171l-.8,4.974a6,6,0,0,0-.1,1.041,3.159,3.159,0,0,0,.1.789h-2.321a1.823,1.823,0,0,1-.107-.485c-.011-.167-.022-.335-.025-.5h-.044a2.527,2.527,0,0,1-1.125.961,4.2,4.2,0,0,1-1.474.221,2.106,2.106,0,0,1-1.035-.221,1.387,1.387,0,0,1-.607-.608,2.3,2.3,0,0,1-.25-.866,3.819,3.819,0,0,1,.037-.961,4.66,4.66,0,0,1,.322-1.155,2.821,2.821,0,0,1,.57-.826,2.784,2.784,0,0,1,.827-.566,6.466,6.466,0,0,1,1.15-.409l1.428-.368a1.742,1.742,0,0,0,.822-.391,1.486,1.486,0,0,0,.209-1.574.942.942,0,0,0-.825-.3,1.223,1.223,0,0,0-.893.334,1.6,1.6,0,0,0-.427.9l-.043.26h-2.179Zm3.522,2.367a4.127,4.127,0,0,1-.535.17,2.216,2.216,0,0,0-1.146.525,1.741,1.741,0,0,0-.468,1,1.771,1.771,0,0,0,.055.934.615.615,0,0,0,.643.39,1.825,1.825,0,0,0,.52-.084,1.623,1.623,0,0,0,.525-.256,1.78,1.78,0,0,0,.433-.454,1.586,1.586,0,0,0,.249-.671l.306-1.865A2.694,2.694,0,0,1,721.023,269.244Z" transform="translate(-716.455 -263.959)" fill="#0e1676"/>
          </g>
          <g id="Grupo_198" data-name="Grupo 198" transform="translate(77.136 0.143)">
            <path id="Trazado_1269" data-name="Trazado 1269" d="M779.62,251.26a3.259,3.259,0,0,1,1.573.327,2.335,2.335,0,0,1,.925.852,2.8,2.8,0,0,1,.388,1.2,5.085,5.085,0,0,1-.051,1.383,4.805,4.805,0,0,1-.561,1.683,3.914,3.914,0,0,1-.994,1.185,4.239,4.239,0,0,1-1.371.68,5.92,5.92,0,0,1-1.679.234H776.5l-.814,5.007h-2.53l2.024-12.554Zm-1.693,5.68a1.923,1.923,0,0,0,1.3-.458,2.315,2.315,0,0,0,.7-1.423,2.042,2.042,0,0,0-.178-1.442,1.418,1.418,0,0,0-1.272-.5h-1.053l-.623,3.819Z" transform="translate(-773.159 -251.26)" fill="#0e1676"/>
          </g>
          <g id="Grupo_199" data-name="Grupo 199" transform="translate(86.15 2.99)">
            <path id="Trazado_1270" data-name="Trazado 1270" d="M814.066,266.787a4.749,4.749,0,0,1,.888-1.557,3.434,3.434,0,0,1,1.3-.948,4.64,4.64,0,0,1,1.806-.327,3.968,3.968,0,0,1,1.76.3,1.941,1.941,0,0,1,1,.935,3.728,3.728,0,0,1,.342,1.566,11.529,11.529,0,0,1-.176,2.179,11.01,11.01,0,0,1-.541,2.146,5.078,5.078,0,0,1-.884,1.564,3.251,3.251,0,0,1-1.3.918,4.874,4.874,0,0,1-1.791.3,4.376,4.376,0,0,1-1.771-.275,1.957,1.957,0,0,1-1-.915,3.632,3.632,0,0,1-.337-1.567,11.445,11.445,0,0,1,.17-2.171A12.1,12.1,0,0,1,814.066,266.787Zm1.7,3.482a4.6,4.6,0,0,0-.006,1.052,1.289,1.289,0,0,0,.29.692.87.87,0,0,0,.663.247,1.263,1.263,0,0,0,1.147-.781,9.092,9.092,0,0,0,.694-2.549,7.918,7.918,0,0,0,.122-2.544.839.839,0,0,0-.893-.779,1.17,1.17,0,0,0-.744.245,1.962,1.962,0,0,0-.5.689,5.042,5.042,0,0,0-.34,1.057c-.091.4-.174.852-.248,1.332S815.817,269.857,815.77,270.269Z" transform="translate(-813.35 -263.954)" fill="#0e1676"/>
          </g>
          <g id="Grupo_200" data-name="Grupo 200" transform="translate(93.831 2.992)">
            <path id="Trazado_1271" data-name="Trazado 1271" d="M851.935,264.205l-.16,1h.033a3.357,3.357,0,0,1,1.062-.955,2.619,2.619,0,0,1,1.28-.3,1.963,1.963,0,0,1,2.008,1.171,7.178,7.178,0,0,1,.095,3.8,8.608,8.608,0,0,1-1.308,3.781,2.869,2.869,0,0,1-2.389,1.146,2.229,2.229,0,0,1-1.127-.253,1.945,1.945,0,0,1-.737-.819h-.037l-.63,3.922H847.6l2.018-12.506Zm-.792,7.062a.822.822,0,0,0,.915.782,1.207,1.207,0,0,0,1.153-.782,9.056,9.056,0,0,0,.615-2.333,8.352,8.352,0,0,0,.14-2.326.819.819,0,0,0-.9-.789,1.216,1.216,0,0,0-1.173.789,9.7,9.7,0,0,0-.62,2.326A8.174,8.174,0,0,0,851.142,271.267Z" transform="translate(-847.596 -263.959)" fill="#0e1676"/>
          </g>
          <g id="Grupo_201" data-name="Grupo 201" transform="translate(103.442 3.238)">
            <path id="Trazado_1272" data-name="Trazado 1272" d="M895.116,273.416a2.882,2.882,0,0,1-1.167,1,3.468,3.468,0,0,1-1.452.3,2.115,2.115,0,0,1-1.688-.606,2.491,2.491,0,0,1-.294-2.032l1.132-7.017h2.428l-1.059,6.529a1.461,1.461,0,0,0,.088,1.024.834.834,0,0,0,.74.291c.851,0,1.367-.519,1.538-1.566l1.007-6.278h2.432l-1.528,9.46h-2.323l.181-1.1Z" transform="translate(-890.445 -265.057)" fill="#0e1676"/>
          </g>
          <g id="Grupo_202" data-name="Grupo 202" transform="translate(111.997 0.143)">
            <path id="Trazado_1273" data-name="Trazado 1273" d="M933.036,251.26l-2.025,12.554h-2.424l2.023-12.554Z" transform="translate(-928.586 -251.26)" fill="#0e1676"/>
          </g>
          <g id="Grupo_203" data-name="Grupo 203" transform="translate(116.16 2.992)">
            <path id="Trazado_1274" data-name="Trazado 1274" d="M948.193,266.877a3.735,3.735,0,0,1,.492-1.382,3.02,3.02,0,0,1,.859-.894,3.362,3.362,0,0,1,1.129-.493,5.952,5.952,0,0,1,1.314-.149,5.793,5.793,0,0,1,1.733.208,2,2,0,0,1,.94.6,1.712,1.712,0,0,1,.347.927,4.889,4.889,0,0,1-.05,1.171l-.805,4.974a6.148,6.148,0,0,0-.1,1.041,3.106,3.106,0,0,0,.11.789h-2.323a1.636,1.636,0,0,1-.107-.485c-.02-.167-.025-.335-.037-.5h-.036a2.5,2.5,0,0,1-1.129.961,4.149,4.149,0,0,1-1.465.221,2.138,2.138,0,0,1-1.04-.221,1.409,1.409,0,0,1-.607-.608,2.147,2.147,0,0,1-.243-.866,3.621,3.621,0,0,1,.028-.961,4.83,4.83,0,0,1,.328-1.155,2.778,2.778,0,0,1,.565-.826,2.876,2.876,0,0,1,.83-.566,6.48,6.48,0,0,1,1.151-.409l1.425-.368a1.765,1.765,0,0,0,.827-.391,1.244,1.244,0,0,0,.32-.723,1.2,1.2,0,0,0-.117-.85.934.934,0,0,0-.822-.3,1.233,1.233,0,0,0-.9.334,1.59,1.59,0,0,0-.426.9l-.039.26h-2.184Zm3.525,2.367a3.784,3.784,0,0,1-.536.17,2.177,2.177,0,0,0-1.139.525,1.76,1.76,0,0,0-.482,1,1.868,1.868,0,0,0,.062.934.611.611,0,0,0,.636.39,1.777,1.777,0,0,0,.526-.084,1.61,1.61,0,0,0,.528-.256A1.649,1.649,0,0,0,952,270.8l.3-1.865A2.508,2.508,0,0,1,951.718,269.244Z" transform="translate(-947.15 -263.959)" fill="#0e1676"/>
          </g>
          <g id="Grupo_204" data-name="Grupo 204" transform="translate(124.589 2.992)">
            <path id="Trazado_1275" data-name="Trazado 1275" d="M988.583,264.205l-.206,1.264h.036a4.274,4.274,0,0,1,1.072-1.1,2.286,2.286,0,0,1,1.355-.415c.064,0,.138.006.216.011a1.193,1.193,0,0,1,.212.025l-.375,2.32c-.123-.014-.243-.019-.37-.025s-.25-.006-.374-.006a2.913,2.913,0,0,0-.649.079,2.079,2.079,0,0,0-.628.3,1.866,1.866,0,0,0-.51.53,2.109,2.109,0,0,0-.285.794l-.916,5.682h-2.428l1.529-9.46Z" transform="translate(-984.732 -263.959)" fill="#0e1676"/>
          </g>
        </g>
      </g>
      <g id="Grupo_207" data-name="Grupo 207" transform="translate(6.485 7.645)">
        <path id="Trazado_1276" data-name="Trazado 1276" d="M95.71,113.642a4.307,4.307,0,0,0,4.062-2.72c.471-.939.482-1.444.321-1.61,0,0-.262-.275-1.568-.275H96.16c-.132.026-.4.061-.431.061H81.178c-2.464,0-4-.713-4.541-2.132a4.151,4.151,0,0,1-.274-1.519,7.562,7.562,0,0,1,.906-3.317A11.483,11.483,0,0,1,81.6,97.276a9.955,9.955,0,0,1,5.206-1.249h6.779c.717-1.424,2.842-5.621,2.835-5.606a3.606,3.606,0,0,1,.2-.357,18.587,18.587,0,0,0-24.468,23.848,3.124,3.124,0,0,1,1.326-.27Z" transform="translate(-70.913 -88.645)" fill="#0e1676"/>
      </g>
      <g id="Grupo_208" data-name="Grupo 208" transform="translate(33.614 10.967)">
        <path id="Trazado_1277" data-name="Trazado 1277" d="M198.165,107.517a18.621,18.621,0,0,0-4.239-4.06c-.483.944-1.459,2.886-2.057,4.06Z" transform="translate(-191.869 -103.457)" fill="#0e1676"/>
      </g>
      <g id="Grupo_209" data-name="Grupo 209" transform="translate(16.624 19.267)">
        <path id="Trazado_1278" data-name="Trazado 1278" d="M141.8,140.46H120.6a4.31,4.31,0,0,0-4.062,2.713c-.478.94-.482,1.45-.326,1.61,0,0,.263.273,1.575.273h2.344c.055-.011.415-.059.441-.059h14.555c2.473,0,4,.713,4.55,2.13a4.368,4.368,0,0,1,.27,1.519,7.579,7.579,0,0,1-.91,3.324,11.465,11.465,0,0,1-4.327,4.851,9.987,9.987,0,0,1-5.2,1.244h-7.32c-.436.872-3.116,6.28-3.116,6.28l-.039.093a4.267,4.267,0,0,1-.427.615,18.605,18.605,0,0,0,24.565-17.616A18.359,18.359,0,0,0,141.8,140.46Z" transform="translate(-116.12 -140.46)" fill="#026e45"/>
      </g>
      <g id="Grupo_210" data-name="Grupo 210" transform="translate(9.847 36.873)">
        <path id="Trazado_1279" data-name="Trazado 1279" d="M85.9,218.957a18.741,18.741,0,0,0,5.744,5.346c.382-.77,1.9-3.843,2.643-5.346Z" transform="translate(-85.903 -218.957)" fill="#026e45"/>
      </g>
      <g id="Grupo_211" data-name="Grupo 211" transform="translate(0)">
        <path id="Trazado_1280" data-name="Trazado 1280" d="M272.427,93.758l-5.759-3.334v2.258H86.616l-.335.528A22.82,22.82,0,1,1,65.122,58.115a2.294,2.294,0,1,0-.143-2.277A25.093,25.093,0,1,0,87.8,94.974H266.668V97.1Z" transform="translate(-42.001 -54.558)" fill="#026e45"/>
      </g>
      <g id="Grupo_213" data-name="Grupo 213" transform="translate(220.439 17.338)">
        <g id="Grupo_212" data-name="Grupo 212">
          <path id="Trazado_1281" data-name="Trazado 1281" d="M1024.981,132.905a1.719,1.719,0,0,1,.379-.548,1.874,1.874,0,0,1,.557-.369,1.847,1.847,0,0,1,1.356,0,1.982,1.982,0,0,1,.557.369,1.88,1.88,0,0,1,.372.548,1.663,1.663,0,0,1,.139.685,1.714,1.714,0,0,1-.139.7,1.869,1.869,0,0,1-.372.553,1.788,1.788,0,0,1-.557.366,1.88,1.88,0,0,1-1.356,0,1.732,1.732,0,0,1-1.077-1.618A1.636,1.636,0,0,1,1024.981,132.905Zm.285,1.28a1.374,1.374,0,0,0,.3.471,1.358,1.358,0,0,0,.456.315,1.431,1.431,0,0,0,.575.114,1.412,1.412,0,0,0,.565-.114,1.437,1.437,0,0,0,.753-.786,1.611,1.611,0,0,0,.107-.595,1.557,1.557,0,0,0-.107-.581,1.305,1.305,0,0,0-.3-.464,1.4,1.4,0,0,0-.45-.316,1.459,1.459,0,0,0-.565-.114,1.478,1.478,0,0,0-.575.114,1.421,1.421,0,0,0-.456.316,1.33,1.33,0,0,0-.3.464,1.491,1.491,0,0,0-.114.581A1.542,1.542,0,0,0,1025.266,134.185Zm1.438-1.6a.832.832,0,0,1,.536.143.536.536,0,0,1,.175.44.5.5,0,0,1-.152.4.707.707,0,0,1-.384.15l.583.9h-.338l-.557-.877h-.333v.877h-.316v-2.036Zm-.141.9a1.641,1.641,0,0,0,.2-.01.507.507,0,0,0,.17-.037.256.256,0,0,0,.116-.1.332.332,0,0,0,.044-.188.322.322,0,0,0-.037-.165.308.308,0,0,0-.1-.091.391.391,0,0,0-.145-.045,1.3,1.3,0,0,0-.16-.012h-.419v.648Z" transform="translate(-1024.84 -131.86)" fill="#0e1676"/>
        </g>
      </g>
    </g>
  </g>
</svg>
