<svg xmlns="http://www.w3.org/2000/svg" width="240.125" height="71.801" viewBox="0 0 240.125 71.801">
  <g id="logo-ictineo" transform="translate(-17.247 -30.046)">
    <path id="Trazado_1030" data-name="Trazado 1030" d="M25.156,125.455v24.573q0,5.642.128,7.1a3.4,3.4,0,0,0,.917,2.239c.526.518-.056.778,1.3.778h.664v1.98H17.247v-1.98h1.074c1.5,0,.953-.293,1.405-.884a3.962,3.962,0,0,0,.792-2.109q.11-1.228.11-7.124V139.357q0-6.2-.424-7.579a2.678,2.678,0,0,0-1.144-1.72c-.474-.232.222-.345-.959-.345h-.855v-1.981a19.367,19.367,0,0,0,7.213-2.278Zm-6.11-8.8a2.867,2.867,0,0,1,.969-2.174,3.264,3.264,0,0,1,2.322-.91,3.22,3.22,0,0,1,2.313.91,2.9,2.9,0,0,1,.952,2.174,2.942,2.942,0,0,1-.952,2.2,3.222,3.222,0,0,1-2.313.908,3.266,3.266,0,0,1-2.322-.908,2.905,2.905,0,0,1-.969-2.2" transform="translate(0 -60.278)" fill="#252f38"/>
    <path id="Trazado_1031" data-name="Trazado 1031" d="M319.774,125.455v24.573q0,5.642.127,7.1a3.409,3.409,0,0,0,.917,2.239c.527.518-.057.778,1.3.778h.663v1.98H311.864v-1.98h1.074c1.5,0,.954-.293,1.407-.884a3.956,3.956,0,0,0,.791-2.109q.111-1.228.111-7.124V139.357q0-6.2-.426-7.579a2.674,2.674,0,0,0-1.142-1.72c-.474-.232.22-.345-.959-.345h-.856v-1.981a19.355,19.355,0,0,0,7.214-2.278Zm-6.11-8.8a2.867,2.867,0,0,1,.969-2.174,3.263,3.263,0,0,1,2.322-.91,3.215,3.215,0,0,1,2.313.91,2.9,2.9,0,0,1,.952,2.174,2.944,2.944,0,0,1-.952,2.2,3.217,3.217,0,0,1-2.313.908,3.265,3.265,0,0,1-2.322-.908,2.906,2.906,0,0,1-.969-2.2" transform="translate(-212.941 -60.278)" fill="#252f38"/>
    <path id="Trazado_1032" data-name="Trazado 1032" d="M558.1,169.995H535.294c-.106,1.621-.154,2.829-.154,3.623q0,8.9,2.692,13.366a8.8,8.8,0,0,0,8.046,4.47,10.52,10.52,0,0,0,10.3-6.716H558.1a11.456,11.456,0,0,1-5.072,6.569,15.452,15.452,0,0,1-16.115.207,16.984,16.984,0,0,1-6.052-6.114,18.47,18.47,0,0,1-2.354-9.6,19.645,19.645,0,0,1,4.554-13.284,14.394,14.394,0,0,1,11.379-5.294q6.43,0,9.944,4.038a14.015,14.015,0,0,1,3.715,8.731m-6.99-1.647a13.647,13.647,0,0,0,.118-1.688,7.49,7.49,0,0,0-2.052-5.623,7,7,0,0,0-5.055-2q-7.269,0-8.667,9.308Z" transform="translate(-369.525 -91.832)" fill="#252f38"/>
    <path id="Trazado_1033" data-name="Trazado 1033" d="M665.2,175.4a18.618,18.618,0,0,1,4.7-12.954,15.477,15.477,0,0,1,23.178.021,18.623,18.623,0,0,1,4.7,12.933q0,8.525-4.776,13.4a15.56,15.56,0,0,1-11.535,4.879,15.348,15.348,0,0,1-11.513-4.963q-4.761-4.958-4.76-13.321m6.2.2q0,8.981,2.65,12.581a9.513,9.513,0,0,0,14.912,0q2.593-3.6,2.592-12.581,0-8.9-2.575-12.685a9.319,9.319,0,0,0-14.986-.023q-2.6,3.772-2.592,12.708" transform="translate(-468.321 -91.841)" fill="#252f38"/>
    <path id="Trazado_1034" data-name="Trazado 1034" d="M382.957,157.232h1.02a26.157,26.157,0,0,1,.985,7.23,20.474,20.474,0,0,1,5.7-5.429,11.889,11.889,0,0,1,6.235-1.8,9.906,9.906,0,0,1,6.066,1.756,7.8,7.8,0,0,1,3.04,4.3,30.489,30.489,0,0,1,.681,7.424v10.949q0,6.078.187,7.4a2.743,2.743,0,0,0,1.193,1.993,7.238,7.238,0,0,0,3.684.66v1.968H395.918v-1.968h.719q2.722,0,3.552-.9a3.512,3.512,0,0,0,.943-2.1q.116-1.2.115-7.06V170.365a33.657,33.657,0,0,0-.36-5.923,5.609,5.609,0,0,0-1.925-3.145,5.857,5.857,0,0,0-3.991-1.37,8.742,8.742,0,0,0-5.27,1.86,18.929,18.929,0,0,0-4.741,5.585v14.286a72.576,72.576,0,0,0,.207,7.4,2.778,2.778,0,0,0,1.206,1.993,7.344,7.344,0,0,0,3.725.66v1.968H374.453v-1.968a7.8,7.8,0,0,0,3.629-.6,2.6,2.6,0,0,0,1.266-1.816,63.154,63.154,0,0,0,.246-7.64V171.219a73.317,73.317,0,0,0-.206-7.418,2.786,2.786,0,0,0-1.213-1.972,7.32,7.32,0,0,0-3.722-.661V159.2a43.712,43.712,0,0,0,8.5-1.968" transform="translate(-258.178 -91.836)" fill="#252f38"/>
    <path id="Trazado_1035" data-name="Trazado 1035" d="M235.837,135.1h-6.031v21.728a34.232,34.232,0,0,0,.373,6.324,4.587,4.587,0,0,0,1.585,2.617,4.062,4.062,0,0,0,2.593.986c.9,0,2.951.019,2.951.019a2.645,2.645,0,0,1-.908,1.716,7.1,7.1,0,0,1-4.17,1.147,7.019,7.019,0,0,1-4.723-1.749,7.387,7.387,0,0,1-2.537-4.1,45.52,45.52,0,0,1-.5-8.233V135.1h-4.442v-1.9a7.448,7.448,0,0,0,5.486-2.841,10.153,10.153,0,0,0,3.1-6.4h1.2V133.2h6.031Z" transform="translate(-146.563 -67.79)" fill="#252f38"/>
    <path id="Trazado_1036" data-name="Trazado 1036" d="M113.217,184.082h1.777q-2.75,9.6-13.738,9.6a16.04,16.04,0,0,1-11.9-4.9q-4.824-4.9-4.829-12.973,0-8.279,5.216-13.425a16.958,16.958,0,0,1,12.324-5.151,16.5,16.5,0,0,1,7.876,1.914q3.6,1.917,3.6,4.677a3.219,3.219,0,0,1-.666,1.937,2.238,2.238,0,0,1-1.92.9q-2.666,0-3.274-3.173a6.219,6.219,0,0,0-1.491-3.333c-.7-.631-2.06-.949-4.081-.949q-5.415,0-8.145,3.832t-2.723,11.532q0,7.946,2.927,12.438t8.871,4.491q7.993,0,10.18-7.417" transform="translate(-48.628 -91.834)" fill="#252f38"/>
    <path id="Trazado_1037" data-name="Trazado 1037" d="M747.99,54.142h-.682l2.813-4.434a31.1,31.1,0,0,0,1.623-2.735,19.376,19.376,0,0,0,.9-2.426l.206-.7h1.788l-1.014,3.276-1.25,3.455q2.024-2.794,3.843-2.794a2.3,2.3,0,0,1,1.874,1,4,4,0,0,1,.776,2.512,10.977,10.977,0,0,1-.924,4.051,9.728,9.728,0,0,1-2.614,3.761,5.149,5.149,0,0,1-3.372,1.48,1.921,1.921,0,0,1-2.04-1.493L748.17,64.75a6.878,6.878,0,0,0-.329,1.288.533.533,0,0,0,.217.424,2.568,2.568,0,0,0,1.257.176h.672l-.21.645h-6.225l.208-.645h.326a3.838,3.838,0,0,0,1.566-.176,5.209,5.209,0,0,0,.775-1.829l3.1-10.051q.986-3.144,2.267-6.424c-.1.138-.366.577-.788,1.318-.052.078-.208.326-.48.746Zm2.755,2.239a7.422,7.422,0,0,0-.4,1.872,1.877,1.877,0,0,0,.4,1.214,1.375,1.375,0,0,0,1.134.5,3.163,3.163,0,0,0,2.224-1.222,11.331,11.331,0,0,0,2.085-4.068,15.006,15.006,0,0,0,.948-4.281,2.648,2.648,0,0,0-.3-1.4.993.993,0,0,0-.894-.467,3.8,3.8,0,0,0-2.139,1.153q-1.332,1.158-2.465,4.787Z" transform="translate(-524.953 -9.881)" fill="#d72c00"/>
    <path id="Trazado_1038" data-name="Trazado 1038" d="M812.984,47.956l-.209.646h-2.234l-1.966,6.393a23.15,23.15,0,0,0-.982,3.659.8.8,0,0,0,.154.532.57.57,0,0,0,.455.184c.358,0,.826-.331,1.4-.995a10.209,10.209,0,0,0,1.548-2.5h.658A10.058,10.058,0,0,1,809.73,59.2a3.267,3.267,0,0,1-2.137,1.151,1.52,1.52,0,0,1-1.214-.529,1.946,1.946,0,0,1-.456-1.33,18.835,18.835,0,0,1,.924-3.657l1.92-6.233h-2.054l.209-.646h2.04l1.369-4.435h1.79l-1.371,4.435Z" transform="translate(-570.033 -9.649)" fill="#d72c00"/>
    <path id="Trazado_1039" data-name="Trazado 1039" d="M823.43,38.307l-.192.646h-2.607l-2.308,8.558q-1.581,5.808-3.455,7.8a5.6,5.6,0,0,1-4.125,1.99,4.488,4.488,0,0,1-2.259-.573,1.643,1.643,0,0,1-1-1.417,1.054,1.054,0,0,1,.312-.79,1.009,1.009,0,0,1,.732-.307,1,1,0,0,1,.788.342,1.107,1.107,0,0,1,.3.739,2.35,2.35,0,0,1-.046.366l-.028.248a.648.648,0,0,0,.358.511,1.531,1.531,0,0,0,.865.236,3.541,3.541,0,0,0,3.007-1.876,30.587,30.587,0,0,0,2.769-7.505l2.281-8.323h-2.935l.194-.646h2.949c.03-.116.109-.4.24-.848q2.011-7.286,6.508-7.287a3.015,3.015,0,0,1,1.959.558,1.493,1.493,0,0,1,.677,1.1c0,.516-.247.776-.744.776-.4,0-.821-.336-1.267-1.01a1.361,1.361,0,0,0-1.148-.73,2.74,2.74,0,0,0-1.934.915q-.926.914-2.041,4.965l-.432,1.566Z" transform="translate(-571.158 0)" fill="#d72c00"/>
    <path id="Trazado_1040" data-name="Trazado 1040" d="M747.99,54.142h-.682l2.813-4.434a31.1,31.1,0,0,0,1.623-2.735,19.376,19.376,0,0,0,.9-2.426l.206-.7h1.788l-1.014,3.276-1.25,3.455q2.024-2.794,3.843-2.794a2.3,2.3,0,0,1,1.874,1,4,4,0,0,1,.776,2.512,10.977,10.977,0,0,1-.924,4.051,9.728,9.728,0,0,1-2.614,3.761,5.149,5.149,0,0,1-3.372,1.48,1.921,1.921,0,0,1-2.04-1.493L748.17,64.75a6.878,6.878,0,0,0-.329,1.288.533.533,0,0,0,.217.424,2.568,2.568,0,0,0,1.257.176h.672l-.21.645h-6.225l.208-.645h.326a3.838,3.838,0,0,0,1.566-.176,5.209,5.209,0,0,0,.775-1.829l3.1-10.051q.986-3.144,2.267-6.424c-.1.138-.366.577-.788,1.318-.052.078-.208.326-.48.746Zm2.755,2.239a7.422,7.422,0,0,0-.4,1.872,1.877,1.877,0,0,0,.4,1.214,1.375,1.375,0,0,0,1.134.5,3.163,3.163,0,0,0,2.224-1.222,11.331,11.331,0,0,0,2.085-4.068,15.006,15.006,0,0,0,.948-4.281,2.648,2.648,0,0,0-.3-1.4.993.993,0,0,0-.894-.467,3.8,3.8,0,0,0-2.139,1.153q-1.332,1.158-2.465,4.787Z" transform="translate(-524.953 -9.881)" fill="none" stroke="#d72c00" stroke-miterlimit="10" stroke-width="0.25"/>
    <path id="Trazado_1041" data-name="Trazado 1041" d="M812.984,47.956l-.209.646h-2.234l-1.966,6.393a23.15,23.15,0,0,0-.982,3.659.8.8,0,0,0,.154.532.57.57,0,0,0,.455.184c.358,0,.826-.331,1.4-.995a10.209,10.209,0,0,0,1.548-2.5h.658A10.058,10.058,0,0,1,809.73,59.2a3.267,3.267,0,0,1-2.137,1.151,1.52,1.52,0,0,1-1.214-.529,1.946,1.946,0,0,1-.456-1.33,18.835,18.835,0,0,1,.924-3.657l1.92-6.233h-2.054l.209-.646h2.04l1.369-4.435h1.79l-1.371,4.435Z" transform="translate(-570.033 -9.649)" fill="none" stroke="#d72c00" stroke-miterlimit="10" stroke-width="0.25"/>
    <path id="Trazado_1042" data-name="Trazado 1042" d="M823.43,38.307l-.192.646h-2.607l-2.308,8.558q-1.581,5.808-3.455,7.8a5.6,5.6,0,0,1-4.125,1.99,4.488,4.488,0,0,1-2.259-.573,1.643,1.643,0,0,1-1-1.417,1.054,1.054,0,0,1,.312-.79,1.009,1.009,0,0,1,.732-.307,1,1,0,0,1,.788.342,1.107,1.107,0,0,1,.3.739,2.35,2.35,0,0,1-.046.366l-.028.248a.648.648,0,0,0,.358.511,1.531,1.531,0,0,0,.865.236,3.541,3.541,0,0,0,3.007-1.876,30.587,30.587,0,0,0,2.769-7.505l2.281-8.323h-2.935l.194-.646h2.949c.03-.116.109-.4.24-.848q2.011-7.286,6.508-7.287a3.015,3.015,0,0,1,1.959.558,1.493,1.493,0,0,1,.677,1.1c0,.516-.247.776-.744.776-.4,0-.821-.336-1.267-1.01a1.361,1.361,0,0,0-1.148-.73,2.74,2.74,0,0,0-1.934.915q-.926.914-2.041,4.965l-.432,1.566Z" transform="translate(-571.158 0)" fill="none" stroke="#d72c00" stroke-miterlimit="10" stroke-width="0.25"/>
  </g>
</svg>
