<svg xmlns="http://www.w3.org/2000/svg" width="80" height="80" viewBox="0 0 80 80">
  <g id="logo-kubo" transform="translate(-0.001 0)">
    <rect id="Rectángulo_92" data-name="Rectángulo 92" width="80" height="80" transform="translate(0.001 0)" fill="#438428"/>
    <path id="Trazado_1087" data-name="Trazado 1087" d="M249.171,460.873a.46.46,0,0,0,.477-.445.475.475,0,0,0-.949,0A.458.458,0,0,0,249.171,460.873Z" transform="translate(-213.603 -395.068)" fill="#fff"/>
    <path id="Trazado_1088" data-name="Trazado 1088" d="M229.784,460.077h-1.893v-.49c0-.488.328-.679.782-.679h.109v-.627a2.44,2.44,0,0,0-.249-.015,1.263,1.263,0,0,0-1.423,1.321v.49h-.518v.6h.518v3.336h.782v-3.336h1.893v3.336h.8v-3.935h-.8Z" transform="translate(-194.616 -393.6)" fill="#fff"/>
    <path id="Trazado_1089" data-name="Trazado 1089" d="M266.885,474.542v-2.628c0-.46-.278-.746-.825-.746a2.049,2.049,0,0,0-.724.119v3.256h-.8V470.8a4.011,4.011,0,0,1,1.512-.277c1.1,0,1.636.482,1.636,1.314v2.7Z" transform="translate(-227.21 -404.13)" fill="#fff"/>
    <path id="Trazado_1090" data-name="Trazado 1090" d="M295.417,474.622c-1.131,0-1.7-.459-1.7-1.233,0-1.1,1.167-1.293,2.358-1.359v-.249c0-.5-.328-.671-.832-.671a2.859,2.859,0,0,0-1.089.241l-.2-.548a3.672,3.672,0,0,1,1.373-.277c.94,0,1.511.364,1.511,1.336v2.482A3.431,3.431,0,0,1,295.417,474.622Zm.657-2.058c-.8.042-1.606.109-1.606.81,0,.415.321.671.927.671a2,2,0,0,0,.679-.1Z" transform="translate(-252.269 -404.13)" fill="#fff"/>
    <path id="Trazado_1091" data-name="Trazado 1091" d="M326.362,474.542v-2.628c0-.46-.279-.746-.827-.746a2.039,2.039,0,0,0-.721.119v3.256h-.8V470.8a4,4,0,0,1,1.511-.277c1.1,0,1.636.482,1.636,1.314v2.7Z" transform="translate(-278.295 -404.13)" fill="#fff"/>
    <path id="Trazado_1092" data-name="Trazado 1092" d="M355.215,474.622c-.876,0-1.731-.627-1.731-2.051s.854-2.044,1.731-2.044a1.789,1.789,0,0,1,1.009.271l-.263.576a1.132,1.132,0,0,0-.643-.189c-.525,0-1.009.415-1.009,1.38s.5,1.386,1.009,1.386a1.12,1.12,0,0,0,.643-.189l.263.591A1.754,1.754,0,0,1,355.215,474.622Z" transform="translate(-303.603 -404.13)" fill="#fff"/>
    <path id="Trazado_1093" data-name="Trazado 1093" d="M380.042,460.512a.453.453,0,1,1,.476-.453A.464.464,0,0,1,380.042,460.512Zm-.4,4.65v-3.935h.8v3.935Z" transform="translate(-326.007 -394.75)" fill="#fff"/>
    <path id="Trazado_1094" data-name="Trazado 1094" d="M396.931,472.557l-2.614.364a1.114,1.114,0,0,0,1.2,1.067,2.47,2.47,0,0,0,1.088-.24l.234.6a3.215,3.215,0,0,1-1.373.277,1.831,1.831,0,0,1-1.934-2.051,1.806,1.806,0,0,1,1.774-2.044,1.556,1.556,0,0,1,1.63,1.73C396.94,472.352,396.94,472.455,396.931,472.557Zm-1.636-1.445c-.612,0-1.013.468-1.029,1.284l1.907-.262C396.165,471.446,395.822,471.112,395.295,471.112Z" transform="translate(-338.004 -404.13)" fill="#fff"/>
    <path id="Trazado_1095" data-name="Trazado 1095" d="M426.641,471.22a1.731,1.731,0,0,0-.4-.043,1.7,1.7,0,0,0-.62.1v3.262h-.8V470.8a4.145,4.145,0,0,1,1.527-.277,2.363,2.363,0,0,1,.444.03Z" transform="translate(-364.876 -404.13)" fill="#fff"/>
    <path id="Trazado_1096" data-name="Trazado 1096" d="M443.684,474.622c-1.117,0-1.731-.882-1.731-2.051s.614-2.044,1.731-2.044,1.73.876,1.73,2.044S444.8,474.622,443.684,474.622Zm0-3.461c-.621,0-.928.555-.928,1.4s.307,1.408.928,1.408.926-.561.926-1.408S444.305,471.161,443.684,471.161Z" transform="translate(-379.588 -404.13)" fill="#fff"/>
    <path id="Trazado_1097" data-name="Trazado 1097" d="M485.8,418.9v-3.956h3.777V418.9Z" transform="translate(-417.249 -356.391)" fill="#c2cf17"/>
    <path id="Trazado_1098" data-name="Trazado 1098" d="M141.669,325.785v7.054h-3.756V314.755h3.756v10.63l3.756-5.114h4.183l-4.333,5.276,4.609,7.292H145.5Z" transform="translate(-118.451 -270.339)" fill="#fff"/>
    <path id="Trazado_1099" data-name="Trazado 1099" d="M389.189,364.465c-4.11,0-6.562-2.706-6.562-6.662s2.453-6.664,6.562-6.664,6.562,2.707,6.562,6.664S393.3,364.465,389.189,364.465Zm0-2.507c2.3,0,2.679-2.151,2.679-4.155s-.375-4.159-2.679-4.159-2.681,2.156-2.681,4.159S386.885,361.958,389.189,361.958Z" transform="translate(-328.633 -301.589)" fill="#fff"/>
    <path id="Trazado_1100" data-name="Trazado 1100" d="M242.028,319.889a4.254,4.254,0,0,0-3.358,1.829h-.048v-6.963h-3.774v13.292c-.133,1.68-1.121,2.661-2.245,2.661-1.854,0-2.23-1.551-2.254-2.9v-7.539h-3.758v8.164a8.668,8.668,0,0,0,.251,2c.45,1.828,2.88,2.78,4.132,2.78a4.376,4.376,0,0,0,3.859-1.9.113.113,0,0,1,.014-.017v1.55h3.772v-1.787h.026a4.186,4.186,0,0,0,3.857,2.154c3.682,0,5.411-3.432,5.411-6.662C247.913,323.17,245.933,319.889,242.028,319.889Zm-.7,10.819c-2.03,0-2.7-2.429-2.7-4.155s.673-4.159,2.7-4.159c2.407,0,2.705,2.229,2.705,4.159S243.731,330.708,241.324,330.708Z" transform="translate(-194.616 -270.339)" fill="#fff"/>
  </g>
</svg>
