<svg xmlns="http://www.w3.org/2000/svg" width="117.464" height="32" viewBox="0 0 117.464 32">
  <g id="Grupo_3381" data-name="Grupo 3381" transform="translate(16094 4192)">
    <g id="Grupo_503" data-name="Grupo 503" transform="translate(-16094 -4192)">
      <rect id="Rectángulo_707" data-name="Rectángulo 707" width="6.034" height="6.016" transform="matrix(0.707, 0.707, -0.707, 0.707, 16, 6.933)" fill="#9dd4ca"/>
      <rect id="Rectángulo_712" data-name="Rectángulo 712" width="6.034" height="6.016" transform="matrix(0.707, 0.707, -0.707, 0.707, 11.2, 11.733)" fill="#9dd4ca"/>
      <rect id="Rectángulo_710" data-name="Rectángulo 710" width="6.034" height="6.016" transform="matrix(0.707, 0.707, -0.707, 0.707, 20.787, 11.746)" fill="#9dd4ca"/>
      <rect id="Rectángulo_711" data-name="Rectángulo 711" width="6.034" height="6.016" transform="matrix(0.707, 0.707, -0.707, 0.707, 16, 16.533)" fill="#9dd4ca"/>
      <rect id="Rectángulo_705" data-name="Rectángulo 705" width="6.034" height="9.051" transform="matrix(0.707, 0.707, -0.707, 0.707, 22.934, 0)" fill="#005850"/>
      <rect id="Rectángulo_715" data-name="Rectángulo 715" width="6.034" height="9.051" transform="matrix(0.707, 0.707, -0.707, 0.707, 11.2, 21.333)" fill="#005850"/>
      <rect id="Rectángulo_713" data-name="Rectángulo 713" width="6.034" height="9.051" transform="translate(31.999 22.933) rotate(135)" fill="#005850"/>
      <rect id="Rectángulo_717" data-name="Rectángulo 717" width="6.034" height="9.051" transform="translate(10.667 11.2) rotate(135)" fill="#005850"/>
      <rect id="Rectángulo_708" data-name="Rectángulo 708" width="6.034" height="9.051" transform="matrix(0.707, 0.707, -0.707, 0.707, 27.734, 4.8)" fill="#007f6e"/>
      <rect id="Rectángulo_716" data-name="Rectángulo 716" width="6.034" height="9.051" transform="matrix(0.707, 0.707, -0.707, 0.707, 6.4, 16.533)" fill="#007f6e"/>
      <rect id="Rectángulo_714" data-name="Rectángulo 714" width="6.034" height="9.051" transform="translate(27.2 27.733) rotate(135)" fill="#007f6e"/>
      <rect id="Rectángulo_718" data-name="Rectángulo 718" width="6.034" height="9.051" transform="translate(15.467 6.4) rotate(135)" fill="#007f6e"/>
      <path id="Trazado_1295" data-name="Trazado 1295" d="M0,0,0,0,0,0V0Z" transform="translate(12.314 25.973) rotate(90)" fill="#004545"/>
    </g>
    <path id="Trazado_4926" data-name="Trazado 4926" d="M4.992-11.184H7.376L11.84,0H9.36L8.4-2.432H3.968L3.008,0H.512ZM7.76-4.368,6.176-8.624,4.592-4.368Zm5.024-6.816h2.4L18.624-3.7l3.456-7.488h2.384V0h-2.32V-6.352L19.184,0h-1.12L15.12-6.352V0H12.784ZM29.5.24A10.836,10.836,0,0,1,27.472.048a6.411,6.411,0,0,1-1.648-.512V-2.608a8.046,8.046,0,0,0,1.76.624,7.845,7.845,0,0,0,1.744.208,2.547,2.547,0,0,0,1.408-.32,1.018,1.018,0,0,0,.48-.9,1.063,1.063,0,0,0-.24-.7,2.175,2.175,0,0,0-.7-.52q-.456-.232-1.4-.616a6.106,6.106,0,0,1-2.272-1.432,2.843,2.843,0,0,1-.7-1.96A2.834,2.834,0,0,1,26.416-9.9a3.311,3.311,0,0,1,1.44-1.128,5.376,5.376,0,0,1,2.144-.4,8.686,8.686,0,0,1,1.76.16,7.1,7.1,0,0,1,1.5.5v2.08a6.248,6.248,0,0,0-2.816-.7,2.7,2.7,0,0,0-1.408.312.985.985,0,0,0-.512.888,1,1,0,0,0,.24.688,2.093,2.093,0,0,0,.672.48q.432.208,1.408.608a10.272,10.272,0,0,1,1.776.92,2.809,2.809,0,0,1,.944,1.04,3.252,3.252,0,0,1,.3,1.48,2.824,2.824,0,0,1-1.1,2.368A5.293,5.293,0,0,1,29.5.24ZM40.9.24A6.329,6.329,0,0,1,37.848-.5,5.467,5.467,0,0,1,35.7-2.552a5.823,5.823,0,0,1-.784-3.032,5.866,5.866,0,0,1,.784-3.04,5.45,5.45,0,0,1,2.152-2.064,6.329,6.329,0,0,1,3.048-.736,6.237,6.237,0,0,1,3.032.736,5.479,5.479,0,0,1,2.136,2.064,5.866,5.866,0,0,1,.784,3.04,5.823,5.823,0,0,1-.784,3.032A5.5,5.5,0,0,1,43.928-.5,6.237,6.237,0,0,1,40.9.24ZM40.9-2a3.546,3.546,0,0,0,1.752-.44A3.246,3.246,0,0,0,43.9-3.688a3.742,3.742,0,0,0,.464-1.9,3.76,3.76,0,0,0-.456-1.88,3.191,3.191,0,0,0-1.248-1.248,3.578,3.578,0,0,0-1.768-.44,3.611,3.611,0,0,0-1.784.44,3.246,3.246,0,0,0-1.256,1.248,3.709,3.709,0,0,0-.464,1.88,3.742,3.742,0,0,0,.464,1.9A3.23,3.23,0,0,0,39.12-2.44,3.624,3.624,0,0,0,40.9-2Zm7.3-9.184h7.76v2.048H50.624v2.608h3.92v1.872h-3.92V0H48.192Zm8.784,0h2.432V0H56.976Zm4.112,0h4.7a4.435,4.435,0,0,1,3.04,1,3.505,3.505,0,0,1,1.136,2.776,3.5,3.5,0,0,1-1.128,2.8,4.5,4.5,0,0,1-3.048.976H63.52V0H61.088Zm4.352,5.52q2.064,0,2.064-1.744a1.542,1.542,0,0,0-.552-1.36,2.611,2.611,0,0,0-1.512-.384H63.52v3.488ZM76.512.24A6.329,6.329,0,0,1,73.464-.5a5.467,5.467,0,0,1-2.152-2.056,5.823,5.823,0,0,1-.784-3.032,5.866,5.866,0,0,1,.784-3.04,5.45,5.45,0,0,1,2.152-2.064,6.329,6.329,0,0,1,3.048-.736,6.237,6.237,0,0,1,3.032.736A5.479,5.479,0,0,1,81.68-8.624a5.866,5.866,0,0,1,.784,3.04,5.823,5.823,0,0,1-.784,3.032A5.5,5.5,0,0,1,79.544-.5,6.237,6.237,0,0,1,76.512.24Zm0-2.24a3.546,3.546,0,0,0,1.752-.44A3.246,3.246,0,0,0,79.52-3.688a3.742,3.742,0,0,0,.464-1.9,3.76,3.76,0,0,0-.456-1.88A3.191,3.191,0,0,0,78.28-8.712a3.578,3.578,0,0,0-1.768-.44,3.611,3.611,0,0,0-1.784.44,3.246,3.246,0,0,0-1.256,1.248,3.709,3.709,0,0,0-.464,1.88,3.742,3.742,0,0,0,.464,1.9A3.23,3.23,0,0,0,74.736-2.44,3.623,3.623,0,0,0,76.512-2Z" transform="translate(-16059 -4170.576)" fill="#195852"/>
  </g>
</svg>
