<svg id="logo" xmlns="http://www.w3.org/2000/svg" width="429.234" height="104" viewBox="0 0 429.234 104">
  <defs>
    <style>
      .cls-1 {
        fill: #fff;
      }
    </style>
  </defs>
  <path id="Trazado_4932" data-name="Trazado 4932" class="cls-1" d="M29.429,1.793H11.922l-3.34,8.08H-.36L16.447-27.834h8.619L41.926,9.873H32.768ZM26.681-4.832,20.7-19.269,14.723-4.832ZM80.171,9.873l-.054-22.624L69.021,5.887H65.089L54.046-12.266V9.873H45.858V-27.834h7.218L67.189-4.4l13.9-23.432h7.164l.108,37.707Zm29.519.646a30.852,30.852,0,0,1-8.646-1.212,20.277,20.277,0,0,1-6.706-3.151L97.3-.415a20.1,20.1,0,0,0,5.764,2.855,21.649,21.649,0,0,0,6.68,1.077,10.671,10.671,0,0,0,5.494-1.1,3.336,3.336,0,0,0,1.778-2.936,2.806,2.806,0,0,0-1.05-2.235,7.963,7.963,0,0,0-2.693-1.427q-1.643-.539-4.444-1.185a61.429,61.429,0,0,1-7.057-2.047A11.465,11.465,0,0,1,97.059-10.7a8.874,8.874,0,0,1-1.966-6.033,10.5,10.5,0,0,1,1.778-5.952,11.958,11.958,0,0,1,5.36-4.229,21.871,21.871,0,0,1,8.753-1.562,28.985,28.985,0,0,1,7.057.862,20.846,20.846,0,0,1,6.033,2.478l-2.693,6.626a21.025,21.025,0,0,0-10.45-2.963,9.8,9.8,0,0,0-5.414,1.185,3.617,3.617,0,0,0-1.751,3.124,3.055,3.055,0,0,0,2.02,2.882,31.716,31.716,0,0,0,6.168,1.858,61.435,61.435,0,0,1,7.057,2.047,11.686,11.686,0,0,1,4.713,3.232,8.666,8.666,0,0,1,1.966,5.979,10.3,10.3,0,0,1-1.8,5.9,12.124,12.124,0,0,1-5.414,4.229A22.069,22.069,0,0,1,109.691,10.52Zm40.239,0a22.009,22.009,0,0,1-10.585-2.532,18.79,18.79,0,0,1-7.38-6.976A19.044,19.044,0,0,1,129.3-8.98a19.044,19.044,0,0,1,2.666-9.992,18.79,18.79,0,0,1,7.38-6.976,22.009,22.009,0,0,1,10.585-2.532,21.853,21.853,0,0,1,10.558,2.532,19.034,19.034,0,0,1,7.38,6.976,18.9,18.9,0,0,1,2.693,9.992,18.9,18.9,0,0,1-2.693,9.992,19.034,19.034,0,0,1-7.38,6.976A21.853,21.853,0,0,1,149.929,10.52Zm0-7.434a11.966,11.966,0,0,0,6.033-1.535,11.017,11.017,0,0,0,4.229-4.282,12.589,12.589,0,0,0,1.535-6.249,12.589,12.589,0,0,0-1.535-6.249,11.017,11.017,0,0,0-4.229-4.282,11.966,11.966,0,0,0-6.033-1.535,11.965,11.965,0,0,0-6.033,1.535,11.017,11.017,0,0,0-4.229,4.282,12.589,12.589,0,0,0-1.535,6.249,12.589,12.589,0,0,0,1.535,6.249A11.017,11.017,0,0,0,143.9,1.551,11.965,11.965,0,0,0,149.929,3.086Zm35.929-23.917v9.965h17.453v7H185.859V9.873h-8.726V-27.834h28.5v7Zm25.695-7h8.726V9.873h-8.726Zm33.99,0a20.947,20.947,0,0,1,8.7,1.67,12.925,12.925,0,0,1,5.683,4.74,13.059,13.059,0,0,1,1.993,7.272,13.093,13.093,0,0,1-1.993,7.245,12.694,12.694,0,0,1-5.683,4.74,21.245,21.245,0,0,1-8.7,1.643h-7.6v10.4h-8.727V-27.834Zm-.485,20.2a9.164,9.164,0,0,0,5.979-1.7,5.91,5.91,0,0,0,2.047-4.821,5.973,5.973,0,0,0-2.047-4.875,9.164,9.164,0,0,0-5.979-1.7h-7.11v13.09ZM286.914,10.52a22.009,22.009,0,0,1-10.585-2.532,18.791,18.791,0,0,1-7.38-6.976,19.044,19.044,0,0,1-2.666-9.992,19.045,19.045,0,0,1,2.666-9.992,18.791,18.791,0,0,1,7.38-6.976,22.009,22.009,0,0,1,10.585-2.532,21.853,21.853,0,0,1,10.558,2.532,19.034,19.034,0,0,1,7.38,6.976,18.9,18.9,0,0,1,2.693,9.992,18.9,18.9,0,0,1-2.693,9.992,19.034,19.034,0,0,1-7.38,6.976A21.853,21.853,0,0,1,286.914,10.52Zm0-7.434a11.966,11.966,0,0,0,6.033-1.535,11.017,11.017,0,0,0,4.229-4.282,12.589,12.589,0,0,0,1.535-6.249,12.589,12.589,0,0,0-1.535-6.249,11.017,11.017,0,0,0-4.229-4.282,11.966,11.966,0,0,0-6.033-1.535,11.965,11.965,0,0,0-6.033,1.535,11.016,11.016,0,0,0-4.229,4.282,12.589,12.589,0,0,0-1.535,6.249,12.589,12.589,0,0,0,1.535,6.249,11.016,11.016,0,0,0,4.229,4.282A11.965,11.965,0,0,0,286.914,3.086Z" transform="translate(121.689 60.98)"/>
  <g id="Grupo_3440" data-name="Grupo 3440" transform="translate(0 0)">
    <rect id="Rectángulo_707" data-name="Rectángulo 707" class="cls-1" width="17.788" height="17.736" transform="matrix(0.707, 0.707, -0.707, 0.707, 52.002, 23.31)"/>
    <rect id="Rectángulo_4135" data-name="Rectángulo 4135" class="cls-1" width="17.788" height="17.736" transform="matrix(0.707, 0.707, -0.707, 0.707, 68.138, 39.449)"/>
    <rect id="Rectángulo_4137" data-name="Rectángulo 4137" class="cls-1" width="17.788" height="17.736" transform="matrix(0.707, 0.707, -0.707, 0.707, 52.002, 55.586)"/>
    <rect id="Rectángulo_4136" data-name="Rectángulo 4136" class="cls-1" width="17.788" height="17.736" transform="matrix(0.707, 0.707, -0.707, 0.707, 35.866, 39.449)"/>
    <rect id="Rectángulo_713" data-name="Rectángulo 713" class="cls-1" width="17.751" height="27.894" transform="translate(104.001 75.31) rotate(135)"/>
    <rect id="Rectángulo_4140" data-name="Rectángulo 4140" class="cls-1" width="17.751" height="27.894" transform="translate(91.452 16.138) rotate(45)"/>
    <rect id="Rectángulo_4141" data-name="Rectángulo 4141" class="cls-1" width="17.751" height="27.894" transform="translate(75.316 0) rotate(45)"/>
    <rect id="Rectángulo_4138" data-name="Rectángulo 4138" class="cls-1" width="17.751" height="27.894" transform="translate(32.279 35.862) rotate(135)"/>
    <rect id="Rectángulo_714" data-name="Rectángulo 714" class="cls-1" width="17.751" height="27.894" transform="translate(87.865 91.448) rotate(135)"/>
    <rect id="Rectángulo_4139" data-name="Rectángulo 4139" class="cls-1" width="17.751" height="27.894" transform="translate(48.415 19.724) rotate(135)"/>
    <path id="Trazado_1295" data-name="Trazado 1295" class="cls-1" d="M0,.011.011.005,0,0,0,.006Z" transform="translate(40.32 84.586) rotate(90)"/>
    <rect id="Rectángulo_4142" data-name="Rectángulo 4142" class="cls-1" width="17.751" height="27.894" transform="translate(12.552 87.862) rotate(-135)"/>
    <rect id="Rectángulo_4143" data-name="Rectángulo 4143" class="cls-1" width="17.751" height="27.894" transform="translate(28.687 104) rotate(-135)"/>
  </g>
</svg>
