<svg xmlns="http://www.w3.org/2000/svg" width="240" height="57.97" viewBox="0 0 240 57.97">
  <g id="logo-multiplica" transform="translate(-22.665 -9.04)">
    <g id="Grupo_168" data-name="Grupo 168" transform="translate(48.834 9.04)">
      <g id="Grupo_167" data-name="Grupo 167" transform="translate(0 0)">
        <path id="Trazado_1140" data-name="Trazado 1140" d="M177.62,17.725a4.726,4.726,0,1,1,9.452,0,4.726,4.726,0,1,1-9.452,0Z" transform="translate(-176.932 -12.311)" fill="#0a1f62"/>
        <path id="Trazado_1141" data-name="Trazado 1141" d="M175.214,10.6a5.254,5.254,0,0,0-1.566,3.85,5.413,5.413,0,1,0,10.827,0,5.442,5.442,0,0,0-9.261-3.85Zm.969,6.727a3.872,3.872,0,0,1-1.162-2.878,4.041,4.041,0,1,1,8.081,0,4.071,4.071,0,0,1-6.919,2.878Z" transform="translate(-173.648 -9.04)" fill="#0a1f62"/>
      </g>
    </g>
    <path id="Trazado_1142" data-name="Trazado 1142" d="M71.793,60.332a.833.833,0,0,1-.453.772q-1.8,1.029-3.982,2.378T62.79,66.313q-2.379,1.474-4.819,3.052t-4.694,3.052q.386,2.574.8,5.112t.931,4.788q1.1,5.012,4.116,5.016a5.939,5.939,0,0,0,2.475-.643,14.873,14.873,0,0,0,2.86-1.8c.172-.172.313-.161.417.033s.055.332-.161.419q-.77.577-1.8,1.252a17.3,17.3,0,0,1-2.186,1.22,19.234,19.234,0,0,1-2.344.934,7.28,7.28,0,0,1-2.219.386,2.819,2.819,0,0,1-2.862-1.7,18.236,18.236,0,0,1-1.124-4.793c-.171-1.241-.354-2.583-.546-4.016s-.4-2.9-.609-4.4q-3.986,2.636-7.812,5.336t-7.428,5.788c-.3.256-.739.677-1.316,1.252a24.61,24.61,0,0,0-1.705,1.9,15.879,15.879,0,0,0-1.447,2.09,3.781,3.781,0,0,0-.609,1.765c0,.257-.064.4-.2.45a7.015,7.015,0,0,1-.707-.866,1.781,1.781,0,0,1-.384-1,3.049,3.049,0,0,1,.609-1.674A13.1,13.1,0,0,1,31.61,87.4a24.116,24.116,0,0,1,2.248-1.96q1.288-1,2.637-1.961,3.538-2.506,7.1-5.015t7.3-4.95q-.321-2.122-.707-4.308t-.9-4.239a4.467,4.467,0,0,0-1.7-2.926,5.186,5.186,0,0,0-2.8-.74,11.27,11.27,0,0,0-2.863.417,8.958,8.958,0,0,0-2.86,1.318q-.514.256-.547,0c-.019-.169.074-.322.29-.449a26.027,26.027,0,0,1,4.4-1.833A15.843,15.843,0,0,1,48,60.011a3.855,3.855,0,0,1,3.216,1.222A8.281,8.281,0,0,1,52.5,65.347q.128,1.345.322,3.148t.385,3.279q8.55-5.784,16.779-12.085c.259-.213.388-.408.388-.58a1.78,1.78,0,0,0-.063-.515c-.045-.129.04-.192.254-.192s.473.245.77.739A2.5,2.5,0,0,1,71.793,60.332Z" transform="translate(-5.588 -40.807)" fill="#0a1f62"/>
    <g id="Grupo_169" data-name="Grupo 169" transform="translate(56.922 25.604)">
      <path id="Trazado_1143" data-name="Trazado 1143" d="M407.988,118.525a6.69,6.69,0,0,1-.731,3.51,3.045,3.045,0,0,1-2.775,1.3,3.014,3.014,0,0,1-2.776-1.33,6.747,6.747,0,0,1-.7-3.476V105.879H393.73v15.639a6.1,6.1,0,0,0,2.361,4.973q2.807,2.282,8.388,2.283,5.554,0,8.3-2.217a6.044,6.044,0,0,0,2.489-5.039V105.879h-7.276Z" transform="translate(-363.672 -105.658)" fill="#0a1f62"/>
      <path id="Trazado_1144" data-name="Trazado 1144" d="M858.844,108.4a5.565,5.565,0,0,0-2.392-2.006,5.88,5.88,0,0,0-2.425-.511H841.871v22.47H848.6V110.878h2.073a5.994,5.994,0,0,1,1.116.1,1.668,1.668,0,0,1,.816.378,1.6,1.6,0,0,1,.447.713,3.777,3.777,0,0,1,.14,1.123,2.167,2.167,0,0,1-.668,1.651,3.042,3.042,0,0,1-2.134.628,4.538,4.538,0,0,1-.493-.031c-.2-.021-.357-.042-.464-.063l1.343,4.6c.679.092,1.116.142,1.3.152s.406.02.644.02a7.539,7.539,0,0,0,5.26-1.907,6.681,6.681,0,0,0,2.107-5.212,9.42,9.42,0,0,0-.336-2.639A7.082,7.082,0,0,0,858.844,108.4Z" transform="translate(-734.139 -105.658)" fill="#0a1f62"/>
      <path id="Trazado_1145" data-name="Trazado 1145" d="M642.374,111.025h6.605v17.325h7.271V111.025h6.606v-5.146H642.374Z" transform="translate(-569.22 -105.658)" fill="#0a1f62"/>
      <rect id="Rectángulo_94" data-name="Rectángulo 94" width="7.306" height="22.471" transform="translate(95.834 0.221)" fill="#0a1f62"/>
      <path id="Trazado_1146" data-name="Trazado 1146" d="M550.669,105.879h-7.3v22.471H560.3v-5.184h-9.635Z" transform="translate(-487.373 -105.658)" fill="#0a1f62"/>
      <path id="Trazado_1147" data-name="Trazado 1147" d="M233.1,119.262l-3.031-13.383h-1.8c-.054.031-.1.062-.156.094,0,0-4.559,2.824-4.56,2.827l-3.116,1.972-.126,11.164a13.451,13.451,0,0,0,1.853-1.23c.628-.526,1.632,1.074,2.183,1.467a19.876,19.876,0,0,1,1.644,1.358V112.716l3.954,15.633h6.125l4.053-15.665v15.665h5.96v-22.47H236.45Z" transform="translate(-220.313 -105.658)" fill="#0a1f62"/>
      <path id="Trazado_1148" data-name="Trazado 1148" d="M1141.328,124.045h.552s.034.248.09.619c.135.121,1.063-1.74,1.063-1.74l14.146,0,.34-1.363q-.476.1-1.531.368c-.362.066-.894.153-1.6.263-.487.046-1,.089-1.546.134s-1.07.066-1.576.066a5.155,5.155,0,0,1-4.15-1.908,6.705,6.705,0,0,1-1.467-4.427,7.367,7.367,0,0,1,.383-2.367,6.25,6.25,0,0,1,1.115-2.028,5.141,5.141,0,0,1,1.785-1.378,5.437,5.437,0,0,1,2.333-.5c.506,0,1.039.026,1.59.068s1.066.092,1.531.137l3.126.648-.574-5.693a54.1,54.1,0,0,0-5.674-.34,18.148,18.148,0,0,0-5.463.68,11.83,11.83,0,0,0-3.442,1.873,10.155,10.155,0,0,0-2.965,3.731,12.044,12.044,0,0,0-1.021,5.129,12.279,12.279,0,0,0,1.052,5.231A10.189,10.189,0,0,0,1141.328,124.045Z" transform="translate(-979.255 -104.604)" fill="#0a1f62"/>
      <path id="Exclusión_1" data-name="Exclusión 1" d="M23.936,21.076A3.489,3.489,0,0,0,23,20.12a4.092,4.092,0,0,1-1.074-1.1,4.179,4.179,0,0,0-1.551-.934,21.83,21.83,0,0,0-2.364-.788c-1.6-.448-3.094-.745-3.109-.748H7.047L6.506,18.1H3.217L1.63,17.532,0,15.833c.407-.869.939-2.062,1.625-3.647.043-.1.2-.457.483-1.11q.646-1.489,2.167-4.983L6.923,0h8.8l2.81,7.354,2.375,6.214,3.028,7.509ZM11.1,5.218h0L8.7,11.548H13.52l-2.17-6.33H11.1Z" transform="translate(181.806 0.221)" fill="#0a1f62"/>
      <rect id="Rectángulo_95" data-name="Rectángulo 95" width="7.304" height="22.471" transform="translate(148.342 0.221)" fill="#0a1f62"/>
      <path id="Trazado_1151" data-name="Trazado 1151" d="M970.654,105.879h-7.306v22.471h16.939v-5.184h-9.633Z" transform="translate(-834.562 -105.658)" fill="#0a1f62"/>
    </g>
    <g id="Grupo_170" data-name="Grupo 170" transform="translate(55.431 24.526)">
      <path id="Trazado_1152" data-name="Trazado 1152" d="M398.661,112.317a6.668,6.668,0,0,1-.732,3.508,3.594,3.594,0,0,1-5.552-.032,6.743,6.743,0,0,1-.7-3.476V99.671H384.4v15.635a6.1,6.1,0,0,0,2.362,4.974q2.809,2.286,8.387,2.283,5.555,0,8.3-2.214a6.044,6.044,0,0,0,2.488-5.043V99.671h-7.274Z" transform="translate(-354.47 -99.448)" fill="#ffb301"/>
      <path id="Trazado_1153" data-name="Trazado 1153" d="M849.52,102.19a5.57,5.57,0,0,0-2.392-2.008,5.886,5.886,0,0,0-2.425-.511H832.547V122.14h6.728V104.667h2.072a5.753,5.753,0,0,1,1.116.1,1.678,1.678,0,0,1,.817.377,1.607,1.607,0,0,1,.447.712,3.843,3.843,0,0,1,.14,1.122,2.16,2.16,0,0,1-.668,1.651,3.044,3.044,0,0,1-2.133.63c-.128,0-.292-.012-.494-.032s-.358-.041-.465-.063l1.343,4.6c.68.092,1.117.142,1.3.152s.407.018.645.018a7.539,7.539,0,0,0,5.26-1.906,6.681,6.681,0,0,0,2.107-5.214,9.393,9.393,0,0,0-.337-2.637A7.081,7.081,0,0,0,849.52,102.19Z" transform="translate(-724.94 -99.448)" fill="#ffb301"/>
      <path id="Trazado_1154" data-name="Trazado 1154" d="M633.045,104.818h6.605V122.14h7.273V104.818h6.6V99.671H633.045Z" transform="translate(-560.017 -99.448)" fill="#ffb301"/>
      <rect id="Rectángulo_96" data-name="Rectángulo 96" width="7.305" height="22.469" transform="translate(95.71 0.223)" fill="#ffb301"/>
      <path id="Trazado_1155" data-name="Trazado 1155" d="M541.344,99.671h-7.3V122.14h16.937v-5.185h-9.634Z" transform="translate(-478.173 -99.448)" fill="#ffb301"/>
      <path id="Trazado_1156" data-name="Trazado 1156" d="M224.373,113.052l-3.031-13.381h-1.8c-.055.031-.1.063-.155.094,0,0-4.559,2.824-4.56,2.827l-3.116,1.973v13.679a13.64,13.64,0,0,0,1.855-1.231,2.791,2.791,0,0,1,2.186-.653,2.747,2.747,0,0,1,1.514.747v-10.6l3.954,15.632h6.123l4.054-15.665V122.14h5.96V99.671h-9.634Z" transform="translate(-211.709 -99.448)" fill="#ffb301"/>
      <path id="Trazado_1157" data-name="Trazado 1157" d="M1132,117.829s.912.853,1.052.965a10.626,10.626,0,0,0,1.541,1.01l1.009-1.975,4.239,0h8.1l.251-2.485q-.477.1-1.53.367c-.363.064-.9.154-1.6.262q-.729.067-1.546.137c-.54.041-1.069.064-1.575.064a5.148,5.148,0,0,1-4.151-1.907,6.7,6.7,0,0,1-1.465-4.428,7.365,7.365,0,0,1,.383-2.366,6.221,6.221,0,0,1,1.115-2.027,5.092,5.092,0,0,1,1.786-1.38,5.467,5.467,0,0,1,2.332-.493c.506,0,1.039.023,1.59.068s1.067.092,1.531.137l3.127.646-.576-5.694a54.5,54.5,0,0,0-5.673-.34,18.179,18.179,0,0,0-5.461.681,11.8,11.8,0,0,0-3.442,1.874,10.121,10.121,0,0,0-2.966,3.73,12.035,12.035,0,0,0-1.021,5.129,12.285,12.285,0,0,0,1.054,5.231A10.227,10.227,0,0,0,1132,117.829Z" transform="translate(-970.056 -98.386)" fill="#ffb301"/>
      <path id="Exclusión_2" data-name="Exclusión 2" d="M.823,21.459h0C.813,21.434.288,20.248,0,19.607L1.781,15.83c.432-.923.979-2.149,1.625-3.644.052-.118.274-.629.677-1.556l.016-.037.028-.064c.432-.994,1.084-2.5,1.928-4.435L8.7,0h8.8l2.809,7.353,2.331,5.854,3.007,7.4a5.129,5.129,0,0,0-3.98-1.545,7.368,7.368,0,0,0-2.3.358,6.386,6.386,0,0,0-1.414.677l-.068-.183-1.21-3.371H8.829L7.823,19.216H4.742v0l-2.1,0-.092.114c-.279.345-1.129,1.4-1.723,2.129ZM12.878,5.22h0l-2.394,6.328H15.3L13.132,5.22h-.253Z" transform="translate(179.9 0.223)" fill="#ffb301"/>
      <rect id="Rectángulo_97" data-name="Rectángulo 97" width="7.305" height="22.469" transform="translate(148.217 0.223)" fill="#ffb301"/>
      <path id="Trazado_1160" data-name="Trazado 1160" d="M961.337,99.671h-7.305V122.14h16.937v-5.185h-9.632Z" transform="translate(-825.368 -99.448)" fill="#ffb301"/>
    </g>
    <g id="Grupo_171" data-name="Grupo 171" transform="translate(213.152 44.971)">
      <path id="Trazado_1161" data-name="Trazado 1161" d="M1130.761,226.357h-1.383l.658-3.738.671-3.792-2.033,3.927-1.826,3.6H1125.4l-.542-3.627-.3-1.944-.309-2.022-1.374,7.593h-1.2l.742-4.187.426-2.423.446-2.521h2.162l.444,3.081.267,1.832.335,2.323.078-.144,3.64-7.088,2.153,0-.832,4.7Z" transform="translate(-1121.682 -217.073)" fill="#0a1f62"/>
      <path id="Trazado_1162" data-name="Trazado 1162" d="M1191.157,226.357h-5.87l.7-3.97.384-2.177.525-2.985h5.865l-.206,1.176h-4.318l-.483,2.749h3.817l-.2,1.128h-3.816l-.512,2.905h4.315l-.1.573Z" transform="translate(-1174.263 -217.073)" fill="#0a1f62"/>
      <path id="Trazado_1163" data-name="Trazado 1163" d="M1230.322,226.357h-1.784l-.755-1.67-.861-1.943-1.459,1.79-1.5,1.823h-1.73l4.093-4.777-1.021-2.133-1.043-2.221h1.8l.628,1.409.83,1.874,2.656-3.283h1.708l-1.716,2.028-1.008,1.188-1.05,1.217,1.017,2.164.55,1.164Z" transform="translate(-1204.807 -217.073)" fill="#0a1f62"/>
      <path id="Trazado_1164" data-name="Trazado 1164" d="M1274.869,226.357h-1.551l.719-4.064.4-2.3.489-2.767h1.547l-.727,4.136-.407,2.312Z" transform="translate(-1247.036 -217.073)" fill="#0a1f62"/>
      <path id="Trazado_1165" data-name="Trazado 1165" d="M1301.527,224.2l-.371,1.31c-.162.039-.341.074-.54.111s-.437.068-.722.095-.5.046-.663.049-.284.007-.377.007a5.53,5.53,0,0,1-1.831-.282,3.209,3.209,0,0,1-1.33-.883,3.26,3.26,0,0,1-.74-1.478,5.308,5.308,0,0,1,.014-2.066,6.387,6.387,0,0,1,.659-1.964,5.37,5.37,0,0,1,1.2-1.485,5.547,5.547,0,0,1,3.685-1.272,8.869,8.869,0,0,1,1.078.069c.376.045.742.105,1.1.178l-.052.575-.065.74c-.222-.066-.356-.107-.4-.124-.239-.066-.461-.115-.674-.153s-.407-.067-.593-.086-.384-.026-.6-.026a3.5,3.5,0,0,0-2.643,1.107,4.606,4.606,0,0,0-1.147,2.442,3.372,3.372,0,0,0,.34,2.506,2.025,2.025,0,0,0,.865.761,3.044,3.044,0,0,0,1.335.269c.191,0,.383-.008.583-.02s.411-.04.632-.078.417-.073.572-.109S1301.228,224.3,1301.527,224.2Z" transform="translate(-1264.843 -216.345)" fill="#0a1f62"/>
      <path id="Trazado_1166" data-name="Trazado 1166" d="M1347.694,216.345a3.937,3.937,0,0,1,3.236,1.286,3.28,3.28,0,0,1,.671,1.471,5.374,5.374,0,0,1-.02,1.964,6.375,6.375,0,0,1-.68,2,5.041,5.041,0,0,1-2.883,2.387,6.227,6.227,0,0,1-1.986.322,5.34,5.34,0,0,1-1.9-.322,3.17,3.17,0,0,1-1.371-.978,3.3,3.3,0,0,1-.648-1.443,5.3,5.3,0,0,1,.033-1.965,6.247,6.247,0,0,1,.7-2.025,5.087,5.087,0,0,1,1.248-1.488,5.21,5.21,0,0,1,1.669-.906A6.1,6.1,0,0,1,1347.694,216.345Zm-.2,1.173a3.489,3.489,0,0,0-2.495.96,4.512,4.512,0,0,0-1.3,2.588,3.373,3.373,0,0,0,.363,2.536,2.053,2.053,0,0,0,.867.746,3.1,3.1,0,0,0,1.316.254,3.786,3.786,0,0,0,1.378-.241,3.489,3.489,0,0,0,1.123-.7,4.609,4.609,0,0,0,1.292-2.591,4.445,4.445,0,0,0,.037-1.468,2.559,2.559,0,0,0-.417-1.109A2.484,2.484,0,0,0,1347.49,217.518Z" transform="translate(-1303.843 -216.345)" fill="#0a1f62"/>
      <path id="Trazado_1167" data-name="Trazado 1167" d="M1126.58,224.318l-.078.144-.334-2.323-.267-1.832-.444-3.08-2.162,0-.446,2.521-.426,2.424-.742,4.187h1.2l1.374-7.593.309,2.022.3,1.944.542,3.627h1.446l1.826-3.6,2.033-3.926-.671,3.792-.658,3.738h1.383l.78-4.432.832-4.7-2.153,0Z" transform="translate(-1121.682 -217.073)" fill="#0a1f62"/>
      <path id="Trazado_1168" data-name="Trazado 1168" d="M1229.127,223.824l-1.017-2.164,1.05-1.217,1.008-1.188,1.716-2.028-.874,0h-.833l-2.656,3.283-.83-1.874-.628-1.409h-1.8l1.043,2.221,1.022,2.133-4.094,4.777h1.73l1.5-1.823,1.459-1.79.861,1.943.754,1.67h1.784l-.646-1.368Z" transform="translate(-1204.808 -217.073)" fill="#0a1f62"/>
      <path id="Trazado_1169" data-name="Trazado 1169" d="M1274.442,219.993l-.4,2.3-.719,4.064h1.551l.474-2.684.407-2.312.727-4.136h-1.547Z" transform="translate(-1247.036 -217.073)" fill="#0a1f62"/>
      <path id="Trazado_1170" data-name="Trazado 1170" d="M1300.516,216.345a5.547,5.547,0,0,0-3.685,1.272,5.37,5.37,0,0,0-1.2,1.485,6.387,6.387,0,0,0-.659,1.964,5.308,5.308,0,0,0-.014,2.066,3.26,3.26,0,0,0,.74,1.478,3.209,3.209,0,0,0,1.33.883,5.53,5.53,0,0,0,1.831.282c.093,0,.219,0,.377-.007s.381-.021.663-.049.525-.056.722-.095.378-.071.54-.111l.371-1.31c-.3.093-.525.155-.68.193s-.346.072-.572.109-.435.063-.632.078-.392.02-.583.02a3.044,3.044,0,0,1-1.335-.269,2.025,2.025,0,0,1-.865-.761,3.372,3.372,0,0,1-.34-2.506,4.606,4.606,0,0,1,1.147-2.442,3.5,3.5,0,0,1,2.643-1.107c.214,0,.416.008.6.026s.383.046.593.086.435.087.674.153c.046.018.18.058.4.124l.065-.74.052-.575c-.355-.073-.721-.133-1.1-.178A8.869,8.869,0,0,0,1300.516,216.345Z" transform="translate(-1264.843 -216.345)" fill="#0a1f62"/>
      <path id="Trazado_1171" data-name="Trazado 1171" d="M1188.239,218.4h4.318l.206-1.176H1186.9l-.525,2.985-.384,2.177-.7,3.97h5.87l.1-.6.1-.573h-4.315l.512-2.905h3.816l.2-1.128h-3.817Z" transform="translate(-1174.263 -217.073)" fill="#0a1f62"/>
      <path id="Trazado_1172" data-name="Trazado 1172" d="M1351.6,219.1a3.28,3.28,0,0,0-.671-1.471,3.937,3.937,0,0,0-3.236-1.286,6.1,6.1,0,0,0-1.934.3,5.21,5.21,0,0,0-1.669.906,5.087,5.087,0,0,0-1.248,1.488,6.247,6.247,0,0,0-.7,2.025,5.3,5.3,0,0,0-.033,1.965,3.3,3.3,0,0,0,.648,1.443,3.17,3.17,0,0,0,1.371.978,5.34,5.34,0,0,0,1.9.322,6.227,6.227,0,0,0,1.986-.322,5.041,5.041,0,0,0,2.883-2.387,6.375,6.375,0,0,0,.68-2A5.374,5.374,0,0,0,1351.6,219.1Zm-1.57,1.964a4.609,4.609,0,0,1-1.292,2.591,3.489,3.489,0,0,1-1.123.7,3.786,3.786,0,0,1-1.378.241,3.1,3.1,0,0,1-1.316-.254,2.053,2.053,0,0,1-.867-.746,3.373,3.373,0,0,1-.363-2.536,4.512,4.512,0,0,1,1.3-2.588,3.489,3.489,0,0,1,2.495-.96,2.484,2.484,0,0,1,2.162.972,2.559,2.559,0,0,1,.417,1.109A4.445,4.445,0,0,1,1350.032,221.067Z" transform="translate(-1303.843 -216.345)" fill="#0a1f62"/>
    </g>
    <g id="Grupo_173" data-name="Grupo 173" transform="translate(22.665 16.423)">
      <g id="Grupo_172" data-name="Grupo 172" transform="translate(0 0)">
        <path id="Trazado_1173" data-name="Trazado 1173" d="M71.793,60.332a.833.833,0,0,1-.453.772q-1.8,1.029-3.982,2.378T62.79,66.313q-2.379,1.474-4.819,3.052t-4.694,3.052q.386,2.574.8,5.112t.931,4.788q1.1,5.012,4.116,5.016a5.939,5.939,0,0,0,2.475-.643,14.873,14.873,0,0,0,2.86-1.8c.172-.172.313-.161.417.033s.055.332-.161.419q-.77.577-1.8,1.252a17.3,17.3,0,0,1-2.186,1.22,19.234,19.234,0,0,1-2.344.934,7.28,7.28,0,0,1-2.219.386,2.819,2.819,0,0,1-2.862-1.7,18.236,18.236,0,0,1-1.124-4.793c-.171-1.241-.354-2.583-.546-4.016s-.4-2.9-.609-4.4q-3.986,2.636-7.812,5.336t-7.428,5.788c-.3.256-.739.677-1.316,1.252a24.61,24.61,0,0,0-1.705,1.9,15.879,15.879,0,0,0-1.447,2.09,3.781,3.781,0,0,0-.609,1.765c0,.257-.064.4-.2.45a7.015,7.015,0,0,1-.707-.866,1.781,1.781,0,0,1-.384-1,3.049,3.049,0,0,1,.609-1.674A13.1,13.1,0,0,1,31.61,87.4a24.116,24.116,0,0,1,2.248-1.96q1.288-1,2.637-1.961,3.538-2.506,7.1-5.015t7.3-4.95q-.321-2.122-.707-4.308t-.9-4.239a4.467,4.467,0,0,0-1.7-2.926,5.186,5.186,0,0,0-2.8-.74,11.27,11.27,0,0,0-2.863.417,8.958,8.958,0,0,0-2.86,1.318q-.514.256-.547,0c-.019-.169.074-.322.29-.449a26.027,26.027,0,0,1,4.4-1.833A15.843,15.843,0,0,1,48,60.011a3.855,3.855,0,0,1,3.216,1.222A8.281,8.281,0,0,1,52.5,65.347q.128,1.345.322,3.148t.385,3.279q8.55-5.784,16.779-12.085c.259-.213.388-.408.388-.58a1.78,1.78,0,0,0-.063-.515c-.045-.129.04-.192.254-.192s.473.245.77.739A2.5,2.5,0,0,1,71.793,60.332Z" transform="translate(-28.253 -57.23)" fill="#0a1f62"/>
        <path id="Trazado_1174" data-name="Trazado 1174" d="M63.781,52.2a1.3,1.3,0,0,0-.237.744,1.357,1.357,0,0,0,.047.3c-4.9,3.746-9.945,7.394-15.031,10.874-.077-.648-.158-1.337-.158-1.337l-.32-3.136a9.264,9.264,0,0,0-1.534-4.728,4.962,4.962,0,0,0-4.134-1.669,17.109,17.109,0,0,0-5.141.793,27.359,27.359,0,0,0-4.6,1.916c-.016.008-.033.02-.05.029a1.623,1.623,0,0,0-.852,1.6,1.3,1.3,0,0,0,.676,1,1.688,1.688,0,0,0,1.557-.1.9.9,0,0,0,.148-.088,7.809,7.809,0,0,1,2.488-1.144,10.2,10.2,0,0,1,2.563-.378,4.012,4.012,0,0,1,2.177.561,3.49,3.49,0,0,1,1.181,2.2c.339,1.351.634,2.75.89,4.176,0,0,.379,2.327.582,3.55-2.249,1.481-4.5,3-6.693,4.546l-7.11,5.019c-.913.652-1.815,1.32-2.677,1.989a24.945,24.945,0,0,0-2.36,2.059,14.17,14.17,0,0,0-1.715,2.034,4.167,4.167,0,0,0-.814,2.331,2.913,2.913,0,0,0,.6,1.671,8.093,8.093,0,0,0,.835,1.022,1.166,1.166,0,0,0,1.208.28,1.518,1.518,0,0,0,.986-1.559,2.648,2.648,0,0,1,.453-1.18,14.807,14.807,0,0,1,1.34-1.939c.532-.652,1.077-1.259,1.624-1.807s.981-.96,1.252-1.189c2.362-2.025,4.831-3.951,7.338-5.72,2.025-1.428,4.119-2.858,6.234-4.275.174,1.238.353,2.542.353,2.542l.546,4.021a18.913,18.913,0,0,0,1.213,5.1,3.94,3.94,0,0,0,3.935,2.408,8.328,8.328,0,0,0,2.578-.442,20.3,20.3,0,0,0,2.487-.99,18.82,18.82,0,0,0,2.328-1.3c.685-.449,1.3-.879,1.843-1.283a1.458,1.458,0,0,0,.622-.736,1.382,1.382,0,0,0,.077-.456,1.5,1.5,0,0,0-.2-.742,1.4,1.4,0,0,0-1.035-.748,1.436,1.436,0,0,0-1.237.454,1.322,1.322,0,0,1,.106-.094,13.826,13.826,0,0,1-2.631,1.66,4.862,4.862,0,0,1-1.98.536c-.517,0-2.079,0-2.969-4.095-.34-1.481-.649-3.069-.924-4.731,0,0-.461-2.941-.681-4.354.945-.613,4.052-2.637,4.052-2.637l4.8-3.041,4.563-2.829c1.429-.882,2.758-1.674,3.954-2.357a2.013,2.013,0,0,0,1.039-1.788,3.512,3.512,0,0,0-.622-1.8c-.218-.354-.795-1.3-1.772-1.3A1.4,1.4,0,0,0,63.781,52.2Z" transform="translate(-22.665 -51.638)" fill="#0a1f62"/>
      </g>
    </g>
    <g id="Grupo_174" data-name="Grupo 174" transform="translate(54.199 59.99)">
      <path id="Trazado_1175" data-name="Trazado 1175" d="M209.544,308.326a1.821,1.821,0,0,1-.773,1.141,3.728,3.728,0,0,1-2.126.549c-.141,0-.287,0-.446-.013s-.336-.03-.537-.057c-.352-.054-.708-.124-1.062-.2l.056-1.035a5.183,5.183,0,0,0,.926.3,4.227,4.227,0,0,0,1.008.126,3.612,3.612,0,0,0,.5-.041,1.882,1.882,0,0,0,.475-.143,1.218,1.218,0,0,0,.377-.264.789.789,0,0,0,.2-.388.8.8,0,0,0-.165-.621,3.741,3.741,0,0,0-.625-.6c-.248-.192-.491-.384-.73-.581a5.027,5.027,0,0,1-.666-.646,1.783,1.783,0,0,1-.337-.6,1.214,1.214,0,0,1-.036-.642,1.722,1.722,0,0,1,.883-1.182,3.7,3.7,0,0,1,1.9-.434c.266,0,.536.007.82.031s.561.046.84.08l-.011,1.049c-.118-.039-.244-.077-.383-.115s-.249-.066-.331-.086a4.571,4.571,0,0,0-.843-.079,2.016,2.016,0,0,0-.918.182,1.078,1.078,0,0,0-.387.291.833.833,0,0,0-.181.351.8.8,0,0,0,.2.653,4.552,4.552,0,0,0,.644.61c.249.191.495.381.743.568a4.366,4.366,0,0,1,.655.632,1.9,1.9,0,0,1,.31.562A1.2,1.2,0,0,1,209.544,308.326Z" transform="translate(-204.6 -302.996)" fill="#0a1f62"/>
      <path id="Trazado_1176" data-name="Trazado 1176" d="M260.111,313.048a2.516,2.516,0,0,1,1.9.62,1.452,1.452,0,0,1,.347.668,2.127,2.127,0,0,1-.01.9l-.124.436h-4.2L258,315.8a1.457,1.457,0,0,0,.242,1.259,1.565,1.565,0,0,0,1.305.494c.146,0,.3,0,.455-.012s.316-.03.486-.056.336-.062.517-.1.37-.094.573-.154l-.342.905c-.335.062-.66.108-.972.142a9.433,9.433,0,0,1-1.009.052,3.686,3.686,0,0,1-1.272-.189,2.079,2.079,0,0,1-.842-.544,1.768,1.768,0,0,1-.423-.866,2.739,2.739,0,0,1,0-1.038,3.362,3.362,0,0,1,.8-1.622,2.845,2.845,0,0,1,.578-.487,3.383,3.383,0,0,1,.911-.392A4.115,4.115,0,0,1,260.111,313.048Zm1.023,2.018a1.442,1.442,0,0,0,.034-.4.934.934,0,0,0-.291-.686,1.252,1.252,0,0,0-.853-.245,2.015,2.015,0,0,0-1.165.349,1.767,1.767,0,0,0-.71.979Z" transform="translate(-247.648 -311.306)" fill="#0a1f62"/>
      <path id="Trazado_1177" data-name="Trazado 1177" d="M312.024,313.884a2.77,2.77,0,0,1,.423-.4,1.8,1.8,0,0,1,.5-.282,2.274,2.274,0,0,1,.843-.151,2.308,2.308,0,0,1,.465.052l-.073.956-.265-.059a1.6,1.6,0,0,0-.377-.039,1.669,1.669,0,0,0-1.23.488,1.959,1.959,0,0,0-.544,1.059l-.258,1.283-.283,1.428h-1.3l.489-2.467.516-2.591h1.249Z" transform="translate(-291.668 -311.306)" fill="#0a1f62"/>
      <path id="Trazado_1178" data-name="Trazado 1178" d="M355.454,317.713l2.48-4.05,1.349,0-1.622,2.462-1.715,2.6h-1.415L354,316.593l-.348-1.3-.4-1.625H354.6Z" transform="translate(-327.482 -311.814)" fill="#0a1f62"/>
      <path id="Trazado_1179" data-name="Trazado 1179" d="M405.463,310.287h-1.3l.5-2.494.508-2.557h1.3l-.5,2.5Zm1.2-6.022h-1.333l.162-.809h1.33Z" transform="translate(-369.574 -303.377)" fill="#0a1f62"/>
      <path id="Trazado_1180" data-name="Trazado 1180" d="M443.725,314.14a5.5,5.5,0,0,0-.679-.2,3.571,3.571,0,0,0-.8-.085,2.055,2.055,0,0,0-1.494.54,2.328,2.328,0,0,0-.678,1.33,1.578,1.578,0,0,0,.175,1.262,1.476,1.476,0,0,0,1.3.528c.1,0,.2,0,.316-.014s.252-.031.427-.057a6.411,6.411,0,0,0,.768-.191l-.308.92a8.221,8.221,0,0,1-1.529.151,3.569,3.569,0,0,1-1.239-.185,1.988,1.988,0,0,1-.82-.537,1.7,1.7,0,0,1-.406-.878,3.186,3.186,0,0,1,.025-1.091,3.694,3.694,0,0,1,.4-1.1,2.679,2.679,0,0,1,.722-.815,3.2,3.2,0,0,1,1.028-.5,4.605,4.605,0,0,1,1.317-.171,6.293,6.293,0,0,1,1.538.194Z" transform="translate(-398.143 -311.306)" fill="#0a1f62"/>
      <path id="Trazado_1181" data-name="Trazado 1181" d="M489.1,310.287h-1.3l.5-2.494.507-2.557h1.3l-.5,2.5Zm1.2-6.022h-1.33l.162-.809h1.331Z" transform="translate(-438.709 -303.377)" fill="#0a1f62"/>
      <path id="Trazado_1182" data-name="Trazado 1182" d="M525.953,313.048a2.645,2.645,0,0,1,2.188.813,2.109,2.109,0,0,1,.347,1.826,3.105,3.105,0,0,1-1.067,1.8,3.765,3.765,0,0,1-2.519.835,2.655,2.655,0,0,1-2.181-.8,2.115,2.115,0,0,1-.355-1.833,3.087,3.087,0,0,1,1.067-1.8A3.754,3.754,0,0,1,525.953,313.048Zm1.232,2.639a1.663,1.663,0,0,0-.147-1.3,1.356,1.356,0,0,0-1.246-.531,2.06,2.06,0,0,0-1.464.54,2.331,2.331,0,0,0-.662,1.29,2.3,2.3,0,0,0-.043.708,1.3,1.3,0,0,0,.2.582,1.046,1.046,0,0,0,.471.4,1.786,1.786,0,0,0,.77.143,2.343,2.343,0,0,0,.815-.136,1.846,1.846,0,0,0,.626-.387,2.078,2.078,0,0,0,.436-.59A2.714,2.714,0,0,0,527.185,315.687Z" transform="translate(-467.237 -311.306)" fill="#0a1f62"/>
      <path id="Trazado_1183" data-name="Trazado 1183" d="M582.566,317.061a1.174,1.174,0,0,1-.271.547,1.641,1.641,0,0,1-.524.389,3.038,3.038,0,0,1-.743.242,4.073,4.073,0,0,1-.808.086,3.441,3.441,0,0,1-.382-.012c-.089-.007-.23-.016-.418-.032s-.321-.038-.415-.053-.261-.052-.505-.106l.021-.924c.051.019.177.065.379.134.147.048.275.085.387.115a3.623,3.623,0,0,0,.4.077,3.49,3.49,0,0,0,.421.026,1.867,1.867,0,0,0,.4-.044,1.626,1.626,0,0,0,.385-.126.591.591,0,0,0,.322-.4c.042-.213-.093-.454-.4-.726-.317-.244-.623-.491-.929-.745a2.423,2.423,0,0,1-.464-.549,1.014,1.014,0,0,1-.093-.683,1.262,1.262,0,0,1,.208-.471,1.431,1.431,0,0,1,.46-.415,2.4,2.4,0,0,1,.676-.258,4.236,4.236,0,0,1,.93-.088c.237,0,.477.013.719.035s.49.063.756.116l-.023.88a2.833,2.833,0,0,0-.57-.172c-.193-.037-.337-.06-.426-.072a3.256,3.256,0,0,0-.335-.016,1.981,1.981,0,0,0-.349.028,1.389,1.389,0,0,0-.322.095.538.538,0,0,0-.37.4c-.039.189.1.417.409.681s.62.522.938.777a2.066,2.066,0,0,1,.453.6A1.017,1.017,0,0,1,582.566,317.061Z" transform="translate(-513.694 -311.306)" fill="#0a1f62"/>
      <path id="Trazado_1184" data-name="Trazado 1184" d="M704.684,304.513h-3.627l-.206,1.027-.2,1.018h3.224l-.168.834h-3.222l-.6,3.042h-1.408l.633-3.181.3-1.509.421-2.11h5.033Z" transform="translate(-612.873 -303.523)" fill="#0a1f62"/>
      <path id="Trazado_1185" data-name="Trazado 1185" d="M753.725,310.287h-1.3l.5-2.494.508-2.557h1.3l-.5,2.5Zm1.2-6.022h-1.332l.159-.809h1.331Z" transform="translate(-657.47 -303.377)" fill="#0a1f62"/>
      <path id="Trazado_1186" data-name="Trazado 1186" d="M788.176,314.069a2.17,2.17,0,0,1,.772-.675,3.5,3.5,0,0,1,1.641-.346,3.978,3.978,0,0,1,.886.088,1.75,1.75,0,0,1,.663.284,1,1,0,0,1,.376.512,1.481,1.481,0,0,1,.018.768l-.367,1.833-.332,1.682h-1.3l.323-1.619.324-1.632a.692.692,0,0,0-.263-.773,1.441,1.441,0,0,0-.9-.234,2.493,2.493,0,0,0-.914.147,1.662,1.662,0,0,0-.683.505,3.181,3.181,0,0,0-.647,1.5l-.2,1.02-.218,1.09h-1.3l1.005-5.058h1.3Z" transform="translate(-685.27 -311.306)" fill="#0a1f62"/>
      <path id="Trazado_1187" data-name="Trazado 1187" d="M849.6,318.216h-1.25l.271-1.346.282-1.428a2.228,2.228,0,0,1-.671.276q-.024.009-.888.224a4.769,4.769,0,0,0-1.01.347.983.983,0,0,0-.557.651.525.525,0,0,0,.028.327.534.534,0,0,0,.2.23,1.056,1.056,0,0,0,.353.127,2.562,2.562,0,0,0,.443.038,3.323,3.323,0,0,0,.452-.025,4.43,4.43,0,0,0,.636-.147l-.356.744c-.152.021-.352.039-.6.06s-.453.031-.613.031a2.238,2.238,0,0,1-1.523-.417.93.93,0,0,1-.262-.446,1.436,1.436,0,0,1,.367-1.295,2.28,2.28,0,0,1,.69-.461,6.591,6.591,0,0,1,1.267-.375l.8-.162a4.558,4.558,0,0,0,.936-.285.733.733,0,0,0,.466-.5.443.443,0,0,0-.047-.351.558.558,0,0,0-.278-.206,1.8,1.8,0,0,0-.36-.09,2.568,2.568,0,0,0-.393-.026,4.955,4.955,0,0,0-.544.031c-.193.021-.41.053-.65.1a6.137,6.137,0,0,0-.632.146c-.2.074-.349.128-.446.154l.285-.818c.158-.032.345-.067.569-.1s.441-.072.655-.1a9.175,9.175,0,0,1,1.139-.07,5,5,0,0,1,.991.088,1.869,1.869,0,0,1,.7.27.911.911,0,0,1,.315.978l-.4,2.027Z" transform="translate(-733.589 -311.306)" fill="#0a1f62"/>
      <path id="Trazado_1188" data-name="Trazado 1188" d="M901.368,314.069a2.263,2.263,0,0,1,.773-.675,3.515,3.515,0,0,1,1.644-.346,4,4,0,0,1,.886.088,1.739,1.739,0,0,1,.66.284,1.045,1.045,0,0,1,.385.512,1.5,1.5,0,0,1,.011.768l-.362,1.833-.339,1.682h-1.3l.323-1.619.325-1.632a.7.7,0,0,0-.262-.773,1.454,1.454,0,0,0-.9-.234,2.532,2.532,0,0,0-.917.147,1.684,1.684,0,0,0-.68.505,3.129,3.129,0,0,0-.645,1.5l-.206,1.02-.216,1.09h-1.3l1-5.058h1.3Z" transform="translate(-778.847 -311.306)" fill="#0a1f62"/>
      <path id="Trazado_1189" data-name="Trazado 1189" d="M964.256,314.14a5.629,5.629,0,0,0-.681-.2,3.548,3.548,0,0,0-.8-.085,2.063,2.063,0,0,0-1.5.54,2.339,2.339,0,0,0-.678,1.33,1.568,1.568,0,0,0,.175,1.262,1.477,1.477,0,0,0,1.305.528c.1,0,.206,0,.316-.014s.251-.031.427-.057a6.2,6.2,0,0,0,.765-.191l-.311.92a8.088,8.088,0,0,1-1.521.151,3.588,3.588,0,0,1-1.243-.185,1.983,1.983,0,0,1-.82-.537,1.728,1.728,0,0,1-.4-.878,2.969,2.969,0,0,1,.024-1.091,3.724,3.724,0,0,1,.4-1.1,2.689,2.689,0,0,1,.724-.815,3.178,3.178,0,0,1,1.025-.5,4.621,4.621,0,0,1,1.318-.171,6.32,6.32,0,0,1,1.539.194Z" transform="translate(-828.45 -311.306)" fill="#0a1f62"/>
      <path id="Trazado_1190" data-name="Trazado 1190" d="M1009.657,310.287h-1.3l.5-2.494.5-2.557h1.3l-.49,2.5Zm1.195-6.022h-1.328l.16-.809h1.33Z" transform="translate(-869.043 -303.377)" fill="#0a1f62"/>
      <path id="Trazado_1191" data-name="Trazado 1191" d="M1046.328,313.048a2.51,2.51,0,0,1,1.9.62,1.406,1.406,0,0,1,.351.668,2.149,2.149,0,0,1-.012.9l-.121.436h-4.2l-.027.125a1.464,1.464,0,0,0,.242,1.259,1.577,1.577,0,0,0,1.306.494c.146,0,.3,0,.455-.012s.318-.03.488-.056.338-.062.516-.1.368-.094.573-.154l-.341.905c-.34.062-.661.108-.973.142a9.454,9.454,0,0,1-1.013.052,3.67,3.67,0,0,1-1.267-.189,2.04,2.04,0,0,1-.841-.544,1.756,1.756,0,0,1-.425-.866,2.584,2.584,0,0,1,0-1.038,3.545,3.545,0,0,1,.362-1,3.4,3.4,0,0,1,.442-.622,2.754,2.754,0,0,1,.578-.487,3.394,3.394,0,0,1,.91-.392A4.113,4.113,0,0,1,1046.328,313.048Zm1.027,2.018a1.568,1.568,0,0,0,.035-.4.942.942,0,0,0-.29-.686,1.257,1.257,0,0,0-.854-.245,2.022,2.022,0,0,0-1.167.349,1.777,1.777,0,0,0-.706.979Z" transform="translate(-897.595 -311.306)" fill="#0a1f62"/>
      <path id="Trazado_1192" data-name="Trazado 1192" d="M1098.264,313.884a2.947,2.947,0,0,1,.419-.4,1.873,1.873,0,0,1,.5-.282,2.265,2.265,0,0,1,.843-.151,2.314,2.314,0,0,1,.464.052l-.075.956-.263-.059a1.6,1.6,0,0,0-.376-.039,1.673,1.673,0,0,0-1.232.488,1.987,1.987,0,0,0-.547,1.059l-.253,1.283-.286,1.428h-1.3l.492-2.467.516-2.591h1.247Z" transform="translate(-941.633 -311.306)" fill="#0a1f62"/>
      <path id="Trazado_1193" data-name="Trazado 1193" d="M1142.439,313.048a2.647,2.647,0,0,1,2.189.813,2.121,2.121,0,0,1,.347,1.826,3.093,3.093,0,0,1-1.068,1.8,3.766,3.766,0,0,1-2.518.835,2.651,2.651,0,0,1-2.182-.8,2.123,2.123,0,0,1-.356-1.833,3.1,3.1,0,0,1,1.066-1.8A3.771,3.771,0,0,1,1142.439,313.048Zm1.237,2.639a1.68,1.68,0,0,0-.151-1.3,1.354,1.354,0,0,0-1.246-.531,2.061,2.061,0,0,0-1.464.54,2.325,2.325,0,0,0-.663,1.29,2.357,2.357,0,0,0-.042.708,1.362,1.362,0,0,0,.2.582,1.049,1.049,0,0,0,.473.4,1.774,1.774,0,0,0,.771.143,2.327,2.327,0,0,0,.813-.136,1.9,1.9,0,0,0,.626-.387,2.172,2.172,0,0,0,.438-.59A2.872,2.872,0,0,0,1143.676,315.687Z" transform="translate(-976.871 -311.306)" fill="#0a1f62"/>
      <path id="Trazado_1194" data-name="Trazado 1194" d="M1199.046,317.061a1.188,1.188,0,0,1-.27.547,1.637,1.637,0,0,1-.522.389,3.124,3.124,0,0,1-.744.242,4.078,4.078,0,0,1-.813.086,3.457,3.457,0,0,1-.379-.012c-.089-.007-.227-.016-.413-.032s-.326-.038-.42-.053-.261-.052-.5-.106l.023-.924c.047.019.175.065.379.134.147.048.275.085.39.115a3.659,3.659,0,0,0,.4.077,3.39,3.39,0,0,0,.419.026,1.837,1.837,0,0,0,.4-.044,1.675,1.675,0,0,0,.386-.126.6.6,0,0,0,.32-.4c.044-.213-.089-.454-.4-.726-.314-.244-.626-.491-.932-.745a2.369,2.369,0,0,1-.459-.549,1.014,1.014,0,0,1-.094-.683,1.24,1.24,0,0,1,.208-.471,1.428,1.428,0,0,1,.461-.415,2.317,2.317,0,0,1,.677-.258,4.135,4.135,0,0,1,.924-.088c.241,0,.479.013.719.035s.489.063.761.116l-.026.88a2.875,2.875,0,0,0-.568-.172c-.194-.037-.334-.06-.431-.072a3.1,3.1,0,0,0-.331-.016,1.923,1.923,0,0,0-.347.028,1.372,1.372,0,0,0-.326.095.532.532,0,0,0-.37.4c-.041.189.1.417.407.681s.623.522.94.777a2.148,2.148,0,0,1,.455.6A1.03,1.03,0,0,1,1199.046,317.061Z" transform="translate(-1023.322 -311.306)" fill="#0a1f62"/>
    </g>
  </g>
</svg>
