<svg xmlns="http://www.w3.org/2000/svg" width="240" height="52.877" viewBox="0 0 240 52.877">
  <g id="logo-jpsofiexpress" transform="translate(-11.521 -16.683)">
    <rect id="Rectángulo_91" data-name="Rectángulo 91" width="192.434" height="43.886" transform="translate(59.088 16.683)" fill="#0b2d72"/>
    <path id="Trazado_1043" data-name="Trazado 1043" d="M835.744,133.373v0Z" transform="translate(-663.208 -93.888)" fill="#fff"/>
    <path id="Trazado_1044" data-name="Trazado 1044" d="M575.62,111h6.754l2.394-15.914h-6.886Z" transform="translate(-453.9 -63.085)" fill="#fff"/>
    <path id="Trazado_1045" data-name="Trazado 1045" d="M588.679,58.9h6.875l.933-5.272h-6.915Z" transform="translate(-464.408 -29.731)" fill="#fff"/>
    <g id="Grupo_159" data-name="Grupo 159" transform="translate(245.283 28.594)">
      <path id="Trazado_1046" data-name="Trazado 1046" d="M1208.132,77.7a3.394,3.394,0,0,1,.628-.053,1.036,1.036,0,0,1,.733.207.632.632,0,0,1,.2.482.666.666,0,0,1-.478.647V79a.633.633,0,0,1,.372.512,4.059,4.059,0,0,0,.2.7h-.338a3.313,3.313,0,0,1-.169-.606c-.075-.35-.211-.482-.508-.493h-.309v1.1h-.327Zm.327,1.156h.335c.349,0,.571-.192.571-.482,0-.328-.237-.471-.583-.475a1.342,1.342,0,0,0-.323.03Z" transform="translate(-1208.132 -77.652)" fill="#fff"/>
    </g>
    <path id="Trazado_1047" data-name="Trazado 1047" d="M1201.931,77.335a2.181,2.181,0,1,0-2.18-2.181,2.18,2.18,0,0,0,2.18,2.181m0-.223a1.958,1.958,0,1,1,1.956-1.958,1.957,1.957,0,0,1-1.956,1.958" transform="translate(-956.106 -45.294)" fill="#fff" fill-rule="evenodd"/>
    <path id="Trazado_1048" data-name="Trazado 1048" d="M637.487,53.838l-.013.033L634.045,77.8l18.669.007L655.368,75l5.652,8.725h8.729L660.43,69.64l7.405-7.758-8.4-.041-2.5,2.645-1.767-2.62H643.581l.346-2.787,7.747,0,.847-5.236ZM650.76,68.251l1.064,1.59-1.911,2.125-7.729-.026.52-3.689Z" transform="translate(-500.912 -29.897)" fill="#fff" fill-rule="evenodd"/>
    <path id="Trazado_1049" data-name="Trazado 1049" d="M499.659,54.084a6.75,6.75,0,0,0-5.308,5.345,20.05,20.05,0,0,1-.268,2.649h-4.236l-.866,6.42h4.08l-1.178,9.523h7.241l1.365-9.505H505.1l.942-6.384-4.579.025.427-2.966,4.458-.007.869-5.078Z" transform="translate(-384.186 -30.095)" fill="#fff" fill-rule="evenodd"/>
    <path id="Trazado_1050" data-name="Trazado 1050" d="M293.922,72.687a24.889,24.889,0,0,0,5.674,2.894,14.98,14.98,0,0,0,5.229,1,11.392,11.392,0,0,0,7.621-2.449,7.854,7.854,0,0,0,2.893-6.4,6.536,6.536,0,0,0-1-3.729,7.406,7.406,0,0,0-3.17-2.5l-1.391-.668c-.167-.056-.334-.111-.612-.222-.89-.446-1.335-.779-1.335-1.169a.876.876,0,0,1,.389-.723,1.415,1.415,0,0,1,.89-.278,4.338,4.338,0,0,1,2,.612,11.251,11.251,0,0,1,2.281,1.67l3.727-6.233a20.235,20.235,0,0,0-4.617-2.17,15.866,15.866,0,0,0-4.561-.668,10.706,10.706,0,0,0-7.176,2.337,7.332,7.332,0,0,0-2.781,5.9,5.941,5.941,0,0,0,1,3.4,8.43,8.43,0,0,0,3.059,2.56l1.78.89c0,.056.056.056.167.111,1.057.557,1.558,1.058,1.558,1.5a.794.794,0,0,1-.334.668,1.539,1.539,0,0,1-.89.278,6.107,6.107,0,0,1-2.948-.89,15.244,15.244,0,0,1-3.337-2.616l-4.116,6.9Z" transform="translate(-227.233 -28.136)" fill="#fff" fill-rule="evenodd"/>
    <path id="Trazado_1051" data-name="Trazado 1051" d="M409.474,108.553a9.5,9.5,0,0,0,3.918-.794,8.32,8.32,0,0,0,3.071-2.276,8.54,8.54,0,0,0,1.588-2.779,9.5,9.5,0,0,0,.556-3.283,7,7,0,0,0-2.2-5.321,8.082,8.082,0,0,0-5.718-2.038,9.471,9.471,0,0,0-3.891.794,8.476,8.476,0,0,0-3.071,2.276,8.884,8.884,0,0,0-1.615,2.779,10.151,10.151,0,0,0-.53,3.283,7.508,7.508,0,0,0,.635,3.071,6.53,6.53,0,0,0,1.747,2.435,7.1,7.1,0,0,0,2.462,1.4,9.949,9.949,0,0,0,3.044.45Zm.847-11.277a2.474,2.474,0,0,1,1.88.741,2.573,2.573,0,0,1,.741,1.906,3.36,3.36,0,0,1-.9,2.409,2.841,2.841,0,0,1-2.2.979,2.493,2.493,0,0,1-1.906-.741,2.66,2.66,0,0,1-.715-1.959,3.3,3.3,0,0,1,.9-2.382,2.867,2.867,0,0,1,2.2-.953Z" transform="translate(-313.864 -60.653)" fill="#fff" fill-rule="evenodd"/>
    <path id="Trazado_1052" data-name="Trazado 1052" d="M798.618,107.07l5.31,8.011h.431l1.16-6.275a.9.9,0,0,1,.036-.29,8.335,8.335,0,0,0,.182-1.414v-.29c-.036-.109-.036-.254-.073-.435a7.218,7.218,0,0,0,1.958,2.068,4.471,4.471,0,0,0,2.356.617,6.321,6.321,0,0,0,3.045-.762,7.418,7.418,0,0,0,2.5-2.285,10.072,10.072,0,0,0,1.559-3.047,11.275,11.275,0,0,0,.544-3.482,7.266,7.266,0,0,0-1.6-4.788,5.075,5.075,0,0,0-4.06-1.85,4.729,4.729,0,0,0-2.357.58,6.167,6.167,0,0,0-1.958,1.741l.362-1.966h-6.743Zm10.246-8.246a1.634,1.634,0,0,1,1.309.5,2.262,2.262,0,0,1,.465,1.466,2.981,2.981,0,0,1-.676,2.011,2.081,2.081,0,0,1-1.647.8,1.881,1.881,0,0,1-1.435-.587,2.214,2.214,0,0,1-.507-1.55,2.687,2.687,0,0,1,.718-1.885,2.439,2.439,0,0,1,1.773-.754Z" transform="translate(-633.335 -61.285)" fill="#fff" fill-rule="evenodd"/>
    <path id="Trazado_1053" data-name="Trazado 1053" d="M896.663,108.458H903.8l1.231-6.911a4.5,4.5,0,0,1,.941-2.365,2.361,2.361,0,0,1,1.846-.665,4.007,4.007,0,0,1,1.087.148,12.4,12.4,0,0,1,1.339.369l1.158-6.319c-.4-.074-.724-.111-1.014-.148a5.313,5.313,0,0,0-.724-.074,4.582,4.582,0,0,0-2.354.628,5.875,5.875,0,0,0-1.81,1.959L906,92.974h-6.517l-2.824,15.484Z" transform="translate(-712.227 -61.001)" fill="#fff" fill-rule="evenodd"/>
    <path id="Trazado_1054" data-name="Trazado 1054" d="M1051.7,106.878a16.213,16.213,0,0,0,3.7,1.886,9.762,9.762,0,0,0,3.408.653,7.425,7.425,0,0,0,4.967-1.6,5.119,5.119,0,0,0,1.885-4.171,4.26,4.26,0,0,0-.652-2.43,4.829,4.829,0,0,0-2.066-1.632l-.906-.435c-.109-.036-.217-.073-.4-.145-.58-.29-.87-.508-.87-.762a.57.57,0,0,1,.254-.471.921.921,0,0,1,.58-.181,2.824,2.824,0,0,1,1.305.4,7.329,7.329,0,0,1,1.486,1.088l2.429-4.062A13.183,13.183,0,0,0,1063.8,93.6a10.35,10.35,0,0,0-2.973-.435,6.977,6.977,0,0,0-4.677,1.524,4.778,4.778,0,0,0-1.813,3.845,3.872,3.872,0,0,0,.653,2.213,5.493,5.493,0,0,0,1.994,1.668l1.16.58c0,.036.036.036.109.072.689.363,1.015.689,1.015.979a.517.517,0,0,1-.217.435,1,1,0,0,1-.58.181,3.978,3.978,0,0,1-1.921-.58,9.938,9.938,0,0,1-2.175-1.7l-2.683,4.5Z" transform="translate(-836.974 -61.543)" fill="#fff" fill-rule="evenodd"/>
    <path id="Trazado_1055" data-name="Trazado 1055" d="M1122.36,107.167a16.229,16.229,0,0,0,3.7,1.886,9.77,9.77,0,0,0,3.408.653,7.423,7.423,0,0,0,4.967-1.6,5.118,5.118,0,0,0,1.885-4.171,4.261,4.261,0,0,0-.653-2.43,4.826,4.826,0,0,0-2.066-1.632l-.906-.435c-.109-.036-.218-.072-.4-.145-.58-.29-.87-.508-.87-.761a.57.57,0,0,1,.254-.471.919.919,0,0,1,.58-.182,2.827,2.827,0,0,1,1.305.4,7.333,7.333,0,0,1,1.487,1.088l2.429-4.062a13.189,13.189,0,0,0-3.009-1.415,10.348,10.348,0,0,0-2.973-.435,6.976,6.976,0,0,0-4.676,1.523,4.779,4.779,0,0,0-1.813,3.845,3.873,3.873,0,0,0,.653,2.213,5.491,5.491,0,0,0,1.994,1.668l1.16.58c0,.037.036.037.109.073.689.363,1.015.689,1.015.979a.517.517,0,0,1-.217.435,1,1,0,0,1-.58.181,3.977,3.977,0,0,1-1.921-.581,9.911,9.911,0,0,1-2.175-1.7l-2.683,4.5Z" transform="translate(-893.833 -61.776)" fill="#fff" fill-rule="evenodd"/>
    <path id="Trazado_1056" data-name="Trazado 1056" d="M986.047,101.318c.036-.363.072-.725.072-1.088a10.106,10.106,0,0,0,.037-1.087,6.268,6.268,0,0,0-2.139-4.857,7.846,7.846,0,0,0-5.438-1.921,9.563,9.563,0,0,0-3.662.725,9.9,9.9,0,0,0-3.081,2.1,9.371,9.371,0,0,0-1.813,2.863,9.982,9.982,0,0,0-.616,3.443,6.616,6.616,0,0,0,2.1,5.11,7.569,7.569,0,0,0,5.438,1.994,9.413,9.413,0,0,0,4.931-1.269,9.544,9.544,0,0,0,3.444-3.805l-5.4-1.16a4.288,4.288,0,0,1-1.016,1.087,2.215,2.215,0,0,1-1.087.29,1.637,1.637,0,0,1-1.378-.652,2.8,2.8,0,0,1-.471-1.776Zm-10.268-2.546a3.012,3.012,0,0,1,.969-1.558,2.391,2.391,0,0,1,1.559-.5,1.558,1.558,0,0,1,1.221.5,1.823,1.823,0,0,1,.463,1.306v.253Z" transform="translate(-770.76 -60.898)" fill="#fff" fill-rule="evenodd"/>
    <path id="Trazado_1057" data-name="Trazado 1057" d="M54,67.907,11.629,25.935h-.107V68.013H54Z" transform="translate(0 -7.444)" fill="#f05a22" fill-rule="evenodd"/>
    <line id="Línea_1" data-name="Línea 1" x2="0.01" y2="0.01" transform="translate(41.892 35.874)" fill="#fff"/>
    <path id="Trazado_1058" data-name="Trazado 1058" d="M62.122,114.337c-2.951-2.918-8.549-8.453-19.473-19.317l-4.937.006,18.037,17.907a.669.669,0,0,1-.492,1.159l-5.877,0a3.868,3.868,0,0,1-2.639-1.251l-5.024-4.98-4.939,0c2.78,2.773,5.2,5.183,7.876,7.828a4.866,4.866,0,0,0,3.9,1.615l12.278,0a1.792,1.792,0,0,0,1.73-1.9,1.5,1.5,0,0,0-.079-.342A1.716,1.716,0,0,0,62.122,114.337Z" transform="translate(-20.322 -63.034)" fill="#fff" fill-rule="evenodd"/>
    <path id="Trazado_1059" data-name="Trazado 1059" d="M18.64,17.335,61.008,59.308V17.335Z" transform="translate(-5.728 -0.525)" fill="#eb008b" fill-rule="evenodd"/>
    <path id="Trazado_1060" data-name="Trazado 1060" d="M85.052,52.461c1.3,0,4.84-.008,8.03-.011a3.431,3.431,0,0,1,2.537.933c1.339,1.33,2.551,2.537,3.954,3.949.365.358-.072.958-.567,1.156H93.019l3.11,3.094,8.683,0a1.721,1.721,0,0,0,1.9-1.464,1.394,1.394,0,0,0-.294-.994c-2.692-2.676-5.215-5.169-7.948-7.863a6.476,6.476,0,0,0-4.654-1.68l-11.92-.021a2.178,2.178,0,0,0-1.973,2.455,1.878,1.878,0,0,0,.125.412c2.78,2.757,1.4,1.393,19.029,18.864h4.971C94.156,61.5,94.235,61.55,85.052,52.461Z" transform="translate(-55.012 -26.457)" fill="#fff" fill-rule="evenodd"/>
    <g id="Grupo_161" data-name="Grupo 161" transform="translate(137.259 61.654)">
      <g id="Grupo_160" data-name="Grupo 160" transform="translate(0 0)">
        <path id="Trazado_1061" data-name="Trazado 1061" d="M656.228,255.358h-1.065l.971-5.811h3.577l-.155.91H657.05l-.266,1.569h2.086l-.145.866H656.64Z" transform="translate(-655.163 -249.027)" fill="#0b2d72"/>
        <path id="Trazado_1062" data-name="Trazado 1062" d="M677.146,255.106h-1l.724-4.33h1Zm.808-4.833h-1l.173-1.039h1Z" transform="translate(-672.045 -248.776)" fill="#0b2d72"/>
        <path id="Trazado_1063" data-name="Trazado 1063" d="M689.847,260.964h-.952l.443-2.6a3.532,3.532,0,0,0,.044-.5.606.606,0,0,0-.134-.4.5.5,0,0,0-.407-.165.951.951,0,0,0-.766.441,2.887,2.887,0,0,0-.467,1.28l-.328,1.95h-.955l.724-4.33h.887l-.171,1.008a2.287,2.287,0,0,1,.748-.943,1.427,1.427,0,0,1,.674-.186,1.146,1.146,0,0,1,1.165,1.217,4.646,4.646,0,0,1-.087.719Z" transform="translate(-680.238 -254.633)" fill="#0b2d72"/>
        <path id="Trazado_1064" data-name="Trazado 1064" d="M712.662,260.964h-.942c-.005-.076-.008-.139-.008-.188a4.548,4.548,0,0,1,.076-.745,1.783,1.783,0,0,1-.611.766,1.525,1.525,0,0,1-.882.278,1.3,1.3,0,0,1-.945-.359,1.206,1.206,0,0,1-.364-.887,1.33,1.33,0,0,1,.651-1.16,3.767,3.767,0,0,1,2.034-.43c.118,0,.257.008.417.018a2.341,2.341,0,0,0,.029-.313.62.62,0,0,0-.239-.527.988.988,0,0,0-.6-.178,1.051,1.051,0,0,0-1,.6l-.85-.268a1.937,1.937,0,0,1,1.894-1.058,2.028,2.028,0,0,1,1.278.368,1.173,1.173,0,0,1,.467.973,11.448,11.448,0,0,1-.2,1.372,11.2,11.2,0,0,0-.215,1.485,2.221,2.221,0,0,0,.015.252M712,258.755a3.986,3.986,0,0,0-1.543.293.738.738,0,0,0-.436.685.553.553,0,0,0,.173.422.671.671,0,0,0,.478.166,1.115,1.115,0,0,0,.805-.381,2.291,2.291,0,0,0,.522-1.185" transform="translate(-698.472 -254.633)" fill="#0b2d72"/>
        <path id="Trazado_1065" data-name="Trazado 1065" d="M735.944,260.964h-.955l.443-2.6a3.22,3.22,0,0,0,.047-.5.608.608,0,0,0-.134-.4.5.5,0,0,0-.407-.165.95.95,0,0,0-.766.441,2.921,2.921,0,0,0-.47,1.28l-.328,1.95h-.952l.724-4.33h.885l-.171,1.008a2.293,2.293,0,0,1,.751-.943,1.417,1.417,0,0,1,.672-.186,1.172,1.172,0,0,1,.821.323,1.157,1.157,0,0,1,.346.895,4.646,4.646,0,0,1-.087.719Z" transform="translate(-717.33 -254.633)" fill="#0b2d72"/>
        <path id="Trazado_1066" data-name="Trazado 1066" d="M759.478,259.647a1.973,1.973,0,0,1-1.839,1.378,1.624,1.624,0,0,1-1.242-.512,2.015,2.015,0,0,1-.483-1.441,2.915,2.915,0,0,1,.593-1.824,1.8,1.8,0,0,1,1.486-.774,1.655,1.655,0,0,1,1.128.394,1.779,1.779,0,0,1,.57,1.117l-.808.158q-.169-.851-.847-.85a.932.932,0,0,0-.819.57,2.7,2.7,0,0,0-.312,1.314,1.113,1.113,0,0,0,.236.8.783.783,0,0,0,.567.236c.427,0,.748-.286.971-.855Z" transform="translate(-736.232 -254.602)" fill="#0b2d72"/>
        <path id="Trazado_1067" data-name="Trazado 1067" d="M776.945,255.106h-1l.724-4.33h1Zm.808-4.833h-1l.175-1.039h1Z" transform="translate(-752.348 -248.776)" fill="#0b2d72"/>
        <path id="Trazado_1068" data-name="Trazado 1068" d="M790.215,259.788a1.976,1.976,0,0,1-1.892,1.327,1.736,1.736,0,0,1-1.338-.522,1.971,1.971,0,0,1-.486-1.393,2.872,2.872,0,0,1,.614-1.868,1.937,1.937,0,0,1,1.582-.76,1.585,1.585,0,0,1,1.312.548,2.3,2.3,0,0,1,.446,1.5c0,.105-.005.218-.013.341h-2.976a2.2,2.2,0,0,0-.031.323,1.236,1.236,0,0,0,.239.787.8.8,0,0,0,.669.3,1.109,1.109,0,0,0,1.021-.806Zm-.664-1.449c0-.733-.283-1.1-.852-1.1-.585,0-.964.364-1.131,1.1Z" transform="translate(-760.842 -254.679)" fill="#0b2d72"/>
        <path id="Trazado_1069" data-name="Trazado 1069" d="M809.458,260.964H808.5l.724-4.33h.877l-.194,1.178q.555-1.3,1.5-1.3a1.049,1.049,0,0,1,.116.005l-.126,1.065c-.092-.008-.163-.011-.21-.011a1.252,1.252,0,0,0-.666.189,1.311,1.311,0,0,0-.491.5,3.4,3.4,0,0,0-.3,1.042Z" transform="translate(-778.548 -254.633)" fill="#0b2d72"/>
        <path id="Trazado_1070" data-name="Trazado 1070" d="M826.628,260.964h-.939c-.005-.076-.008-.139-.008-.188a4.466,4.466,0,0,1,.073-.745,1.766,1.766,0,0,1-.611.766,1.525,1.525,0,0,1-.882.278,1.3,1.3,0,0,1-.945-.359,1.2,1.2,0,0,1-.362-.887,1.324,1.324,0,0,1,.651-1.16,3.75,3.75,0,0,1,2.031-.43c.118,0,.257.008.417.018a2.072,2.072,0,0,0,.029-.313.62.62,0,0,0-.239-.527.98.98,0,0,0-.6-.178,1.052,1.052,0,0,0-1,.6l-.852-.268a1.937,1.937,0,0,1,1.894-1.058,2.021,2.021,0,0,1,1.278.368,1.173,1.173,0,0,1,.467.973,10.806,10.806,0,0,1-.205,1.372,11.268,11.268,0,0,0-.215,1.485,2.213,2.213,0,0,0,.016.252m-.658-2.209a4,4,0,0,0-1.546.293.737.737,0,0,0-.435.685.547.547,0,0,0,.176.422.659.659,0,0,0,.475.166,1.115,1.115,0,0,0,.805-.381,2.3,2.3,0,0,0,.525-1.185" transform="translate(-790.176 -254.633)" fill="#0b2d72"/>
        <path id="Trazado_1071" data-name="Trazado 1071" d="M860.379,255.357h-.929l.149-.894a1.553,1.553,0,0,1-1.369.992,1.117,1.117,0,0,1-.939-.467,2.1,2.1,0,0,1-.355-1.309,3.507,3.507,0,0,1,.541-1.973,1.594,1.594,0,0,1,1.372-.821,1.141,1.141,0,0,1,1.181.858l.37-2.2h.955Zm-1.763-.682a.985.985,0,0,0,.881-.62,2.826,2.826,0,0,0,.328-1.356,1.154,1.154,0,0,0-.218-.735.7.7,0,0,0-.583-.281.9.9,0,0,0-.834.641,3.518,3.518,0,0,0-.281,1.422q0,.929.706.929" transform="translate(-817.519 -249.027)" fill="#0b2d72"/>
        <path id="Trazado_1072" data-name="Trazado 1072" d="M883.729,259.788a1.973,1.973,0,0,1-1.889,1.327,1.737,1.737,0,0,1-1.338-.522,1.961,1.961,0,0,1-.488-1.393,2.886,2.886,0,0,1,.614-1.868,1.937,1.937,0,0,1,1.583-.76,1.585,1.585,0,0,1,1.314.548,2.312,2.312,0,0,1,.444,1.5c0,.105-.005.218-.013.341h-2.976a2.184,2.184,0,0,0-.029.323,1.235,1.235,0,0,0,.236.787.8.8,0,0,0,.669.3,1.109,1.109,0,0,0,1.021-.806Zm-.663-1.449c0-.733-.284-1.1-.853-1.1-.586,0-.963.364-1.131,1.1Z" transform="translate(-836.089 -254.679)" fill="#0b2d72"/>
        <path id="Trazado_1073" data-name="Trazado 1073" d="M915.546,260.964h-.939c-.005-.076-.008-.139-.008-.188a4.463,4.463,0,0,1,.074-.745,1.765,1.765,0,0,1-.611.766,1.523,1.523,0,0,1-.882.278,1.3,1.3,0,0,1-.945-.359,1.2,1.2,0,0,1-.362-.887,1.327,1.327,0,0,1,.648-1.16,3.767,3.767,0,0,1,2.033-.43c.118,0,.257.008.417.018a1.945,1.945,0,0,0,.03-.313.62.62,0,0,0-.24-.527.981.981,0,0,0-.6-.178,1.052,1.052,0,0,0-1,.6l-.853-.268a1.938,1.938,0,0,1,1.894-1.058,2.021,2.021,0,0,1,1.278.368,1.173,1.173,0,0,1,.467.973,11.344,11.344,0,0,1-.205,1.372,11.261,11.261,0,0,0-.215,1.485,2.357,2.357,0,0,0,.015.252m-.658-2.209a3.992,3.992,0,0,0-1.546.293.737.737,0,0,0-.436.685.553.553,0,0,0,.173.422.671.671,0,0,0,.478.166,1.114,1.114,0,0,0,.805-.381,2.3,2.3,0,0,0,.525-1.185" transform="translate(-861.724 -254.633)" fill="#0b2d72"/>
        <path id="Trazado_1074" data-name="Trazado 1074" d="M938.828,255.357h-.952l.425-2.558a4.61,4.61,0,0,0,.076-.551.5.5,0,0,0-.554-.57,1.062,1.062,0,0,0-.722.32,2.177,2.177,0,0,0-.49,1.226l-.357,2.132H935.3l.971-5.811h.955l-.372,2.235a1.548,1.548,0,0,1,1.325-.882,1.263,1.263,0,0,1,.829.281,1.082,1.082,0,0,1,.341.887,5.946,5.946,0,0,1-.092.732Z" transform="translate(-880.574 -249.027)" fill="#0b2d72"/>
        <path id="Trazado_1075" data-name="Trazado 1075" d="M960.685,261.183a2.144,2.144,0,0,1-.931-.213,1.445,1.445,0,0,1-.685-.674,2.407,2.407,0,0,1-.239-1.1,2.772,2.772,0,0,1,.609-1.79,1.952,1.952,0,0,1,1.592-.756,1.659,1.659,0,0,1,1.3.543,2.112,2.112,0,0,1,.485,1.459,2.9,2.9,0,0,1-.58,1.737,1.821,1.821,0,0,1-1.548.795m.008-.779a.893.893,0,0,0,.85-.6,3,3,0,0,0,.273-1.255c0-.748-.289-1.123-.869-1.123a.9.9,0,0,0-.871.643,3.352,3.352,0,0,0-.265,1.281,1.089,1.089,0,0,0,.254.8.851.851,0,0,0,.627.254" transform="translate(-899.508 -254.742)" fill="#0b2d72"/>
        <path id="Trazado_1076" data-name="Trazado 1076" d="M981.909,260.964h-.955l.724-4.33h.877l-.194,1.178q.554-1.3,1.5-1.3a1.037,1.037,0,0,1,.115.005l-.125,1.065c-.092-.008-.163-.011-.211-.011a1.251,1.251,0,0,0-.666.189,1.309,1.309,0,0,0-.491.5,3.388,3.388,0,0,0-.3,1.042Z" transform="translate(-917.31 -254.633)" fill="#0b2d72"/>
        <path id="Trazado_1077" data-name="Trazado 1077" d="M996.508,260.964h-.956l.725-4.33h.879l-.2,1.178q.559-1.3,1.5-1.3a1.033,1.033,0,0,1,.116.005l-.123,1.065c-.1-.008-.166-.011-.213-.011a1.259,1.259,0,0,0-.667.189,1.313,1.313,0,0,0-.491.5,3.479,3.479,0,0,0-.3,1.042Z" transform="translate(-929.056 -254.633)" fill="#0b2d72"/>
        <path id="Trazado_1078" data-name="Trazado 1078" d="M1012.424,261.183a2.162,2.162,0,0,1-.931-.213,1.454,1.454,0,0,1-.685-.674,2.4,2.4,0,0,1-.236-1.1,2.776,2.776,0,0,1,.608-1.79,1.953,1.953,0,0,1,1.593-.756,1.646,1.646,0,0,1,1.293.543,2.1,2.1,0,0,1,.486,1.459,2.9,2.9,0,0,1-.577,1.737,1.822,1.822,0,0,1-1.551.795m.009-.779a.9.9,0,0,0,.852-.6,3,3,0,0,0,.27-1.255c0-.748-.289-1.123-.866-1.123a.9.9,0,0,0-.874.643,3.356,3.356,0,0,0-.262,1.281,1.087,1.087,0,0,0,.254.8.849.849,0,0,0,.625.254" transform="translate(-941.142 -254.742)" fill="#0b2d72"/>
        <path id="Trazado_1079" data-name="Trazado 1079" d="M1040.59,263l.042-.824a4.026,4.026,0,0,0,.572.037.916.916,0,0,0,.5-.126,1.063,1.063,0,0,0,.36-.47l.163-.343-1.06-4.139h1.021l.656,2.979,1.43-2.979h.834l-2.222,4.482a7.447,7.447,0,0,1-.478.861,1.29,1.29,0,0,1-.48.4,1.786,1.786,0,0,1-.822.163,3.684,3.684,0,0,1-.514-.039" transform="translate(-965.296 -255.13)" fill="#0b2d72"/>
        <path id="Trazado_1080" data-name="Trazado 1080" d="M1076.646,259.647a1.972,1.972,0,0,1-1.839,1.378,1.627,1.627,0,0,1-1.244-.512,2.027,2.027,0,0,1-.48-1.441,2.932,2.932,0,0,1,.59-1.824,1.8,1.8,0,0,1,1.488-.774,1.657,1.657,0,0,1,1.128.394,1.794,1.794,0,0,1,.569,1.117l-.809.158c-.113-.567-.4-.85-.847-.85a.932.932,0,0,0-.818.57,2.675,2.675,0,0,0-.315,1.314,1.112,1.112,0,0,0,.239.8.777.777,0,0,0,.566.236q.638,0,.971-.855Z" transform="translate(-991.441 -254.602)" fill="#0b2d72"/>
        <path id="Trazado_1081" data-name="Trazado 1081" d="M1094.061,260.964h-.952l.724-4.33h.877l-.2,1.178q.558-1.3,1.5-1.3a.98.98,0,0,1,.113.005l-.123,1.065c-.094-.008-.163-.011-.213-.011a1.265,1.265,0,0,0-.666.189,1.344,1.344,0,0,0-.49.5,3.418,3.418,0,0,0-.294,1.042Z" transform="translate(-1007.555 -254.633)" fill="#0b2d72"/>
        <path id="Trazado_1082" data-name="Trazado 1082" d="M1111.8,252a1.975,1.975,0,0,1-1.889,1.327,1.743,1.743,0,0,1-1.341-.522,1.96,1.96,0,0,1-.485-1.393,2.885,2.885,0,0,1,.614-1.868,1.934,1.934,0,0,1,1.582-.76,1.578,1.578,0,0,1,1.312.548,2.316,2.316,0,0,1,.447,1.5c0,.105-.005.218-.014.341h-2.976a1.943,1.943,0,0,0-.029.323,1.232,1.232,0,0,0,.236.787.8.8,0,0,0,.669.3,1.109,1.109,0,0,0,1.02-.806Zm-.663-1.449c0-.733-.284-1.1-.853-1.1-.587,0-.963.364-1.131,1.1Zm.289-3.66.281.579-1.774.808-.178-.457Z" transform="translate(-1019.607 -246.887)" fill="#0b2d72"/>
        <path id="Trazado_1083" data-name="Trazado 1083" d="M1133.826,255.357h-.929l.15-.894a1.553,1.553,0,0,1-1.37.992,1.118,1.118,0,0,1-.939-.467,2.1,2.1,0,0,1-.354-1.309,3.515,3.515,0,0,1,.54-1.973,1.6,1.6,0,0,1,1.372-.821,1.142,1.142,0,0,1,1.181.858l.37-2.2h.955Zm-1.763-.682a.987.987,0,0,0,.882-.62,2.837,2.837,0,0,0,.328-1.356,1.152,1.152,0,0,0-.218-.735.7.7,0,0,0-.583-.281.9.9,0,0,0-.834.641,3.509,3.509,0,0,0-.281,1.422c0,.619.237.929.706.929" transform="translate(-1037.547 -249.027)" fill="#0b2d72"/>
        <path id="Trazado_1084" data-name="Trazado 1084" d="M1154.083,255.106h-1l.725-4.33h1Zm.808-4.833h-1l.176-1.039h1Z" transform="translate(-1055.811 -248.776)" fill="#0b2d72"/>
        <path id="Trazado_1085" data-name="Trazado 1085" d="M1165.462,256.411a4.9,4.9,0,0,1-.608.063,1.227,1.227,0,0,1-.879-.27.877.877,0,0,1-.278-.656,5.659,5.659,0,0,1,.1-.779l.328-1.915h-.643l.134-.78h.65l.257-1.167.871-.061-.2,1.228h.931l-.125.78h-.937l-.325,1.928a3.713,3.713,0,0,0-.058.459c0,.275.2.412.612.412a2.249,2.249,0,0,0,.312-.029Z" transform="translate(-1064.178 -250.072)" fill="#0b2d72"/>
        <path id="Trazado_1086" data-name="Trazado 1086" d="M1178.28,261.183a2.147,2.147,0,0,1-.931-.213,1.455,1.455,0,0,1-.686-.674,2.407,2.407,0,0,1-.236-1.1,2.76,2.76,0,0,1,.609-1.79,1.949,1.949,0,0,1,1.593-.756,1.651,1.651,0,0,1,1.294.543,2.1,2.1,0,0,1,.485,1.459,2.887,2.887,0,0,1-.58,1.737,1.821,1.821,0,0,1-1.548.795m.008-.779a.9.9,0,0,0,.853-.6,3.008,3.008,0,0,0,.27-1.255c0-.748-.288-1.123-.868-1.123a.9.9,0,0,0-.871.643,3.349,3.349,0,0,0-.265,1.281,1.089,1.089,0,0,0,.257.8.85.85,0,0,0,.625.254" transform="translate(-1074.597 -254.742)" fill="#0b2d72"/>
      </g>
    </g>
  </g>
</svg>
