<svg xmlns="http://www.w3.org/2000/svg" width="240" height="173.21" viewBox="0 0 240 173.21">
  <g id="logo-came" transform="translate(-39.343 -5.552)">
    <path id="Trazado_824" data-name="Trazado 824" d="M345.987,52.392,322.559,77.065V95.841L337.5,80.093v57.52h17.01V80.166l14.774,15.546V77.067Z" transform="translate(-155.764 -25.761)" fill="#e3001b"/>
    <path id="Trazado_825" data-name="Trazado 825" d="M372.356,16.1c0,5.831-4.474,10.579-10.013,10.579A10.33,10.33,0,0,1,352.3,16.1a10.042,10.042,0,1,1,20.057,0" transform="translate(-172.12 0)" fill="#e3001b"/>
    <path id="Trazado_826" data-name="Trazado 826" d="M88.929,210.428,87.6,211.612c-4.736,4.2-8.481,6.483-14.729,6.483-8.981,0-15.759-7.243-15.759-16.839v-.173c0-9.5,6.779-16.665,15.759-16.665,5.021,0,9.433,1.927,14.3,6.236l1.427,1.263,10.943-12.33-1.264-1.215c-6.972-6.705-14.781-9.7-25.323-9.7-19.154,0-33.611,14.007-33.611,32.583v.167a32.006,32.006,0,0,0,9.44,22.976,33.233,33.233,0,0,0,23.665,9.44c10.935,0,18.8-3.345,26.321-11.195l1.234-1.3Z" transform="translate(0 -89.714)" fill="#1a1718"/>
    <path id="Trazado_827" data-name="Trazado 827" d="M197.515,169.98h-14.83L155,233.544h17.774l5.562-13.335h23.187l5.566,13.335h18.118Zm-12.858,34.985,5.266-12.56,5.281,12.56Z" transform="translate(-63.61 -90.433)" fill="#1a1718"/>
    <path id="Trazado_828" data-name="Trazado 828" d="M349.7,170.925l-14.959,23.5-14.944-23.5H302.417v63.138h16.909V199.819l14.058,20.817h2.375l14.22-21.073v34.5H367.05V170.925Z" transform="translate(-144.686 -90.952)" fill="#1a1718"/>
    <path id="Trazado_829" data-name="Trazado 829" d="M471.73,218.734v-8.787h28.682V194.621H471.73v-8.364h32.6V170.925H454.662v63.138h50.107V218.734Z" transform="translate(-228.418 -90.952)" fill="#1a1718"/>
    <rect id="Rectángulo_82" data-name="Rectángulo 82" width="235.702" height="3.686" transform="translate(39.996 154.57)" fill="#e3001b"/>
    <path id="Trazado_830" data-name="Trazado 830" d="M49.57,378.962a4.7,4.7,0,1,1,.055-9.4,4.914,4.914,0,0,1,3.651,1.415l-1.054,1.19a3.74,3.74,0,0,0-2.6-1.136,3.239,3.239,0,0,0,0,6.47,3.669,3.669,0,0,0,2.674-1.191l1.034,1.049a4.819,4.819,0,0,1-3.757,1.6" transform="translate(-3.019 -200.2)" fill="#47484a"/>
    <path id="Trazado_831" data-name="Trazado 831" d="M73.507,379l-2.283-3.164H69.181V379H67.544v-9.086h4.148c2.144,0,3.455,1.1,3.455,2.873a2.738,2.738,0,0,1-2.219,2.777L75.438,379Zm-1.949-7.633H69.181v3.051h2.384c1.178,0,1.914-.6,1.914-1.536,0-.995-.717-1.515-1.921-1.515" transform="translate(-15.51 -200.391)" fill="#47484a"/>
    <path id="Trazado_832" data-name="Trazado 832" d="M95.791,367.8H90.529v2.372H95.2V371.6H90.529v2.443h5.333v1.422H88.9v-9.086h6.895Zm-4.412-2.174,1.405-2.142,1.468.644-1.618,1.5Z" transform="translate(-27.253 -196.858)" fill="#47484a"/>
    <path id="Trazado_833" data-name="Trazado 833" d="M112.149,379h-3.468v-9.086h3.468c2.922,0,4.951,1.957,4.951,4.534A4.618,4.618,0,0,1,112.149,379m0-7.633h-1.837v6.187h1.837a3.1,3.1,0,1,0,0-6.187" transform="translate(-38.135 -200.391)" fill="#47484a"/>
    <rect id="Rectángulo_83" data-name="Rectángulo 83" width="1.63" height="9.086" transform="translate(81.044 169.52)" fill="#47484a"/>
    <path id="Trazado_834" data-name="Trazado 834" d="M144.269,379h-1.646V371.39h-2.957v-1.479h7.554v1.479h-2.951Z" transform="translate(-55.176 -200.391)" fill="#47484a"/>
    <path id="Trazado_835" data-name="Trazado 835" d="M163.1,378.962a4.7,4.7,0,1,1,4.874-4.708,4.665,4.665,0,0,1-4.874,4.708m0-7.929a3.11,3.11,0,0,0-3.143,3.221,3.161,3.161,0,0,0,3.163,3.249,3.111,3.111,0,0,0,3.137-3.225,3.148,3.148,0,0,0-3.157-3.245" transform="translate(-65.396 -200.2)" fill="#47484a"/>
    <path id="Trazado_836" data-name="Trazado 836" d="M196.349,379H194.7v-3.586l-3.686-5.5h1.922l2.609,4.021,2.623-4.021h1.873l-3.7,5.467Z" transform="translate(-83.418 -200.391)" fill="#47484a"/>
    <path id="Trazado_837" data-name="Trazado 837" d="M231.057,378.924h-1.723l-.95-2.185h-4.39l-.966,2.185h-1.674l4.1-9.146h1.511Zm-4.886-7.247-1.588,3.639H227.8Z" transform="translate(-100.103 -200.318)" fill="#47484a"/>
    <path id="Trazado_838" data-name="Trazado 838" d="M248.1,375.166V379h-1.637v-9.086H248.1v3.776h4.433v-3.776h1.64V379h-1.64v-3.83Z" transform="translate(-113.913 -200.391)" fill="#47484a"/>
    <path id="Trazado_839" data-name="Trazado 839" d="M272.843,378.962a4.7,4.7,0,1,1,4.882-4.708,4.717,4.717,0,0,1-4.882,4.708m0-7.929a3.107,3.107,0,0,0-3.133,3.221,3.153,3.153,0,0,0,3.156,3.249,3.117,3.117,0,0,0,3.142-3.225,3.149,3.149,0,0,0-3.165-3.245" transform="translate(-125.754 -200.2)" fill="#47484a"/>
    <path id="Trazado_840" data-name="Trazado 840" d="M299.994,379l-2.283-3.164h-2.049V379h-1.633v-9.086h4.152c2.14,0,3.451,1.1,3.451,2.873a2.745,2.745,0,0,1-2.219,2.777L301.924,379Zm-1.95-7.633h-2.382v3.051h2.4c1.17,0,1.908-.6,1.908-1.536,0-.995-.717-1.515-1.922-1.515" transform="translate(-140.073 -200.391)" fill="#47484a"/>
    <path id="Trazado_841" data-name="Trazado 841" d="M321.367,379l-2.293-3.164H317.02V379h-1.633v-9.086h4.156c2.136,0,3.446,1.1,3.446,2.873a2.732,2.732,0,0,1-2.212,2.777L323.295,379Zm-1.946-7.633h-2.4v3.051h2.4c1.171,0,1.916-.6,1.916-1.536,0-.995-.722-1.515-1.916-1.515" transform="translate(-151.819 -200.391)" fill="#47484a"/>
    <path id="Trazado_842" data-name="Trazado 842" d="M340.7,378.962a4.7,4.7,0,1,1,4.877-4.708,4.668,4.668,0,0,1-4.877,4.708m0-7.929a3.11,3.11,0,0,0-3.144,3.221,3.159,3.159,0,0,0,3.163,3.249,3.113,3.113,0,0,0,3.142-3.225,3.151,3.151,0,0,0-3.161-3.245" transform="translate(-163.07 -200.2)" fill="#47484a"/>
    <path id="Trazado_843" data-name="Trazado 843" d="M378.692,378.924h-1.73l-.944-2.185h-4.4l-.966,2.185h-1.667l4.092-9.146H374.6Zm-4.879-7.247-1.6,3.639h3.213Z" transform="translate(-181.299 -200.318)" fill="#47484a"/>
    <path id="Trazado_844" data-name="Trazado 844" d="M406.07,379h-1.651V371.39h-2.958v-1.479h7.554v1.479H406.07Z" transform="translate(-199.159 -200.391)" fill="#47484a"/>
    <path id="Trazado_845" data-name="Trazado 845" d="M429.726,375.065c0,2.715-1.569,4.077-4.009,4.077a3.624,3.624,0,0,1-3.957-4v-5.233H423.4v5.167c0,1.691.889,2.6,2.346,2.6a2.215,2.215,0,0,0,2.35-2.532v-5.233h1.633Z" transform="translate(-210.323 -200.391)" fill="#47484a"/>
    <path id="Trazado_846" data-name="Trazado 846" d="M457.87,376.769h-.058l-2.907-4.261V379h-1.612v-9.086h1.754l2.824,4.3,2.837-4.3h1.744V379h-1.645v-6.517Z" transform="translate(-227.665 -200.391)" fill="#47484a"/>
    <path id="Trazado_847" data-name="Trazado 847" d="M485.84,371.335h-5.279v2.371h4.669v1.425h-4.669v2.443h5.34V379h-6.978v-9.086h6.916Z" transform="translate(-241.762 -200.391)" fill="#47484a"/>
    <path id="Trazado_848" data-name="Trazado 848" d="M502.2,379h-3.468v-9.086H502.2c2.917,0,4.935,1.957,4.935,4.534A4.608,4.608,0,0,1,502.2,379m0-7.633h-1.838v6.187H502.2a3.1,3.1,0,1,0,0-6.187" transform="translate(-252.658 -200.391)" fill="#47484a"/>
    <rect id="Rectángulo_84" data-name="Rectángulo 84" width="1.64" height="9.086" transform="translate(256.56 169.52)" fill="#47484a"/>
    <path id="Trazado_849" data-name="Trazado 849" d="M534.65,379h-3.459v-9.086h3.459c2.937,0,4.959,1.957,4.959,4.534S537.587,379,534.65,379m0-7.633h-1.821v6.187h1.821a3.1,3.1,0,1,0,0-6.187" transform="translate(-270.508 -200.391)" fill="#47484a"/>
    <path id="Trazado_850" data-name="Trazado 850" d="M560.79,378.924h-1.731l-.942-2.185h-4.4l-.953,2.185H551.08l4.1-9.146H556.7Zm-4.873-7.247-1.6,3.639h3.2Z" transform="translate(-281.447 -200.318)" fill="#47484a"/>
  </g>
</svg>
