<svg xmlns="http://www.w3.org/2000/svg" width="240" height="82.706" viewBox="0 0 240 82.706">
  <g id="logo-monte-de-piedad" transform="translate(-31.479 -31.799)">
    <g id="Grupo_1" data-name="Grupo 1" transform="translate(31.479 31.799)">
      <rect id="Rectángulo_1" data-name="Rectángulo 1" width="12.41" height="82.706" fill="#b60036"/>
      <path id="Trazado_1" data-name="Trazado 1" d="M61.011,40.756h7.124v1.259h-5.63v6.3h5.232v1.265H62.505v8.033H61.011Z" transform="translate(-40.092 -34.412)" fill="#1c1406"/>
      <path id="Trazado_2" data-name="Trazado 2" d="M74.037,40.756h1.728v1.772H74.037Zm.163,5.065h1.4v11.8H74.2Z" transform="translate(-43.891 -34.412)" fill="#1c1406"/>
      <path id="Trazado_3" data-name="Trazado 3" d="M82.331,59.608h-1.4v-11.8h1.4v1.45h.046a3.408,3.408,0,0,1,2.848-1.682c2.923,0,3.226,2.173,3.226,3.713v8.316h-1.4V51.364c0-1.376-.538-2.665-2.174-2.665-1.259,0-2.544.864-2.544,3.5Z" transform="translate(-45.901 -36.402)" fill="#1c1406"/>
      <path id="Trazado_4" data-name="Trazado 4" d="M101.446,58.16H101.4a3.783,3.783,0,0,1-3.339,1.683c-2.1,0-3.247-1.426-3.247-3.481,0-4.135,4.16-3.715,6.542-3.9v-.982c0-1.727-.516-2.78-2.382-2.78-1.286,0-2.311.633-2.311,2.033h-1.5c.117-2.264,1.871-3.154,3.925-3.154,1.193,0,3.669.117,3.669,3.131v5.934a25.4,25.4,0,0,0,.139,2.964h-1.45Zm-.091-4.576c-2.009.067-5.046-.165-5.046,2.707,0,1.334.676,2.43,2.125,2.43a3.03,3.03,0,0,0,2.921-2.992Z" transform="translate(-49.951 -36.402)" fill="#1c1406"/>
      <path id="Trazado_5" data-name="Trazado 5" d="M111.616,59.608h-1.4v-11.8h1.4v1.45h.045a3.407,3.407,0,0,1,2.85-1.682c2.92,0,3.224,2.173,3.224,3.713v8.316h-1.4V51.364c0-1.376-.538-2.665-2.173-2.665-1.262,0-2.544.864-2.544,3.5Z" transform="translate(-54.442 -36.402)" fill="#1c1406"/>
      <path id="Trazado_6" data-name="Trazado 6" d="M129.894,51.2c.068-1.473-.47-2.5-2.081-2.5a1.948,1.948,0,0,0-1.893,1.354,16.109,16.109,0,0,0-.327,3.715c0,2.124,0,4.953,2.174,4.953,1.844,0,2.077-1.169,2.148-2.593h1.4c.119,3.175-2.124,3.715-3.225,3.715-3.994,0-3.994-3.154-3.994-6.074a15.642,15.642,0,0,1,.351-3.9A3.406,3.406,0,0,1,128,47.578c2.034,0,3.413,1.144,3.294,3.623Z" transform="translate(-58.492 -36.401)" fill="#1c1406"/>
      <path id="Trazado_7" data-name="Trazado 7" d="M138.116,40.756h1.728v1.772h-1.728Zm.163,5.065h1.4v11.8h-1.4Z" transform="translate(-62.581 -34.412)" fill="#1c1406"/>
      <path id="Trazado_8" data-name="Trazado 8" d="M145.98,54v.913c0,1.636.443,3.807,2.663,3.807a2.412,2.412,0,0,0,2.59-2.71h1.474c-.161,2.85-1.7,3.831-4.064,3.831-2.031,0-4.066-.817-4.066-4.392v-2.9c0-3.41,1.426-4.978,4.066-4.978,4.064,0,4.064,2.923,4.064,6.423Zm5.326-1.119c0-2.615-.419-4.183-2.663-4.183s-2.663,1.568-2.663,4.183Z" transform="translate(-64.465 -36.401)" fill="#1c1406"/>
      <path id="Trazado_9" data-name="Trazado 9" d="M161.181,49.4h.048a3.575,3.575,0,0,1,3.245-1.823V49a2.819,2.819,0,0,0-3.293,3.013v7.591h-1.4v-11.8h1.4Z" transform="translate(-68.899 -36.402)" fill="#1c1406"/>
      <path id="Trazado_10" data-name="Trazado 10" d="M174.691,58.16h-.045a3.788,3.788,0,0,1-3.341,1.683c-2.1,0-3.248-1.426-3.248-3.481,0-4.135,4.16-3.715,6.542-3.9v-.982c0-1.727-.516-2.78-2.382-2.78-1.286,0-2.314.633-2.314,2.033H168.41c.117-2.264,1.87-3.154,3.923-3.154,1.193,0,3.669.117,3.669,3.131v5.934a24.773,24.773,0,0,0,.142,2.964h-1.453Zm-.092-4.576c-2.009.067-5.044-.165-5.044,2.707,0,1.334.676,2.43,2.123,2.43A3.028,3.028,0,0,0,174.6,55.73Z" transform="translate(-71.313 -36.402)" fill="#1c1406"/>
      <path id="Trazado_11" data-name="Trazado 11" d="M61.406,96.827V74.335h7.569L72.5,89.63h.061L76.3,74.335h7.321V96.827H79.036V79.475h-.062L74.646,96.827H70.16L66.047,79.475h-.062V96.827Z" transform="translate(-40.208 -44.205)" fill="#1c1406"/>
      <path id="Trazado_12" data-name="Trazado 12" d="M97.333,91.413c0-4.3.623-7.975,6.414-7.975s6.418,3.678,6.418,7.975c0,4.922-.746,8.38-6.418,8.38s-6.414-3.459-6.414-8.38m8.441-.248c0-3.273-.154-4.924-2.027-4.924s-2.023,1.651-2.023,4.924c0,4.795.4,5.825,2.023,5.825s2.027-1.03,2.027-5.825" transform="translate(-50.686 -46.86)" fill="#1c1406"/>
      <path id="Trazado_13" data-name="Trazado 13" d="M124.239,85.337h.061a3.7,3.7,0,0,1,1.559-1.465,4.763,4.763,0,0,1,2.15-.438c2.085,0,3.924,1.252,3.924,3.431V99.48H127.54V88.641c0-1.4-.247-2.494-1.649-2.494s-1.652,1.092-1.652,2.494V99.48h-4.392V83.75h4.392Z" transform="translate(-57.252 -46.859)" fill="#1c1406"/>
      <path id="Trazado_14" data-name="Trazado 14" d="M139.325,82.045H141.1V79.555l4.392-1.966v4.456h2.276v2.709h-2.276v8.413c0,1.183-.03,1.962,1.4,1.962a3.039,3.039,0,0,0,.778-.062v2.709a18.234,18.234,0,0,1-2.274.157c-3.8,0-4.3-2.522-4.3-3.491V84.754h-1.776Z" transform="translate(-62.933 -45.154)" fill="#1c1406"/>
      <path id="Trazado_15" data-name="Trazado 15" d="M157.95,92.316c0,1.868.064,4.674,2,4.674,1.558,0,1.869-1.5,1.869-2.806h4.455a5.587,5.587,0,0,1-1.683,4.083,6.6,6.6,0,0,1-4.641,1.526c-5.668,0-6.419-3.459-6.419-8.38,0-4.3.624-7.978,6.419-7.978,5.92,0,6.573,3.835,6.419,8.882Zm4.022-2.461c0-1.529.062-3.708-2.026-3.708-2.024,0-2,2.367-2,3.708Z" transform="translate(-67.075 -46.859)" fill="#1c1406"/>
      <path id="Trazado_16" data-name="Trazado 16" d="M193.528,96.826V95.083h-.064a3.73,3.73,0,0,1-3.706,2.056c-4.545,0-4.392-5.048-4.392-8.289,0-3.175-.124-8.07,4.3-8.07a3.851,3.851,0,0,1,3.582,1.811h.06V74.335H197.7V96.826Zm-.22-8.008c0-3.144.032-5.327-1.775-5.327-1.9,0-1.867,2.183-1.867,5.327,0,3.957.28,5.611,1.867,5.611,1.5,0,1.775-1.655,1.775-5.611" transform="translate(-76.361 -44.205)" fill="#1c1406"/>
      <path id="Trazado_17" data-name="Trazado 17" d="M211.689,92.316c0,1.868.06,4.674,1.991,4.674,1.559,0,1.871-1.5,1.871-2.806h4.456a5.6,5.6,0,0,1-1.683,4.083,6.6,6.6,0,0,1-4.644,1.526c-5.665,0-6.417-3.459-6.417-8.38,0-4.3.626-7.978,6.417-7.978,5.923,0,6.573,3.835,6.421,8.882Zm4.021-2.461c0-1.529.059-3.708-2.029-3.708-2.023,0-1.991,2.367-1.991,3.708Z" transform="translate(-82.748 -46.859)" fill="#1c1406"/>
      <path id="Trazado_18" data-name="Trazado 18" d="M239.89,74.335h8.477c4.3,0,5.979,2.615,5.979,6.729,0,2.555-.745,6.6-6.261,6.6H244.6v9.16H239.89Zm4.708,9.876h2.614c1.405,0,2.369-1.528,2.369-3.021,0-1.842-.5-3.4-2.619-3.4H244.6Z" transform="translate(-92.264 -44.205)" fill="#1c1406"/>
      <path id="Trazado_19" data-name="Trazado 19" d="M268.905,77.795h-4.39v-3.46h4.39Zm0,19.032h-4.39V81.1h4.39Z" transform="translate(-99.446 -44.205)" fill="#1c1406"/>
      <path id="Trazado_20" data-name="Trazado 20" d="M280.107,92.316c0,1.868.064,4.674,2,4.674,1.559,0,1.871-1.5,1.871-2.806h4.453a5.585,5.585,0,0,1-1.683,4.083,6.593,6.593,0,0,1-4.641,1.526c-5.67,0-6.418-3.459-6.418-8.38,0-4.3.62-7.978,6.418-7.978,5.921,0,6.576,3.835,6.416,8.882Zm4.022-2.461c0-1.529.06-3.708-2.027-3.708-2.024,0-2,2.367-2,3.708Z" transform="translate(-102.704 -46.859)" fill="#1c1406"/>
      <path id="Trazado_21" data-name="Trazado 21" d="M305.922,96.826V95.083h-.064a3.738,3.738,0,0,1-3.707,2.056c-4.546,0-4.4-5.048-4.4-8.289,0-3.175-.115-8.07,4.3-8.07a3.845,3.845,0,0,1,3.582,1.811h.064V74.335h4.39V96.826Zm-.22-8.008c0-3.144.032-5.327-1.779-5.327-1.894,0-1.867,2.183-1.867,5.327,0,3.957.28,5.611,1.867,5.611,1.5,0,1.779-1.655,1.779-5.611" transform="translate(-109.14 -44.205)" fill="#1c1406"/>
      <path id="Trazado_22" data-name="Trazado 22" d="M331.926,96.55c0,.968.123,1.966.215,2.93H328.06l-.184-2.087h-.064a4.36,4.36,0,0,1-4.111,2.4c-3.054,0-4.178-2.275-4.178-5.015,0-5.2,4.023-5.42,8.1-5.357V88.2c0-1.336-.183-2.3-1.774-2.3-1.528,0-1.651,1.152-1.651,2.4h-4.3a4.307,4.307,0,0,1,1.619-3.831,6.841,6.841,0,0,1,4.111-1.031c5.581,0,6.3,2.4,6.3,5.268Zm-8.1-1.961c0,1.121.184,2.5,1.619,2.5,2.583,0,2.179-3.49,2.179-5.206-2.179.093-3.8-.093-3.8,2.71" transform="translate(-115.49 -46.859)" fill="#1c1406"/>
      <path id="Trazado_23" data-name="Trazado 23" d="M349.892,96.826V95.083h-.06a3.738,3.738,0,0,1-3.71,2.056c-4.546,0-4.394-5.048-4.394-8.289,0-3.175-.12-8.07,4.3-8.07a3.853,3.853,0,0,1,3.582,1.811h.06V74.335h4.394V96.826Zm-.22-8.008c0-3.144.032-5.327-1.775-5.327-1.9,0-1.867,2.183-1.867,5.327,0,3.957.276,5.611,1.867,5.611,1.495,0,1.775-1.655,1.775-5.611" transform="translate(-121.966 -44.205)" fill="#1c1406"/>
      <path id="Trazado_24" data-name="Trazado 24" d="M61.361,137.048V126.659h5.151v1.151H62.684v3.339h3.624V132.3H62.684v4.749Z" transform="translate(-40.194 -59.466)" fill="#554934"/>
      <path id="Trazado_25" data-name="Trazado 25" d="M68.979,126.659H70.3v1.266H68.979Zm1.254,10.389H69.051v-7.268h1.182Z" transform="translate(-42.416 -59.466)" fill="#554934"/>
      <rect id="Rectángulo_2" data-name="Rectángulo 2" width="1.18" height="10.392" transform="translate(28.967 67.19)" fill="#554934"/>
      <path id="Trazado_26" data-name="Trazado 26" d="M75.565,126.659h1.323v1.266H75.565Zm1.253,10.389H75.639v-7.268h1.179Z" transform="translate(-44.337 -59.466)" fill="#554934"/>
      <path id="Trazado_27" data-name="Trazado 27" d="M82.7,137.225h-.026a1.786,1.786,0,0,1-1.83,1.194c-1.539,0-1.986-.992-1.986-2.386,0-2.2,2.159-2.3,3.817-2.263.026-.961.042-2.012-1.225-2.012a1.074,1.074,0,0,0-1.135,1.293H79.03c.055-1.625.923-2.185,2.462-2.185,1.869,0,2.357.962,2.357,2.185v3.5a11.566,11.566,0,0,0,.143,1.726H82.7Zm-2.661-1.109c0,.705.345,1.338,1.135,1.338.722,0,1.614-.443,1.5-2.793-1.125.018-2.635-.084-2.635,1.455" transform="translate(-45.297 -60.693)" fill="#554934"/>
      <rect id="Rectángulo_3" data-name="Rectángulo 3" width="1.179" height="10.392" transform="translate(39.967 67.19)" fill="#554934"/>
      <path id="Trazado_28" data-name="Trazado 28" d="M98.285,126.659h1.183v10.389H98.285v-.863h-.026a1.8,1.8,0,0,1-1.668,1.007c-1.167,0-2.348-.462-2.348-3.658,0-1.811.059-3.9,2.4-3.9a1.845,1.845,0,0,1,1.6.877h.04ZM96.921,130.6c-1.267,0-1.439,1.008-1.439,2.952,0,1.093,0,2.675,1.483,2.675,1.321,0,1.321-1.64,1.321-3.108,0-.965-.055-2.519-1.364-2.519" transform="translate(-49.785 -59.466)" fill="#554934"/>
      <path id="Trazado_29" data-name="Trazado 29" d="M104.573,135.024c0,2.029.548,2.431,1.47,2.431a1.3,1.3,0,0,0,1.267-1.381H108.6a2.21,2.21,0,0,1-2.532,2.346c-1.541,0-2.763-.462-2.763-3.671,0-2.129.243-3.882,2.763-3.882,2.072,0,2.594,1.136,2.594,3.539v.619Zm2.839-.892c0-2.118-.592-2.374-1.459-2.374-.743,0-1.363.358-1.38,2.374Z" transform="translate(-52.429 -60.693)" fill="#554934"/>
      <path id="Trazado_30" data-name="Trazado 30" d="M123.115,126.659v10.389H121.3l-4.1-9.008h-.028v9.008h-1.18V126.659h1.869l4.044,8.892h.029v-8.892Z" transform="translate(-56.128 -59.466)" fill="#554934"/>
      <path id="Trazado_31" data-name="Trazado 31" d="M131.745,137.225h-.027a1.786,1.786,0,0,1-1.829,1.194c-1.54,0-1.987-.992-1.987-2.386,0-2.2,2.159-2.3,3.816-2.263.027-.961.042-2.012-1.227-2.012a1.075,1.075,0,0,0-1.135,1.293h-1.281c.058-1.625.922-2.185,2.462-2.185,1.871,0,2.361.962,2.361,2.185v3.5a11.29,11.29,0,0,0,.144,1.726h-1.3Zm-2.662-1.109c0,.705.346,1.338,1.136,1.338.72,0,1.612-.443,1.5-2.793-1.125.018-2.635-.084-2.635,1.455" transform="translate(-59.602 -60.693)" fill="#554934"/>
      <path id="Trazado_32" data-name="Trazado 32" d="M140.8,133.342c.031-1.2-.561-1.514-1.007-1.514-.906,0-1.524.433-1.524,2.418,0,2.359.3,3.209,1.524,3.209.275,0,1.094-.288,1.051-1.6h1.237a2.286,2.286,0,0,1-2.288,2.562c-1.537,0-2.764-.462-2.764-3.671,0-2.129.247-3.882,2.764-3.882a2.079,2.079,0,0,1,2.231,2.476Z" transform="translate(-62.263 -60.693)" fill="#554934"/>
      <path id="Trazado_33" data-name="Trazado 33" d="M145.785,126.659h1.326v1.266h-1.326Zm1.255,10.389h-1.179v-7.268h1.179Z" transform="translate(-64.817 -59.466)" fill="#554934"/>
      <path id="Trazado_34" data-name="Trazado 34" d="M148.94,134.748c0-2.129.245-3.882,2.763-3.882s2.764,1.754,2.764,3.882c0,3.21-1.223,3.671-2.764,3.671s-2.763-.462-2.763-3.671m4.289-.5c0-1.985-.618-2.418-1.526-2.418s-1.526.433-1.526,2.418c0,2.359.3,3.209,1.526,3.209s1.526-.849,1.526-3.209" transform="translate(-65.738 -60.693)" fill="#554934"/>
      <path id="Trazado_35" data-name="Trazado 35" d="M162.08,138.275v-5.037c0-.776-.273-1.41-1.281-1.41-1.295,0-1.482,1.152-1.482,2.144v4.3h-1.18v-5.756c0-.505-.028-1.007-.072-1.512h1.252v.937h.059a1.908,1.908,0,0,1,1.94-1.079c1.554,0,1.943.932,1.943,2.372v5.037Z" transform="translate(-68.399 -60.693)" fill="#554934"/>
      <path id="Trazado_36" data-name="Trazado 36" d="M170.809,137.225h-.028a1.783,1.783,0,0,1-1.828,1.194c-1.539,0-1.987-.992-1.987-2.386,0-2.2,2.16-2.3,3.815-2.263.028-.961.046-2.012-1.225-2.012a1.074,1.074,0,0,0-1.135,1.293h-1.28c.057-1.625.922-2.185,2.461-2.185,1.869,0,2.359.962,2.359,2.185v3.5a11.757,11.757,0,0,0,.142,1.726h-1.295Zm-2.662-1.109c0,.705.347,1.338,1.138,1.338.72,0,1.609-.443,1.5-2.793-1.123.018-2.634-.084-2.634,1.455" transform="translate(-70.995 -60.693)" fill="#554934"/>
      <rect id="Rectángulo_4" data-name="Rectángulo 4" width="1.178" height="10.392" transform="translate(102.381 67.19)" fill="#554934"/>
      <path id="Trazado_37" data-name="Trazado 37" d="M184.081,137.048h-1.238V126.659h2.145l2.619,8.72h.028l2.647-8.72h2.191v10.389h-1.325v-9.237h-.03l-2.906,9.237h-1.251l-2.851-9.237h-.028Z" transform="translate(-75.626 -59.466)" fill="#554934"/>
      <path id="Trazado_38" data-name="Trazado 38" d="M198.066,134.748c0-2.129.248-3.882,2.763-3.882s2.763,1.754,2.763,3.882c0,3.21-1.222,3.671-2.763,3.671s-2.763-.462-2.763-3.671m4.29-.5c0-1.985-.62-2.418-1.528-2.418s-1.525.433-1.525,2.418c0,2.359.306,3.209,1.525,3.209s1.528-.849,1.528-3.209" transform="translate(-80.066 -60.693)" fill="#554934"/>
      <path id="Trazado_39" data-name="Trazado 39" d="M211.208,138.275v-5.037c0-.776-.274-1.41-1.282-1.41-1.291,0-1.481,1.152-1.481,2.144v4.3h-1.182v-5.756c0-.505-.026-1.007-.074-1.512h1.255v.937h.058a1.913,1.913,0,0,1,1.945-1.079c1.551,0,1.941.932,1.941,2.372v5.037Z" transform="translate(-82.727 -60.693)" fill="#554934"/>
      <path id="Trazado_40" data-name="Trazado 40" d="M215.927,130.273v-1.4l1.184-.531v1.926h1.581v.893h-1.581v4.446c0,.463,0,1.053,1.075,1.053.09,0,.274-.029.536-.059v.907c-.39.029-.78.116-1.166.116-1.121,0-1.629-.46-1.629-1.3v-5.166h-1.191v-.893Z" transform="translate(-84.928 -59.958)" fill="#554934"/>
      <path id="Trazado_41" data-name="Trazado 41" d="M222.178,135.024c0,2.029.549,2.431,1.473,2.431a1.307,1.307,0,0,0,1.266-1.381h1.295a2.214,2.214,0,0,1-2.534,2.346c-1.539,0-2.761-.462-2.761-3.671,0-2.129.242-3.882,2.761-3.882,2.075,0,2.593,1.136,2.593,3.539v.619Zm2.84-.892c0-2.118-.591-2.374-1.458-2.374-.742,0-1.364.358-1.381,2.374Z" transform="translate(-86.73 -60.693)" fill="#554934"/>
      <path id="Trazado_42" data-name="Trazado 42" d="M237.071,126.659h1.179v10.389h-1.179v-.863h-.028a1.8,1.8,0,0,1-1.667,1.007c-1.167,0-2.349-.462-2.349-3.658,0-1.811.056-3.9,2.4-3.9a1.838,1.838,0,0,1,1.6.877h.042ZM235.7,130.6c-1.267,0-1.441,1.008-1.441,2.952,0,1.093,0,2.675,1.482,2.675,1.325,0,1.325-1.64,1.325-3.108,0-.965-.056-2.519-1.366-2.519" transform="translate(-90.262 -59.466)" fill="#554934"/>
      <path id="Trazado_43" data-name="Trazado 43" d="M243.359,135.024c0,2.029.544,2.431,1.47,2.431a1.3,1.3,0,0,0,1.265-1.381h1.3a2.211,2.211,0,0,1-2.531,2.346c-1.546,0-2.765-.462-2.765-3.671,0-2.129.242-3.882,2.765-3.882,2.068,0,2.589,1.136,2.589,3.539v.619Zm2.838-.892c0-2.118-.594-2.374-1.455-2.374-.747,0-1.369.358-1.383,2.374Z" transform="translate(-92.907 -60.693)" fill="#554934"/>
      <path id="Trazado_44" data-name="Trazado 44" d="M254.917,137.048V126.659H258c1.4,0,2.9.517,2.9,2.964a2.691,2.691,0,0,1-2.908,2.852h-1.743v4.574Zm1.324-5.728H257.7a1.649,1.649,0,0,0,1.837-1.77c0-1.583-1.177-1.74-1.466-1.74h-1.829Z" transform="translate(-96.647 -59.466)" fill="#554934"/>
      <path id="Trazado_45" data-name="Trazado 45" d="M264.425,126.659h1.327v1.266h-1.327Zm1.256,10.389H264.5v-7.268h1.179Z" transform="translate(-99.42 -59.466)" fill="#554934"/>
      <path id="Trazado_46" data-name="Trazado 46" d="M268.968,135.024c0,2.029.548,2.431,1.468,2.431a1.31,1.31,0,0,0,1.267-1.381H273a2.213,2.213,0,0,1-2.534,2.346c-1.539,0-2.758-.462-2.758-3.671,0-2.129.239-3.882,2.758-3.882,2.075,0,2.59,1.136,2.59,3.539v.619Zm2.839-.892c0-2.118-.6-2.374-1.46-2.374-.744,0-1.364.358-1.379,2.374Z" transform="translate(-100.376 -60.693)" fill="#554934"/>
      <path id="Trazado_47" data-name="Trazado 47" d="M280.567,126.659h1.179v10.389h-1.179v-.863h-.032a1.792,1.792,0,0,1-1.668,1.007c-1.162,0-2.346-.462-2.346-3.658,0-1.811.06-3.9,2.406-3.9a1.841,1.841,0,0,1,1.6.877h.045ZM279.2,130.6c-1.263,0-1.435,1.008-1.435,2.952,0,1.093,0,2.675,1.484,2.675,1.319,0,1.319-1.64,1.319-3.108,0-.965-.06-2.519-1.368-2.519" transform="translate(-102.948 -59.466)" fill="#554934"/>
      <path id="Trazado_48" data-name="Trazado 48" d="M289.448,137.225h-.028a1.78,1.78,0,0,1-1.827,1.194c-1.54,0-1.992-.992-1.992-2.386,0-2.2,2.163-2.3,3.819-2.263.028-.961.044-2.012-1.224-2.012a1.076,1.076,0,0,0-1.139,1.293h-1.279c.056-1.625.919-2.185,2.463-2.185,1.871,0,2.359.962,2.359,2.185v3.5a11.855,11.855,0,0,0,.144,1.726h-1.3Zm-2.663-1.109c0,.705.344,1.338,1.139,1.338.72,0,1.608-.443,1.5-2.793-1.123.018-2.635-.084-2.635,1.455" transform="translate(-105.596 -60.693)" fill="#554934"/>
      <path id="Trazado_49" data-name="Trazado 49" d="M298.45,126.659h1.188v10.389H298.45v-.863h-.024a1.8,1.8,0,0,1-1.672,1.007c-1.167,0-2.346-.462-2.346-3.658,0-1.811.056-3.9,2.4-3.9a1.844,1.844,0,0,1,1.6.877h.04Zm-1.364,3.942c-1.267,0-1.439,1.008-1.439,2.952,0,1.093,0,2.675,1.483,2.675,1.32,0,1.32-1.64,1.32-3.108,0-.965-.056-2.519-1.364-2.519" transform="translate(-108.165 -59.466)" fill="#554934"/>
      <path id="Trazado_50" data-name="Trazado 50" d="M323.345,136.65l.252.013v2.076l.6.1V136.3l-.856-.025Z" transform="translate(-116.604 -62.269)" fill="#b60036"/>
      <path id="Trazado_51" data-name="Trazado 51" d="M323.345,130.016l.252-.058v1.776l.6-.069v-2.219l-.856.209Z" transform="translate(-116.604 -60.279)" fill="#b60036"/>
      <path id="Trazado_52" data-name="Trazado 52" d="M323.345,126.379l.252-.093v1.871l.6-.152v-2.34l-.856.336Z" transform="translate(-116.604 -59.176)" fill="#b60036"/>
      <path id="Trazado_53" data-name="Trazado 53" d="M323.817,124.332l-.212.517-.26.108v.312l.856-.345V124.6l-.156.066Z" transform="translate(-116.604 -58.787)" fill="#b60036"/>
      <path id="Trazado_54" data-name="Trazado 54" d="M323.345,133.5l.252-.022v1.551l.6.009v-1.986l-.856.084Z" transform="translate(-116.604 -61.331)" fill="#b60036"/>
      <path id="Trazado_55" data-name="Trazado 55" d="M319.66,136.507l.2.008v1.731l.62.11V136.2l-.824-.023Z" transform="translate(-115.53 -62.241)" fill="#b60036"/>
      <path id="Trazado_56" data-name="Trazado 56" d="M319.66,127.776l.2-.077v1.56c.208-.052.412-.1.62-.158v-1.982l-.824.319Z" transform="translate(-115.53 -59.6)" fill="#b60036"/>
      <path id="Trazado_57" data-name="Trazado 57" d="M320.1,125.919l-.207.506-.228.1v.262l.824-.331v-.281l-.164.07Z" transform="translate(-115.53 -59.25)" fill="#b60036"/>
      <path id="Trazado_58" data-name="Trazado 58" d="M319.66,130.866l.2-.046V132.3l.62-.07v-1.88l-.824.2Z" transform="translate(-115.53 -60.542)" fill="#b60036"/>
      <path id="Trazado_59" data-name="Trazado 59" d="M319.66,133.834l.2-.015V135.1l.62.01v-1.678l-.824.082Z" transform="translate(-115.53 -61.441)" fill="#b60036"/>
      <path id="Trazado_60" data-name="Trazado 60" d="M321.607,136.583l.156,0v1.908l.611.107v-2.353l-.768-.024Z" transform="translate(-116.098 -62.256)" fill="#b60036"/>
      <path id="Trazado_61" data-name="Trazado 61" d="M321.607,127.051l.157-.057v1.716c.2-.054.407-.1.611-.158v-2.158l-.768.3Z" transform="translate(-116.098 -59.389)" fill="#b60036"/>
      <path id="Trazado_62" data-name="Trazado 62" d="M321.987,125.126l-.208.511-.172.072V126l.768-.311v-.3l-.16.067Z" transform="translate(-116.098 -59.019)" fill="#b60036"/>
      <path id="Trazado_63" data-name="Trazado 63" d="M321.607,133.662l.156-.014v1.415l.611.01v-1.829l-.768.077Z" transform="translate(-116.098 -61.387)" fill="#b60036"/>
      <path id="Trazado_64" data-name="Trazado 64" d="M321.607,130.427l.156-.036v1.626l.611-.07V129.9l-.768.183Z" transform="translate(-116.098 -60.411)" fill="#b60036"/>
      <path id="Trazado_65" data-name="Trazado 65" d="M314.5,128.3l-.2.491-.192.082v.2l.8-.321v-.211l-.18.077Z" transform="translate(-113.91 -59.945)" fill="#b60036"/>
      <path id="Trazado_66" data-name="Trazado 66" d="M314.106,136.288l.144.006v1.217l.652.111v-1.578l-.8-.019Z" transform="translate(-113.91 -62.198)" fill="#b60036"/>
      <path id="Trazado_67" data-name="Trazado 67" d="M314.106,134.331l.144-.009v.88l.652.009v-1.222l-.8.08Z" transform="translate(-113.91 -61.604)" fill="#b60036"/>
      <path id="Trazado_68" data-name="Trazado 68" d="M314.106,129.871l.144-.05v1.1l.652-.168V129.3l-.8.313Z" transform="translate(-113.91 -60.236)" fill="#b60036"/>
      <path id="Trazado_69" data-name="Trazado 69" d="M314.106,132.155l.144-.032v1.021l.652-.072V131.7l-.8.193Z" transform="translate(-113.91 -60.936)" fill="#b60036"/>
      <path id="Trazado_70" data-name="Trazado 70" d="M315.986,129.166l.14-.05v1.247c.216-.052.428-.108.643-.162v-1.624l-.783.305Z" transform="translate(-114.458 -60.025)" fill="#b60036"/>
      <path id="Trazado_71" data-name="Trazado 71" d="M315.986,136.366l.14,0v1.384l.643.111V136.1l-.783-.021Z" transform="translate(-114.458 -62.213)" fill="#b60036"/>
      <path id="Trazado_72" data-name="Trazado 72" d="M316.373,127.5l-.2.5-.187.082v.219l.783-.318v-.234l-.171.073Z" transform="translate(-114.458 -59.713)" fill="#b60036"/>
      <path id="Trazado_73" data-name="Trazado 73" d="M315.986,134.167l.14-.018v1.017l.643.008V133.8l-.783.078Z" transform="translate(-114.458 -61.549)" fill="#b60036"/>
      <path id="Trazado_74" data-name="Trazado 74" d="M315.986,131.723l.14-.033v1.178l.643-.078v-1.537l-.783.186Z" transform="translate(-114.458 -60.806)" fill="#b60036"/>
      <path id="Trazado_75" data-name="Trazado 75" d="M317.791,128.479l.192-.072v1.405c.212-.055.424-.111.633-.163v-1.806l-.824.325Z" transform="translate(-114.985 -59.812)" fill="#b60036"/>
      <path id="Trazado_76" data-name="Trazado 76" d="M317.792,131.3l.192-.046v1.324l.632-.072V130.8l-.824.2Z" transform="translate(-114.985 -60.673)" fill="#b60036"/>
      <path id="Trazado_77" data-name="Trazado 77" d="M318.223,126.717l-.2.5-.232.1v.24l.824-.336v-.256l-.168.073Z" transform="translate(-114.985 -59.483)" fill="#b60036"/>
      <path id="Trazado_78" data-name="Trazado 78" d="M317.792,136.434l.192.007V138l.632.108v-1.964l-.824-.023Z" transform="translate(-114.985 -62.226)" fill="#b60036"/>
      <path id="Trazado_79" data-name="Trazado 79" d="M317.792,134l.192-.014v1.146l.632.01v-1.525l-.824.082Z" transform="translate(-114.985 -61.495)" fill="#b60036"/>
      <path id="Trazado_80" data-name="Trazado 80" d="M330.971,128.266l.2-.045v2.386l.54-.062v-2.9l-.74.174Z" transform="translate(-118.829 -59.755)" fill="#b60036"/>
      <path id="Trazado_81" data-name="Trazado 81" d="M331.335,121.155l-.217.539-.147.061v.4l.74-.294v-.421l-.132.054Z" transform="translate(-118.829 -57.861)" fill="#b60036"/>
      <path id="Trazado_82" data-name="Trazado 82" d="M330.971,132.827l.2-.016v2.082l.54.01V132.31l-.74.073Z" transform="translate(-118.829 -61.114)" fill="#b60036"/>
      <path id="Trazado_83" data-name="Trazado 83" d="M330.971,123.525l.2-.073v2.5c.184-.046.368-.09.54-.135v-3.063l-.74.284Z" transform="translate(-118.829 -58.329)" fill="#b60036"/>
      <path id="Trazado_84" data-name="Trazado 84" d="M330.971,136.949l.2.011v2.771l.54.1V136.5l-.74-.023Z" transform="translate(-118.829 -62.33)" fill="#b60036"/>
      <path id="Trazado_85" data-name="Trazado 85" d="M329.063,133l.208-.016v1.948l.564.007V132.5l-.772.078Z" transform="translate(-118.272 -61.169)" fill="#b60036"/>
      <path id="Trazado_86" data-name="Trazado 86" d="M329.063,128.7l.208-.046v2.233l.564-.064V128.1l-.772.183Z" transform="translate(-118.272 -59.885)" fill="#b60036"/>
      <path id="Trazado_87" data-name="Trazado 87" d="M329.063,124.238l.208-.078v2.347c.191-.05.38-.1.564-.144v-2.88l-.772.3Z" transform="translate(-118.272 -58.54)" fill="#b60036"/>
      <path id="Trazado_88" data-name="Trazado 88" d="M329.459,121.946l-.22.534-.176.077v.382l.772-.315v-.392l-.14.054Z" transform="translate(-118.272 -58.091)" fill="#b60036"/>
      <path id="Trazado_89" data-name="Trazado 89" d="M329.063,136.873l.208.013v2.595l.564.1v-3.127l-.772-.023Z" transform="translate(-118.272 -62.315)" fill="#b60036"/>
      <path id="Trazado_90" data-name="Trazado 90" d="M332.878,127.826l.188-.038v2.532l.524-.059v-3.068l-.712.171Z" transform="translate(-119.385 -59.622)" fill="#b60036"/>
      <path id="Trazado_91" data-name="Trazado 91" d="M333.218,120.362,333,120.9l-.124.048v.432l.712-.288v-.442l-.128.052Z" transform="translate(-119.385 -57.629)" fill="#b60036"/>
      <path id="Trazado_92" data-name="Trazado 92" d="M332.878,137.025l.188.005v2.95l.524.094v-3.519l-.712-.018Z" transform="translate(-119.385 -62.347)" fill="#b60036"/>
      <path id="Trazado_93" data-name="Trazado 93" d="M332.878,122.807l.188-.071v2.672c.188-.048.364-.09.523-.128v-3.25l-.712.273Z" transform="translate(-119.385 -58.116)" fill="#b60036"/>
      <path id="Trazado_94" data-name="Trazado 94" d="M332.878,132.66l.188-.018v2.219l.524.01v-2.746l-.712.069Z" transform="translate(-119.385 -61.06)" fill="#b60036"/>
      <path id="Trazado_95" data-name="Trazado 95" d="M327.156,129.142l.223-.054v2.083l.576-.067v-2.559l-.8.2Z" transform="translate(-117.716 -60.016)" fill="#b60036"/>
      <path id="Trazado_96" data-name="Trazado 96" d="M327.156,124.952l.223-.084v2.187l.577-.144v-2.7l-.8.311Z" transform="translate(-117.716 -58.751)" fill="#b60036"/>
      <path id="Trazado_97" data-name="Trazado 97" d="M327.156,133.167l.223-.019v1.813l.576.009v-2.289l-.8.081Z" transform="translate(-117.716 -61.223)" fill="#b60036"/>
      <path id="Trazado_98" data-name="Trazado 98" d="M327.579,122.744l-.216.526-.208.088v.357l.8-.321v-.374l-.14.062Z" transform="translate(-117.716 -58.324)" fill="#b60036"/>
      <path id="Trazado_99" data-name="Trazado 99" d="M327.156,136.8l.223.01v2.424l.576.1V136.4l-.8-.022Z" transform="translate(-117.716 -62.301)" fill="#b60036"/>
      <path id="Trazado_100" data-name="Trazado 100" d="M325.253,133.339l.236-.023V135l.587.009v-2.137l-.823.082Z" transform="translate(-117.161 -61.277)" fill="#b60036"/>
      <path id="Trazado_101" data-name="Trazado 101" d="M325.7,123.539l-.216.522-.232.1v.333l.823-.333v-.348l-.147.062Z" transform="translate(-117.161 -58.556)" fill="#b60036"/>
      <path id="Trazado_102" data-name="Trazado 102" d="M325.253,129.578l.236-.055v1.93l.587-.069v-2.39l-.823.2Z" transform="translate(-117.161 -60.147)" fill="#b60036"/>
      <path id="Trazado_103" data-name="Trazado 103" d="M325.253,125.665l.236-.089V127.6c.2-.05.4-.1.588-.147v-2.525l-.824.326Z" transform="translate(-117.161 -58.963)" fill="#b60036"/>
      <path id="Trazado_104" data-name="Trazado 104" d="M325.253,136.726l.236.012v2.249l.587.106v-2.744l-.823-.021Z" transform="translate(-117.161 -62.286)" fill="#b60036"/>
      <path id="Trazado_105" data-name="Trazado 105" d="M354.449,134.423v-.276l-.8-.09V135.5h.6v-1.1Z" transform="translate(-125.443 -61.624)" fill="#b60036"/>
      <path id="Trazado_106" data-name="Trazado 106" d="M354.449,136.761v-.308l-.8.008v1.862l.6-.088v-1.469Z" transform="translate(-125.443 -62.323)" fill="#b60036"/>
      <path id="Trazado_107" data-name="Trazado 107" d="M354.449,129.2v-.307l-.8-.3v1.715l.6.152v-1.332Z" transform="translate(-125.443 -60.029)" fill="#b60036"/>
      <path id="Trazado_108" data-name="Trazado 108" d="M354.449,128.074l-.164-.068-.2-.485-.223.313-.216-.089v.242l.8.315Z" transform="translate(-125.443 -59.717)" fill="#b60036"/>
      <path id="Trazado_109" data-name="Trazado 109" d="M354.449,131.865v-.287l-.8-.2V133l.6.077V131.82Z" transform="translate(-125.443 -60.844)" fill="#b60036"/>
      <path id="Trazado_110" data-name="Trazado 110" d="M348.784,130.545V130.2l-.851-.207v7.025l.58-.081v-6.453Z" transform="translate(-123.776 -60.439)" fill="#b60036"/>
      <path id="Trazado_111" data-name="Trazado 111" d="M348.784,125.739l-.188-.075-.2-.5-.228.326-.232-.1v.311l.851.338Z" transform="translate(-123.776 -59.029)" fill="#b60036"/>
      <path id="Trazado_112" data-name="Trazado 112" d="M348.512,127l.272.1v-.37l-.851-.326v2.23l.851.218v-.383l-.272-.074Z" transform="translate(-123.776 -59.392)" fill="#b60036"/>
      <path id="Trazado_113" data-name="Trazado 113" d="M339.125,128.292v-.443l-.732-.179v2.911l.532.064v-2.4Z" transform="translate(-120.993 -59.761)" fill="#b60036"/>
      <path id="Trazado_114" data-name="Trazado 114" d="M339.125,132.88v-.443l-.732-.082v2.606l.532,0v-2.1Z" transform="translate(-120.993 -61.127)" fill="#b60036"/>
      <path id="Trazado_115" data-name="Trazado 115" d="M339.125,121.749l-.1-.041-.216-.535-.24.345-.172-.071v.425l.732.29Z" transform="translate(-120.993 -57.866)" fill="#b60036"/>
      <path id="Trazado_116" data-name="Trazado 116" d="M339.125,123.528v-.483l-.732-.279v3.083l.532.138v-2.532Z" transform="translate(-120.993 -58.331)" fill="#b60036"/>
      <path id="Trazado_117" data-name="Trazado 117" d="M339.125,137.036v-.47l-.732,0v3.338l.532-.075v-2.795Z" transform="translate(-120.993 -62.355)" fill="#b60036"/>
      <path id="Trazado_118" data-name="Trazado 118" d="M352.585,131.434v-.311l-.843-.2V132.7l.6.076v-1.4Z" transform="translate(-124.887 -60.709)" fill="#b60036"/>
      <path id="Trazado_119" data-name="Trazado 119" d="M352.585,128.512v-.328l-.843-.323v1.889l.6.151v-1.479Z" transform="translate(-124.887 -59.817)" fill="#b60036"/>
      <path id="Trazado_120" data-name="Trazado 120" d="M352.585,134.233v-.3l-.843-.092v1.585l.6,0v-1.224Z" transform="translate(-124.887 -61.562)" fill="#b60036"/>
      <path id="Trazado_121" data-name="Trazado 121" d="M352.585,136.794v-.327l-.843,0v2.049l.6-.086V136.8Z" transform="translate(-124.887 -62.327)" fill="#b60036"/>
      <path id="Trazado_122" data-name="Trazado 122" d="M352.585,127.31l-.183-.072-.2-.49-.22.315-.24-.1v.264l.843.334Z" transform="translate(-124.887 -59.492)" fill="#b60036"/>
      <path id="Trazado_123" data-name="Trazado 123" d="M356.359,128.863l-.172-.074-.2-.478-.212.308-.212-.087v.216l.8.322Z" transform="translate(-126.001 -59.948)" fill="#b60036"/>
      <path id="Trazado_124" data-name="Trazado 124" d="M356.359,129.909v-.286l-.8-.3v1.544l.6.155v-1.185Z" transform="translate(-126.001 -60.242)" fill="#b60036"/>
      <path id="Trazado_125" data-name="Trazado 125" d="M356.359,134.614v-.256l-.8-.085v1.291l.6.008V134.6Z" transform="translate(-126.001 -61.687)" fill="#b60036"/>
      <path id="Trazado_126" data-name="Trazado 126" d="M356.359,132.312v-.267l-.8-.2V133.3l.6.074v-1.11Z" transform="translate(-126.001 -60.98)" fill="#b60036"/>
      <path id="Trazado_127" data-name="Trazado 127" d="M356.359,136.725v-.289l-.8.009v1.68l.6-.091v-1.3Z" transform="translate(-126.001 -62.318)" fill="#b60036"/>
      <path id="Trazado_128" data-name="Trazado 128" d="M358.233,132.752V132.5l-.767-.183v1.29l.6.074v-.97Z" transform="translate(-126.556 -61.116)" fill="#b60036"/>
      <path id="Trazado_129" data-name="Trazado 129" d="M358.233,130.6v-.266l-.767-.294v1.375l.6.153V130.54Z" transform="translate(-126.556 -60.453)" fill="#b60036"/>
      <path id="Trazado_130" data-name="Trazado 130" d="M358.233,129.628l-.184-.078-.2-.477-.216.308-.171-.071v.2l.767.3Z" transform="translate(-126.556 -60.17)" fill="#b60036"/>
      <path id="Trazado_131" data-name="Trazado 131" d="M358.233,134.806v-.235l-.767-.086v1.148l.6,0v-.849Z" transform="translate(-126.556 -61.748)" fill="#b60036"/>
      <path id="Trazado_132" data-name="Trazado 132" d="M358.233,136.7v-.268l-.767,0v1.491l.6-.085V136.7Z" transform="translate(-126.556 -62.315)" fill="#b60036"/>
      <path id="Trazado_133" data-name="Trazado 133" d="M350.318,125.963l-.224.322-.26-.106v.287l.88.349v-.273l-.192-.079Z" transform="translate(-124.33 -59.263)" fill="#b60036"/>
      <path id="Trazado_134" data-name="Trazado 134" d="M349.833,130.8l.344.075v6.04l.536-.077V130.67l-.88-.214Z" transform="translate(-124.33 -60.574)" fill="#b60036"/>
      <path id="Trazado_135" data-name="Trazado 135" d="M349.833,127.5l.344.127v1.282l-.344-.093v.376l.88.227V127.47l-.88-.338Z" transform="translate(-124.33 -59.604)" fill="#b60036"/>
      <path id="Trazado_136" data-name="Trazado 136" d="M335.035,118.04l-.144,1.124-.156.258v.754l.3-.121h0l.3.118v-.75l-.156-.258Z" transform="translate(-119.927 -56.952)" fill="#b60036"/>
      <path id="Trazado_137" data-name="Trazado 137" d="M334.736,126.957V130.1l.3-.029.3.036v-3.15l-.3-.073Z" transform="translate(-119.927 -59.531)" fill="#b60036"/>
      <path id="Trazado_138" data-name="Trazado 138" d="M335.031,121.531l-.3.118v3.332c.184-.049.288-.071.3-.076h0l.292.076V121.73h0v-.086l-.3-.113Z" transform="translate(-119.927 -57.97)" fill="#b60036"/>
      <path id="Trazado_139" data-name="Trazado 139" d="M335.035,134.843l.292,0v-2.818l-.3-.033-.3.029v2.817Z" transform="translate(-119.927 -61.022)" fill="#b60036"/>
      <path id="Trazado_140" data-name="Trazado 140" d="M335.031,136.593l-.3-.006v3.6l.3.053.288-.041V136.59l-.3,0" transform="translate(-119.927 -62.362)" fill="#b60036"/>
      <path id="Trazado_141" data-name="Trazado 141" d="M341.055,124.245v-.461l-.76-.29v2.915l.548.138v-2.381Z" transform="translate(-121.548 -58.543)" fill="#b60036"/>
      <path id="Trazado_142" data-name="Trazado 142" d="M341.055,133.078v-.424l-.76-.081v2.455l.548,0v-1.979Z" transform="translate(-121.548 -61.191)" fill="#b60036"/>
      <path id="Trazado_143" data-name="Trazado 143" d="M341.055,122.546l-.128-.054-.22-.526-.236.34-.176-.068v.4l.76.3Z" transform="translate(-121.548 -58.097)" fill="#b60036"/>
      <path id="Trazado_144" data-name="Trazado 144" d="M341.055,128.744v-.424l-.76-.185v2.75l.548.067V128.7Z" transform="translate(-121.548 -59.897)" fill="#b60036"/>
      <path id="Trazado_145" data-name="Trazado 145" d="M341.055,137v-.448l-.76,0v3.155l.548-.079v-2.627Z" transform="translate(-121.548 -62.351)" fill="#b60036"/>
      <path id="Trazado_146" data-name="Trazado 146" d="M337.191,120.944l-.1-.042-.224-.537-.243.348-.14-.058v.448l.711.28Z" transform="translate(-120.435 -57.63)" fill="#b60036"/>
      <path id="Trazado_147" data-name="Trazado 147" d="M337.191,137.071v-.493l-.711.006v3.525l.528-.079v-2.954Z" transform="translate(-120.435 -62.359)" fill="#b60036"/>
      <path id="Trazado_148" data-name="Trazado 148" d="M337.191,122.811v-.5l-.711-.272v3.256l.528.133v-2.679Z" transform="translate(-120.435 -58.118)" fill="#b60036"/>
      <path id="Trazado_149" data-name="Trazado 149" d="M337.191,127.842v-.465l-.711-.172v3.075l.528.065V127.8Z" transform="translate(-120.435 -59.625)" fill="#b60036"/>
      <path id="Trazado_150" data-name="Trazado 150" d="M337.191,132.688v-.466l-.711-.078v2.75h.528V132.67Z" transform="translate(-120.435 -61.066)" fill="#b60036"/>
      <path id="Trazado_151" data-name="Trazado 151" d="M344.918,133.464v-.378l-.807-.091v2.166l.571,0v-1.726Z" transform="translate(-122.661 -61.314)" fill="#b60036"/>
      <path id="Trazado_152" data-name="Trazado 152" d="M344.918,125.672v-.414l-.807-.311v2.57l.571.146v-2.079Z" transform="translate(-122.661 -58.967)" fill="#b60036"/>
      <path id="Trazado_153" data-name="Trazado 153" d="M344.918,136.933v-.406l-.807,0v2.784l.571-.081v-2.292Z" transform="translate(-122.661 -62.344)" fill="#b60036"/>
      <path id="Trazado_154" data-name="Trazado 154" d="M344.918,129.644v-.386l-.807-.195v2.422l.571.074v-1.973Z" transform="translate(-122.661 -60.167)" fill="#b60036"/>
      <path id="Trazado_155" data-name="Trazado 155" d="M344.918,124.138l-.164-.065-.208-.52-.236.337-.2-.082v.357l.807.317Z" transform="translate(-122.661 -58.56)" fill="#b60036"/>
      <path id="Trazado_156" data-name="Trazado 156" d="M346.85,130.1v-.368l-.831-.2v2.264l.58.072v-1.823Z" transform="translate(-123.217 -60.302)" fill="#b60036"/>
      <path id="Trazado_157" data-name="Trazado 157" d="M346.85,126.385v-.391l-.831-.319v2.4l.58.149v-1.929Z" transform="translate(-123.217 -59.179)" fill="#b60036"/>
      <path id="Trazado_158" data-name="Trazado 158" d="M346.85,133.656v-.361l-.831-.09v2.025l.58,0v-1.6Z" transform="translate(-123.217 -61.375)" fill="#b60036"/>
      <path id="Trazado_159" data-name="Trazado 159" d="M346.85,136.9v-.386l-.831,0v2.6l.58-.083V136.9Z" transform="translate(-123.217 -62.339)" fill="#b60036"/>
      <path id="Trazado_160" data-name="Trazado 160" d="M346.85,124.944l-.151-.062-.208-.512-.236.328-.236-.1v.333l.831.329Z" transform="translate(-123.217 -58.799)" fill="#b60036"/>
      <path id="Trazado_161" data-name="Trazado 161" d="M342.988,123.345l-.148-.062-.207-.516-.236.334-.188-.079v.382l.78.306Z" transform="translate(-122.106 -58.331)" fill="#b60036"/>
      <path id="Trazado_162" data-name="Trazado 162" d="M342.988,136.965v-.429l-.78.007v2.966l.555-.079v-2.46Z" transform="translate(-122.106 -62.347)" fill="#b60036"/>
      <path id="Trazado_163" data-name="Trazado 163" d="M342.988,124.96v-.442l-.78-.3v2.743l.555.139v-2.225Z" transform="translate(-122.106 -58.755)" fill="#b60036"/>
      <path id="Trazado_164" data-name="Trazado 164" d="M342.988,129.191v-.4l-.78-.19v2.591l.555.067V129.14Z" transform="translate(-122.106 -60.031)" fill="#b60036"/>
      <path id="Trazado_165" data-name="Trazado 165" d="M342.988,133.269v-.4l-.78-.088v2.314h.555v-1.846Z" transform="translate(-122.106 -61.251)" fill="#b60036"/>
    </g>
    <g id="Grupo_2" data-name="Grupo 2" transform="translate(266.416 109.065)">
      <path id="Trazado_166" data-name="Trazado 166" d="M365.683,140.879a2.607,2.607,0,1,0,2.532,2.6A2.573,2.573,0,0,0,365.683,140.879Zm0,4.878a2.27,2.27,0,1,1,2.2-2.274A2.223,2.223,0,0,1,365.683,145.757Zm-.013-3.428-.036.035-.611,1.9-.628-1.9-.033-.035h-.334l-.04.043v2.221l.04.03h.192l.04-.03v-1.814l.6,1.823.036.021h.232l.031-.025.589-1.813v1.809l.032.03h.194l.04-.03v-2.221l-.04-.043Zm1.756,2.157c0-.049-.011-.1-.011-.156,0-.678,0-.825-.235-.905.21-.081.258-.258.258-.521,0-.432-.142-.574-.58-.574h-.61l-.035.043v2.221l.035.03h.2l.035-.03v-1.038h.33a.349.349,0,0,1,.244.076.513.513,0,0,1,.085.364v.049a4.219,4.219,0,0,0,.036.553l.035.025h.187l.04-.044A.891.891,0,0,0,367.426,144.486Zm-.661-1.172h-.28v-.74h.366c.218,0,.312.05.312.33C367.162,143.251,367.037,143.314,366.765,143.314Z" transform="translate(-363.151 -140.879)"/>
    </g>
  </g>
</svg>
