<svg xmlns="http://www.w3.org/2000/svg" width="345.313" height="180" viewBox="0 0 345.313 180">
  <defs>
    <style>
      .cls-1 {
        fill: #fff;
      }
    </style>
  </defs>
  <g id="Grupo_3511" data-name="Grupo 3511" transform="translate(17716 3325)">
    <path id="Trazado_4932" data-name="Trazado 4932" class="cls-1" d="M33.048,5.471H13.414L9.668,14.533H-.36L18.488-27.755h9.666L47.063,14.533H36.793ZM29.967-1.959,23.261-18.15,16.555-1.959ZM89.956,14.533,89.9-10.84,77.45,10.063H73.04L60.656-10.3V14.533H51.473V-27.755h8.1L75.4-1.476,90.983-27.755h8.035l.121,42.288Zm33.106.725a34.6,34.6,0,0,1-9.7-1.359,22.741,22.741,0,0,1-7.521-3.534l3.323-7.37a22.547,22.547,0,0,0,6.464,3.2A24.279,24.279,0,0,0,123.122,7.4q4.168,0,6.162-1.238a3.742,3.742,0,0,0,1.994-3.292A3.147,3.147,0,0,0,130.1.367a8.931,8.931,0,0,0-3.021-1.6q-1.843-.6-4.984-1.329a68.894,68.894,0,0,1-7.914-2.3,12.858,12.858,0,0,1-5.286-3.685,9.952,9.952,0,0,1-2.205-6.766,11.77,11.77,0,0,1,1.994-6.676,13.41,13.41,0,0,1,6.011-4.742,24.528,24.528,0,0,1,9.817-1.752,32.507,32.507,0,0,1,7.914.967,23.379,23.379,0,0,1,6.766,2.779L136.171-17.3a23.579,23.579,0,0,0-11.72-3.323q-4.108,0-6.071,1.329a4.057,4.057,0,0,0-1.963,3.5,3.426,3.426,0,0,0,2.265,3.232,35.569,35.569,0,0,0,6.917,2.084,68.9,68.9,0,0,1,7.914,2.3A13.105,13.105,0,0,1,138.8-4.557,9.719,9.719,0,0,1,141,2.149a11.547,11.547,0,0,1-2.024,6.615,13.6,13.6,0,0,1-6.071,4.742A24.751,24.751,0,0,1,123.061,15.258Zm45.128,0a24.683,24.683,0,0,1-11.871-2.839A21.073,21.073,0,0,1,148.042,4.6a21.358,21.358,0,0,1-2.99-11.206,21.358,21.358,0,0,1,2.99-11.206,21.073,21.073,0,0,1,8.276-7.823,24.683,24.683,0,0,1,11.871-2.839,24.508,24.508,0,0,1,11.841,2.839,21.346,21.346,0,0,1,8.276,7.823,21.194,21.194,0,0,1,3.021,11.206A21.194,21.194,0,0,1,188.306,4.6a21.346,21.346,0,0,1-8.276,7.823A24.508,24.508,0,0,1,168.189,15.258Zm0-8.337A13.419,13.419,0,0,0,174.955,5.2,12.356,12.356,0,0,0,179.7.4a14.118,14.118,0,0,0,1.722-7.008,14.118,14.118,0,0,0-1.722-7.008,12.356,12.356,0,0,0-4.742-4.8,13.419,13.419,0,0,0-6.766-1.722,13.419,13.419,0,0,0-6.766,1.722,12.356,12.356,0,0,0-4.742,4.8,14.119,14.119,0,0,0-1.722,7.008A14.119,14.119,0,0,0,156.681.4a12.356,12.356,0,0,0,4.742,4.8A13.419,13.419,0,0,0,168.189,6.921ZM208.484-19.9V-8.725h19.573V-.872H208.484V14.533H198.7V-27.755h31.958V-19.9ZM237.3-27.755h9.787V14.533H237.3Zm38.12,0a23.492,23.492,0,0,1,9.757,1.873,14.5,14.5,0,0,1,6.373,5.316,14.645,14.645,0,0,1,2.235,8.156,14.684,14.684,0,0,1-2.235,8.125,14.236,14.236,0,0,1-6.373,5.316,23.827,23.827,0,0,1-9.757,1.843H266.9V14.533h-9.787V-27.755ZM274.876-5.1q4.41,0,6.706-1.9a6.628,6.628,0,0,0,2.3-5.407,6.7,6.7,0,0,0-2.3-5.467q-2.3-1.9-6.706-1.9H266.9V-5.1Zm46.94,20.359a24.683,24.683,0,0,1-11.871-2.839A21.074,21.074,0,0,1,301.669,4.6a21.358,21.358,0,0,1-2.99-11.206,21.359,21.359,0,0,1,2.99-11.206,21.074,21.074,0,0,1,8.277-7.823,24.683,24.683,0,0,1,11.871-2.839,24.508,24.508,0,0,1,11.841,2.839,21.347,21.347,0,0,1,8.276,7.823,21.194,21.194,0,0,1,3.021,11.206A21.194,21.194,0,0,1,341.933,4.6a21.347,21.347,0,0,1-8.276,7.823A24.508,24.508,0,0,1,321.816,15.258Zm0-8.337A13.42,13.42,0,0,0,328.583,5.2,12.356,12.356,0,0,0,333.325.4a14.118,14.118,0,0,0,1.722-7.008,14.118,14.118,0,0,0-1.722-7.008,12.356,12.356,0,0,0-4.742-4.8,13.42,13.42,0,0,0-6.766-1.722,13.419,13.419,0,0,0-6.766,1.722,12.355,12.355,0,0,0-4.742,4.8,14.118,14.118,0,0,0-1.722,7.008A14.118,14.118,0,0,0,310.308.4a12.355,12.355,0,0,0,4.742,4.8A13.419,13.419,0,0,0,321.816,6.921Z" transform="translate(-17715.641 -3160.258)"/>
    <g id="Grupo_3440" data-name="Grupo 3440" transform="translate(-17601.607 -3325)">
      <rect id="Rectángulo_707" data-name="Rectángulo 707" class="cls-1" width="19.949" height="19.891" transform="matrix(0.707, 0.707, -0.707, 0.707, 58.32, 26.142)"/>
      <rect id="Rectángulo_4135" data-name="Rectángulo 4135" class="cls-1" width="19.949" height="19.891" transform="matrix(0.707, 0.707, -0.707, 0.707, 76.416, 44.241)"/>
      <rect id="Rectángulo_4137" data-name="Rectángulo 4137" class="cls-1" width="19.949" height="19.891" transform="matrix(0.707, 0.707, -0.707, 0.707, 58.32, 62.34)"/>
      <rect id="Rectángulo_4136" data-name="Rectángulo 4136" class="cls-1" width="19.949" height="19.891" transform="matrix(0.707, 0.707, -0.707, 0.707, 40.224, 44.241)"/>
      <rect id="Rectángulo_713" data-name="Rectángulo 713" class="cls-1" width="19.907" height="31.283" transform="translate(116.637 84.46) rotate(135)"/>
      <rect id="Rectángulo_4140" data-name="Rectángulo 4140" class="cls-1" width="19.907" height="31.283" transform="translate(102.563 18.099) rotate(45)"/>
      <rect id="Rectángulo_4141" data-name="Rectángulo 4141" class="cls-1" width="19.907" height="31.283" transform="translate(84.467 0) rotate(45)"/>
      <rect id="Rectángulo_4138" data-name="Rectángulo 4138" class="cls-1" width="19.907" height="31.283" transform="translate(36.201 40.219) rotate(135)"/>
      <rect id="Rectángulo_714" data-name="Rectángulo 714" class="cls-1" width="19.907" height="31.283" transform="translate(98.541 102.559) rotate(135)"/>
      <rect id="Rectángulo_4139" data-name="Rectángulo 4139" class="cls-1" width="19.907" height="31.283" transform="translate(54.297 22.12) rotate(135)"/>
      <path id="Trazado_1295" data-name="Trazado 1295" class="cls-1" d="M0,.012.012.006,0,0,0,.006Z" transform="translate(45.219 94.862) rotate(90)"/>
      <rect id="Rectángulo_4142" data-name="Rectángulo 4142" class="cls-1" width="19.907" height="31.283" transform="translate(14.077 98.536) rotate(-135)"/>
      <rect id="Rectángulo_4143" data-name="Rectángulo 4143" class="cls-1" width="19.907" height="31.283" transform="translate(32.173 116.635) rotate(-135)"/>
    </g>
  </g>
</svg>
