<svg xmlns="http://www.w3.org/2000/svg" width="240" height="101.99" viewBox="0 0 240 101.99">
  <g id="logo-porvenir" transform="translate(-42.434 -24.996)">
    <path id="Trazado_1221" data-name="Trazado 1221" d="M144.654,61.558c12.15-67.541,45.839-30.317,64.3,21.634-15.629-32.33-46.857-62.644-64.3-21.634" transform="translate(-72.964 0)" fill="#fe7d19" fill-rule="evenodd"/>
    <path id="Trazado_1222" data-name="Trazado 1222" d="M202.8,129.537a8.474,8.474,0,1,1-8.478,8.478,8.49,8.49,0,0,1,8.478-8.478" transform="translate(-108.414 -74.621)" fill="#feba35" fill-rule="evenodd"/>
    <path id="Trazado_1223" data-name="Trazado 1223" d="M377.1,183.618h7.828l6.506,21.4,6.564-21.4h10.661l-11.639,31.011h-11.97l-8.243-22.009.293-9m98.6-14.247h10.464v10.437H475.7Zm-37.53,30.487v2.578h-21.64a6.253,6.253,0,0,0,2.609,4.637,10.312,10.312,0,0,0,6.147,1.64,19.938,19.938,0,0,0,4.9-.628,29.95,29.95,0,0,0,5.289-1.926v7.534A29.426,29.426,0,0,1,430.1,215.1a35.537,35.537,0,0,1-5.838.483c-5.621,0-10.026-1.482-13.171-4.462-3.162-2.949-4.74-7.086-4.74-12.359,0-4.787,1.457-8.612,4.363-11.426,2.926-2.826,6.866-4.259,11.818-4.259,4.993,0,8.861,1.453,11.576,4.357,2.7,2.934,4.066,7.045,4.066,12.425m-9.342-3.655a8.189,8.189,0,0,0-1.98-4.886,5.556,5.556,0,0,0-4.254-1.757,5.393,5.393,0,0,0-4.182,1.757,8.305,8.305,0,0,0-2,4.886Zm43.294.488v18.026H461.634V198.884a9.09,9.09,0,0,0-1.293-5.4,4.5,4.5,0,0,0-3.906-1.768,5.243,5.243,0,0,0-4.414,2.219,9.824,9.824,0,0,0-1.652,5.973v14.806H439.793V183.9h9.614v5.539a12.552,12.552,0,0,1,4.687-4.724,12.76,12.76,0,0,1,6.467-1.635q5.638,0,8.594,3.47c1.985,2.309,2.97,5.7,2.97,10.145m3.48-12.8h10.575v30.822H475.607Zm36.61-.466-.566,9.117a6.928,6.928,0,0,0-1.434-.4,13.264,13.264,0,0,0-1.839-.124,6.8,6.8,0,0,0-5.7,2.42c-1.275,1.62-1.922,4-1.922,7.154v13.125H490.183V183.9h9.444v5.883a12.532,12.532,0,0,1,3.91-5.064,9.328,9.328,0,0,1,5.491-1.639,26.71,26.71,0,0,1,2.98.327.908.908,0,0,0,.208.026" transform="translate(-238.673 -103.054)" fill="#006339" fill-rule="evenodd"/>
    <path id="Trazado_1224" data-name="Trazado 1224" d="M149.456,193.226l0,.014-.248,9.212a9.92,9.92,0,0,0-3.61-.607,6.859,6.859,0,0,0-5.724,2.454q-1.932,2.436-1.925,7.178v13.2H127.316V193.708H136.8V199.6a12.817,12.817,0,0,1,3.94-5.088,9.349,9.349,0,0,1,5.514-1.644,25.1,25.1,0,0,1,2.992.32l.214.036m-42.218-.356q8.387,0,13.121,4.328c3.147,2.894,4.727,6.872,4.727,12.011q0,7.622-4.727,11.934-4.739,4.349-13.121,4.338-8.346,0-13.066-4.338-4.723-4.321-4.711-11.934c0-5.139,1.562-9.117,4.711-12.011s7.5-4.328,13.066-4.328m0,7.421a5.86,5.86,0,0,0-4.869,2.422,10.256,10.256,0,0,0-1.865,6.43,10.131,10.131,0,0,0,1.865,6.371,6.158,6.158,0,0,0,9.78.026,10.209,10.209,0,0,0,1.831-6.4,10.353,10.353,0,0,0-1.831-6.44,5.848,5.848,0,0,0-4.912-2.411M57.774,182.85H72.733q8.775,0,12.978,3.261t4.211,10.05c0,4.554-1.395,8.018-4.151,10.372q-4.138,3.555-12.073,3.561H68.936V224.68H57.774ZM68.936,190.4v12.145H71.88a7.592,7.592,0,0,0,5.058-1.459,5.484,5.484,0,0,0,1.709-4.363,6.2,6.2,0,0,0-1.709-4.715,7.029,7.029,0,0,0-5-1.608Z" transform="translate(-10.95 -112.676)" fill="#006339" fill-rule="evenodd"/>
    <rect id="Rectángulo_99" data-name="Rectángulo 99" width="53.862" height="5.049" transform="translate(42.434 119.463)" fill="#fe7d19"/>
    <rect id="Rectángulo_100" data-name="Rectángulo 100" width="53.938" height="5.049" transform="translate(228.496 119.463)" fill="#fe7d19"/>
    <path id="Trazado_1225" data-name="Trazado 1225" d="M239.069,355.38a3.91,3.91,0,0,0,1.718.428c.711,0,1.088-.3,1.088-.743,0-.427-.325-.669-1.149-.955-1.139-.406-1.89-1.037-1.89-2.033,0-1.169.985-2.052,2.59-2.052a4.011,4.011,0,0,1,1.749.345l-.347,1.24a3.2,3.2,0,0,0-1.422-.325c-.671,0-1,.314-1,.66,0,.438.376.63,1.27.965,1.21.448,1.768,1.078,1.768,2.043,0,1.149-.874,2.124-2.754,2.124a4.467,4.467,0,0,1-1.941-.427Z" transform="translate(-140.132 -232.004)" fill="#006339"/>
    <path id="Trazado_1226" data-name="Trazado 1226" d="M260.51,361.752a2.434,2.434,0,0,1-2.571-2.562,2.484,2.484,0,0,1,2.664-2.632,2.416,2.416,0,0,1,2.53,2.55,2.489,2.489,0,0,1-2.612,2.643Zm.041-1.109c.609,0,.986-.6.986-1.494,0-.732-.284-1.484-.986-1.484-.732,0-1.017.752-1.017,1.494,0,.844.356,1.484,1.006,1.484Z" transform="translate(-153.826 -236.667)" fill="#006339"/>
    <path id="Trazado_1227" data-name="Trazado 1227" d="M282.455,361.533a3.531,3.531,0,0,1-1.382.234,2.416,2.416,0,0,1-2.632-2.541,2.589,2.589,0,0,1,2.846-2.632,3.621,3.621,0,0,1,1.18.192l-.244,1.149a2.106,2.106,0,0,0-.864-.153,1.388,1.388,0,0,0,.03,2.775,2.179,2.179,0,0,0,.884-.163Z" transform="translate(-168.46 -236.694)" fill="#006339"/>
    <path id="Trazado_1228" data-name="Trazado 1228" d="M296.122,350.965a.829.829,0,1,1,.011,0Zm-.763.61H296.9v4.969h-1.545Z" transform="translate(-180.508 -231.573)" fill="#006339"/>
    <path id="Trazado_1229" data-name="Trazado 1229" d="M305.675,359.647c.05.641.681.945,1.4.945a4.092,4.092,0,0,0,1.372-.213l.2,1.048a4.689,4.689,0,0,1-1.8.315,2.386,2.386,0,0,1-2.653-2.531,2.5,2.5,0,0,1,2.511-2.652,2.2,2.2,0,0,1,2.215,2.479,3.752,3.752,0,0,1-.05.61Zm1.819-1.057a.9.9,0,0,0-.864-1.005,1.022,1.022,0,0,0-.965,1.005Z" transform="translate(-186.848 -236.667)" fill="#006339"/>
    <path id="Trazado_1230" data-name="Trazado 1230" d="M328.062,349.065v5.742c0,.559.021,1.15.042,1.484h-1.372l-.061-.721h-.031a1.738,1.738,0,0,1-1.555.833,2.281,2.281,0,0,1-2.125-2.551,2.356,2.356,0,0,1,2.227-2.643,1.53,1.53,0,0,1,1.311.56h.02v-2.7Zm-1.544,4.37a1.348,1.348,0,0,0-.02-.285.921.921,0,0,0-.9-.752c-.712,0-1.067.631-1.067,1.413,0,.834.417,1.363,1.057,1.363a.917.917,0,0,0,.9-.742,1.937,1.937,0,0,0,.031-.346Z" transform="translate(-200.238 -231.319)" fill="#006339"/>
    <path id="Trazado_1231" data-name="Trazado 1231" d="M348.46,360.438a6.493,6.493,0,0,0,.08,1.2h-1.392l-.092-.5h-.03a1.792,1.792,0,0,1-1.422.609A1.523,1.523,0,0,1,344,360.225c0-1.292,1.159-1.9,2.917-1.9v-.06c0-.264-.142-.64-.9-.64a2.9,2.9,0,0,0-1.372.366l-.285-.985a4.06,4.06,0,0,1,1.93-.448,1.927,1.927,0,0,1,2.176,2.146Zm-1.495-1.148c-.813,0-1.443.193-1.443.783a.554.554,0,0,0,.61.588.851.851,0,0,0,.8-.569,1.1,1.1,0,0,0,.031-.263Z" transform="translate(-215.254 -236.665)" fill="#006339"/>
    <path id="Trazado_1232" data-name="Trazado 1232" d="M368,349.065v5.742c0,.559.021,1.15.042,1.484H366.67l-.061-.721h-.031a1.738,1.738,0,0,1-1.555.833,2.281,2.281,0,0,1-2.125-2.551,2.356,2.356,0,0,1,2.227-2.643,1.53,1.53,0,0,1,1.311.56h.02v-2.7Zm-1.544,4.37a1.35,1.35,0,0,0-.02-.285.921.921,0,0,0-.9-.752c-.712,0-1.067.631-1.067,1.413,0,.834.417,1.363,1.057,1.363a.917.917,0,0,0,.905-.742,1.912,1.912,0,0,0,.031-.346Z" transform="translate(-228.746 -231.319)" fill="#006339"/>
    <path id="Trazado_1233" data-name="Trazado 1233" d="M392.459,350.375h4.177v1.271H394v1.566h2.46v1.26H394v2.754h-1.545Z" transform="translate(-249.846 -232.254)" fill="#006339"/>
    <path id="Trazado_1234" data-name="Trazado 1234" d="M410.92,350.965a.83.83,0,1,1,.011,0Zm-.762.61H411.7v4.969h-1.545Z" transform="translate(-262.45 -231.573)" fill="#006339"/>
    <path id="Trazado_1235" data-name="Trazado 1235" d="M419.894,358.252c0-.619-.019-1.138-.041-1.585h1.341l.072.691h.03a1.788,1.788,0,0,1,1.535-.8c1.017,0,1.779.682,1.779,2.145v2.937h-1.545v-2.754c0-.641-.223-1.077-.783-1.077a.847.847,0,0,0-.792.578,1.115,1.115,0,0,0-.051.386v2.866h-1.545Z" transform="translate(-269.399 -236.665)" fill="#006339"/>
    <path id="Trazado_1236" data-name="Trazado 1236" d="M444.144,360.438a6.472,6.472,0,0,0,.08,1.2h-1.392l-.092-.5h-.031a1.791,1.791,0,0,1-1.422.609,1.524,1.524,0,0,1-1.607-1.523c0-1.292,1.158-1.9,2.917-1.9v-.06c0-.264-.143-.64-.9-.64a2.9,2.9,0,0,0-1.372.366l-.285-.985a4.06,4.06,0,0,1,1.93-.448,1.927,1.927,0,0,1,2.177,2.146Zm-1.495-1.148c-.813,0-1.443.193-1.443.783a.554.554,0,0,0,.611.588.852.852,0,0,0,.8-.569,1.1,1.1,0,0,0,.031-.263Z" transform="translate(-283.552 -236.665)" fill="#006339"/>
    <path id="Trazado_1237" data-name="Trazado 1237" d="M459.476,358.252c0-.619-.019-1.138-.041-1.585h1.342l.071.691h.03a1.787,1.787,0,0,1,1.535-.8c1.017,0,1.779.682,1.779,2.145v2.937h-1.545v-2.754c0-.641-.224-1.077-.783-1.077a.848.848,0,0,0-.793.578,1.123,1.123,0,0,0-.05.386v2.866h-1.545Z" transform="translate(-297.653 -236.665)" fill="#006339"/>
    <path id="Trazado_1238" data-name="Trazado 1238" d="M483.419,361.533a3.53,3.53,0,0,1-1.382.234,2.416,2.416,0,0,1-2.633-2.541,2.59,2.59,0,0,1,2.846-2.632,3.616,3.616,0,0,1,1.179.192l-.244,1.149a2.1,2.1,0,0,0-.864-.153,1.388,1.388,0,0,0,.03,2.775,2.18,2.18,0,0,0,.884-.163Z" transform="translate(-311.906 -236.694)" fill="#006339"/>
    <path id="Trazado_1239" data-name="Trazado 1239" d="M497.082,350.965a.83.83,0,1,1,.011,0Zm-.762.61h1.545v4.969H496.32Z" transform="translate(-323.952 -231.573)" fill="#006339"/>
    <path id="Trazado_1240" data-name="Trazado 1240" d="M506.637,359.647c.049.641.68.945,1.4.945a4.1,4.1,0,0,0,1.372-.213l.2,1.048a4.691,4.691,0,0,1-1.8.315,2.386,2.386,0,0,1-2.653-2.531,2.5,2.5,0,0,1,2.511-2.652,2.2,2.2,0,0,1,2.216,2.479,3.744,3.744,0,0,1-.05.61Zm1.818-1.057a.9.9,0,0,0-.864-1.005,1.022,1.022,0,0,0-.965,1.005Z" transform="translate(-330.292 -236.667)" fill="#006339"/>
    <path id="Trazado_1241" data-name="Trazado 1241" d="M524.816,358.306c0-.732-.01-1.21-.041-1.638H526.1l.06.925h.041a1.449,1.449,0,0,1,1.342-1.036,1.532,1.532,0,0,1,.325.03v1.453a2.3,2.3,0,0,0-.417-.04.983.983,0,0,0-1.057.782,1.739,1.739,0,0,0-.031.347v2.51h-1.545Z" transform="translate(-344.292 -236.667)" fill="#006339"/>
    <path id="Trazado_1242" data-name="Trazado 1242" d="M541.356,360.438a6.432,6.432,0,0,0,.081,1.2h-1.393l-.091-.5h-.031a1.792,1.792,0,0,1-1.422.609,1.523,1.523,0,0,1-1.607-1.523c0-1.292,1.159-1.9,2.917-1.9v-.06c0-.264-.142-.64-.9-.64a2.9,2.9,0,0,0-1.372.366L537.25,357a4.061,4.061,0,0,1,1.931-.448,1.926,1.926,0,0,1,2.175,2.146Zm-1.494-1.148c-.813,0-1.443.193-1.443.783a.554.554,0,0,0,.61.588.852.852,0,0,0,.8-.569,1.084,1.084,0,0,0,.031-.263Z" transform="translate(-352.942 -236.665)" fill="#006339"/>
    <path id="Trazado_1243" data-name="Trazado 1243" d="M564.147,350.341a12.708,12.708,0,0,1,2.094-.142,3.222,3.222,0,0,1,2.093.559,1.939,1.939,0,0,1,.732,1.576,2.121,2.121,0,0,1-.631,1.626,3.221,3.221,0,0,1-2.226.721,2.649,2.649,0,0,1-.529-.04V357.1h-1.534Zm1.534,3.11a2.3,2.3,0,0,0,.518.041c.823,0,1.332-.416,1.332-1.109,0-.63-.437-1-1.22-1a2.768,2.768,0,0,0-.63.05Z" transform="translate(-372.395 -232.128)" fill="#006339"/>
    <path id="Trazado_1244" data-name="Trazado 1244" d="M585.334,361.752a2.434,2.434,0,0,1-2.571-2.562,2.484,2.484,0,0,1,2.663-2.632,2.416,2.416,0,0,1,2.531,2.55,2.49,2.49,0,0,1-2.612,2.643Zm.042-1.109c.609,0,.985-.6.985-1.494,0-.732-.284-1.484-.985-1.484-.733,0-1.017.752-1.017,1.494,0,.844.356,1.484,1.006,1.484Z" transform="translate(-385.683 -236.667)" fill="#006339"/>
    <path id="Trazado_1245" data-name="Trazado 1245" d="M604.158,358.334c0-.65-.02-1.2-.041-1.668h1.341l.071.693h.021a1.93,1.93,0,0,1,1.657-.8,2.253,2.253,0,0,1,2.063,2.531,2.365,2.365,0,0,1-2.257,2.663,1.548,1.548,0,0,1-1.291-.568h-.02v2.47h-1.545ZM605.7,359.5a1.569,1.569,0,0,0,.031.326.935.935,0,0,0,.9.731c.67,0,1.066-.558,1.066-1.4,0-.793-.356-1.393-1.047-1.393a.97.97,0,0,0-.924.783,1.167,1.167,0,0,0-.031.274Z" transform="translate(-400.926 -236.665)" fill="#006339"/>
    <path id="Trazado_1246" data-name="Trazado 1246" d="M630.144,360.322c0,.652.02,1.179.04,1.6h-1.341l-.071-.7h-.031a1.775,1.775,0,0,1-1.555.813c-1.016,0-1.748-.631-1.748-2.166v-2.916h1.545v2.673c0,.721.234,1.159.783,1.159a.819.819,0,0,0,.771-.539.8.8,0,0,0,.062-.335v-2.958h1.545Z" transform="translate(-416.145 -236.946)" fill="#006339"/>
    <rect id="Rectángulo_101" data-name="Rectángulo 101" width="1.544" height="7.226" transform="translate(215.242 117.746)" fill="#006339"/>
    <path id="Trazado_1247" data-name="Trazado 1247" d="M659.316,360.438a6.437,6.437,0,0,0,.081,1.2H658l-.091-.5h-.031a1.793,1.793,0,0,1-1.422.609,1.524,1.524,0,0,1-1.606-1.523c0-1.292,1.159-1.9,2.917-1.9v-.06c0-.264-.143-.64-.9-.64a2.9,2.9,0,0,0-1.372.366L655.21,357a4.061,4.061,0,0,1,1.931-.448,1.926,1.926,0,0,1,2.175,2.146Zm-1.494-1.148c-.813,0-1.443.193-1.443.783a.554.554,0,0,0,.61.588.852.852,0,0,0,.8-.569,1.087,1.087,0,0,0,.031-.263Z" transform="translate(-437.142 -236.665)" fill="#006339"/>
    <path id="Trazado_1248" data-name="Trazado 1248" d="M674.65,358.306c0-.732-.01-1.21-.041-1.638h1.322l.06.925h.041a1.449,1.449,0,0,1,1.342-1.036,1.528,1.528,0,0,1,.325.03v1.453a2.294,2.294,0,0,0-.417-.04.982.982,0,0,0-1.057.782,1.732,1.732,0,0,0-.031.347v2.51H674.65Z" transform="translate(-451.242 -236.667)" fill="#006339"/>
  </g>
</svg>
