<svg xmlns="http://www.w3.org/2000/svg" width="240" height="113.102" viewBox="0 0 240 113.102">
  <g id="logo-capital-activo" transform="translate(-42.592 -65.953)">
    <path id="Trazado_881" data-name="Trazado 881" d="M156.84,127.278l23.148-.21a43.791,43.791,0,0,1,5.277-12.906,107.889,107.889,0,0,1-16.323-12.972A70.59,70.59,0,0,0,156.84,127.278Zm68.2-57.145c-20.043,2.07-38.558,11.2-51.529,25.492,5.3,4.472,13.619,8.916,17.227,10.751,7.01-8.419,18.414-17.354,36.806-22.479,31.074-8.134,66.111,3.753,84.882,31.7C312.422,115.6,292.816,64.92,225.036,70.133Z" transform="translate(-75.455 -2.512)" fill="#fd1a14"/>
    <path id="Trazado_882" data-name="Trazado 882" d="M289.9,65.953a53.5,53.5,0,0,1-5.727,12.9c8.841,5.753,13.716,10.507,16.1,13.22,7.109-9.15,11.068-18.712,12.565-26.116Zm-46.508,42.128c-29.405,7.09-63.817,3.753-86.548-30.658,0,0,17.934,49.844,87.382,44.422,23.9-2.728,40.547-12.826,51.526-24.493a87.8,87.8,0,0,0-17.29-10.412C271.393,95.454,260.33,104.194,243.388,108.081Z" transform="translate(-75.455)" fill="#10137e"/>
    <path id="Trazado_883" data-name="Trazado 883" d="M326.225,289.513,314.44,267.719,303.7,288.575s-1.669,3.441-3.754,3.649v.731h7.716v-.626s-3.128-.313-2.19-3.233l3.233-7.4H318.3l3.546,7.821s1.459,2.19-1.356,2.711v.625h8.551v-.625A5.231,5.231,0,0,1,326.225,289.513Zm-17-9.177L313.4,272.1l4.276,8.237Z" transform="translate(-169.97 -133.256)" fill="#fd1a14"/>
    <path id="Trazado_884" data-name="Trazado 884" d="M406.727,274.828l1.46-4.9a17,17,0,0,0-10.011-3.129c-5.629,0-13.869,3.441-14.389,13.348a13.141,13.141,0,0,0,14.493,12.827c6.778-.419,9.593-3.234,10.53-3.859l-1.562-4.588s-1.357,7.3-8.342,7.4c-5.527.1-10.741-3.44-10.845-11.678-.1-7.3,3.963-12.1,9.8-12.41S406.727,273.159,406.727,274.828Z" transform="translate(-225.342 -132.648)" fill="#fd1a14"/>
    <path id="Trazado_885" data-name="Trazado 885" d="M466.092,274.992l1.04-5.734h22.42l1.878,5.838s-3.962-3.962-6.465-4.588h-3.024s-1.564-.1-1.774,2.19V290.53a2.73,2.73,0,0,0,2.608,2.711v.625h-8.551v-.625a3.066,3.066,0,0,0,2.5-3.335V272.177s.053-1.825-2.346-1.931h-2.19A12.974,12.974,0,0,0,466.092,274.992Z" transform="translate(-279.7 -134.273)" fill="#fd1a14"/>
    <path id="Trazado_886" data-name="Trazado 886" d="M548.4,268.946h7.717v.626a2.3,2.3,0,0,0-2.084,2.294v18.665s-.21,2.5,2.813,2.607v.521h-8.758v-.625a2.708,2.708,0,0,0,2.5-2.815V271.658s.207-1.667-2.191-1.981Z" transform="translate(-333.852 -134.067)" fill="#fd1a14"/>
    <path id="Trazado_887" data-name="Trazado 887" d="M583.094,268.642h7.3v.73a1.438,1.438,0,0,0-1.356,2.085l8.758,17.727,7.923-17.1s1.046-2.294-2.083-2.712v-.626h7.195v.836a8.545,8.545,0,0,0-3.754,3.65L596.964,294.4,585.6,271.874a4.846,4.846,0,0,0-2.4-2.19Z" transform="translate(-356.974 -133.866)" fill="#fd1a14"/>
    <path id="Trazado_888" data-name="Trazado 888" d="M673.633,267.413c-7.6,0-13.766,5.836-13.766,13.035s6.164,13.035,13.766,13.035,13.765-5.837,13.765-13.035S681.235,267.413,673.633,267.413Zm.208,25.234c-5.471,0-9.906-5.462-9.906-12.2s4.435-12.2,9.906-12.2,9.906,5.463,9.906,12.2S679.312,292.647,673.841,292.647Z" transform="translate(-407.679 -133.054)" fill="#fd1a14"/>
    <path id="Trazado_889" data-name="Trazado 889" d="M73.251,373.865l-2.95-.605c-1-.237-1.482-.678-1.482-1.346a1.226,1.226,0,0,1,.744-1.116,3.278,3.278,0,0,1,.684-.238,3.521,3.521,0,0,1,2.265.252,1.182,1.182,0,0,1,.745,1.1v.141h1.456v-.141a2.536,2.536,0,0,0-1.221-2.183,4.607,4.607,0,0,0-4.909,0,2.55,2.55,0,0,0-1.236,2.182,2.439,2.439,0,0,0,1.719,2.471l2.939.594c1,.226,1.481.655,1.481,1.3a1.219,1.219,0,0,1-.835,1.154,4.347,4.347,0,0,1-3.23,0,1.219,1.219,0,0,1-.847-1.152v-.141H67.119v.141a2.524,2.524,0,0,0,1.335,2.237,5.156,5.156,0,0,0,5.153.013,2.573,2.573,0,0,0,1.349-2.25A2.4,2.4,0,0,0,73.251,373.865Z" transform="translate(-16.199 -200.162)" fill="#10137e"/>
    <path id="Trazado_890" data-name="Trazado 890" d="M98.672,373.152a4.384,4.384,0,1,0,3.1,1.285A4.22,4.22,0,0,0,98.672,373.152Zm2.19,6.575a3.1,3.1,0,1,1,0-4.382,2.935,2.935,0,0,1,.912,2.19A2.969,2.969,0,0,1,100.862,379.727Z" transform="translate(-34.143 -202.889)" fill="#10137e"/>
    <path id="Trazado_891" data-name="Trazado 891" d="M130.36,374.434a3.053,3.053,0,0,1,2.191.9l.093.091.91-.891-.1-.1a4.247,4.247,0,0,0-3.1-1.285,4.434,4.434,0,0,0-4.386,4.384,4.383,4.383,0,0,0,7.483,3.1l.1-.1-.912-.895-.094.094a3.1,3.1,0,1,1-4.367-4.393A2.951,2.951,0,0,1,130.36,374.434Z" transform="translate(-55.07 -202.889)" fill="#10137e"/>
    <rect id="Rectángulo_86" data-name="Rectángulo 86" width="1.269" height="8.357" transform="translate(80.857 170.468)" fill="#10137e"/>
    <path id="Trazado_892" data-name="Trazado 892" d="M166.438,382.113h5.93V380.83h-4.661v-2.261h3.646V377.3h-3.646v-2.262h4.661v-1.282h-5.93Z" transform="translate(-81.794 -203.288)" fill="#10137e"/>
    <path id="Trazado_893" data-name="Trazado 893" d="M194.446,373.756h-3.163v8.357h3.163a4.021,4.021,0,0,0,2.934-1.22,4.062,4.062,0,0,0,1.244-2.958,4.231,4.231,0,0,0-4.178-4.179Zm2.038,6.228a2.729,2.729,0,0,1-2.038.846h-1.893v-5.793h1.893a2.891,2.891,0,0,1,2.038,4.947Z" transform="translate(-98.203 -203.288)" fill="#10137e"/>
    <path id="Trazado_894" data-name="Trazado 894" d="M222.643,373.756h-1.267l-3.037,8.357h1.352l.667-1.823h3.292l.669,1.823h1.376l-3.021-8.269Zm-1.813,5.264,1.18-3.262,1.183,3.262Z" transform="translate(-116.072 -203.288)" fill="#10137e"/>
    <path id="Trazado_895" data-name="Trazado 895" d="M248.9,373.756h-3.164v8.357H248.9a4.018,4.018,0,0,0,2.934-1.22,4.061,4.061,0,0,0,1.244-2.958,4.231,4.231,0,0,0-4.178-4.179Zm2.038,6.228a2.771,2.771,0,0,1-2.038.846H247v-5.793H248.9a2.891,2.891,0,0,1,2.038,4.947Z" transform="translate(-134.165 -203.288)" fill="#10137e"/>
    <path id="Trazado_896" data-name="Trazado 896" d="M294.2,379.417h1.454v-4.128h4.25v-1.471h-4.25v-2.66h5.439V369.69H294.2Z" transform="translate(-166.172 -200.603)" fill="#10137e"/>
    <rect id="Rectángulo_87" data-name="Rectángulo 87" width="1.27" height="8.357" transform="translate(137.056 170.468)" fill="#10137e"/>
    <path id="Trazado_897" data-name="Trazado 897" d="M337.406,379.736l-4.251-5.98h-1.208v8.357h1.272v-5.979l4.252,5.979h1.217v-8.357h-1.282Z" transform="translate(-191.104 -203.288)" fill="#10137e"/>
    <path id="Trazado_898" data-name="Trazado 898" d="M361.8,373.756h-1.268l-3.035,8.357h1.35l.666-1.823h3.295l.669,1.823h1.375l-3.019-8.269Zm-1.816,5.264,1.181-3.262,1.184,3.262Z" transform="translate(-207.982 -203.288)" fill="#10137e"/>
    <path id="Trazado_899" data-name="Trazado 899" d="M390.348,379.736l-4.252-5.98h-1.2v8.357h1.269v-5.979l4.252,5.979h1.216v-8.357h-1.282Z" transform="translate(-226.072 -203.288)" fill="#10137e"/>
    <path id="Trazado_900" data-name="Trazado 900" d="M417.9,375.333l.093.091.908-.891-.093-.1a4.255,4.255,0,0,0-3.1-1.285,4.437,4.437,0,0,0-4.385,4.384,4.385,4.385,0,0,0,7.485,3.1l.095-.1-.908-.895-.1.094a2.992,2.992,0,0,1-2.191.9,3.089,3.089,0,0,1-2.178-5.293A3.1,3.1,0,0,1,417.9,375.333Z" transform="translate(-243.527 -202.889)" fill="#10137e"/>
    <rect id="Rectángulo_88" data-name="Rectángulo 88" width="1.267" height="8.357" transform="translate(177.747 170.468)" fill="#10137e"/>
    <path id="Trazado_901" data-name="Trazado 901" d="M451.793,382.113h5.928V380.83h-4.66v-2.261h3.647V377.3h-3.647v-2.262h4.66v-1.282h-5.928Z" transform="translate(-270.256 -203.288)" fill="#10137e"/>
    <path id="Trazado_902" data-name="Trazado 902" d="M481.236,378.375a2.6,2.6,0,0,0,1.068-.738,2.152,2.152,0,0,0,.55-1.46,2.231,2.231,0,0,0-.831-1.761,2.836,2.836,0,0,0-1.834-.659h-3.563v8.357h1.27v-3.543h1.088a1.52,1.52,0,0,1,1.39.657l1.875,2.886h1.528l-1.971-3.034A3.653,3.653,0,0,0,481.236,378.375Zm-1.048-1.075h-2.293v-2.262h2.293a1.545,1.545,0,0,1,.952.309.961.961,0,0,1,.43.83.943.943,0,0,1-.434.805A1.5,1.5,0,0,1,480.188,377.3Z" transform="translate(-286.657 -203.288)" fill="#10137e"/>
    <path id="Trazado_903" data-name="Trazado 903" d="M505.153,373.756h-1.269l-3.038,8.357H502.2l.668-1.823h3.293l.668,1.823H508.2l-3.018-8.269Zm-1.817,5.264,1.182-3.262,1.183,3.262Z" transform="translate(-302.653 -203.288)" fill="#10137e"/>
    <path id="Trazado_904" data-name="Trazado 904" d="M554.415,369.69h-4.148v9.726h1.456v-4.128h2.692a3.259,3.259,0,0,0,2.141-.776,2.563,2.563,0,0,0,.955-2.025,2.625,2.625,0,0,0-.955-2.036A3.265,3.265,0,0,0,554.415,369.69Zm1.114,3.768a1.7,1.7,0,0,1-1.114.36h-2.692v-2.66h2.692a1.788,1.788,0,0,1,1.116.352,1.176,1.176,0,0,1,.512.977A1.145,1.145,0,0,1,555.529,373.458Z" transform="translate(-335.294 -200.603)" fill="#10137e"/>
    <path id="Trazado_905" data-name="Trazado 905" d="M579.139,373.152a4.388,4.388,0,1,0,3.1,1.286A4.222,4.222,0,0,0,579.139,373.152Zm2.19,6.575a3.1,3.1,0,1,1,0-4.382,2.932,2.932,0,0,1,.912,2.19A2.979,2.979,0,0,1,581.329,379.727Z" transform="translate(-351.466 -202.889)" fill="#10137e"/>
    <path id="Trazado_906" data-name="Trazado 906" d="M610.8,373.756h-3.563v8.357h1.271v-3.543H610.8a2.819,2.819,0,0,0,1.846-.66,2.193,2.193,0,0,0,.816-1.733,2.227,2.227,0,0,0-.832-1.761A2.827,2.827,0,0,0,610.8,373.756Zm.945,3.226a1.5,1.5,0,0,1-.945.318h-2.292v-2.262H610.8a1.545,1.545,0,0,1,.95.309.954.954,0,0,1,.431.83A.937.937,0,0,1,611.744,376.982Z" transform="translate(-372.919 -203.288)" fill="#10137e"/>
    <path id="Trazado_907" data-name="Trazado 907" d="M637.117,378.949a1.94,1.94,0,0,1-.628,1.47,2.074,2.074,0,0,1-2.957,0,1.969,1.969,0,0,1-.6-1.469v-5.193H631.66v5.193a3.206,3.206,0,0,0,.976,2.366,3.328,3.328,0,0,0,4.761,0,3.193,3.193,0,0,0,1-2.367v-5.193h-1.282Z" transform="translate(-389.049 -203.288)" fill="#10137e"/>
    <path id="Trazado_908" data-name="Trazado 908" d="M659.89,373.756h-1.269v8.357h4.917V380.83H659.89Z" transform="translate(-406.856 -203.288)" fill="#10137e"/>
    <path id="Trazado_909" data-name="Trazado 909" d="M682.079,373.756h-1.267l-3.04,8.357h1.351l.668-1.823h3.292l.669,1.823h1.378l-3.02-8.269Zm-1.817,5.264,1.185-3.26,1.181,3.26Z" transform="translate(-419.503 -203.288)" fill="#10137e"/>
    <path id="Trazado_910" data-name="Trazado 910" d="M709.784,378.375a2.611,2.611,0,0,0,1.067-.738,2.15,2.15,0,0,0,.549-1.46,2.233,2.233,0,0,0-.834-1.761,2.822,2.822,0,0,0-1.83-.659h-3.563v8.357h1.27v-3.543h1.088a1.523,1.523,0,0,1,1.391.657l1.874,2.886h1.527l-1.971-3.034A3.646,3.646,0,0,0,709.784,378.375Zm-1.048-1.075h-2.294v-2.262h2.294a1.538,1.538,0,0,1,.949.309.958.958,0,0,1,.431.83.939.939,0,0,1-.437.805A1.489,1.489,0,0,1,708.736,377.3Z" transform="translate(-437.601 -203.288)" fill="#10137e"/>
    <path id="Trazado_911" data-name="Trazado 911" d="M275.234,321.01H77.688V316.49a5.068,5.068,0,0,0,1.55,1.657,3.6,3.6,0,0,0,1.961.555,4.309,4.309,0,0,0,3.277-1.483,6.513,6.513,0,0,0,1.65-4.608,7.264,7.264,0,0,0-.674-3.175A5.19,5.19,0,0,0,83.7,307.3a3.982,3.982,0,0,0-2.264-.73,3.877,3.877,0,0,0-2.048.569,5.78,5.78,0,0,0-1.79,1.927,15.2,15.2,0,0,0-.32-2.5l-3.744.211v.828a2.755,2.755,0,0,1,1.631.389,1.52,1.52,0,0,1,.407,1.205V321.01H43.739a1.148,1.148,0,0,0,0,2.3H275.234a1.148,1.148,0,0,0,0-2.3ZM78.593,308.991a2.737,2.737,0,0,1,2.275-1.3,2.466,2.466,0,0,1,2.086,1.149,6.871,6.871,0,0,1,.812,3.843,6.99,6.99,0,0,1-.9,3.9,2.3,2.3,0,0,1-2.01,1.013,2.768,2.768,0,0,1-2.3-1.185,6.073,6.073,0,0,1-.9-3.668A6.394,6.394,0,0,1,78.593,308.991Z" transform="translate(0 -158.915)" fill="#10137e"/>
    <path id="Trazado_912" data-name="Trazado 912" d="M58.723,305.62a8.8,8.8,0,0,0,4.227,1.033,7.035,7.035,0,0,0,4.7-1.577,6.808,6.808,0,0,0,2.252-4.512h-.884a6.3,6.3,0,0,1-1.979,3.873,5.622,5.622,0,0,1-3.756,1.283,4.98,4.98,0,0,1-3.985-1.645,8.453,8.453,0,0,1-1.667-5.646q0-4.4,1.456-6.245a4.589,4.589,0,0,1,3.773-1.844,4.867,4.867,0,0,1,3.683,1.655,10.2,10.2,0,0,1,2.066,4.113h.833l-.323-6.613h-.783l-.859,1.59a10.083,10.083,0,0,0-2.439-1.256,7.4,7.4,0,0,0-2.316-.366,7.8,7.8,0,0,0-4,1.083,8.234,8.234,0,0,0-3.041,3.239A9.4,9.4,0,0,0,54.5,298.4a8.192,8.192,0,0,0,1.151,4.25A7.863,7.863,0,0,0,58.723,305.62Z" transform="translate(-7.863 -147.616)" fill="#10137e"/>
    <path id="Trazado_913" data-name="Trazado 913" d="M105.518,312.7a3.186,3.186,0,0,0-1.748,2.743,2.327,2.327,0,0,0,.764,1.8,3.205,3.205,0,0,0,2.236.7,3.8,3.8,0,0,0,1.765-.378,6.314,6.314,0,0,0,1.7-1.509,3.414,3.414,0,0,0,.832,1.469,1.693,1.693,0,0,0,1.168.418,2.174,2.174,0,0,0,1.652-.847l-.367-.632a1.35,1.35,0,0,1-.836.36.668.668,0,0,1-.583-.372,2.225,2.225,0,0,1-.223-1.13v-5.79a2.62,2.62,0,0,0-.9-2,3.747,3.747,0,0,0-2.6-.814,4.583,4.583,0,0,0-2.985.926,2.642,2.642,0,0,0-1.137,2.047,1.416,1.416,0,0,0,.342.982,1.091,1.091,0,0,0,.852.385,1,1,0,0,0,.776-.323,1.179,1.179,0,0,0,.3-.83,1.525,1.525,0,0,0-.3-.8,1.137,1.137,0,0,1-.245-.531c0-.2.154-.4.46-.6a2.8,2.8,0,0,1,1.53-.405,2.165,2.165,0,0,1,1.582.61,1.986,1.986,0,0,1,.622,1.471v1.6A11.485,11.485,0,0,0,105.518,312.7Zm4.658.809a3.722,3.722,0,0,1-.882,2.538,2.685,2.685,0,0,1-2.087,1.012,1.362,1.362,0,0,1-1.091-.491,2.037,2.037,0,0,1-.418-1.362,2.379,2.379,0,0,1,.8-1.923A7.73,7.73,0,0,1,110.176,312Z" transform="translate(-40.405 -159.013)" fill="#10137e"/>
    <path id="Trazado_914" data-name="Trazado 914" d="M222.523,312.7a3.188,3.188,0,0,0-1.751,2.743,2.33,2.33,0,0,0,.766,1.8,3.2,3.2,0,0,0,2.235.7,3.8,3.8,0,0,0,1.765-.378,6.264,6.264,0,0,0,1.7-1.509,3.424,3.424,0,0,0,.832,1.469,1.7,1.7,0,0,0,1.169.418,2.172,2.172,0,0,0,1.652-.847l-.366-.632a1.359,1.359,0,0,1-.838.36.668.668,0,0,1-.582-.372,2.219,2.219,0,0,1-.223-1.13v-5.79a2.614,2.614,0,0,0-.9-2,3.743,3.743,0,0,0-2.6-.814,4.576,4.576,0,0,0-2.983.926,2.644,2.644,0,0,0-1.14,2.047,1.417,1.417,0,0,0,.343.982,1.091,1.091,0,0,0,.852.385.994.994,0,0,0,.773-.323,1.173,1.173,0,0,0,.3-.83,1.515,1.515,0,0,0-.3-.8,1.162,1.162,0,0,1-.244-.531q0-.294.459-.6a2.8,2.8,0,0,1,1.53-.405,2.167,2.167,0,0,1,1.583.61,1.988,1.988,0,0,1,.621,1.471v1.6A11.471,11.471,0,0,0,222.523,312.7Zm4.656.809a3.714,3.714,0,0,1-.882,2.538,2.686,2.686,0,0,1-2.086,1.012,1.367,1.367,0,0,1-1.093-.491,2.041,2.041,0,0,1-.418-1.362,2.374,2.374,0,0,1,.807-1.923A7.716,7.716,0,0,1,227.179,312Z" transform="translate(-117.679 -159.013)" fill="#10137e"/>
    <path id="Trazado_915" data-name="Trazado 915" d="M175.538,307.613a1.068,1.068,0,0,1,.319.841v7.609a.788.788,0,0,1-.2.622,2.93,2.93,0,0,1-1.631.371v.592h5.317v-.592a3.005,3.005,0,0,1-1.636-.357.582.582,0,0,1-.161-.469v-9.868l-3.72.27v.7h.768A1.385,1.385,0,0,1,175.538,307.613Z" transform="translate(-86.671 -158.779)" fill="#10137e"/>
    <path id="Trazado_916" data-name="Trazado 916" d="M253.613,290.169a1.055,1.055,0,0,1,.312.844v13.179a.965.965,0,0,1-.259.717,1.1,1.1,0,0,1-.793.254h-1.085v.867h6.137v-.867H256.78a1.088,1.088,0,0,1-.7-.231.626.626,0,0,1-.2-.5v-15.7l-4.289.2v.866h.971A1.553,1.553,0,0,1,253.613,290.169Z" transform="translate(-138.033 -147.137)" fill="#10137e"/>
    <path id="Trazado_917" data-name="Trazado 917" d="M196.993,308.458a2.278,2.278,0,0,0,.674,1.714,2.571,2.571,0,0,0,1.866.653,2.667,2.667,0,0,0,2.108-.931,3.47,3.47,0,0,0,.707-1.544l-.656-.281a2.807,2.807,0,0,1-.441,1.11,1.462,1.462,0,0,1-1.191.649,1.244,1.244,0,0,1-.969-.427,1.788,1.788,0,0,1-.379-1.229V300.31h3.116v-.946h-3.116v-3.93h-.691a5.4,5.4,0,0,1-.959,3.2,2.682,2.682,0,0,1-1.745.955v.722h1.677Z" transform="translate(-100.866 -151.561)" fill="#10137e"/>
    <path id="Trazado_918" data-name="Trazado 918" d="M177.665,290.953a1.33,1.33,0,1,0-1.331-1.33A1.33,1.33,0,0,0,177.665,290.953Z" transform="translate(-88.33 -146.845)" fill="#10137e"/>
    <path id="Trazado_919" data-name="Trazado 919" d="M737.561,335.869a2.422,2.422,0,1,0,2.425,2.422A2.422,2.422,0,0,0,737.561,335.869Zm0,4.219a1.8,1.8,0,1,1,1.8-1.8A1.8,1.8,0,0,1,737.561,340.088Z" transform="translate(-457.393 -178.266)" fill="#10137e"/>
    <path id="Trazado_920" data-name="Trazado 920" d="M741.644,341.435a2.373,2.373,0,0,0-.272-.383,1.1,1.1,0,0,0-.252-.2.746.746,0,0,0,.466-.219.631.631,0,0,0,.154-.437.655.655,0,0,0-.1-.369.54.54,0,0,0-.275-.226,1.676,1.676,0,0,0-.546-.064h-1v2.354h.476v-.983h.1a.841.841,0,0,1,.239.026.376.376,0,0,1,.143.1,3.24,3.24,0,0,1,.249.346l.345.513h.57Zm-1-.9h-.351v-.6h.371c.193,0,.309,0,.347.007a.29.29,0,0,1,.179.094.279.279,0,0,1,.063.19.3.3,0,0,1-.048.178.253.253,0,0,1-.132.1A1.748,1.748,0,0,1,740.643,340.535Z" transform="translate(-460.481 -180.69)" fill="#10137e"/>
  </g>
</svg>
