<svg xmlns="http://www.w3.org/2000/svg" width="240" height="82.036" viewBox="0 0 240 82.036">
  <g id="logo-resuelve-tus-finanzas" transform="translate(-11.578 -141.534)">
    <path id="Trazado_1195" data-name="Trazado 1195" d="M140.318,193.632s-27.92,7.692-45.056,21.878c0,0-5.911-9.455-15.131-13.708,0,0,9.7,13,11.114,27.42,0,0,17.745-20.108,49.072-35.59" transform="translate(-47.105 -35.798)" fill="#75c1e3"/>
    <path id="Trazado_1196" data-name="Trazado 1196" d="M125.459,224.237c-.6,2.291.478,4.554,2.412,5.054s3.983-.944,4.576-3.236-.484-4.554-2.417-5.054-3.983.945-4.571,3.236" transform="translate(-78.137 -54.534)" fill="#75c1e3"/>
    <path id="Trazado_1197" data-name="Trazado 1197" d="M63.7,171.442a40.4,40.4,0,0,1,21.932,6.439l5.9-2.73a42.6,42.6,0,0,0-66.747,48.467A40.6,40.6,0,0,1,63.7,171.442" transform="translate(-7.034 -16.409)" fill="#75c1e3"/>
    <path id="Trazado_1198" data-name="Trazado 1198" d="M60.482,326.891c12.3-11.466,22.7-23.053,22.7-23.053,6.614,14.07,17.85,17.735,17.85,17.735A61.451,61.451,0,0,1,87.084,291.9c-21.987,18.322-26.6,34.991-26.6,34.991" transform="translate(-33.603 -103.321)" fill="#37455c"/>
    <path id="Trazado_1199" data-name="Trazado 1199" d="M57.876,147.44a44.127,44.127,0,0,1,28.491,10.384l5.489-1.654c-.165-.166-.956-1.017-1.121-1.182a46.456,46.456,0,0,0-70.928,59.4A44.293,44.293,0,0,1,57.876,147.44" fill="#37455c"/>
    <path id="Trazado_1200" data-name="Trazado 1200" d="M441.865,228.474a8.41,8.41,0,0,0-1.022-2.154,7.482,7.482,0,0,0-1.424-1.593,11.169,11.169,0,0,0-1.593-1.121,11.739,11.739,0,0,0-1.557-.753c-.505-.2-.934-.368-1.288-.517-.7-.263-1.409-.527-2.121-.791s-1.42-.527-2.123-.8c-.45-.159-.9-.335-1.332-.522a5.87,5.87,0,0,1-1.17-.675,3.476,3.476,0,0,1-.843-.918,2.331,2.331,0,0,1-.328-1.252,3.573,3.573,0,0,1,.226-1.242,2.71,2.71,0,0,1,.722-1.049,3.467,3.467,0,0,1,1.244-.731,5.307,5.307,0,0,1,1.807-.269,9.451,9.451,0,0,1,2.236.242,6.869,6.869,0,0,1,1.81.714,9.517,9.517,0,0,1,1.572,1.131c.5.44,1,.945,1.521,1.494l2.964-4.906a12.763,12.763,0,0,0-4.661-2.615,18.142,18.142,0,0,0-3.368-.654v-3.378H428.7v3.412a15.2,15.2,0,0,0-1.665.335,10.991,10.991,0,0,0-3.313,1.489,7.729,7.729,0,0,0-2.335,2.439,6.425,6.425,0,0,0-.884,3.4,8.15,8.15,0,0,0,.431,2.769,8.354,8.354,0,0,0,2.662,3.758,13.621,13.621,0,0,0,1.739,1.176,15.341,15.341,0,0,0,1.7.835c.544.225,1.005.407,1.393.549.687.308,1.365.583,2.047.825s1.366.516,2.052.824a9.337,9.337,0,0,1,1.1.521,5.826,5.826,0,0,1,1.008.715,3.383,3.383,0,0,1,.731.945,2.673,2.673,0,0,1,.275,1.214,3.519,3.519,0,0,1-.344,1.615,2.988,2.988,0,0,1-.917,1.11,3.79,3.79,0,0,1-1.379.632,7.021,7.021,0,0,1-1.736.209c-2.816,0-5.467-1.484-7.943-4.428l-3.574,4.61a12.9,12.9,0,0,0,2.464,2.2,12.11,12.11,0,0,0,2.756,1.384,15.055,15.055,0,0,0,3.051.726c.22.032.453.043.676.071v3.214h4.442v-3.17a14.985,14.985,0,0,0,2.274-.434,11.462,11.462,0,0,0,3.461-1.582,8.169,8.169,0,0,0,2.448-2.588,6.773,6.773,0,0,0,.932-3.571,9.47,9.47,0,0,0-.388-2.846" transform="translate(-280.466 -44.378)" fill="#75c1e3"/>
    <path id="Trazado_1201" data-name="Trazado 1201" d="M290.309,248.211h-5.043V219.4h8.17a17.845,17.845,0,0,1,4.757.555,9.274,9.274,0,0,1,3.319,1.577,6.467,6.467,0,0,1,1.956,2.5,8.445,8.445,0,0,1,.631,3.329,10.727,10.727,0,0,1-.307,2.495,7.469,7.469,0,0,1-1.061,2.44,8.455,8.455,0,0,1-2.071,2.11,10.731,10.731,0,0,1-3.313,1.549l8.774,12.262h-5.686l-7.7-11.785c-.3,0-.654-.011-1.049-.022a10.6,10.6,0,0,1-1.357-.142Zm.017-15.614a11.479,11.479,0,0,0,1.153.094c.4.011.791.022,1.2.022a9.69,9.69,0,0,0,2.7-.352,5.8,5.8,0,0,0,2.021-1.011,4.376,4.376,0,0,0,1.264-1.61,5.153,5.153,0,0,0,.428-2.142,6.236,6.236,0,0,0-.291-2.044,2.81,2.81,0,0,0-1.033-1.384,4.987,4.987,0,0,0-1.972-.8,15.95,15.95,0,0,0-3.137-.258h-2.335Z" transform="translate(-188.059 -53.5)" fill="#37455c"/>
    <path id="Trazado_1202" data-name="Trazado 1202" d="M375.68,263.9a14.368,14.368,0,0,1-2.2,1.95,10.082,10.082,0,0,1-2.106,1.132,9.1,9.1,0,0,1-2.132.522,18.877,18.877,0,0,1-2.27.127,9.931,9.931,0,0,1-4.345-.879,8.182,8.182,0,0,1-2.956-2.357,9.725,9.725,0,0,1-1.7-3.385,14.4,14.4,0,0,1-.538-3.971,12.779,12.779,0,0,1,.56-3.8,9.106,9.106,0,0,1,1.709-3.187,8.372,8.372,0,0,1,2.89-2.209,9.456,9.456,0,0,1,4.087-.829,10.848,10.848,0,0,1,3.681.572,6.71,6.71,0,0,1,4.233,4.219,10.192,10.192,0,0,1,.527,3.395c0,.472-.014.967-.044,1.478a14.63,14.63,0,0,1-.192,1.593H362.476a6.731,6.731,0,0,0,.308,1.89,7.863,7.863,0,0,0,.913,1.945,5.463,5.463,0,0,0,1.483,1.51,3.456,3.456,0,0,0,2.021.61,8.86,8.86,0,0,0,1.736-.149,4.974,4.974,0,0,0,1.385-.478,5.726,5.726,0,0,0,1.214-.868,14.7,14.7,0,0,0,1.24-1.357Zm-9.271-13.3a4.108,4.108,0,0,0-1.912.4,3.274,3.274,0,0,0-1.192,1.072,4.359,4.359,0,0,0-.632,1.505,8.359,8.359,0,0,0-.181,1.747h7.6a12.641,12.641,0,0,0-.107-1.609,4.308,4.308,0,0,0-.5-1.522,3.123,3.123,0,0,0-1.113-1.143,3.7,3.7,0,0,0-1.961-.451" transform="translate(-237.65 -72.48)" fill="#37455c"/>
    <path id="Trazado_1203" data-name="Trazado 1203" d="M502.312,248.018v13.608a3.645,3.645,0,0,0,.228,1.363,2.61,2.61,0,0,0,.615.929,2.389,2.389,0,0,0,.912.522,3.767,3.767,0,0,0,1.132.165,12.649,12.649,0,0,0,2.812-.336,9.034,9.034,0,0,0,2.632-1.06V248.018h4.78v16.4a12.368,12.368,0,0,0,.108,1.368c.076.6.187,1.291.335,2.087h-4.525c-.027-.077-.066-.209-.118-.412s-.113-.423-.165-.654-.107-.456-.16-.659-.08-.362-.09-.461a9.146,9.146,0,0,1-1.406,1.017,11.752,11.752,0,0,1-1.641.813,10.443,10.443,0,0,1-1.72.522,8.079,8.079,0,0,1-1.656.187,8.694,8.694,0,0,1-3.3-.544,5.45,5.45,0,0,1-2.1-1.478,5.529,5.529,0,0,1-1.124-2.214,10.905,10.905,0,0,1-.329-2.719V248.018Z" transform="translate(-333.911 -73.168)" fill="#37455c"/>
    <path id="Trazado_1204" data-name="Trazado 1204" d="M583.686,263.9a14.339,14.339,0,0,1-2.2,1.95,10.122,10.122,0,0,1-2.1,1.132,9.2,9.2,0,0,1-2.137.522,18.835,18.835,0,0,1-2.261.127,9.935,9.935,0,0,1-4.348-.879,8.258,8.258,0,0,1-2.961-2.357,9.65,9.65,0,0,1-1.69-3.385,14.409,14.409,0,0,1-.547-3.971,12.872,12.872,0,0,1,.56-3.8,9.159,9.159,0,0,1,1.712-3.187,8.378,8.378,0,0,1,2.887-2.209,9.467,9.467,0,0,1,4.1-.829,10.729,10.729,0,0,1,3.676.572,6.9,6.9,0,0,1,2.637,1.637,6.777,6.777,0,0,1,1.594,2.582,10.227,10.227,0,0,1,.53,3.395c0,.472-.013.967-.043,1.478a15.08,15.08,0,0,1-.19,1.593H570.481a6.713,6.713,0,0,0,.313,1.89,7.783,7.783,0,0,0,.912,1.945,5.381,5.381,0,0,0,1.48,1.51,3.478,3.478,0,0,0,2.022.61,8.987,8.987,0,0,0,1.739-.149,4.965,4.965,0,0,0,1.381-.478,5.614,5.614,0,0,0,1.209-.868,14.25,14.25,0,0,0,1.242-1.357Zm-9.271-13.3a4.044,4.044,0,0,0-1.91.4,3.231,3.231,0,0,0-1.192,1.072,4.294,4.294,0,0,0-.629,1.505,8.375,8.375,0,0,0-.181,1.747H578.1a11.751,11.751,0,0,0-.11-1.609,4.142,4.142,0,0,0-.5-1.528,3.075,3.075,0,0,0-1.11-1.137,3.679,3.679,0,0,0-1.963-.451" transform="translate(-380.575 -72.48)" fill="#37455c"/>
    <path id="Trazado_1205" data-name="Trazado 1205" d="M631.1,219.4h4.779v24.014a2.191,2.191,0,0,0,.305,1.33,1.008,1.008,0,0,0,.834.385,2.884,2.884,0,0,0,1.031-.165c.28-.115.606-.242.975-.39l.808,2.466a9.646,9.646,0,0,1-1,.589,9.46,9.46,0,0,1-1.14.489,10.351,10.351,0,0,1-1.231.341,6.612,6.612,0,0,1-1.26.126,6.964,6.964,0,0,1-1.527-.165,3.1,3.1,0,0,1-1.3-.637,3.291,3.291,0,0,1-.918-1.291,5.508,5.508,0,0,1-.348-2.137Z" transform="translate(-425.692 -53.5)" fill="#37455c"/>
    <path id="Trazado_1206" data-name="Trazado 1206" d="M664.038,263.467l4.892-15.449h5.223l-7.983,19.861h-4.191l-8.148-19.861h5.223Z" transform="translate(-441.309 -73.168)" fill="#37455c"/>
    <path id="Trazado_1207" data-name="Trazado 1207" d="M738.6,263.9a14.413,14.413,0,0,1-2.2,1.95,10.118,10.118,0,0,1-2.1,1.132,9.114,9.114,0,0,1-2.137.522,18.728,18.728,0,0,1-2.261.127,9.937,9.937,0,0,1-4.349-.879,8.327,8.327,0,0,1-2.962-2.357,9.7,9.7,0,0,1-1.692-3.385,14.527,14.527,0,0,1-.542-3.971,12.872,12.872,0,0,1,.561-3.8,9.063,9.063,0,0,1,1.712-3.187,8.307,8.307,0,0,1,2.884-2.209,9.454,9.454,0,0,1,4.095-.829,10.721,10.721,0,0,1,3.677.572,6.949,6.949,0,0,1,2.639,1.637,6.811,6.811,0,0,1,1.594,2.582,10.227,10.227,0,0,1,.53,3.395c0,.472-.013.967-.047,1.478a12.561,12.561,0,0,1-.192,1.593H725.39a6.452,6.452,0,0,0,.318,1.89,7.468,7.468,0,0,0,.907,1.945,5.447,5.447,0,0,0,1.478,1.51,3.488,3.488,0,0,0,2.03.61,8.917,8.917,0,0,0,1.733-.149,4.921,4.921,0,0,0,1.379-.478,5.492,5.492,0,0,0,1.214-.868,14.379,14.379,0,0,0,1.244-1.357Zm-9.268-13.3a4.038,4.038,0,0,0-1.914.4,3.291,3.291,0,0,0-1.192,1.072,4.235,4.235,0,0,0-.627,1.505,8.152,8.152,0,0,0-.184,1.747h7.6a12.11,12.11,0,0,0-.11-1.609,4.219,4.219,0,0,0-.5-1.528,3.092,3.092,0,0,0-1.113-1.137,3.692,3.692,0,0,0-1.959-.451" transform="translate(-487.02 -72.48)" fill="#37455c"/>
    <path id="Trazado_1208" data-name="Trazado 1208" d="M472.035,329.214h2.318v3.406h1.374v2h-1.374v7.235h-2.318v-7.235h-1.186v-2h1.186Z" transform="translate(-315.578 -128.96)" fill="#75c1e3"/>
    <path id="Trazado_1209" data-name="Trazado 1209" d="M490.374,340.1h2.343v4.445a6.308,6.308,0,0,0,.176,1.8,1.571,1.571,0,0,0,.577.786,1.627,1.627,0,0,0,.973.28,1.718,1.718,0,0,0,.983-.275,1.611,1.611,0,0,0,.6-.813,6.2,6.2,0,0,0,.143-1.7V340.1h2.318v3.912a9.644,9.644,0,0,1-.381,3.308,3.645,3.645,0,0,1-1.374,1.67,4.24,4.24,0,0,1-2.31.577,4.1,4.1,0,0,1-2.456-.676,3.616,3.616,0,0,1-1.319-1.89,11.539,11.539,0,0,1-.272-3.06Z" transform="translate(-328.994 -136.44)" fill="#75c1e3"/>
    <path id="Trazado_1210" data-name="Trazado 1210" d="M527.781,340.86l-1.431,1.434a2.416,2.416,0,0,0-1.587-.868,1,1,0,0,0-.611.165.488.488,0,0,0-.081.757,2.6,2.6,0,0,0,.692.429l.845.423a5,5,0,0,1,1.843,1.346,2.816,2.816,0,0,1-.4,3.671,3.45,3.45,0,0,1-2.423.818,3.839,3.839,0,0,1-3.223-1.577l1.426-1.556a3.176,3.176,0,0,0,.953.769,2.078,2.078,0,0,0,.972.3,1.149,1.149,0,0,0,.737-.226.637.637,0,0,0,.282-.5c0-.357-.34-.709-1.01-1.045l-.783-.39c-1.492-.752-2.239-1.7-2.239-2.824a2.439,2.439,0,0,1,.847-1.874,3.066,3.066,0,0,1,2.159-.78,3.735,3.735,0,0,1,3.035,1.533Z" transform="translate(-350.314 -135.909)" fill="#75c1e3"/>
    <path id="Trazado_1211" data-name="Trazado 1211" d="M560.184,331.751h.821c.006-1.208.028-1.929.058-2.148a1.789,1.789,0,0,1,.643-1.209,2.394,2.394,0,0,1,1.549-.445,4.844,4.844,0,0,1,1.63.33v1.768a3.075,3.075,0,0,0-.825-.148.848.848,0,0,0-.593.17.737.737,0,0,0-.138.527l-.007,1.154h1.469v1.961h-1.469v7.269h-2.317v-7.269h-.821Z" transform="translate(-376.962 -128.091)" fill="#75c1e3"/>
    <path id="Trazado_1212" data-name="Trazado 1212" d="M578.9,327.949a1.431,1.431,0,0,1,1.044.44,1.466,1.466,0,0,1,.437,1.071,1.451,1.451,0,0,1-.431,1.054,1.442,1.442,0,0,1-2.085-.01,1.46,1.46,0,0,1-.437-1.077,1.478,1.478,0,0,1,1.472-1.478Zm-1.159,3.8h2.316v9.23h-2.316Z" transform="translate(-388.811 -128.091)" fill="#75c1e3"/>
    <path id="Trazado_1213" data-name="Trazado 1213" d="M592.556,339.569h2.318v.945a5.455,5.455,0,0,1,1.426-.923,3.406,3.406,0,0,1,1.312-.264,3.18,3.18,0,0,1,2.328.962,3.3,3.3,0,0,1,.8,2.411v6.1h-2.291v-4.044a10.176,10.176,0,0,0-.148-2.193,1.509,1.509,0,0,0-.517-.829,1.463,1.463,0,0,0-.909-.28,1.7,1.7,0,0,0-1.207.466,2.511,2.511,0,0,0-.7,1.3,10.427,10.427,0,0,0-.1,1.874v3.7h-2.318Z" transform="translate(-399.206 -135.909)" fill="#75c1e3"/>
    <path id="Trazado_1214" data-name="Trazado 1214" d="M631.771,339.569h2.316v9.23h-2.316v-.978a4.575,4.575,0,0,1-1.36.935,3.878,3.878,0,0,1-1.48.28,4.11,4.11,0,0,1-3.093-1.385,4.835,4.835,0,0,1-1.3-3.45,4.975,4.975,0,0,1,1.261-3.506,4.045,4.045,0,0,1,3.068-1.368,3.82,3.82,0,0,1,1.561.319,4.289,4.289,0,0,1,1.348.94Zm-2.436,1.9a2.35,2.35,0,0,0-1.786.758,2.738,2.738,0,0,0-.708,1.944,2.778,2.778,0,0,0,.722,1.973,2.338,2.338,0,0,0,1.78.769,2.376,2.376,0,0,0,1.808-.758,2.771,2.771,0,0,0,.721-1.989,2.71,2.71,0,0,0-.721-1.956A2.414,2.414,0,0,0,629.335,341.47Z" transform="translate(-421.178 -135.909)" fill="#75c1e3"/>
    <path id="Trazado_1215" data-name="Trazado 1215" d="M662.551,339.569h2.318v.945a5.425,5.425,0,0,1,1.425-.923,3.394,3.394,0,0,1,1.307-.264,3.178,3.178,0,0,1,2.333.962,3.3,3.3,0,0,1,.8,2.411v6.1h-2.288v-4.044a10.2,10.2,0,0,0-.148-2.193,1.525,1.525,0,0,0-.517-.829,1.464,1.464,0,0,0-.91-.28,1.7,1.7,0,0,0-1.206.466,2.492,2.492,0,0,0-.7,1.3,10.433,10.433,0,0,0-.1,1.874v3.7h-2.318Z" transform="translate(-447.302 -135.909)" fill="#75c1e3"/>
    <path id="Trazado_1216" data-name="Trazado 1216" d="M693.24,340.1H700.3l-4.146,7.269h3.91v1.961H692.6l4.167-7.269h-3.53Z" transform="translate(-467.95 -136.44)" fill="#75c1e3"/>
    <path id="Trazado_1217" data-name="Trazado 1217" d="M727.31,339.569h2.316v9.23H727.31v-.978a4.537,4.537,0,0,1-1.36.935,3.869,3.869,0,0,1-1.478.28,4.116,4.116,0,0,1-3.1-1.385,4.85,4.85,0,0,1-1.3-3.45,4.964,4.964,0,0,1,1.261-3.506,4.04,4.04,0,0,1,3.068-1.368,3.807,3.807,0,0,1,1.558.319,4.217,4.217,0,0,1,1.349.94Zm-2.437,1.9a2.34,2.34,0,0,0-1.783.758,2.738,2.738,0,0,0-.711,1.944,2.766,2.766,0,0,0,.726,1.973,2.333,2.333,0,0,0,1.78.769,2.379,2.379,0,0,0,1.807-.758,2.769,2.769,0,0,0,.72-1.989,2.708,2.708,0,0,0-.72-1.956A2.424,2.424,0,0,0,724.873,341.47Z" transform="translate(-486.827 -135.909)" fill="#75c1e3"/>
    <path id="Trazado_1218" data-name="Trazado 1218" d="M762.137,340.86l-1.434,1.434a2.41,2.41,0,0,0-1.588-.868,1,1,0,0,0-.61.165.494.494,0,0,0-.219.413.517.517,0,0,0,.138.345,2.607,2.607,0,0,0,.692.429l.852.423a5.014,5.014,0,0,1,1.838,1.346,2.813,2.813,0,0,1-.4,3.671,3.457,3.457,0,0,1-2.422.818,3.845,3.845,0,0,1-3.226-1.577l1.426-1.556a3.236,3.236,0,0,0,.956.769,2.088,2.088,0,0,0,.97.3,1.15,1.15,0,0,0,.739-.226.634.634,0,0,0,.28-.5c0-.357-.334-.709-1.01-1.045l-.78-.39c-1.492-.752-2.242-1.7-2.242-2.824a2.458,2.458,0,0,1,.845-1.874,3.08,3.08,0,0,1,2.159-.78,3.743,3.743,0,0,1,3.038,1.533Z" transform="translate(-511.345 -135.909)" fill="#75c1e3"/>
  </g>
</svg>
