<svg xmlns="http://www.w3.org/2000/svg" width="635.337" height="505.421" viewBox="0 0 635.337 505.421">
  <defs>
    <style>
      .cls-1 {
        fill: #030404;
      }

      .cls-2 {
        fill: #3f3e3c;
      }

      .cls-3 {
        fill: #3c9535;
      }

      .cls-4 {
        fill: #fff;
      }

      .cls-5 {
        fill: #d4d4d3;
      }
    </style>
  </defs>
  <g id="Grupo_241" data-name="Grupo 241" transform="translate(-734.172 -339.006)">
    <path id="Trazado_345" data-name="Trazado 345" class="cls-1" d="M1081.689,841.732a2.689,2.689,0,0,1,2.679-2.67,2.612,2.612,0,0,1,1.915.786,2.659,2.659,0,0,1-.012,3.793,2.627,2.627,0,0,1-1.9.786,2.534,2.534,0,0,1-1.9-.811,2.64,2.64,0,0,1-.776-1.884"/>
    <path id="Trazado_346" data-name="Trazado 346" class="cls-1" d="M1118.253,841.732a2.687,2.687,0,0,1,2.678-2.67,2.614,2.614,0,0,1,1.916.786,2.661,2.661,0,0,1-.013,3.793,2.624,2.624,0,0,1-1.9.786,2.536,2.536,0,0,1-1.9-.811,2.643,2.643,0,0,1-.775-1.884"/>
    <path id="Trazado_347" data-name="Trazado 347" class="cls-1" d="M1154.365,841.732a2.689,2.689,0,0,1,2.679-2.67,2.614,2.614,0,0,1,1.916.786,2.661,2.661,0,0,1-.013,3.793,2.627,2.627,0,0,1-1.9.786,2.534,2.534,0,0,1-1.9-.811,2.644,2.644,0,0,1-.776-1.884"/>
    <g id="Grupo_240" data-name="Grupo 240">
      <path id="Trazado_348" data-name="Trazado 348" class="cls-1" d="M1089.811,642.265a20.87,20.87,0,0,1-1.536,8.172,18.837,18.837,0,0,1-3.965,6.079,17.3,17.3,0,0,1-5.194,3.663,35.232,35.232,0,0,1-14.291,2.586H1045.8v-2.832a11.961,11.961,0,0,0,3.995-.508,2.843,2.843,0,0,0,1.768-1.524,7.944,7.944,0,0,0,.415-2.893V628.66a5.3,5.3,0,0,0-1.107-3.816q-1.105-1.109-5.071-1.109v-2.893l8.944-.185q.461,0,3.749-.061t3.811-.062a58.046,58.046,0,0,1,8.713.555,28.626,28.626,0,0,1,6.562,1.784,18.107,18.107,0,0,1,5.04,3.094,19.686,19.686,0,0,1,3.887,4.525,21.779,21.779,0,0,1,2.444,5.525,22.472,22.472,0,0,1,.86,6.248m-9.957-.185a21.873,21.873,0,0,0-2.475-10.88,13.271,13.271,0,0,0-6.714-6.079,14.1,14.1,0,0,0-3.919-.939q-2.074-.2-5.947-.2v29.333a19.524,19.524,0,0,0,.246,3.678,2.508,2.508,0,0,0,1.444,1.755,8.715,8.715,0,0,0,3.719.6q7.469,0,10.557-5.232A23.231,23.231,0,0,0,1079.854,642.08Z"/>
      <path id="Trazado_349" data-name="Trazado 349" class="cls-1" d="M1124.239,649.221h-18.9q.03.585.169,2.493a14.589,14.589,0,0,0,.86,3.91,7.362,7.362,0,0,0,2.49,3.37,7.55,7.55,0,0,0,4.748,1.37,11.964,11.964,0,0,0,3.934-.831,8.447,8.447,0,0,0,4-3.2l2.4,1.632q-3.627,5.817-11.525,5.817a19.4,19.4,0,0,1-6.438-1.015,14.449,14.449,0,0,1-4.933-2.832,12.285,12.285,0,0,1-3.1-4.279,13.06,13.06,0,0,1-1.075-5.294,13.748,13.748,0,0,1,1.8-6.895,13.19,13.19,0,0,1,5.148-5.047,15.379,15.379,0,0,1,7.653-1.878,13.171,13.171,0,0,1,7.114,1.816,11.2,11.2,0,0,1,4.288,4.709,14.1,14.1,0,0,1,1.383,6.156m-7.622-2.832q0-7.017-5.532-7.017a4.787,4.787,0,0,0-4.1,1.939,9.137,9.137,0,0,0-1.583,5.078Z"/>
      <path id="Trazado_350" data-name="Trazado 350" class="cls-1" d="M1156.115,655.439a6.785,6.785,0,0,1-1.583,4.524,9.761,9.761,0,0,1-4.333,2.848,19.066,19.066,0,0,1-6.346.969,25.609,25.609,0,0,1-4.887-.477,15.926,15.926,0,0,1-4.3-1.431l-1.2,1.723h-2.4l-.306-8h2.581a7.417,7.417,0,0,0,3.1,3.709q2.428,1.647,7.038,1.646a20.327,20.327,0,0,0,2.52-.169,6.4,6.4,0,0,0,2.6-.939,2.589,2.589,0,0,0,1.245-2.37,2.108,2.108,0,0,0-1.276-2.016,28.081,28.081,0,0,0-4.779-1.523q-4.241-1.077-6.946-2.047a12.58,12.58,0,0,1-4.579-2.786,6.224,6.224,0,0,1-1.874-4.678,6.525,6.525,0,0,1,3.335-5.756,16.056,16.056,0,0,1,8.743-2.124,21.268,21.268,0,0,1,5.409.554,21.525,21.525,0,0,1,3.411,1.2l.738-1.569h2.458v7.141h-2.52a4.689,4.689,0,0,0-1.536-2.309,8.244,8.244,0,0,0-3.181-1.616,16.733,16.733,0,0,0-4.595-.569,20.282,20.282,0,0,0-4.287.461q-2.137.462-2.136,2.186a1.679,1.679,0,0,0,.415,1.169,3.8,3.8,0,0,0,1.429.862,33.5,33.5,0,0,0,3.565,1.047q2.55.647,3.043.769a32.632,32.632,0,0,1,8.221,3.109q3.21,1.847,3.211,6.464"/>
      <path id="Trazado_351" data-name="Trazado 351" class="cls-1" d="M1193.831,656.27a7.844,7.844,0,0,1-.952,3.986,5.928,5.928,0,0,1-2.567,2.432,8.221,8.221,0,0,1-3.642.784,7.274,7.274,0,0,1-4.3-1.215,4.686,4.686,0,0,1-2.06-2.909q-5.133,4.125-10.326,4.124a8.727,8.727,0,0,1-5.44-1.615,5.1,5.1,0,0,1-2.121-4.264,7.168,7.168,0,0,1,1.138-3.955,10.539,10.539,0,0,1,3.334-3.155,25.754,25.754,0,0,1,5.24-2.447q3.043-1.062,7.592-2.231V644.05a5.238,5.238,0,0,0-1.03-3.432q-1.03-1.246-3.795-1.246a4.874,4.874,0,0,0-3.412.985,5.154,5.154,0,0,0-1.383,2.985,5.489,5.489,0,0,1-.907,2.324q-.66.907-2.75.908a3.688,3.688,0,0,1-2.275-.738,2.564,2.564,0,0,1-.983-2.186q0-2.862,3.1-4.986t9.527-2.124q6.76,0,9.3,2.278a7.788,7.788,0,0,1,2.536,6.094v9.727q0,1.847.092,2.708a2.224,2.224,0,0,0,.507,1.308,1.794,1.794,0,0,0,2.7-.384,3.334,3.334,0,0,0,.6-2Zm-14.106.246v-7.633q-5.839,1.847-7.423,3.616a5.286,5.286,0,0,0-1.583,3.463,3.08,3.08,0,0,0,.861,2.278,3.278,3.278,0,0,0,2.428.862,6.1,6.1,0,0,0,2.981-.708A18.733,18.733,0,0,0,1179.725,656.516Z"/>
      <path id="Trazado_352" data-name="Trazado 352" class="cls-1" d="M1223.157,641.4a3.688,3.688,0,0,1-1.091,2.816,3.614,3.614,0,0,1-2.566,1.032,3.823,3.823,0,0,1-3.074-1.724,8.407,8.407,0,0,0-1.014-1.108,1.707,1.707,0,0,0-1.137-.339,4.106,4.106,0,0,0-3.734,2.6,11.677,11.677,0,0,0-1.337,5.4v5.356a6.68,6.68,0,0,0,.66,3.54q.662.954,3.489.954h1.629v2.832H1195.9v-2.832h1.6q2.58,0,3.165-.985a7.444,7.444,0,0,0,.584-3.509v-8.988a7.574,7.574,0,0,0-.415-2.955,2.168,2.168,0,0,0-1.491-1.185,14.454,14.454,0,0,0-3.441-.292v-2.832l11.985-2.647a41.246,41.246,0,0,1,.861,6.679A13.131,13.131,0,0,1,1211,639.9a11.862,11.862,0,0,1,3.134-2.432,7.487,7.487,0,0,1,3.55-.923,5.531,5.531,0,0,1,4,1.416,4.6,4.6,0,0,1,1.475,3.447"/>
      <path id="Trazado_353" data-name="Trazado 353" class="cls-1" d="M1255.709,641.4a3.688,3.688,0,0,1-1.091,2.816,3.612,3.612,0,0,1-2.566,1.032,3.821,3.821,0,0,1-3.073-1.724,8.4,8.4,0,0,0-1.015-1.108,1.709,1.709,0,0,0-1.137-.339,4.106,4.106,0,0,0-3.734,2.6,11.677,11.677,0,0,0-1.337,5.4v5.356a6.668,6.668,0,0,0,.661,3.54q.66.954,3.488.954h1.629v2.832h-19.085v-2.832h1.6q2.581,0,3.165-.985a7.444,7.444,0,0,0,.584-3.509v-8.988a7.574,7.574,0,0,0-.415-2.955,2.166,2.166,0,0,0-1.49-1.185,14.464,14.464,0,0,0-3.442-.292v-2.832l11.986-2.647a41.368,41.368,0,0,1,.861,6.679,13.127,13.127,0,0,1,2.258-3.324,11.851,11.851,0,0,1,3.135-2.432,7.48,7.48,0,0,1,3.549-.923,5.529,5.529,0,0,1,4,1.416,4.6,4.6,0,0,1,1.475,3.447"/>
      <path id="Trazado_354" data-name="Trazado 354" class="cls-1" d="M1289.952,650.083a12.852,12.852,0,0,1-7.514,12.051,17.4,17.4,0,0,1-7.576,1.646,18.133,18.133,0,0,1-7.329-1.508,13.409,13.409,0,0,1-5.655-4.586,12.634,12.634,0,0,1-2.2-7.541q0-6.68,4.549-10.142a17.338,17.338,0,0,1,10.817-3.463,16.562,16.562,0,0,1,8.053,1.847,12.625,12.625,0,0,1,5.117,4.955,13.6,13.6,0,0,1,1.736,6.741m-8.482-.185q0-5.232-1.383-7.879t-5.378-2.647a6.168,6.168,0,0,0-3.98,1.154,6.254,6.254,0,0,0-2,3.57,28.2,28.2,0,0,0-.569,6.264,19.609,19.609,0,0,0,1.26,7.665q1.261,2.923,5.5,2.923a5.444,5.444,0,0,0,4.257-1.615,7.833,7.833,0,0,0,1.875-4A31.893,31.893,0,0,0,1281.47,649.9Z"/>
      <path id="Trazado_355" data-name="Trazado 355" class="cls-1" d="M1312.609,662.765h-17.671v-2.832h1.321a5.2,5.2,0,0,0,2.6-.493,2.047,2.047,0,0,0,1-1.385,13.95,13.95,0,0,0,.184-2.616V629.214q0-2.215-1.03-2.832a8.957,8.957,0,0,0-4.071-.615v-2.832l13.03-2.647v35.151a14.9,14.9,0,0,0,.169,2.6,2.043,2.043,0,0,0,.984,1.385,5.066,5.066,0,0,0,2.6.508h.891Z"/>
      <path id="Trazado_356" data-name="Trazado 356" class="cls-1" d="M1333.882,662.765h-17.671v-2.832h1.322a5.2,5.2,0,0,0,2.6-.493,2.052,2.052,0,0,0,1-1.385,13.96,13.96,0,0,0,.184-2.616V629.214q0-2.215-1.03-2.832a8.964,8.964,0,0,0-4.072-.615v-2.832l13.031-2.647v35.151a14.793,14.793,0,0,0,.169,2.6,2.038,2.038,0,0,0,.983,1.385,5.068,5.068,0,0,0,2.6.508h.891Z"/>
      <path id="Trazado_357" data-name="Trazado 357" class="cls-1" d="M1369.509,650.083a12.85,12.85,0,0,1-7.515,12.051,17.4,17.4,0,0,1-7.575,1.646,18.141,18.141,0,0,1-7.33-1.508,13.416,13.416,0,0,1-5.655-4.586,12.641,12.641,0,0,1-2.2-7.541q0-6.68,4.548-10.142a17.339,17.339,0,0,1,10.818-3.463,16.561,16.561,0,0,1,8.052,1.847,12.634,12.634,0,0,1,5.118,4.955,13.6,13.6,0,0,1,1.736,6.741m-8.483-.185q0-5.232-1.383-7.879t-5.378-2.647a6.169,6.169,0,0,0-3.98,1.154,6.248,6.248,0,0,0-2,3.57,28.132,28.132,0,0,0-.569,6.264,19.609,19.609,0,0,0,1.26,7.665q1.26,2.923,5.5,2.923a5.445,5.445,0,0,0,4.257-1.615,7.823,7.823,0,0,0,1.874-4A31.893,31.893,0,0,0,1361.026,649.9Z"/>
      <path id="Trazado_358" data-name="Trazado 358" class="cls-1" d="M1104.029,731.65h-19.842v-2.832a9.758,9.758,0,0,0,3.764-.538,2.725,2.725,0,0,0,1.561-1.57,8.718,8.718,0,0,0,.365-2.816V697.731l-14.941,33.919h-1.78l-15.144-33.919V722.57a25.952,25.952,0,0,0,.131,3.017,3.77,3.77,0,0,0,.671,1.785,3.163,3.163,0,0,0,1.707,1.092,11.606,11.606,0,0,0,3.239.354v2.832h-14.649v-2.832a11.167,11.167,0,0,0,3.254-.369,3.151,3.151,0,0,0,1.678-1.108,3.72,3.72,0,0,0,.642-1.77,28.715,28.715,0,0,0,.117-3V698.931a19.46,19.46,0,0,0-.263-3.817,2.568,2.568,0,0,0-1.444-1.77,9.494,9.494,0,0,0-3.984-.6v-2.832h14.474l13.131,29.457,13.161-29.457h14.152v2.832q-3.648,0-4.713,1.124a5.455,5.455,0,0,0-1.064,3.8v26.225a8.815,8.815,0,0,0,.35,2.739,2.76,2.76,0,0,0,1.619,1.616,9.737,9.737,0,0,0,3.808.569Z"/>
      <path id="Trazado_359" data-name="Trazado 359" class="cls-1" d="M1135.375,718.107h-17.946q.029.585.16,2.493a15.29,15.29,0,0,0,.817,3.909,7.357,7.357,0,0,0,2.364,3.371,6.914,6.914,0,0,0,4.508,1.37,10.868,10.868,0,0,0,3.735-.832,8.106,8.106,0,0,0,3.794-3.2l2.276,1.632q-3.444,5.817-10.943,5.817a17.574,17.574,0,0,1-6.113-1.016,13.569,13.569,0,0,1-4.684-2.832,12.267,12.267,0,0,1-2.946-4.278,13.66,13.66,0,0,1-1.022-5.294,14.316,14.316,0,0,1,1.707-6.895,12.854,12.854,0,0,1,4.888-5.048,14.026,14.026,0,0,1,7.266-1.878,12.014,12.014,0,0,1,6.755,1.817,11,11,0,0,1,4.071,4.709,14.729,14.729,0,0,1,1.313,6.156m-7.237-2.832q0-7.017-5.252-7.018a4.468,4.468,0,0,0-3.9,1.939,9.479,9.479,0,0,0-1.5,5.079Zm.438-24.285-8.609,10.526h-2.1l3.181-10.526Z"/>
      <path id="Trazado_360" data-name="Trazado 360" class="cls-1" d="M1170.368,731.65h-16.312v-2.832h1.021a7.46,7.46,0,0,0,1.985-.215.941.941,0,0,0,.758-.985q0-.492-1.313-1.97l-2.918-3.263-3.706,3.263q-1.43,1.2-1.43,2.093a.867.867,0,0,0,.774.893,10.773,10.773,0,0,0,2.319.184v2.832h-11.351v-2.832a8.858,8.858,0,0,0,3.166-1.369,43.982,43.982,0,0,0,4.713-3.8l3.706-3.355-7.091-8a15.638,15.638,0,0,0-2.408-2.4,4.439,4.439,0,0,0-2.2-.616v-2.832H1156.1v2.832a10.076,10.076,0,0,0-2.116.154.785.785,0,0,0-.627.862q0,.492,1.2,1.754l2.86,3.232,3.093-3.047q.612-.585.948-.908a3.68,3.68,0,0,0,.511-.585,1,1,0,0,0,.175-.569q0-.4-.671-.647a6.578,6.578,0,0,0-2.1-.246v-2.832h10.768v2.832a5.3,5.3,0,0,0-2.744.954,36.247,36.247,0,0,0-4.61,3.848l-3.531,3.262,8.316,9.512a7.521,7.521,0,0,0,2.8,1.969Z"/>
      <path id="Trazado_361" data-name="Trazado 361" class="cls-1" d="M1190.684,731.65h-15.846v-2.832h.847a4.726,4.726,0,0,0,2.465-.492,2.047,2.047,0,0,0,.949-1.385,14.671,14.671,0,0,0,.175-2.616v-9.142a11.574,11.574,0,0,0-.219-2.709,1.757,1.757,0,0,0-1.138-1.169,9.4,9.4,0,0,0-3.079-.4v-2.832l11.964-2.648v18.9a7.107,7.107,0,0,0,.613,3.539q.613.954,3.269.954Zm-3.3-38.259a4.42,4.42,0,0,1-1.24,3.154,4.041,4.041,0,0,1-5.982-.03,4.4,4.4,0,0,1-1.27-3.124,4.447,4.447,0,0,1,1.256-3.171,4.106,4.106,0,0,1,6.01-.03A4.471,4.471,0,0,1,1187.386,693.391Z"/>
      <path id="Trazado_362" data-name="Trazado 362" class="cls-1" d="M1221.445,725.4q-3.531,7.265-11.351,7.264a15.673,15.673,0,0,1-6.9-1.57,12.8,12.8,0,0,1-5.223-4.555,12.4,12.4,0,0,1-1.97-6.987,13.487,13.487,0,0,1,1.065-5.3,14.362,14.362,0,0,1,3.079-4.555,14.153,14.153,0,0,1,4.77-3.155,15.517,15.517,0,0,1,5.91-1.124,14.537,14.537,0,0,1,7.091,1.678,5.128,5.128,0,0,1,3.064,4.632,3.132,3.132,0,0,1-.964,2.309,3.061,3.061,0,0,1-2.217.954,2.637,2.637,0,0,1-1.838-.584,2.893,2.893,0,0,1-.847-1.2q-.2-.615-.583-2.185a3.607,3.607,0,0,0-1.255-2.139,4.133,4.133,0,0,0-2.451-.632,6.457,6.457,0,0,0-4.713,2.078q-2.056,2.077-2.057,7.772a18.029,18.029,0,0,0,.831,5.6,8.565,8.565,0,0,0,2.627,4.048,6.637,6.637,0,0,0,4.391,1.493,5.991,5.991,0,0,0,4.407-1.509,16.633,16.633,0,0,0,2.684-3.54Z"/>
      <path id="Trazado_363" data-name="Trazado 363" class="cls-1" d="M1255.593,718.969a13.572,13.572,0,0,1-1.926,7.294,12.722,12.722,0,0,1-5.209,4.756,15.813,15.813,0,0,1-7.193,1.647,16.485,16.485,0,0,1-6.96-1.508,12.89,12.89,0,0,1-5.369-4.587,13.123,13.123,0,0,1-2.086-7.541q0-6.678,4.319-10.141a15.912,15.912,0,0,1,10.271-3.464,15.068,15.068,0,0,1,7.645,1.848,12.305,12.305,0,0,1,4.859,4.955,14.171,14.171,0,0,1,1.649,6.741m-8.054-.185q0-5.232-1.314-7.879t-5.106-2.648a5.653,5.653,0,0,0-3.779,1.155,6.333,6.333,0,0,0-1.9,3.57,29.631,29.631,0,0,0-.54,6.264,20.53,20.53,0,0,0,1.2,7.664q1.2,2.925,5.223,2.924a5.031,5.031,0,0,0,4.042-1.616,8.012,8.012,0,0,0,1.78-4A33.671,33.671,0,0,0,1247.539,718.784Z"/>
      <path id="Trazado_364" data-name="Trazado 364" class="cls-1" d="M1053.343,786.79V775.911h1.251q2.128,10.63,10.091,10.63a7.352,7.352,0,0,0,5.545-2.034,6.4,6.4,0,0,0,1.965-4.554,5.785,5.785,0,0,0-1.727-4.267,21.4,21.4,0,0,0-6.309-3.644,46.374,46.374,0,0,1-6.159-3.056,9.334,9.334,0,0,1-3.243-3.407,9.057,9.057,0,0,1-1.164-4.466,8,8,0,0,1,2.516-6.027,8.848,8.848,0,0,1,6.372-2.408,11.7,11.7,0,0,1,4.056.7,10.391,10.391,0,0,1,3.906,2.895,5.351,5.351,0,0,0,1.3-2.97h1.1v8.859h-1.1a11.877,11.877,0,0,0-3.368-6.089,8.021,8.021,0,0,0-5.6-2.221,5.571,5.571,0,0,0-4.444,1.635,5.355,5.355,0,0,0-1.414,3.581,5.163,5.163,0,0,0,1.778,3.967,24.2,24.2,0,0,0,6.334,3.693,65.776,65.776,0,0,1,6.371,3.132,8.882,8.882,0,0,1,3.193,3.282,9.559,9.559,0,0,1,1.2,4.84,9.236,9.236,0,0,1-2.9,7.063,10.9,10.9,0,0,1-7.761,2.719,11.864,11.864,0,0,1-9.314-4.267,8.476,8.476,0,0,0-1.227,3.294Z"/>
      <path id="Trazado_365" data-name="Trazado 365" class="cls-1" d="M1081.689,785.268a2.689,2.689,0,0,1,2.679-2.67,2.612,2.612,0,0,1,1.915.786,2.66,2.66,0,0,1-.012,3.793,2.627,2.627,0,0,1-1.9.786,2.531,2.531,0,0,1-1.9-.811,2.637,2.637,0,0,1-.776-1.884"/>
      <path id="Trazado_366" data-name="Trazado 366" class="cls-1" d="M1114.241,774.663h-12.894l-.876,2.146q-1.951,4.666-1.953,6.088a2.718,2.718,0,0,0,1.039,2.309,4.3,4.3,0,0,0,2.667.786v1.147h-10.09v-1.147a5.446,5.446,0,0,0,3.355-1.585,19.391,19.391,0,0,0,2.654-5.2q.125-.373,1.2-2.895l9.865-23.481h.976l11.342,26.875,1.552,3.544a4.728,4.728,0,0,0,1.414,1.884,5.19,5.19,0,0,0,2.667.861v1.147h-13.344v-1.147a9.987,9.987,0,0,0,3.317-.362A1.4,1.4,0,0,0,1118,784.2a14.556,14.556,0,0,0-1.152-3.269Zm-.425-1.123-6.009-14.424-5.984,14.424Z"/>
      <path id="Trazado_367" data-name="Trazado 367" class="cls-1" d="M1161.47,768.873v-7.985q0-3.269-.088-4.117a1.735,1.735,0,0,0-.713-1.3,4.021,4.021,0,0,0-2.228-.449h-.526v-1.148a28.3,28.3,0,0,0,6.634-1.048h.526V780.3a40.849,40.849,0,0,0,.126,4.342,1.527,1.527,0,0,0,.788,1.148,5.552,5.552,0,0,0,2.466.374v1.148a36.463,36.463,0,0,0-6.459.649,16.274,16.274,0,0,1-.3-3.693,13.724,13.724,0,0,1-3.818,2.77,9.471,9.471,0,0,1-4.068.923,8.969,8.969,0,0,1-6.872-3.194,12.146,12.146,0,0,1,.062-15.808,9.413,9.413,0,0,1,7.035-3.082,10.415,10.415,0,0,1,3.931.748,11.846,11.846,0,0,1,3.505,2.246m0,1.448a12.919,12.919,0,0,0-3.318-2.134,8.444,8.444,0,0,0-3.342-.711,6,6,0,0,0-4.719,2.171q-1.891,2.171-1.891,7.087,0,4.99,1.941,7.361a5.965,5.965,0,0,0,4.794,2.371,7.184,7.184,0,0,0,3.53-.9,9.828,9.828,0,0,0,3.005-2.694Z"/>
      <path id="Trazado_368" data-name="Trazado 368" class="cls-1" d="M1190.693,773.615h-14.3q-.1,1.472-.1,2.2,0,5.39,1.691,8.1a5.562,5.562,0,0,0,5.045,2.708,6.606,6.606,0,0,0,6.459-4.068h1.2a6.975,6.975,0,0,1-3.18,3.98,9.986,9.986,0,0,1-10.1.125,10.485,10.485,0,0,1-3.793-3.706,10.865,10.865,0,0,1-1.477-5.814,11.653,11.653,0,0,1,2.854-8.047,9.156,9.156,0,0,1,7.135-3.207,7.959,7.959,0,0,1,6.234,2.445,8.348,8.348,0,0,1,2.329,5.291m-4.381-1a7.947,7.947,0,0,0,.074-1.023,4.292,4.292,0,0,0-4.456-4.616q-4.557,0-5.433,5.639Z"/>
      <path id="Trazado_369" data-name="Trazado 369" class="cls-1" d="M1240.425,774.438h1.077v11.853h-1.077a9.062,9.062,0,0,0-1.628-3.568,14.626,14.626,0,0,1-11.441,5.04,16.336,16.336,0,0,1-12.03-4.641q-4.67-4.641-4.67-12.277a21.315,21.315,0,0,1,2.154-9.445,14.527,14.527,0,0,1,6.008-6.576,17.119,17.119,0,0,1,8.463-2.146,15.1,15.1,0,0,1,6.9,1.56,13.828,13.828,0,0,1,4.618,3.456,12.335,12.335,0,0,0,1.3-4.392h1.1l.3,12.827h-1.077q-1.127-6.839-4.594-9.508a12.5,12.5,0,0,0-7.824-2.67,9.949,9.949,0,0,0-8.475,4.317q-3.142,4.317-3.142,12.352,0,7.611,3.43,11.666a10.738,10.738,0,0,0,8.538,4.055,13.234,13.234,0,0,0,5.583-1.322,9.72,9.72,0,0,0,4.519-4.48,16.777,16.777,0,0,0,1.965-6.1"/>
      <path id="Trazado_370" data-name="Trazado 370" class="cls-1" d="M1249.844,785.268a2.687,2.687,0,0,1,2.679-2.67,2.612,2.612,0,0,1,1.915.786,2.658,2.658,0,0,1-.013,3.793,2.624,2.624,0,0,1-1.9.786,2.53,2.53,0,0,1-1.9-.811,2.637,2.637,0,0,1-.776-1.884"/>
      <path id="Trazado_371" data-name="Trazado 371" class="cls-1" d="M1280.243,787.938h-1.552l-11.717-26.9q-.326-.723-1.027-2.5a7.76,7.76,0,0,0-2.053-3.219,6,6,0,0,0-3.48-.873V753.3h14.622v1.148a10.973,10.973,0,0,0-3.668.4,1.5,1.5,0,0,0-.94,1.523,12.341,12.341,0,0,0,1.178,3.393l9.764,22.459,7.836-18.691q1.978-4.691,1.978-6.114,0-2.868-4.081-2.969V753.3h10.365v1.148a4.266,4.266,0,0,0-2.779,1.123,8.683,8.683,0,0,0-2.078,3.144l-2.278,5.315Z"/>
      <path id="Trazado_372" data-name="Trazado 372" class="cls-1" d="M1292.666,785.268a2.689,2.689,0,0,1,2.679-2.67,2.61,2.61,0,0,1,1.915.786,2.66,2.66,0,0,1-.012,3.793,2.627,2.627,0,0,1-1.9.786,2.532,2.532,0,0,1-1.9-.811,2.641,2.641,0,0,1-.776-1.884"/>
      <path id="Trazado_373" data-name="Trazado 373" class="cls-1" d="M1053.343,843.254v-10.88h1.251q2.128,10.63,10.091,10.63a7.351,7.351,0,0,0,5.545-2.033,6.4,6.4,0,0,0,1.965-4.554,5.789,5.789,0,0,0-1.727-4.268,21.4,21.4,0,0,0-6.309-3.643,46.228,46.228,0,0,1-6.159-3.057,9.323,9.323,0,0,1-3.243-3.406,9.058,9.058,0,0,1-1.164-4.467,8,8,0,0,1,2.516-6.026,8.848,8.848,0,0,1,6.372-2.408,11.673,11.673,0,0,1,4.056.7,10.387,10.387,0,0,1,3.906,2.894,5.349,5.349,0,0,0,1.3-2.969h1.1v8.858h-1.1a11.874,11.874,0,0,0-3.368-6.088,8.016,8.016,0,0,0-5.6-2.221,5.574,5.574,0,0,0-4.444,1.634,5.357,5.357,0,0,0-1.414,3.581,5.164,5.164,0,0,0,1.778,3.968,24.2,24.2,0,0,0,6.334,3.693,65.79,65.79,0,0,1,6.371,3.132,8.879,8.879,0,0,1,3.193,3.281,9.562,9.562,0,0,1,1.2,4.841,9.233,9.233,0,0,1-2.9,7.062,10.9,10.9,0,0,1-7.761,2.72,11.864,11.864,0,0,1-9.314-4.267,8.476,8.476,0,0,0-1.227,3.294Z"/>
      <path id="Trazado_374" data-name="Trazado 374" class="cls-1" d="M1119.924,809.766l.276,8.434h-1.177a10.491,10.491,0,0,0-1.564-4.579,5.357,5.357,0,0,0-2.542-2.258,15.56,15.56,0,0,0-4.481-.449H1103.8v14.348h3.18q3.08,0,4.093-1.035t1.014-4.155h1.252V832h-1.252a10.821,10.821,0,0,0-.438-3.431,2.921,2.921,0,0,0-1.3-1.721,8.13,8.13,0,0,0-3.367-.462h-3.18v8.409a41.638,41.638,0,0,0,.2,5.228,2.694,2.694,0,0,0,1.014,1.834,5.71,5.71,0,0,0,3.142.6h1.152V843.6h-15.773v-1.148h1.051a5.889,5.889,0,0,0,3.018-.549,2.543,2.543,0,0,0,1.076-1.709,36.173,36.173,0,0,0,.238-5.4V818.2a34.362,34.362,0,0,0-.238-5.215,2.281,2.281,0,0,0-1-1.622,7.815,7.815,0,0,0-3.342-.449h-.6v-1.148Z"/>
      <path id="Trazado_375" data-name="Trazado 375" class="cls-1" d="M1140.464,827.682v7.112a44.5,44.5,0,0,0,.188,5.228,2.628,2.628,0,0,0,1.015,1.834,5.651,5.651,0,0,0,3.1.6h1.126V843.6H1130.35v-1.148h.9a5.89,5.89,0,0,0,3.018-.549,2.5,2.5,0,0,0,1.063-1.709,38.126,38.126,0,0,0,.225-5.4V818.2a36.215,36.215,0,0,0-.225-5.215,2.235,2.235,0,0,0-1-1.622,7.921,7.921,0,0,0-3.355-.449h-.626v-1.148l4.256-.15q5.108-.174,7.961-.175a30.661,30.661,0,0,1,8.1.824,9.5,9.5,0,0,1,4.656,2.92,7.789,7.789,0,0,1,1.815,5.289,9.52,9.52,0,0,1-1.238,4.892,7.956,7.956,0,0,1-3.556,3.219q-2.316,1.1-8.149,1.1Zm0-1.247h2.429a15.681,15.681,0,0,0,4.732-.586,5.638,5.638,0,0,0,3-2.458,8.37,8.37,0,0,0,1.2-4.617q0-4.192-2.066-6.151t-6.7-1.959a25.613,25.613,0,0,0-2.6.1Z"/>
      <path id="Trazado_376" data-name="Trazado 376" class="cls-2" d="M828.447,675.519q2.892-.186,3.677-1.236a5.554,5.554,0,0,0,.785-3.3V641.333a5.151,5.151,0,0,0-.573-3.012,2.777,2.777,0,0,0-2.154-.663,6.292,6.292,0,0,0-.635.03c-.2.021-.48.062-.852.124v-1.019l2.943-.957q.155-.031,6.228-2.131a.25.25,0,0,1,.232.139.65.65,0,0,1,.078.324v4.168a22.557,22.557,0,0,1,3.594-3.026,10.753,10.753,0,0,1,5.732-1.729,9.364,9.364,0,0,1,7.358,3.625q3.084,3.625,3.083,9.918a18.442,18.442,0,0,1-3.7,11.2q-3.7,5.028-9.311,5.028a9.36,9.36,0,0,1-3.005-.432,8.959,8.959,0,0,1-3.656-2.377V670.67q0,3.12,1.022,3.829t4.462.958v1.081H828.447Zm12.223-15.332a6.77,6.77,0,0,0,3.765,1.033q3.347,0,5.716-3.315t2.371-9.237q0-5.675-2.464-8.481a7.416,7.416,0,0,0-5.716-2.807,6.857,6.857,0,0,0-4.183,1.4q-1.89,1.4-1.89,2.76v15.514A6.253,6.253,0,0,0,840.67,660.187Z"/>
      <path id="Trazado_377" data-name="Trazado 377" class="cls-2" d="M868.268,649.146q2.85-1.854,11.37-5.034v-2.625a10.783,10.783,0,0,0-.619-4.385q-1.055-2.068-4.369-2.069a6.036,6.036,0,0,0-3.005.8,2.548,2.548,0,0,0-1.426,2.285,8.3,8.3,0,0,0,.156,1.251,8.8,8.8,0,0,1,.154,1.127,2.566,2.566,0,0,1-1.146,2.409,2.9,2.9,0,0,1-1.549.4,2.6,2.6,0,0,1-2.138-.911,3.121,3.121,0,0,1-.744-2.023q0-2.16,2.68-4.524t7.854-2.362q6.012,0,8.15,3.891a13.406,13.406,0,0,1,1.146,6.207v12.384a8.224,8.224,0,0,0,.248,2.47,1.617,1.617,0,0,0,1.673,1.205,2.781,2.781,0,0,0,1.177-.217,11.889,11.889,0,0,0,1.611-1.05v1.606a10.106,10.106,0,0,1-2.137,1.977,6.251,6.251,0,0,1-3.533,1.173,3.45,3.45,0,0,1-3.051-1.359,6.07,6.07,0,0,1-1.038-3.242,29.116,29.116,0,0,1-4.028,3.026,10.582,10.582,0,0,1-5.361,1.668,6.449,6.449,0,0,1-4.616-1.869,6.275,6.275,0,0,1-1.952-4.74q0-4.478,4.493-7.473m11.37-3.49a28.45,28.45,0,0,0-5.886,2.594q-4.463,2.75-4.462,6.238a4.739,4.739,0,0,0,1.859,4.138,4.522,4.522,0,0,0,2.7.865,7.427,7.427,0,0,0,3.919-1.142,3.353,3.353,0,0,0,1.874-2.9Z"/>
      <path id="Trazado_378" data-name="Trazado 378" class="cls-2" d="M891.481,661.746a7.528,7.528,0,0,0,3.78-1q.929-.756.929-3.227V643.587a11.9,11.9,0,0,0-.573-4.37,2.09,2.09,0,0,0-2.091-1.312,5.841,5.841,0,0,0-.821.077q-.512.078-1.069.2v-1.019l3.613-1.267q1.852-.648,2.564-.926,1.543-.586,3.181-1.328c.144,0,.231.051.262.155a2.808,2.808,0,0,1,.046.648v5.064a23.734,23.734,0,0,1,3.838-4.292,5.931,5.931,0,0,1,3.837-1.544,3.592,3.592,0,0,1,2.578.942,3.333,3.333,0,0,1,.236,4.493,2.431,2.431,0,0,1-1.906.865,3.567,3.567,0,0,1-2.37-1.081,3.363,3.363,0,0,0-1.875-1.081q-1.085,0-2.664,1.745a5.34,5.34,0,0,0-1.58,3.6v13.927q0,2.657,1.239,3.691a6.238,6.238,0,0,0,4.121.973v1.019H891.481Z"/>
      <path id="Trazado_379" data-name="Trazado 379" class="cls-2" d="M920.736,649.146q2.85-1.854,11.371-5.034v-2.625a10.779,10.779,0,0,0-.62-4.385q-1.053-2.068-4.368-2.069a6.037,6.037,0,0,0-3.006.8,2.549,2.549,0,0,0-1.425,2.285,8.265,8.265,0,0,0,.155,1.251A8.889,8.889,0,0,1,923,640.5a2.566,2.566,0,0,1-1.147,2.409,2.9,2.9,0,0,1-1.549.4,2.6,2.6,0,0,1-2.138-.911,3.126,3.126,0,0,1-.743-2.023q0-2.16,2.68-4.524t7.854-2.362q6.01,0,8.149,3.891a13.407,13.407,0,0,1,1.146,6.207v12.384a8.225,8.225,0,0,0,.248,2.47,1.617,1.617,0,0,0,1.673,1.205,2.786,2.786,0,0,0,1.178-.217,12.016,12.016,0,0,0,1.611-1.05v1.606a10.112,10.112,0,0,1-2.138,1.977,6.248,6.248,0,0,1-3.532,1.173,3.451,3.451,0,0,1-3.052-1.359,6.078,6.078,0,0,1-1.038-3.242,29.116,29.116,0,0,1-4.028,3.026,10.581,10.581,0,0,1-5.36,1.668,6.453,6.453,0,0,1-4.617-1.869,6.279,6.279,0,0,1-1.952-4.74q0-4.478,4.493-7.473m11.371-3.49a28.437,28.437,0,0,0-5.887,2.594q-4.461,2.75-4.462,6.238a4.739,4.739,0,0,0,1.859,4.138,4.521,4.521,0,0,0,2.7.865,7.431,7.431,0,0,0,3.92-1.142,3.353,3.353,0,0,0,1.874-2.9Z"/>
      <path id="Trazado_380" data-name="Trazado 380" class="cls-2" d="M983.3,636.808q3.284,3.012,3.284,8.539H966.915q.309,7.149,3.253,10.415a9.093,9.093,0,0,0,6.971,3.266,8.8,8.8,0,0,0,5.484-1.7,17.06,17.06,0,0,0,4.121-4.807l1.085.37a17.579,17.579,0,0,1-4.757,7.269,11.869,11.869,0,0,1-8.536,3.34,10.457,10.457,0,0,1-9-4.385,16.77,16.77,0,0,1-3.176-10.1,16.394,16.394,0,0,1,3.688-10.716,11.821,11.821,0,0,1,9.6-4.509,10.974,10.974,0,0,1,7.653,3.011m-14.842,2.363a12.24,12.24,0,0,0-1.425,4.2h13.075a12.767,12.767,0,0,0-1.177-4.6,5.351,5.351,0,0,0-5.081-2.718A5.927,5.927,0,0,0,968.463,639.171Z"/>
      <path id="Trazado_381" data-name="Trazado 381" class="cls-2" d="M992.172,661.9a7.354,7.354,0,0,0,3.9-1.158q1.023-.88,1.023-3.443V627.127a7.858,7.858,0,0,0-.341-2.81,2.5,2.5,0,0,0-2.51-1.3,5.4,5.4,0,0,0-.945.092q-.512.093-1.286.278v-1.019q4.184-1.111,10.07-2.964a.239.239,0,0,1,.264.185,4.322,4.322,0,0,1,.046.8v37.027q0,2.687.93,3.474t3.842,1v.865h-15Z"/>
      <path id="Trazado_382" data-name="Trazado 382" class="cls-2" d="M964.78,703.455a9.948,9.948,0,0,1,2.386,1.791v-9.82a5.6,5.6,0,0,0-.418-2.594q-.418-.711-2-.71a5.888,5.888,0,0,0-.65.031q-.279.03-1.24.123v-1.019l2.541-.649q1.395-.37,2.789-.772t2.447-.772q.5-.153,1.643-.587l.185.062-.062,3.243q-.031,1.76-.062,3.629t-.03,3.69l-.062,25.23a5.719,5.719,0,0,0,.495,2.81q.5.8,2.634.8c.227,0,.454,0,.682-.015a5.106,5.106,0,0,0,.681-.077v1.019q-.186.062-4.492,1.544l-4.865,1.822-.217-.278v-3.8a16.145,16.145,0,0,1-3.005,2.687,9.8,9.8,0,0,1-5.237,1.39,10.439,10.439,0,0,1-8.536-4.061,14.563,14.563,0,0,1-3.268-9.4,17.617,17.617,0,0,1,3.919-11.5,11.952,11.952,0,0,1,9.59-4.8,8.832,8.832,0,0,1,4.151.988m.9,24.026a3.926,3.926,0,0,0,1.487-2.687V711.546q0-4.014-2.153-5.666a6.943,6.943,0,0,0-4.2-1.653,6.807,6.807,0,0,0-6.072,3.443,15.607,15.607,0,0,0-2.17,8.477,17.031,17.031,0,0,0,2.309,8.863,7.514,7.514,0,0,0,6.894,3.892A5.418,5.418,0,0,0,965.679,727.481Z"/>
      <path id="Trazado_383" data-name="Trazado 383" class="cls-2" d="M1001.1,705.694q3.284,3.011,3.284,8.539H984.71q.309,7.149,3.252,10.415a9.1,9.1,0,0,0,6.972,3.266,8.8,8.8,0,0,0,5.484-1.7,17.043,17.043,0,0,0,4.121-4.807l1.085.37a17.6,17.6,0,0,1-4.757,7.269,11.869,11.869,0,0,1-8.535,3.34,10.453,10.453,0,0,1-9-4.385,16.763,16.763,0,0,1-3.176-10.1,16.394,16.394,0,0,1,3.687-10.716,11.82,11.82,0,0,1,9.605-4.509,10.974,10.974,0,0,1,7.653,3.011m-14.842,2.363a12.214,12.214,0,0,0-1.424,4.2h13.074a12.779,12.779,0,0,0-1.177-4.6,5.352,5.352,0,0,0-5.081-2.717A5.925,5.925,0,0,0,986.258,708.057Z"/>
      <path id="Trazado_384" data-name="Trazado 384" class="cls-3" d="M734.172,593.925q8.047-.5,10.43-2.077t2.382-8.169V532.953q0-6.291-2.382-8.1t-10.43-2.144v-2.116h39.016v2.116q-8.049.335-10.431,2.144t-2.381,8.1v50.726q0,6.591,2.381,8.169t10.431,2.077v2.116H734.172Z"/>
      <path id="Trazado_385" data-name="Trazado 385" class="cls-3" d="M778.081,594.593q5.02-.389,6.7-1.448,2.574-1.614,2.575-6.459V557.9q0-4.121-1.255-5.4a5.646,5.646,0,0,0-4.153-1.281,13.608,13.608,0,0,0-2.028.111,12.368,12.368,0,0,0-1.577.39v-1.949l4.635-1.336q2.511-.723,8.241-2.617t6.052-1.894a.349.349,0,0,1,.386.279,5.694,5.694,0,0,1,.065,1.058v7.517a49.558,49.558,0,0,1,11.009-6.932,24.659,24.659,0,0,1,9.528-1.922q6.63,0,10.559,3.9a16.266,16.266,0,0,1,3.412,5.735,52.4,52.4,0,0,1,8.305-6.181,25.139,25.139,0,0,1,12.491-3.453q10.363,0,13.841,7.295,2,4.121,2,13.03v23.107q0,3.956,2.028,5.374t7.307,1.865v1.448H849.158v-1.559q5.6-.445,7.371-1.949t1.771-6.125v-24q0-5.4-1.352-7.962-2.383-4.566-9.336-4.566a16.393,16.393,0,0,0-8.3,2.394,40.059,40.059,0,0,0-5.859,4.454v28.509q0,4.511,1.835,6.849t7.758,2.506v1.448H813.49v-1.448q6.116-.668,7.79-2.561t1.674-9.355v-15.56q0-8.556-1.287-11.78-2.124-5.455-9.014-5.456a17.368,17.368,0,0,0-7.726,1.865,23.788,23.788,0,0,0-6.7,4.872v30.458q0,4.233,1.706,5.847t7.436,1.67v1.448H778.081Z"/>
      <path id="Trazado_386" data-name="Trazado 386" class="cls-3" d="M879.159,619.038q6.011-.335,7.641-2.228t1.63-5.958V557.4q0-4.231-1.191-5.429t-4.474-1.2c-.473,0-.912.02-1.32.056s-1,.112-1.771.223v-1.838l6.117-1.726q.321-.054,12.941-3.841a.535.535,0,0,1,.482.25,1.06,1.06,0,0,1,.161.584v7.515a46.044,46.044,0,0,1,7.468-5.455,24.853,24.853,0,0,1,11.911-3.117,20.67,20.67,0,0,1,15.291,6.535q6.405,6.536,6.406,17.884a30.445,30.445,0,0,1-7.694,20.191A24.313,24.313,0,0,1,913.41,597.1a22.155,22.155,0,0,1-6.244-.78,19.123,19.123,0,0,1-7.6-4.286V610.3q0,5.622,2.125,6.9t9.271,1.726v1.949h-31.8Zm25.4-27.644a15.711,15.711,0,0,0,7.822,1.863q6.954,0,11.879-5.978t4.925-16.655q0-10.232-5.118-15.292a16.384,16.384,0,0,0-11.878-5.061A15.725,15.725,0,0,0,903.5,552.8q-3.928,2.531-3.928,4.977v27.972A11.65,11.65,0,0,0,904.558,591.394Z"/>
      <path id="Trazado_387" data-name="Trazado 387" class="cls-3" d="M964.851,544.479v35.637a12.874,12.874,0,0,0,1.223,6.069q2.382,4.233,8.757,4.232a16.482,16.482,0,0,0,8.562-2.505,24.2,24.2,0,0,0,4.829-3.843V553.555q0-4.285-1.931-5.623t-7.726-1.615v-1.838H999.36v39.2q0,3.789,1.577,5.207t6.664,1.253V591.7q-3.542.836-5.215,1.252t-5.6,1.532q-1.675.5-7.34,2.394c-.215,0-.344-.083-.386-.251a2.359,2.359,0,0,1-.064-.584v-8.965a41.542,41.542,0,0,1-7.984,6.682,21.885,21.885,0,0,1-11.589,3.341,18.13,18.13,0,0,1-10.558-3.457q-5.022-3.4-5.022-11.429V553.277q0-4.42-2.189-5.912-1.416-.939-6.052-1.327v-1.559Z"/>
      <path id="Trazado_388" data-name="Trazado 388" class="cls-3" d="M1013.073,594.482q5.988-.5,8.112-2.088t2.125-6.209v-54.4a12.449,12.449,0,0,0-.708-5.067q-1.289-2.338-5.215-2.338a12.735,12.735,0,0,0-1.964.166q-1.062.168-2.671.5v-1.838q8.691-2,20.923-5.345c.3,0,.483.111.547.334a6.565,6.565,0,0,1,.1,1.447v66.763q0,4.844,1.932,6.264t7.983,1.81v1.559h-31.161Z"/>
      <path id="Trazado_389" data-name="Trazado 389" class="cls-3" d="M1053.891,578.5h2.125a26.716,26.716,0,0,0,3.982,9.744q4.5,6.237,13.168,6.237a11.58,11.58,0,0,0,7.61-2.311,7.406,7.406,0,0,0,2.8-5.986,7.485,7.485,0,0,0-1.609-4.51,16.03,16.03,0,0,0-5.665-4.232l-7.209-3.563q-7.917-3.676-11.654-7.406a12.025,12.025,0,0,1-3.736-8.8,12.432,12.432,0,0,1,5.15-10.245q5.151-4.01,12.941-4.009a28.747,28.747,0,0,1,7.5,1.113,38.993,38.993,0,0,0,4.6,1.114,3.7,3.7,0,0,0,1.674-.279,2.469,2.469,0,0,0,.9-.891h1.545l.451,15.536h-2a23.691,23.691,0,0,0-3.476-8.408q-3.993-5.568-11.525-5.569a10,10,0,0,0-7.082,2.395,7.446,7.446,0,0,0-2.575,5.624q0,5.122,8.885,9.132l8.5,3.953q13.715,6.459,13.713,15.034a12.788,12.788,0,0,1-5.688,10.747q-5.689,4.176-14.879,4.176a39.809,39.809,0,0,1-8.741-1.114,44.936,44.936,0,0,0-5.783-1.114,2.072,2.072,0,0,0-1.351.474,3.3,3.3,0,0,0-.9,1.141h-1.674Z"/>
      <rect id="Rectángulo_25" data-name="Rectángulo 25" class="cls-3" width="58.431" height="50.692" rx="16.076" transform="translate(1100.572 545.722)"/>
      <path id="Trazado_390" data-name="Trazado 390" class="cls-4" d="M1122.2,549.622v42.146l22.724-20.336Z"/>
      <rect id="Rectángulo_26" data-name="Rectángulo 26" class="cls-5" width="3.953" height="230.105" transform="translate(1020.824 613.498)"/>
      <rect id="Rectángulo_27" data-name="Rectángulo 27" class="cls-5" width="3.953" height="162.005" transform="translate(1022.8 339.006)"/>
    </g>
  </g>
</svg>
