<svg xmlns="http://www.w3.org/2000/svg" width="90.912" height="120" viewBox="0 0 90.912 120">
  <g id="logo-sefia" transform="translate(-4.352 -6.747)">
    <path id="path3003" d="M12.076,126.713a8.183,8.183,0,0,1-1.378-.361,8.939,8.939,0,0,0-.951-.309,9.042,9.042,0,0,1-2.659-1.976,5.165,5.165,0,0,1-1.3-1.622.346.346,0,0,0-.158-.254,9.161,9.161,0,0,1-1.007-2.628c-.186-.738-.2-4.974-.166-53.109.034-49.8.047-52.337.256-52.924a7.968,7.968,0,0,1,.339-.831.978.978,0,0,0,.119-.386.514.514,0,0,1,.185-.325.518.518,0,0,0,.185-.332,1.525,1.525,0,0,1,.308-.583,1.894,1.894,0,0,0,.308-.5.832.832,0,0,1,.266-.328c.146-.127.229-.23.184-.23A12.725,12.725,0,0,1,8.168,8.587a13.756,13.756,0,0,1,2.865-1.377c1.467-.4,2-.4,39.055-.392l37.062.012,1.126.287A9.123,9.123,0,0,1,93.4,10.425a3.216,3.216,0,0,0,.359.453,14.443,14.443,0,0,1,1.15,2.347,10.24,10.24,0,0,1,.322,1.724c.086.795.116,17.8.092,52.8l-.036,51.629-.428,1.11a14.575,14.575,0,0,1-.717,1.6c-.683,1.163-1.1,1.783-1.163,1.721-.037-.037-.22.116-.408.34a3.829,3.829,0,0,1-.663.617c-.177.116-.6.406-.938.646a3.361,3.361,0,0,1-.74.438,1.736,1.736,0,0,0-.47.183,11.286,11.286,0,0,1-1.172.46l-.826.28-37.5.019c-20.627.01-37.812-.027-38.188-.083Z" transform="translate(-0.082 -0.06)" fill="#f9dcac"/>
    <path id="path3001" d="M12.086,126.663a7.792,7.792,0,0,1-1.471-.411,2.451,2.451,0,0,0-.862-.244c-.056.035-.1,0-.1-.088s-.035-.116-.078-.073a4.581,4.581,0,0,1-1.5-.962,12.088,12.088,0,0,1-2.119-2.276,1.268,1.268,0,0,0-.241-.4A8.324,8.324,0,0,1,4.7,119.641c-.23-.9-.235-2.11-.2-53.233.031-51.67.035-52.316.274-52.986A22.091,22.091,0,0,1,6.09,10.7a9.913,9.913,0,0,1,3.688-3.02,3.943,3.943,0,0,0,.664-.286,7.187,7.187,0,0,1,1.869-.5c.53-.1,11.5-.134,37.627-.133,36.258,0,36.9.006,38.051.246A10.777,10.777,0,0,1,91.666,8.6a11.571,11.571,0,0,1,1.751,1.764.767.767,0,0,0,.216.316,17.362,17.362,0,0,1,1.372,2.658,6.03,6.03,0,0,1,.232,1.172c.051.454.092,24.2.092,52.763V119.21l-.42,1.167A9.044,9.044,0,0,1,93.576,123a2.9,2.9,0,0,0-.406.717c0,.073-.051.1-.112.063s-.264.111-.45.332a3.8,3.8,0,0,1-.659.612c-.177.116-.6.406-.938.646a2.7,2.7,0,0,1-.805.437,1,1,0,0,0-.432.164,3.737,3.737,0,0,1-.8.321,7.827,7.827,0,0,0-.864.3c-.372.17-74.876.238-76.027.069Zm21.282-6.672a.529.529,0,0,0,.216-.49c0-.312-.038-.363-.216-.291-.9.369-1.6.362-2.027-.021a.7.7,0,0,1-.224-.43c0-.206.117-.228,1.234-.228h1.234v-.463c0-1.037-.829-1.637-2.014-1.459a1.731,1.731,0,0,0-1.563,1.823c0,1.238.962,1.9,2.529,1.733a3.314,3.314,0,0,0,.833-.175Zm-2.251-2.2c0-.594,1.069-.787,1.359-.246.2.378.046.49-.688.49C31.2,118.038,31.116,118.007,31.116,117.794Zm22.541,2.144c.346-.219.405-.217.405.012,0,.134.137.185.493.185h.494v-1.424c0-1.324-.02-1.444-.285-1.71a2.8,2.8,0,0,0-2.125-.376c-.671.084-.674.086-.674.515,0,.363.034.416.216.34a4.125,4.125,0,0,1,.841-.15c.478-.045.674-.01.833.148.329.329.254.4-.513.467-.917.083-1.438.352-1.6.829-.376,1.078.865,1.83,1.919,1.163Zm-.8-.568c-.406-.407-.01-.839.769-.839.405,0,.44.029.44.366a.747.747,0,0,1-1.209.473Zm28.234.555a2,2,0,0,0,.536-2.45,2.027,2.027,0,0,0-1.662-.916,2.116,2.116,0,0,0-1.649.845,2.229,2.229,0,0,0,.437,2.49,2.444,2.444,0,0,0,2.339.03Zm-1.654-.633a1.9,1.9,0,0,1,.021-1.791.77.77,0,0,1,1.05.021,1.749,1.749,0,0,1-.042,1.748A.7.7,0,0,1,79.434,119.292Zm8.823.7a.98.98,0,0,0,.6-.978c0-.579-.284-.81-1.262-1.027-.516-.115-.65-.194-.65-.388s.1-.251.517-.282a1.89,1.89,0,0,1,.894.157l.377.2v-.43c0-.4-.036-.44-.51-.568-1.192-.321-2.451.226-2.451,1.064,0,.574.327.861,1.191,1.046s1,.284.787.542c-.2.242-.87.244-1.442.005s-.536-.253-.536.241c0,.4.032.432.463.5a5.856,5.856,0,0,1,.586.121,3.991,3.991,0,0,0,1.44-.2Zm-76.893-.355.148-.493h1.8l.148.493c.144.48.163.493.7.493.3,0,.55-.047.55-.1s-.353-1.07-.785-2.251l-.785-2.148H11.717l-.787,2.153c-.433,1.184-.787,2.2-.787,2.251s.241.1.536.1C11.2,120.135,11.22,120.119,11.363,119.641Zm.508-1.333a8.119,8.119,0,0,1,.265-.884l.265-.785.21.545a9,9,0,0,1,.292.885c.08.332.07.339-.476.339-.307,0-.558-.045-.558-.1Zm7.9-.579v-2.406h-1.11v4.811h1.11Zm6.538,2.026c0-.35-.027-.374-.339-.309-.57.12-.7-.068-.751-1.094l-.047-.931h.569c.55,0,.569-.012.569-.37s-.02-.37-.555-.37h-.555v-.493c0-.493,0-.493-.493-.493s-.493,0-.493.493c0,.411-.041.493-.247.493s-.247.082-.247.37.055.37.247.37c.228,0,.247.082.247,1.1,0,1.043.017,1.115.325,1.357a1.511,1.511,0,0,0,1.049.256h.724Zm12.486-.823.035-1.2.717-.037.716-.037-.038-.456c-.047-.569-.395-.661-1.027-.27l-.43.266v-.257c0-.217-.076-.257-.493-.257h-.493v3.454h.978l.035-1.2Zm6.389-.033c0-1.189.011-1.242.3-1.373a.692.692,0,0,1,.98.294,8.337,8.337,0,0,1,.076,1.3l0,1.018h.987V117.2l-.379-.319a1.135,1.135,0,0,0-1.476-.07c-.422.215-.489.223-.489.055,0-.153-.113-.187-.524-.157l-.524.038-.035,1.535a13.114,13.114,0,0,0,.027,1.7c.037.1.264.161.559.161h.5V118.9Zm16.408.856c0-.35-.027-.374-.339-.309-.571.12-.7-.068-.751-1.094l-.047-.931h.569c.55,0,.569-.012.569-.37s-.021-.37-.555-.37h-.555v-.493c0-.493,0-.493-.493-.493s-.493,0-.493.493c0,.411-.041.493-.247.493-.183,0-.247.082-.247.32,0,.216.08.341.247.384.223.058.247.168.247,1.152,0,1.027.018,1.1.325,1.343a1.511,1.511,0,0,0,1.049.256h.724v-.38Zm5-1.347v-1.665l-.524-.038-.524-.038v3.483l.524-.038.524-.038Zm6.641,1.265c.111-.254.422-1.035.69-1.734l.489-1.271-.559.037-.559.037-.366,1.144a3.326,3.326,0,0,1-.456,1.088,6.475,6.475,0,0,1-.448-1.175l-.358-1.119h-.532c-.292,0-.532.046-.532.1a6.267,6.267,0,0,0,.291.833c.16.4.443,1.133.628,1.625l.336.894h.587c.561,0,.6-.021.789-.463Zm-6.579-3.979c0-.356-.021-.37-.555-.37s-.555.014-.555.37.021.37.555.37S66.646,116.05,66.646,115.694Zm-53.2-2.634a1.359,1.359,0,0,0,.535-1.953c-.229-.291-.593-.445-1.691-.717-.572-.142-.825-.371-.717-.652.151-.394,1.105-.442,1.872-.094.574.26.67.205.627-.359-.024-.32-.1-.4-.465-.5a5.109,5.109,0,0,0-2.264.016,1.455,1.455,0,0,0-.948,1.282c0,.759.468,1.137,1.765,1.424.8.176,1.043.434.772.8-.236.323-1.321.3-2-.049-.279-.142-.542-.224-.584-.182a1.173,1.173,0,0,0,.018.857c.272.427,2.334.509,3.08.122Zm4.628.161c.419-.116.463-.168.463-.548v-.42l-.428.179a1.938,1.938,0,0,1-1.793-.068c-.514-.514-.35-.617.987-.617h1.234v-.488c0-1-.519-1.486-1.6-1.486a1.758,1.758,0,0,0-1.95,2.038C15.126,113.047,16.474,113.663,18.07,113.22Zm-2-2.267c0-.288.363-.564.74-.564s.74.276.74.564c0,.133-.181.176-.74.176S16.066,111.086,16.066,110.953Zm16.143,2.261c.333-.116.388-.2.388-.555,0-.463-.069-.5-.424-.231a1.409,1.409,0,0,1-.709.181c-.656,0-.963-.335-.963-1.049,0-.944.745-1.334,1.649-.863.462.241.448.248.448-.228,0-.506-.342-.7-1.243-.7-1.264,0-1.963.628-1.964,1.764a2.537,2.537,0,0,0,.193.966A2.356,2.356,0,0,0,32.208,113.214Zm6.312-.091a1.9,1.9,0,0,0,.1-3.108,1.784,1.784,0,0,0-1.243-.214c-.741.037-.877.084-1.217.424a2.006,2.006,0,0,0-.471,1.8,1.736,1.736,0,0,0,1.028,1.237A3.079,3.079,0,0,0,38.52,113.123Zm-1.624-.791a2.044,2.044,0,0,1,.045-1.653.784.784,0,0,1,1.107.078,1.633,1.633,0,0,1,.031,1.578.751.751,0,0,1-1.183,0Zm6.026.695a.874.874,0,0,0,.383-.755c.047-.625-.268-.908-1.259-1.129-.543-.122-.69-.2-.69-.39,0-.428.715-.444,1.7-.037.106.044.154-.07.154-.363,0-.379-.043-.435-.386-.5-1.057-.211-2.178.028-2.442.521-.4.749.044,1.418,1.042,1.567a2.184,2.184,0,0,1,.762.245c.589.435-.767.656-1.547.252-.372-.193-.49-.155-.444.144.013.085.03.239.039.343.024.3.5.427,1.459.393A2.017,2.017,0,0,0,42.923,113.027Zm16.846.122c.269-.139.4-.158.436-.062.026.077.264.14.53.14h.483v-1.41c0-1.513-.064-1.687-.706-1.931a6.116,6.116,0,0,0-2.1-.035c-.208.056-.278.165-.278.436,0,.352.011.359.463.266a1.892,1.892,0,0,1,1.492.136c.26.26.166.317-.732.444-1.053.149-1.4.42-1.444,1.138-.032.483.008.6.294.82a1.476,1.476,0,0,0,1.563.059Zm-.488-.51a.439.439,0,0,1-.265-.715,1.617,1.617,0,0,1,.691-.249c.519-.082.524-.079.524.288C60.231,112.47,59.862,112.733,59.281,112.638Zm10.573.553a.614.614,0,0,0,.347-.553c.043-.442-.02-.471-.47-.213-.7.4-1.584.078-1.618-.586-.048-.945.216-1.328.912-1.322a1.56,1.56,0,0,1,.761.185c.356.269.439.225.439-.231,0-.506-.342-.7-1.244-.7-1.264,0-1.963.628-1.964,1.764a1.512,1.512,0,0,0,.9,1.574,2.64,2.64,0,0,0,1.935.081Zm6.52.023c.332-.115.389-.2.389-.549v-.413l-.428.179a1.638,1.638,0,0,1-1.737-.124,1.087,1.087,0,0,1-.3-.432c0-.082.476-.129,1.3-.129h1.3v-.4a1.8,1.8,0,0,0-.74-1.415,2.87,2.87,0,0,0-.987-.155,1.659,1.659,0,0,0-1.886,1.694,1.608,1.608,0,0,0,.938,1.642,3.428,3.428,0,0,0,2.163.1Zm-2.079-2.181a1.129,1.129,0,0,1,.192-.37c.345-.493,1.288-.315,1.288.244,0,.189-.11.222-.74.222C74.628,111.129,74.295,111.086,74.295,111.033Zm9.61,2.076a1.6,1.6,0,0,0,.806-1.621,1.707,1.707,0,0,0-.938-1.582,2.9,2.9,0,0,0-2.03.1,2.057,2.057,0,0,0-.418,2.7,2.192,2.192,0,0,0,2.581.4Zm-1.607-.7a1.726,1.726,0,0,1-.169-.859c0-.748.22-1.065.74-1.065s.74.317.74,1.065c0,.784-.194,1.063-.74,1.063A.837.837,0,0,1,82.3,112.406Zm5.609.828c.821-.312,1.1-1.254.5-1.72a2.174,2.174,0,0,0-.858-.331,2.078,2.078,0,0,1-.762-.253c-.212-.165-.211-.18.018-.357.295-.228.6-.227,1.241,0,.271.1.507.179.524.18a1.141,1.141,0,0,0,.031-.371c0-.462-.331-.614-1.334-.613a1.635,1.635,0,0,0-1.633.818c-.253.665.227,1.179,1.309,1.4.514.107.671.191.671.363a.341.341,0,0,1-.268.294,2.886,2.886,0,0,1-1.527-.3c-.152-.246-.3-.092-.3.308,0,.348.059.443.339.545a4.584,4.584,0,0,0,2.046.028ZM20.63,112.113c0-1.1,0-1.115.339-1.244a1.718,1.718,0,0,1,.747-.065l.408.065-.038-.518c-.036-.495-.054-.516-.4-.474a1.6,1.6,0,0,0-.613.216c-.311.218-.438.219-.438,0,0-.181-.41-.3-.771-.226-.193.04-.216.223-.216,1.7v1.656h.987v-1.113Zm5.074-.491c.326-.848.594-1.577.6-1.62.008-.131-.659-.214-.859-.107a3.525,3.525,0,0,0-.534,1.163c-.19.584-.395,1.032-.454.995A5.123,5.123,0,0,1,24,110.941l-.34-1.045h-.53a1.23,1.23,0,0,0-.53.06c0,.053.717,1.974,1.1,2.938.128.324.175.343.774.308l.638-.037Zm2.575-.048v-1.652l-.435-.051a1.179,1.179,0,0,0-.493.007,13.431,13.431,0,0,0-.058,1.7v1.645h.987Zm6.292,0c0-1.767-.009-1.791-.637-1.7l-.35.051v3.3h.987Zm13.324.668v-.987h1.974v-.73l-.956-.036-.956-.036-.038-.463-.038-.463h2.112v-.864H46.784v4.565h1.11Zm4.194-.665v-1.653l-.5-.048a1,1,0,0,0-.56.045,23.265,23.265,0,0,0,.034,3.216,1.039,1.039,0,0,0,.543.093h.486v-1.653Zm2.344.432c0-1.329.023-1.37.753-1.37.477,0,.6.339.6,1.612v.979h.987V111.8c0-1.348-.016-1.441-.3-1.727a1.353,1.353,0,0,0-1.57-.106c-.276.142-.4.158-.467.056a.973.973,0,0,0-.96-.092c-.109.083-.154.579-.154,1.705v1.589h1.11Zm9.129,0c0-1.327.024-1.37.746-1.37.5,0,.611.291.611,1.534v1.057h.987V111.8c0-1.348-.016-1.441-.3-1.727a1.353,1.353,0,0,0-1.573-.1c-.34.176-.394.177-.487.011a.322.322,0,0,0-.32-.146,3.628,3.628,0,0,1-.432.051c-.195.008-.216.175-.216,1.675v1.665h.987v-1.22Zm8.636-.452v-1.673l-.524.038-.524.038-.013,1.414c-.017,1.836-.011,1.856.582,1.856H72.2v-1.672Zm6.785.516v-1.157l.386-.077a4.29,4.29,0,0,1,.686-.077c.272,0,.3-.044.262-.463s-.071-.458-.347-.422a1.7,1.7,0,0,0-.582.216c-.345.221-.405.219-.405-.01,0-.137-.144-.185-.555-.185h-.555v3.331h1.11Zm-50.642-3.161c0-.26-.065-.315-.413-.348-.6-.057-.739.03-.667.406.057.3.107.321.571.287S28.341,109.182,28.341,108.909Zm6.23,0c0-.356-.02-.37-.555-.37s-.555.014-.555.37.021.37.555.37S34.571,109.265,34.571,108.909Zm17.518,0c0-.356-.021-.37-.555-.37s-.555.014-.555.37.021.37.555.37S52.089,109.265,52.089,108.909Zm20.109,0c0-.356-.021-.37-.555-.37s-.555.014-.555.37.021.37.555.37S72.2,109.265,72.2,108.909ZM33.76,76.309c-.885-.9-4.579-4.632-8.209-8.3L14.8,57.156l-4.154-4.194,0,9.092c0,6.274.04,9.293.136,9.739a7.789,7.789,0,0,0,6.77,6.072c.17.025,4.249.053,9.066.062l8.757.017ZM58.878,66.84a21.634,21.634,0,0,0,10.759-6.2,22.255,22.255,0,0,0,4.383-5.921,29.5,29.5,0,0,0,1.822-6.692,24.179,24.179,0,0,0,.009-6.351c-1.251-6.993-6.527-12.091-16.3-15.751a26.822,26.822,0,0,0-9.869-1.815,25.358,25.358,0,0,0-11.1,2.42,34.559,34.559,0,0,0-10.613,7.64,36.572,36.572,0,0,0-4.684,5.714c-1.63,2.44-2.775,4.926-2.428,5.272.131.131.7.031,3.292-.576,4.466-1.046,9.692-.536,16.3,1.592a16.6,16.6,0,0,0,2.011.561c.38,0,.814-.246,2.735-1.55,3.407-2.314,5.607-3.05,8.236-2.755,4,.448,7.6,3.3,8.467,6.706a9.559,9.559,0,0,1,0,3.7c-.466,1.789-1.647,3.014-2.71,2.81-.518-.1-.593-.548-.432-2.58.235-2.955-.1-4.517-1.251-5.773-1.936-2.118-5.991-2.529-9.112-.923a9.422,9.422,0,0,0-4.468,4.663c-.255.632-.281.885-.272,2.732.034,7.306,2.946,11.316,9.4,12.943a9.708,9.708,0,0,0,3.157.363,11.835,11.835,0,0,0,2.676-.229Z" transform="translate(-0.117 -0.014)" fill="#d69869"/>
    <path id="path2999" d="M12.124,126.655a8.81,8.81,0,0,1-2.251-.662c-.254-.111-.463-.163-.463-.116s-.125-.029-.278-.168a3.093,3.093,0,0,0-.541-.389,11.587,11.587,0,0,1-2.759-2.729,1.278,1.278,0,0,0-.241-.4,8.1,8.1,0,0,1-1.006-2.6c-.227-.937-.233-2.393-.233-52.874,0-50.684.006-51.932.236-52.831a11.241,11.241,0,0,1,1.481-3.238c.091-.109.128-.2.083-.2a3.576,3.576,0,0,1,.633-.719,11.006,11.006,0,0,1,2.713-2,2.426,2.426,0,0,0,.667-.253,8.741,8.741,0,0,1,1.621-.493c1.1-.235,1.916-.24,37.976-.24,36.366,0,36.867,0,38.067.247,1.151.234,3.5,1.211,3.5,1.457,0,.051.18.2.4.33A7.757,7.757,0,0,1,93.5,10.65a17.468,17.468,0,0,1,1.379,2.73c.389,1.195.4,3.5.366,54.619l-.038,51.2-.416,1.172a7.843,7.843,0,0,1-.586,1.367.709.709,0,0,0-.17.279,5.585,5.585,0,0,1-.5.818,6.8,6.8,0,0,1-1.86,1.921c-.126.04-.229.115-.229.167a4.482,4.482,0,0,1-1.328.876,3.707,3.707,0,0,0-.7.255c-1.608.711,1.576.656-39.24.679-20.559.011-37.685-.022-38.059-.075Zm13.869-6.486c.121-.046.2-.223.2-.463,0-.366-.026-.388-.463-.388h-.463l-.036-.956-.036-.956h.5c.489,0,.5-.009.5-.436,0-.378-.038-.433-.278-.413-.611.053-.693,0-.733-.477-.038-.46-.041-.463-.594-.463s-.555,0-.593.463c-.021.255-.092.463-.158.463-.153,0-.345.507-.268.709a.263.263,0,0,0,.23.154c.132,0,.172.222.174.956,0,1.057.157,1.49.617,1.723a2.345,2.345,0,0,0,1.406.084Zm7.085-.061c.346-.121.388-.188.388-.617,0-.53-.041-.555-.493-.3a1.782,1.782,0,0,1-1.7-.066.874.874,0,0,1-.27-.37,3.433,3.433,0,0,1,1.3-.119h1.3V118.2c0-1.07-.638-1.653-1.808-1.653a1.706,1.706,0,0,0-1.922,1.85c0,1.242.684,1.814,2.2,1.84A3.646,3.646,0,0,0,33.078,120.109ZM31,117.786c0-.409.893-.671,1.209-.354s.161.469-.53.469c-.373,0-.679-.052-.679-.115Zm22.459,2.27c.209-.108.364-.134.364-.062s.278.126.617.126h.617v-1.215c0-1.425-.125-1.867-.609-2.153a4.676,4.676,0,0,0-2.337-.132c-.343.069-.386.124-.386.507v.43l.463-.1a2.472,2.472,0,0,1,1.547.06c.191.191.08.254-.667.376-.88.143-1.287.341-1.453.706a1.026,1.026,0,0,0,.224,1.285A1.333,1.333,0,0,0,53.458,120.056Zm-.746-.97c0-.364.042-.4.658-.512l.471-.088-.04.416c-.038.394-.068.418-.564.454s-.524.016-.524-.27Zm8.564,1.083c.121-.046.2-.223.2-.463,0-.366-.026-.388-.463-.388h-.463l-.036-.956-.036-.956h.5c.488,0,.5-.009.5-.432s-.013-.432-.486-.432-.487-.013-.524-.463-.041-.463-.593-.463-.556,0-.593.45c-.026.309-.107.468-.259.508-.17.044-.208.147-.164.444.032.22.131.387.228.387.131,0,.171.224.173.956,0,1.057.158,1.49.617,1.723a2.345,2.345,0,0,0,1.406.084Zm19.485-.1a1.928,1.928,0,0,0,.446-3.1c-.325-.311-.49-.367-1.2-.406a1.606,1.606,0,0,0-1.26.246,1.864,1.864,0,0,0,1.009,3.432A3.178,3.178,0,0,0,80.761,120.074Zm-1.457-.968c-.352-.5-.152-1.681.291-1.714.631-.047,1,.316,1,.988,0,.608-.29,1-.74,1a.652.652,0,0,1-.548-.274Zm8.74.966A1.221,1.221,0,0,0,88.858,119c0-.535-.355-.831-1.265-1.052-.487-.119-.833-.268-.833-.36,0-.261.662-.326,1.246-.123.728.253.728.254.728-.232,0-.526-.083-.578-1.044-.655a2.114,2.114,0,0,0-1.915.55c-.567.721-.052,1.51,1.147,1.758.458.1.7.207.7.322a.214.214,0,0,1-.216.189,3.042,3.042,0,0,1-1.411-.21c-.463-.239-.47-.234-.47.317,0,.447.035.5.4.606a4.089,4.089,0,0,0,2.116-.034Zm-76.738-.419.116-.406.871.036c.866.036.872.038.985.437s.136.4.775.4a3.559,3.559,0,0,0,.66-.031c0-.017-.379-1.058-.842-2.313l-.841-2.282H11.591l-.781,2.1c-.43,1.153-.814,2.2-.854,2.32-.065.2,0,.219.581.185C11.159,120.061,11.2,120.04,11.307,119.653Zm.723-2.152.26-.769.216.615c.312.886.3.923-.25.923H11.77Zm7.62.214V115.31h-1.11v4.811h1.11Zm19.122,1.239v-1.166l.421-.079a1.73,1.73,0,0,1,.679,0c.238.075.257.034.257-.553v-.635l-.4.084a2.466,2.466,0,0,0-.679.259c-.153.1-.284.147-.293.111s-.022-.134-.031-.219-.217-.154-.571-.154H37.6l-.034,1.758-.034,1.758h1.24v-1.166Zm6.376.14c-.059-1.376.027-1.59.624-1.541l.464.038.035,1.265.035,1.265h1.246l-.041-1.491c-.04-1.459-.049-1.5-.387-1.789a1.48,1.48,0,0,0-1.6-.116c-.275.144-.357.148-.406.021-.037-.1-.264-.155-.58-.15l-.52.009-.034,1.758-.034,1.758h1.245Zm21.354-.731-.034-1.758H65.389l-.016,1.758-.016,1.758h1.179Zm7.165.091c.349-.917.634-1.718.634-1.78s-.259-.1-.576-.091l-.576.022-.391,1.172-.391,1.172-.345-1.049a8.956,8.956,0,0,0-.445-1.176c-.128-.163-1.162-.16-1.162,0,0,.068.278.858.617,1.757l.617,1.633h1.384l.634-1.667Zm-7.161-2.742c-.038-.461-.039-.461-.593-.452s-.556.015-.594.461l-.038.452h1.264ZM13.3,113.125a1.385,1.385,0,0,0,.7-1.876c-.231-.428-.638-.633-1.967-.99-.384-.1-.524-.2-.524-.375,0-.324.164-.4.88-.391a2.149,2.149,0,0,1,1.048.258,3.173,3.173,0,0,0,.485.254,1.745,1.745,0,0,0,.055-.607v-.607l-.623-.134a2.965,2.965,0,0,0-2.789.5,1.081,1.081,0,0,0-.351.9c0,.862.359,1.138,2.011,1.548.61.152.793.44.445.7a2.484,2.484,0,0,1-1.977-.205,3.2,3.2,0,0,0-.487-.255,1.711,1.711,0,0,0-.055.6v.6l.524.137a7.565,7.565,0,0,0,.833.17A4.755,4.755,0,0,0,13.3,113.125Zm4.384.21a3.74,3.74,0,0,0,.708-.177c.112-.112.087-.933-.028-.933a3.572,3.572,0,0,0-.644.2,1.371,1.371,0,0,1-1.579-.232,1.1,1.1,0,0,1-.189-.365,4.6,4.6,0,0,1,1.311-.1h1.312l-.064-.569a2.214,2.214,0,0,0-.3-.894,2.059,2.059,0,0,0-2.843-.087,1.262,1.262,0,0,0-.495,1.143c-.083,1.153.27,1.683,1.306,1.963a2.255,2.255,0,0,0,1.509.048ZM16.014,111c-.1-.164.378-.622.652-.622.329,0,.691.307.61.517s-1.143.3-1.262.105Zm15.843,2.329.623-.134v-.545c0-.612-.013-.623-.433-.348a1.163,1.163,0,0,1-1.433-.063,1.11,1.11,0,0,1,.072-1.436c.368-.368.666-.38,1.306-.053l.488.249v-.543c0-.543,0-.543-.569-.686-1.61-.405-2.984.68-2.71,2.14.158.84.825,1.367,1.947,1.538a5.134,5.134,0,0,0,.709-.12Zm6.2.007a2.048,2.048,0,0,0,.833-.559,1.334,1.334,0,0,0,.38-1.181,1.6,1.6,0,0,0-.964-1.729,2.317,2.317,0,0,0-2.119.117,2.1,2.1,0,0,0-.576,2.4,1.426,1.426,0,0,0,1.036.9,1.886,1.886,0,0,0,1.41.049Zm-1.131-.983c-.507-.507-.21-1.853.408-1.849.379,0,.542.131.7.554C38.417,112.068,37.6,113.024,36.921,112.349Zm5.818.771a1.165,1.165,0,0,0,.548-1.2c-.1-.4-.527-.673-1.336-.852-.426-.094-.65-.207-.65-.326,0-.261.8-.3,1.36-.066a4.7,4.7,0,0,0,.506.192,1.29,1.29,0,0,0,.047-.481c0-.476-.006-.483-.625-.631-1.478-.355-2.774.365-2.515,1.4.111.444.314.583,1.2.826.474.13.767.276.767.382,0,.252-.812.285-1.36.056-.646-.27-.7-.25-.652.271.036.434.073.472.593.613A3.265,3.265,0,0,0,42.738,113.12Zm16.7.152c.3-.106.51-.128.534-.056s.319.12.658.12h.617l-.041-1.491c-.04-1.449-.051-1.5-.378-1.781a2.833,2.833,0,0,0-2.161-.35c-.708.106-.709.107-.709.538,0,.467-.054.451.949.29.563-.091,1.087.03,1.087.251,0,.109-.225.189-.665.234-1.277.132-1.826.658-1.608,1.542a.885.885,0,0,0,.545.675c.511.255.536.256,1.172.029Zm-.473-.759a.454.454,0,0,1,.156-.654,1.4,1.4,0,0,1,.555-.128c.267,0,.317.056.317.357a.452.452,0,0,1-.2.432A1.153,1.153,0,0,1,58.963,112.513Zm10.521.812.623-.134v-.555c0-.305-.042-.534-.093-.508a2.221,2.221,0,0,1-1.33.393,1.044,1.044,0,0,1-.372-1.721c.367-.367.608-.378,1.239-.056a5.654,5.654,0,0,0,.52.247,2.12,2.12,0,0,0,.036-.543v-.543l-.617-.148c-1.6-.383-2.935.7-2.662,2.15.158.84.825,1.367,1.947,1.538a5.141,5.141,0,0,0,.709-.12Zm7-.121c.227-.087.289-.2.289-.545,0-.5,0-.5-.739-.238a1.477,1.477,0,0,1-1.5-.155c-.481-.435-.294-.535,1.01-.535h1.234v-.488a1.451,1.451,0,0,0-1.481-1.582,2.291,2.291,0,0,0-1.92.769,2.087,2.087,0,0,0,.4,2.6,3.556,3.556,0,0,0,2.716.177ZM74.3,110.94c0-.1.145-.284.323-.4.29-.19.356-.193.648-.029.543.3.414.538-.323.58C74.434,111.121,74.3,111.09,74.3,110.94Zm9.441,2.26a1.975,1.975,0,0,0,.237-3.177,2.232,2.232,0,0,0-2.706.228,1.415,1.415,0,0,0-.408,1.093,1.743,1.743,0,0,0,1.164,2,2.788,2.788,0,0,0,1.713-.139Zm-1.464-.829A1.676,1.676,0,0,1,82.3,110.7a.625.625,0,0,1,.927.021,1.676,1.676,0,0,1-.021,1.668A.625.625,0,0,1,82.277,112.37Zm5.745.766a1.066,1.066,0,0,0,.653-1.144c-.107-.488-.3-.628-1.21-.877-.474-.13-.767-.276-.767-.382,0-.249.809-.286,1.345-.062l.444.185v-.481c0-.451-.029-.49-.463-.61a2.562,2.562,0,0,0-1.841.109c-.6.27-.812.6-.758,1.151.045.465.6.892,1.308,1.012.575.1.823.244.712.422-.134.216-1.021.16-1.557-.1l-.488-.236v.538c0,.526.01.54.463.616a5.143,5.143,0,0,1,.586.124,3.568,3.568,0,0,0,1.57-.266Zm-67.36-1,.035-1.2.648-.037.648-.037v-.549c0-.487-.031-.548-.278-.548a1.7,1.7,0,0,0-.631.185c-.436.227-.449.227-.449,0,0-.14-.151-.185-.617-.185H19.4v3.578h1.225l.035-1.2Zm5-.523c.358-.915.651-1.706.651-1.758s-.267-.094-.594-.094h-.594l-.355,1.111c-.2.611-.393,1.069-.44,1.018a8.267,8.267,0,0,1-.418-1.111l-.334-1.018H22.97a1.861,1.861,0,0,0-.607.051c0,.072,1.245,3.321,1.319,3.44a1.434,1.434,0,0,0,.694.062l.633-.037Zm2.625-.063v-1.789H27.052v3.578h1.234Zm6.264.031-.034-1.758-.586-.038-.586-.038v3.591h1.24Zm13.325.745.036-.951.951-.036.951-.036.038-.463.038-.463h-2l.039-.4.039-.4.987,0,.987,0,.038-.458.038-.458H46.543v2.262a16.961,16.961,0,0,0,.088,2.35,1.467,1.467,0,0,0,.648.051l.56-.037Zm4.13.687c.051-.266.036-2.829-.018-3.159-.009-.051-.265-.093-.571-.093h-.555v3.578H51.4C51.889,113.336,51.949,113.3,52.005,113.01Zm2.372-.943c0-1.276.07-1.439.623-1.443.462,0,.549.235.549,1.5v1.209h1.234v-1.3c0-1.6-.162-2.067-.778-2.27a1.63,1.63,0,0,0-1.418.215c-.235.152-.277.154-.247.011.027-.125-.125-.183-.549-.21l-.586-.038v3.6l.586-.038.586-.038v-1.207Zm9.164-.056c.035-1.248.039-1.264.358-1.344.6-.15.711.051.779,1.387l.062,1.221.586.038.586.038v-1.356c0-1.576-.094-1.9-.627-2.179a1.552,1.552,0,0,0-1.445.1.192.192,0,0,1-.3-.011,1.272,1.272,0,0,0-.673-.143h-.53v3.591l.586-.038.586-.038.035-1.263Zm8.6-.464V109.82l-.586-.038-.586-.038v3.6l.586-.038.586-.038v-1.727Zm6.75.586.035-1.2.709-.037.709-.037v-.549c0-.517-.02-.549-.339-.548a1.75,1.75,0,0,0-.74.245c-.4.244-.4.244-.4,0,0-.208-.084-.245-.555-.245h-.555v3.578h1.1l.035-1.2ZM72.2,108.819V108.4H70.97v.424c0,.388.034.427.4.463C72.063,109.357,72.2,109.278,72.2,108.819Zm-43.919.014V108.4H27.052v.864h1.234Zm6.292,0V108.4H33.343v.864h1.234Zm17.518,0V108.4H50.861v.864h1.234ZM31.363,73.889C19.856,62.307,14.418,56.817,12.6,54.953c-1.1-1.137-2.056-2.066-2.114-2.066s-.087,4.205-.066,9.345c.036,8.681.055,9.393.266,10.024a7.4,7.4,0,0,0,2.049,3.337A6.849,6.849,0,0,0,16.22,77.68c.846.222,1.449.236,10.029.243l9.128.007-4.014-4.04Zm27.366-7.013c4.581-.816,9.742-4.352,13.344-9.143,1.837-2.443,2.609-4.33,3.451-8.431a19.508,19.508,0,0,0-.438-10.262c-1.6-4.452-5.211-8.175-10.654-10.984a37.714,37.714,0,0,0-10.548-3.687,32.628,32.628,0,0,0-8.3-.068C37.774,25.634,30.361,30.372,24.7,37.65c-2.256,2.9-4.3,6.661-4.021,7.393.1.271.431.246,2.121-.165a22.242,22.242,0,0,1,4.5-.754,36.674,36.674,0,0,1,13.131,2.1,10.035,10.035,0,0,0,1.938.5c.387,0,.813-.235,2.573-1.42a14.852,14.852,0,0,1,4.471-2.422,9.3,9.3,0,0,1,6.629.3,9.19,9.19,0,0,1,5.629,5.64,9.192,9.192,0,0,1-.056,4.46q-.852,2.143-2.164,2.293c-.887.1-.915-.013-.765-3.052a7.718,7.718,0,0,0-.608-4.316c-.966-1.907-3.211-2.934-6.151-2.814a6.982,6.982,0,0,0-2.453.431A9.214,9.214,0,0,0,43.73,51.2a5.208,5.208,0,0,0-.307,2.242,23.274,23.274,0,0,0,.72,5.442c1.368,4.764,5,7.462,11.1,8.238a17.1,17.1,0,0,0,3.488-.245Z" transform="translate(0 0)" fill="#ad4f25"/>
    <path id="path2997" d="M12.124,126.655a8.81,8.81,0,0,1-2.251-.662c-.254-.111-.463-.163-.463-.116s-.125-.029-.278-.168a3.093,3.093,0,0,0-.541-.389,11.587,11.587,0,0,1-2.759-2.729,1.278,1.278,0,0,0-.241-.4,8.1,8.1,0,0,1-1.006-2.6c-.227-.937-.233-2.393-.233-52.874,0-50.684.006-51.932.236-52.831a11.241,11.241,0,0,1,1.481-3.238c.091-.109.128-.2.083-.2a3.576,3.576,0,0,1,.633-.719,11.006,11.006,0,0,1,2.713-2,2.426,2.426,0,0,0,.667-.253,8.741,8.741,0,0,1,1.621-.493c1.1-.235,1.916-.24,37.976-.24,36.366,0,36.867,0,38.067.247,1.151.234,3.5,1.211,3.5,1.457,0,.051.18.2.4.33A7.757,7.757,0,0,1,93.5,10.65a17.468,17.468,0,0,1,1.379,2.73c.389,1.195.4,3.5.366,54.619l-.038,51.2-.416,1.172a7.843,7.843,0,0,1-.586,1.367.709.709,0,0,0-.17.279,5.585,5.585,0,0,1-.5.818,6.8,6.8,0,0,1-1.86,1.921c-.126.04-.229.115-.229.167a4.482,4.482,0,0,1-1.328.876,3.707,3.707,0,0,0-.7.255c-1.608.711,1.576.656-39.24.679-20.559.011-37.685-.022-38.059-.075Zm75.951-.4a8.99,8.99,0,0,0,6.589-6.588c.236-.922.24-1.837.24-52.91,0-56.737.052-52.6-.687-54.277a9.1,9.1,0,0,0-6.162-5.194c-.806-.2-3.238-.217-37.5-.256-24.208-.028-37.038,0-37.812.083a8.5,8.5,0,0,0-5.3,2.434A8.381,8.381,0,0,0,4.728,14.7c-.109.651-.135,13.575-.106,52.616l.038,51.752L4.95,120a9.079,9.079,0,0,0,4.768,5.557,7.67,7.67,0,0,0,3.085.859c.543.05,17.531.081,37.75.068,34-.022,36.82-.039,37.522-.231Zm-75.365-.034a3.616,3.616,0,0,0-.853-.172,6.76,6.76,0,0,1-1.737-.545,7.88,7.88,0,0,0-1.079-.445.119.119,0,0,1-.123-.113c0-.062-.208-.242-.463-.4a6.019,6.019,0,0,1-2.128-2.323.545.545,0,0,0-.158-.272,5.093,5.093,0,0,1-1.179-3.124c-.041-.475-.076-24.152-.078-52.616,0-39.489.031-51.869.142-52.246.08-.271.271-.839.424-1.261.221-.609.312-.739.442-.631s.155.076.12-.15a1.455,1.455,0,0,1,.307-.805A6.81,6.81,0,0,1,7.891,9.461a1.769,1.769,0,0,0,.543-.41A5.827,5.827,0,0,1,10.86,7.7l1.079-.379L49.381,7.3c34.147-.028,37.518-.013,38.306.17a3.089,3.089,0,0,1,.954.327c.05.07.092.089.093.042.007-.321,3.21,1.435,3.21,1.76a3.361,3.361,0,0,0,.617.693,2.6,2.6,0,0,1,.617.745.144.144,0,0,0,.125.156,4.094,4.094,0,0,1,.8,1.789,1.882,1.882,0,0,0,.231.666,3.392,3.392,0,0,1,.288.987c.2,1.139.228,102.965.027,104.065a11.257,11.257,0,0,1-1.469,3.833.9.9,0,0,0-.247.376,1.737,1.737,0,0,1-.609.606c-.274.173-.5.389-.5.481a4.233,4.233,0,0,1-1.464,1.065.485.485,0,0,0-.261.182,1.166,1.166,0,0,1-.572.261,1.019,1.019,0,0,0-.488.188c-.117.19-.421.123-.344-.076.049-.127-.008-.185-.182-.185-.295,0-.464.2-.237.281.277.1.011.226-.85.406-.723.151-6.186.177-37.742.177-20.293,0-36.93-.033-36.969-.072Zm79.009-2.6a.248.248,0,0,0-.236.01c-.041.041.032.07.162.065s.173-.035.075-.075ZM92.93,122.4c0-.03-.056-.054-.123-.054a.128.128,0,0,0-.123.131c0,.072.056.1.123.054S92.93,122.426,92.93,122.4Zm-85.522-.571c-.076-.229-.342-.267-.342-.049a.2.2,0,0,0,.2.2C7.369,121.972,7.435,121.906,7.408,121.825Zm85.522-.717a.128.128,0,0,0-.131-.123c-.072,0-.1.056-.054.123s.1.123.131.123S92.93,121.176,92.93,121.108Zm-45.43-.775c-.017-.053.049-.146.146-.206.137-.084.171-.384.153-1.322-.027-1.423-.111-1.927-.3-1.81-.083.051-.107.012-.064-.1.144-.375-.395-.528-1.87-.532-1.195,0-1.455.032-1.7.227-.2.155-.265.3-.206.432a9.307,9.307,0,0,1,.119,1.558c.042,1.827.047,1.843.589,1.889a.808.808,0,0,0,.766-.278c.292-.292.31-.372.233-1.049-.111-.983,0-1.391.353-1.341.254.036.278.119.335,1.162a3.6,3.6,0,0,0,.226,1.32,1.177,1.177,0,0,0,.679.234C47.464,120.553,47.559,120.52,47.5,120.333Zm-36.215-.211a4.375,4.375,0,0,0,.32-.443,1.215,1.215,0,0,1,.7-.2c.56-.036.621-.015.656.237.022.153.094.278.161.278s.09.051.051.114c-.073.118.072.178.774.32a.646.646,0,0,0,.648-.133c.3-.273.3-.447-.023-1.354a5.046,5.046,0,0,1-.275-1.189c-.008-.249-.043-.451-.078-.448-.258.021-.373-.055-.373-.247a.931.931,0,0,0-.181-.463,1.239,1.239,0,0,1-.185-.625c0-.484-.164-.609-.9-.7-1.108-.144-1.259.033-2.032,2.386-.1.305-.316.867-.479,1.249-.282.658-.383,1.337-.224,1.5a1.655,1.655,0,0,0,.636.041.955.955,0,0,0,.8-.319Zm.791-2.075c-.039-.063.037-.237.167-.388l.238-.274-.026.341c-.027.344-.248.532-.379.321Zm7.64,2.32c.274-.1.3-.157.178-.308s-.118-.183.017-.185.13-.027-.016-.121-.14-.12-.025-.121c.238,0,.085-4.173-.164-4.447a1.3,1.3,0,0,0-1.261.034,16.432,16.432,0,0,0,.034,4.911c.205.4.612.476,1.236.239Zm13.611-.113a.488.488,0,0,0,.262-.358.6.6,0,0,1,.153-.371c.122-.122.12-.174-.01-.254s-.135-.21-.055-.519a2.2,2.2,0,0,0,.088-.572c-.012-.085-.028-.314-.037-.509a1.555,1.555,0,0,0-.453-.833c-.437-.477-.439-.478-1.406-.478-.749,0-1.022.049-1.207.216-.131.119-.272.183-.312.143-.083-.083-.44.545-.664,1.168a1.04,1.04,0,0,0-.038.71,3.377,3.377,0,0,1,.145.774c.019.265.072.458.118.43s.122.01.169.086a2.018,2.018,0,0,0,.595.378,2.55,2.55,0,0,0,1.45.185A4.452,4.452,0,0,0,33.328,120.253Zm-1.712-1.181c-.112-.135-.028-.183.434-.253.588-.088,1.057.1.6.236-.555.168-.9.173-1.031.016Zm-.037-1.374c-.1-.1.013-.291.169-.291.064,0,.116.083.116.185C31.863,117.783,31.717,117.837,31.578,117.7Zm7.157,2.512a2.823,2.823,0,0,0,.2-1.088,4.844,4.844,0,0,1,.13-1.071c.047-.076.258-.107.482-.071a.758.758,0,0,0,.908-.929c-.04-.244-.129-.463-.2-.487a.1.1,0,0,1-.066-.141c.034-.054-.146-.073-.4-.042a4.978,4.978,0,0,1-1.578-.028c-.755-.116-.848.069-.833,1.653.019,2.024.025,2.085.244,2.3a.941.941,0,0,0,1.115-.1Zm15.424.149c.978.037,1.02-.036,1.02-1.772v-1.525l-.408-.358c-.4-.347-.446-.358-1.7-.352l-1.289.006-.207.414c-.234.468-.187.714.157.823.3.1.3.39,0,.486-.488.155-.639,1.251-.243,1.769.088.115.172.228.186.252a2.514,2.514,0,0,0,1.463.314,6.489,6.489,0,0,1,1.016-.056Zm-1.179-1.306c.045-.232.431-.332.549-.141.085.138-.166.34-.425.343C53.014,119.257,52.959,119.166,52.98,119.053Zm-.392-1.4c.243-.157.617-.157.617,0,0,.068-.18.122-.4.121C52.5,117.774,52.448,117.744,52.588,117.654Zm9.076,2.5a.575.575,0,0,0-.51-.971c-.35.064-.371.037-.477-.608-.095-.573.1-.925.518-.957.151-.011.275-.064.275-.118s.083-.1.185-.1c.235,0,.237-.476,0-.785a1.1,1.1,0,0,0-.57-.311c-.293-.06-.408-.158-.441-.377-.07-.461-.264-.609-.786-.6s-.659.113-.782.625c-.045.187-.136.339-.2.339s-.121.079-.121.175a.24.24,0,0,1-.138.221c-.076.025-.154.2-.174.38-.029.268.014.335.22.335.141,0,.222.034.18.076s.011.164.118.271c.149.149.179.359.13.9a1.451,1.451,0,0,0,.115.963c.1.141.14.256.092.256s.01.108.13.24a2.294,2.294,0,0,0,2.236.044Zm5.058.042a11.4,11.4,0,0,0-.119-3.749c-.034-.153-.009-.278.055-.278s.116-.19.116-.422c0-.369-.051-.438-.4-.545a1.344,1.344,0,0,0-1.032.013,7.32,7.32,0,0,0-.154,2.076,20.165,20.165,0,0,1-.082,2.091c-.085.138.166.772.366.925s1.18.076,1.25-.111Zm6.231.04a1.2,1.2,0,0,0,.73-1.12,6.459,6.459,0,0,1,.68-1.753c.331-.631.2-.826-.652-.988a.608.608,0,0,0-.648.168.81.81,0,0,0-.244.429c0,.1-.059.185-.131.185s-.1.056-.054.123.011.123-.069.123-.118.1-.084.233a.583.583,0,0,1-.038.393c-.069.112-.152.033-.276-.264-.1-.249-.133-.48-.071-.56.112-.143-.359-.859-.483-.734-.037.037-.142.005-.233-.07s-.165-.1-.165-.056-.115.02-.255-.056c-.211-.113-.3-.089-.493.138-.255.294-.317.79-.115.915a.515.515,0,0,1,.123.377c0,.166.051.3.114.3s.151.18.2.4a2.427,2.427,0,0,0,.237.648,2.427,2.427,0,0,1,.236.583,1.114,1.114,0,0,0,.91.836,2.289,2.289,0,0,0,.784-.252Zm7.874.088c.3-.077.881-.547.843-.685a.86.86,0,0,1,.131-.35,2.664,2.664,0,0,0-.494-2.639,6.254,6.254,0,0,0-.849-.31,1.612,1.612,0,0,0-1.213,0,1.454,1.454,0,0,1-.7.1c-.051-.046-.046,0,.009.092.076.132.049.155-.11.094-.116-.045-.181-.032-.144.028s-.011.139-.106.175a1.67,1.67,0,0,0-.379.774,2.432,2.432,0,0,0,.114,1.837c.024.068.084.248.132.4s.144.242.212.2a.149.149,0,0,1,.2.045c.224.344,1.452.469,2.349.24Zm-1.288-1.2a2.889,2.889,0,0,1-.14-.731c-.049-.5-.02-.62.166-.711a.546.546,0,0,1,.636.014,1.9,1.9,0,0,1-.041,1.463.5.5,0,0,1-.621-.036Zm8.788,1.058a1.041,1.041,0,0,0,.481-.47.911.911,0,0,1,.259-.4c.251-.183-.226-1.237-.6-1.336-.314-.082-.255-.188.148-.266.385-.074.4-.1.3-.609-.122-.649-.567-.848-1.7-.763-1.295.1-1.275.089-1.552.608a1.631,1.631,0,0,0-.08,1.559c.151.273.14.323-.128.533-.348.274-.357.354-.1.9.179.377.253.418.833.465a4.353,4.353,0,0,0,2.141-.222Zm-1.906-1.009c-.085-.034-.128-.106-.1-.159.074-.119.661-.016.753.132C87.149,119.263,86.685,119.282,86.421,119.176Zm1.08-1.518c0-.066.083-.088.185-.048s.185.093.185.119-.083.048-.185.048S87.5,117.724,87.5,117.658Zm-61.247,2.511c.305-.2.423-.664.168-.664-.075,0-.1-.087-.062-.194.055-.144,0-.188-.2-.171-.729.059-.769.028-.8-.619-.024-.5.016-.637.207-.739a.579.579,0,0,1,.4-.064c.1.037.228-.083.321-.293a.737.737,0,0,0-.492-1.1c-.319-.083-.419-.183-.469-.467-.061-.349-.087-.362-.74-.362-.669,0-.678,0-.715.388a1.064,1.064,0,0,1-.269.6.425.425,0,0,0-.165.383c.037.1.005.173-.07.173a.141.141,0,0,0-.137.144c0,.079.035.109.077.067s.176.117.3.354a2.4,2.4,0,0,1,.071,1.773c-.105.136-.1.156.016.085.085-.051.154-.048.155.007a2.008,2.008,0,0,0,.245.5c.236.387.273.4,1.052.4a2.2,2.2,0,0,0,1.112-.2Zm47.924-1.158a.123.123,0,1,0-.123.123A.124.124,0,0,0,74.178,119.011Zm-42.24-5.355a.568.568,0,0,1,.363-.248c.537-.135.62-1.191.109-1.387a1.31,1.31,0,0,0-.654.123c-.662.265-.978.156-1.077-.373-.092-.488.134-1.025.43-1.025a3.136,3.136,0,0,1,.718.2c.616.235.842.126.926-.446a.924.924,0,0,0-.7-.963,8.021,8.021,0,0,0-1.832.051,2.568,2.568,0,0,0-.661.479c-.385.364-.439.493-.5,1.2a2.2,2.2,0,0,0,.194,1.338c.142.3.259.5.262.435s.129,0,.282.145a4.514,4.514,0,0,0,1.854.636A.3.3,0,0,0,31.937,113.655Zm5.772-.011a.79.79,0,0,1,.5-.214,1.424,1.424,0,0,0,.771-.436,1.132,1.132,0,0,0,.421-.927c.008-.286.022-.742.032-1.014.046-1.249-1.27-1.865-3.039-1.422-.507.127-.832.4-.9.743-.122.666-.216.843-.406.772-.165-.062-.18-.041-.073.1a3.242,3.242,0,0,1,.3.794c.256.978.472,1.27,1.01,1.361.259.044.471.126.471.183,0,.1.264.2.6.231A.412.412,0,0,0,37.709,113.645Zm-.744-1.481a1.719,1.719,0,0,1,0-.648c.041-.254.084-.521.1-.594s.18-.132.374-.132c.464,0,.535.29.36,1.466-.026.177-.761.095-.833-.093Zm5.539,1.38c.669-.355.955-.73.954-1.248,0-.76-.115-1.034-.473-1.154l-.325-.108.33-.083a.678.678,0,0,0,.005-1.283,8.244,8.244,0,0,0-1.427-.094c-.95,0-1.111.032-1.26.247-.094.136-.242.329-.329.429-.167.192-.241,1.113-.089,1.113.2,0,.243.631.057.816a.817.817,0,0,0,.565,1.281.737.737,0,0,1,.447.2c.217.218,1.036.158,1.545-.112Zm-1.759-1.318c-.164-.106-.164-.12,0-.12a.816.816,0,0,1,.37.12c.165.106.165.12,0,.12A.817.817,0,0,1,40.745,112.226Zm1.018-1.321c-.153-.029-.278-.109-.278-.176,0-.176.649-.076.71.109.028.085,0,.147-.052.137S41.916,110.934,41.763,110.9Zm17.422,2.723c.108-.147.31-.193.754-.171a3.548,3.548,0,0,0,1.387-.058,8.272,8.272,0,0,0,.114-1.391,4.234,4.234,0,0,0-.15-1.792c-.108-.257-.25-.434-.316-.394s-.12.006-.12-.077-.035-.116-.078-.073-.191.018-.329-.057a7.982,7.982,0,0,0-2.479-.03.793.793,0,0,0-.279.457.508.508,0,0,0,.187.671l.3.277-.326.326a1.084,1.084,0,0,0-.335.71,4.794,4.794,0,0,1-.052.61.561.561,0,0,0,.165.432,2.35,2.35,0,0,0,1.038.536c.051-.012.093.034.093.1,0,.193.266.145.428-.078Zm.065-1.472c0-.1.111-.177.247-.177s.247.071.247.159-.111.167-.247.177S59.25,112.258,59.25,112.156Zm9.948,1.488a.376.376,0,0,1,.335-.187c.381,0,.506-.116.818-.738.153-.305.236-.515.185-.467s-.23-.019-.4-.15c-.3-.236-.306-.236-.64.011a.861.861,0,0,1-.683.186c-.45-.082-.483-.124-.477-.6.011-.834.056-.914.526-.918a1.149,1.149,0,0,1,.646.177.348.348,0,0,0,.358.088c.1-.059.118-.041.062.05-.14.226.067.165.248-.073a1.138,1.138,0,0,0,.036-1.123l-.135-.389H68.927c-1.119,0-1.169.012-1.6.387a3.224,3.224,0,0,0-.58.647,2.669,2.669,0,0,0-.025,1.813.482.482,0,0,1,.174.305c0,.243.588.656,1.061.745.238.045.419.153.419.25,0,.239.727.226.819-.014Zm6.349.014c1.267-.105,1.655-.471,1.37-1.289a.669.669,0,0,1-.012-.526,2.324,2.324,0,0,0-.338-1.8,1.373,1.373,0,0,1-.293-.4c0-.047-.069-.091-.154-.1-1.3-.117-1.669-.1-2,.066a1.564,1.564,0,0,0-.461.325c-.05.075-.092.085-.093.021,0-.258-.451.4-.589.861a1.982,1.982,0,0,0,1.2,2.631c.275.082.5.206.5.275s.047.1.105.061a3.516,3.516,0,0,1,.771-.121Zm-.753-1.494c-.174-.21-.178-.209.771-.232.365-.009.586.039.586.127,0,.323-1.1.409-1.357.106Zm-.123-1.35c0-.13.237-.185.307-.071.043.069-.009.125-.115.125S74.671,110.844,74.671,110.814Zm8.43,2.839c.037-.1.308-.212.6-.256a.95.95,0,0,0,.809-.5,1.753,1.753,0,0,0,.276-.785.632.632,0,0,1,.129-.445c.08-.049.086-.135.017-.223a1.719,1.719,0,0,1-.181-.59,1.606,1.606,0,0,0-.98-1.163,1.858,1.858,0,0,1-.4-.173,1.726,1.726,0,0,0-1.145-.022,1.9,1.9,0,0,1-.52.157.987.987,0,0,0-.506.257c-.109.118-.222.19-.251.16s-.065.087-.08.26c-.03.362-.119.538-.273.538-.06,0-.077-.2-.038-.434.1-.642-.215-.952-.879-.855a2.071,2.071,0,0,1-1.3-.066c-.363-.194-.453-.154-.666.3a4.073,4.073,0,0,0-.187,1.7c.017,1.743.06,1.863.718,1.994.768.152.9-.023.919-1.229.019-1.117.134-1.276.905-1.245.357.014.492.073.489.21a3.764,3.764,0,0,0,.31,1.438.912.912,0,0,1,.229.367c.083.219.239.315.607.374.272.043.468.123.435.176-.077.124.16.22.576.232.179.005.357-.07.394-.167Zm-.668-1.326c-.175-.722-.226-1.219-.119-1.153.055.034.128-.041.161-.167.1-.389.614-.267.728.174.153.592-.036,1.1-.429,1.146A.779.779,0,0,1,82.434,112.326Zm5.2,1.228c.92-.382,1.135-.633,1.188-1.382.051-.717.006-.8-.583-1.072l-.432-.2h.36a.6.6,0,0,0,.623-.772c-.114-.464-.2-.5-1.183-.578-1.072-.08-1.91.105-2.018.446a.523.523,0,0,1-.254.3c-.221.085-.255,1.064-.036,1.064.079,0,.107.037.063.081s-.021.154.053.242c.1.12.065.258-.133.536-.418.587-.194.982.785,1.385a1.485,1.485,0,0,0,1.568-.052ZM86.36,112.38c-.326-.074-.259-.278.093-.278.17,0,.308.052.308.116C86.761,112.379,86.615,112.438,86.36,112.38Zm.956-1.5a.533.533,0,0,0-.339-.046c-.051.029-.093-.005-.093-.077,0-.188.391-.154.671.058C87.814,111.006,87.711,111.034,87.316,110.875ZM13.3,113.356a3.2,3.2,0,0,0,.644-.5c.083-.108.156-.14.163-.072.04.4.226-.491.232-1.11.008-.7-.012-.754-.405-1.021a2.843,2.843,0,0,0-1.6-.485c-.454-.052-.583-.114-.554-.264.049-.256.691-.284,1.428-.062s.727.234,1.013-.325c.143-.28.194-.493.119-.493s-.1-.048-.068-.106c.118-.19-.832-.5-1.778-.578a2.056,2.056,0,0,0-1.6.287,2.1,2.1,0,0,0-.726.535c-.026.094-.088.365-.138.6s-.112.515-.138.617.024.169.138.144.145,0,.1.048.027.251.168.449.285.332.32.3a1.492,1.492,0,0,1,.634.222,5.624,5.624,0,0,0,.91.367c.378.091.458.314.123.342a2.285,2.285,0,0,1-1.265-.2c-.765-.651-1.087-.516-1.066.447l.017.744.617.21a3.556,3.556,0,0,0,2.714-.09Zm4.38.234c0-.064.206-.133.457-.154.429-.036.46-.066.5-.5a1.451,1.451,0,0,0-.073-.668.746.746,0,0,1,.061-.634c.159-.381.154-.492-.046-1.059-.342-.97-.513-1.065-1.837-1.016a3.007,3.007,0,0,0-1.456.261c-.352.231-.736.839-.609.966.041.041.019.145-.05.232-.084.106-.074.4.03.9a2.605,2.605,0,0,1,.087.852c-.037.061,0,.072.076.024s.142-.01.142.1a.189.189,0,0,0,.185.192c.1,0,.185.047.185.1,0,.088.192.163,1.172.457.3.09,1.172.046,1.172-.059Zm-1.21-1.457c.023-.119.082-.2.132-.185a5.63,5.63,0,0,0,.738.035c.6,0,.629.018.408.185a1.59,1.59,0,0,1-.78.181C16.516,112.349,16.431,112.312,16.466,112.133Zm11.668,1.312c.292-.109.578-.66.45-.867a6.172,6.172,0,0,1-.062-1.244,6.253,6.253,0,0,0-.135-1.531c-.125-.345-.116-.441.061-.637.322-.356.261-.714-.152-.885a1.814,1.814,0,0,0-1.4.057.956.956,0,0,0,.18,1.1c.247.173.187.252-.162.213a10.813,10.813,0,0,0-.05,1.776c.02,1.572.051,1.813.258,2.02.231.232.371.231,1.009-.008Zm19.15.138c0-.068.136-.123.3-.123.4,0,.473-.151.457-.889-.019-.845.111-1.04.709-1.063a.906.906,0,0,1,.568.1c.045.073.194.043.377-.077a.635.635,0,0,0,.3-.646,1.407,1.407,0,0,0-.093-.572,2.046,2.046,0,0,0-.893-.123c-.63,0-.8-.039-.8-.185s.177-.185.85-.185c.836,0,.853-.006,1.039-.4a.7.7,0,0,0,.056-.691c-.127-.278-.21-.3-1.717-.381l-1.584-.088-.29.338a.781.781,0,0,0-.217.779c.04.243.074,1.2.074,2.137,0,1.531.025,1.72.248,1.943.26.26.617.332.617.123Zm16.369-.475a7.15,7.15,0,0,0,.092-1.177c.007-.663.056-.879.221-.984.382-.242.527.088.531,1.208,0,1.263.118,1.446.84,1.346.612-.085.688-.18.717-.906.08-2-.008-2.714-.337-2.714-.1,0-.158-.051-.12-.113.137-.221-1.184-.359-1.648-.172a1.1,1.1,0,0,1-.792-.051c-.471-.162-.51-.156-.792.125s-.3.373-.3,1.873a6.813,6.813,0,0,0,.122,1.7C62.706,113.757,63.507,113.683,63.652,113.108Zm-43.1.294c.344-.073.344-.073.308-1-.03-.781,0-.958.187-1.094.166-.121.182-.179.062-.227-.291-.116.182-.092.613.032.221.063.38.077.351.031s.023-.153.114-.237c.21-.194.514.079.624.562a4.807,4.807,0,0,0,.835,1.941,1.318,1.318,0,0,0,1.442-.076,3.668,3.668,0,0,0,.732-1.6,1.287,1.287,0,0,1,.309-.594c.174-.206.278-.45.237-.555a.618.618,0,0,1,.06-.435c.232-.434.061-.585-.641-.565-.354.01-.684.026-.732.036a1.105,1.105,0,0,0-.218.5,4.974,4.974,0,0,1-.3.815c-.158.305-.181.313-.29.1a5.764,5.764,0,0,1-.264-.681,1.61,1.61,0,0,0-.322-.6,1.445,1.445,0,0,0-1.22-.128.454.454,0,0,1-.478.018c-.35-.133-.839-.129-.756.006.108.174-.266.186-.8.026a3.912,3.912,0,0,0-.759-.164c-.274,0-.41.458-.438,1.48-.012.441-.027.885-.032.987a7.1,7.1,0,0,0,.061.78c.055.455.133.618.331.691.258.1.318.092.983-.048Zm13.927,0,.331-.07L34.8,111.7c-.008-1.272-.051-1.682-.2-1.851-.159-.185-.162-.263-.023-.524.09-.169.209-.307.263-.307.132,0-.009-.378-.24-.648a1.182,1.182,0,0,0-1.405.021.669.669,0,0,0,.395,1.126c.109.006.072.055-.089.12a.61.61,0,0,0-.332.393,5.612,5.612,0,0,0-.06,1.918.915.915,0,0,1-.01.582c-.154.406.372,1.08.78,1l.6-.123Zm17.28.047c.346-.1.467-.2.479-.4a17.819,17.819,0,0,0-.036-3.2.529.529,0,0,0-.479-.216c-.2,0-.366-.056-.366-.123s.134-.123.3-.123c.505,0,.689-.131.689-.492,0-.452-.234-.625-.917-.681-.453-.037-.587,0-.687.185a.886.886,0,0,0,.054.981c.154.128.15.194-.031.49s-.2.575-.143,1.872a9.609,9.609,0,0,0,.161,1.684c.116.187.366.194.976.024Zm5.079-.148c.368-.565.107-3.736-.288-3.492-.055.034-.2-.05-.326-.187a.759.759,0,0,0-.726-.213,1.238,1.238,0,0,0-.573.135.408.408,0,0,1-.308.082c-.13-.009-.5-.024-.822-.034-.384-.011-.586-.071-.586-.175a.147.147,0,0,0-.133-.157c-.084,0-.1.137-.052.367a.908.908,0,0,1-.006.507,5.526,5.526,0,0,0-.061,1.268c.014.62.026,1.266.026,1.436,0,.46.2.617.774.617a.865.865,0,0,0,.782-.3c.147-.17.212-.336.145-.377a.63.63,0,0,1,.011-.741c.089-.055.084-.134-.014-.252a.638.638,0,0,1,.188-.835.425.425,0,0,1,.387.134c.168.168.19.356.126,1.048-.073.785-.057.865.226,1.148a.793.793,0,0,0,1.231.027Zm15.4-.017a6.424,6.424,0,0,0,.1-1.371,10.35,10.35,0,0,1,.1-1.541.491.491,0,0,0-.2-.57c-.249-.23-.261-.282-.1-.417.1-.085.187-.106.188-.047s.047.037.1-.049a.863.863,0,0,0-.334-1.064.978.978,0,0,0-1.31.492,1.2,1.2,0,0,1-.228.436c-.058.042.08.145.307.228s.344.179.251.214c-.38.145-.469.865-.347,2.812.07,1.124.124,1.2.8,1.1a1.379,1.379,0,0,0,.661-.221Zm-49.966-1.825c-.188-.189-.327-.049-.223.223.062.161.115.177.225.067s.109-.179,0-.29Zm9.192-.1c-.01-.136-.062-.247-.116-.247-.117,0-.12.044-.022.3S31.481,111.659,31.459,111.362Zm-12.433-1.894c-.119-.11-.135-.091-.073.085a2.035,2.035,0,0,1,.094.37c.008.079.041.041.073-.085A.412.412,0,0,0,19.026,109.468Zm62.121-2.179a.142.142,0,0,0-.192-.054c-.171.106-.139.18.078.18C81.138,107.414,81.189,107.358,81.147,107.289Zm-45.806-.452a.248.248,0,0,0-.236.01c-.041.041.032.07.162.065s.173-.035.075-.075Zm28.691,0a1.015,1.015,0,0,0-.432,0c-.119.031-.022.057.216.057S64.15,106.867,64.031,106.836Zm12.182-.285c.044-.072-.081-.123-.3-.123s-.377.056-.377.123.135.123.3.123A.514.514,0,0,0,76.213,106.551Zm5.86,0a.128.128,0,0,0-.131-.123c-.072,0-.1.056-.054.123s.1.123.131.123S82.073,106.619,82.073,106.551ZM20.7,106.427a.264.264,0,0,0-.192-.123.12.12,0,0,0-.116.123c0,.068.087.123.192.123S20.74,106.5,20.7,106.427Zm16.315-.086c.4-.053.525-.028.528.1s.037.114.123-.033a1.557,1.557,0,0,1,.767-.355,5.353,5.353,0,0,0,1.574-.631c.1-.058.3-.157.432-.22a5.954,5.954,0,0,0,.846-.617,3.892,3.892,0,0,1,.683-.5c.046,0,.184-.17.307-.379s.256-.346.3-.306.2-.192.358-.516.336-.671.4-.773a4.571,4.571,0,0,0,.661-2.188c-.045-.117-.024-.165.051-.118.188.116.044-1.169-.156-1.4-.119-.137-.431-.2-1.114-.208a12.793,12.793,0,0,1-1.406-.1c-.589-.1-.767.077-.982.974a2.257,2.257,0,0,1-.331.83,1.522,1.522,0,0,0-.292.61,1.815,1.815,0,0,1-.309.655.616.616,0,0,0-.182.345,1.712,1.712,0,0,1-.478.612,2.449,2.449,0,0,1-1.35.648,8.236,8.236,0,0,1-1.448.2c-.49,0-.563-.031-.495-.209s.053-.184-.167.015a.663.663,0,0,1-.591.161,6.83,6.83,0,0,1-2.014-.834c-.549-.391-1.125-1.222-1.038-1.5.05-.158.021-.206-.1-.16s-.269-.146-.463-.559a3.075,3.075,0,0,1-.285-1.577c.011-1.293.4-2.742.742-2.742.083,0,.21-.11.282-.245s.192-.232.266-.216a.184.184,0,0,0,.193-.128c.032-.087-.013-.143-.1-.123a.189.189,0,0,1-.2-.167c-.055-.249.636-1.03.814-.92.071.044.189-.033.263-.17s.191-.25.26-.25a3.537,3.537,0,0,0,.705-.27,4.226,4.226,0,0,1,3.969.374c.44.367.459.759.037.761a1.461,1.461,0,0,0-.59.246,1.462,1.462,0,0,1-.573.246.318.318,0,0,0-.274.188.728.728,0,0,1-.352.309c-.154.067-.558.288-.9.491s-.7.406-.8.451a4.281,4.281,0,0,0-.512.309,1.275,1.275,0,0,1-.479.227,3.56,3.56,0,0,0-.85.477,5.645,5.645,0,0,1-1,.57,1.7,1.7,0,0,0-.457.217c-.23.184-.186.882.076,1.218a7.179,7.179,0,0,1,.546.919c.536,1.062.333,1.089,3.2-.425l1.36-.717a1.407,1.407,0,0,0,.408-.292.379.379,0,0,1,.292-.116,1,1,0,0,0,.5-.247,1.023,1.023,0,0,1,.42-.247,2.7,2.7,0,0,0,.69-.37c.52-.346.566-.356.725-.154s.165.195.106-.054c-.052-.22.02-.3.392-.452a1.918,1.918,0,0,0,.618-.378.6.6,0,0,1,.4-.2,3.1,3.1,0,0,0,.965-.493,2.886,2.886,0,0,1,1.042-.493c.173,0,.315-.052.315-.115s.111-.15.247-.193c.39-.124.308-.628-.185-1.135a2.215,2.215,0,0,1-.432-.539,3.577,3.577,0,0,0-.559-.69c-.427-.456-.543-.662-.49-.877.06-.245.031-.271-.221-.208-.322.081-.786-.3-.488-.405a.268.268,0,0,0,.154-.246c0-.171-.027-.169-.23.014-.219.2-.263.183-.873-.3a4.524,4.524,0,0,0-1.889-.978c-.119,0-.216-.058-.216-.126s-.18-.124-.4-.124a3.794,3.794,0,0,1-.834-.121,6.373,6.373,0,0,0-2.7-.071,7.321,7.321,0,0,1-1,.365,10.964,10.964,0,0,0-4.584,3.108,3.705,3.705,0,0,0-.351.632.732.732,0,0,1-.16.273,7.353,7.353,0,0,0-.815,2.23,18.88,18.88,0,0,0-.144,2.344,5.179,5.179,0,0,0,.252,2.344c.148.373.315.826.371,1.007a5.049,5.049,0,0,0,.608,1.012,2.727,2.727,0,0,1,.5.936c0,.142.081.252.185.252s.185.056.185.123a.142.142,0,0,0,.155.123,3.1,3.1,0,0,1,.817.543,7.632,7.632,0,0,0,4.456,1.68,1.8,1.8,0,0,1,.74.128,1.056,1.056,0,0,0,.617.052c.238-.041.668-.106.956-.144ZM33.762,106a8.014,8.014,0,0,1-5.954-4.963,10.923,10.923,0,0,1-.39-4.361,7.238,7.238,0,0,1,2.012-4.36,8.61,8.61,0,0,1,5.264-2.678A7.684,7.684,0,0,1,41.611,92.2a10.331,10.331,0,0,1,1.847,2.557,7.5,7.5,0,0,1-1.573.973c-.865.458-1.933,1.031-2.374,1.274-.752.414-1.819.99-3.7,2-.441.237-1.163.633-1.6.881-1.234.693-1.449.786-1.646.71A7.224,7.224,0,0,1,31.3,98.3a5.839,5.839,0,0,1,.965-.6c1.62-.884,5.075-2.846,5.8-3.294.688-.424.707-.45.526-.708-.848-1.211-3.331-1.513-5.193-.632a5.554,5.554,0,0,0-2.661,3.806,7.054,7.054,0,0,0,.243,3.3,4.821,4.821,0,0,0,5.2,3.017c1.528-.09,2.2-.331,2.834-1.021A9.027,9.027,0,0,0,40.552,99.1c.11-.379.268-.694.351-.7a13.654,13.654,0,0,1,2.725.159c.209.112.228.229.169,1.069a6.218,6.218,0,0,1-2,4.155,7.627,7.627,0,0,1-4.133,2.242,14.535,14.535,0,0,1-3.9-.017ZM31.616,95.147c0-.106.056-.192.123-.192a.12.12,0,0,1,.123.116.265.265,0,0,1-.123.192C31.672,95.3,31.616,95.252,31.616,95.147Zm52.8,11.356c0-.1-.755-.152-.815-.055-.035.057.134.1.376.1A1.057,1.057,0,0,0,84.417,106.5Zm-72.972-.2c-.341-.146-.555-.146-.555,0,0,.068.18.119.4.115C11.627,106.412,11.652,106.393,11.446,106.3Zm37.843-.278c.038-.113.375-.144,1.267-.115,1.925.062,1.725.807,1.722-6.408,0-3.628.045-6.2.111-6.244s.184.026.269.143c.147.2.158.2.2,0s.223-.21,1.835-.186c2.263.033,2.2.08,2.246-1.725l.031-1.286-.358-.273c-.2-.15-.4-.245-.462-.209a23.673,23.673,0,0,1-3.769.006,3.175,3.175,0,0,1-.056-.991c.047-1.26.427-2,1.223-2.374a4.124,4.124,0,0,1,2.069-.284l1.485-.007.2-.339a7.386,7.386,0,0,0,.127-2.962,1.318,1.318,0,0,0-.711-.205,24.682,24.682,0,0,0-3.94.273c-.688.146-1.548.532-1.47.66.036.058-.019.106-.122.106a3.814,3.814,0,0,0-1.307,1.208c0,.066-.117.15-.259.188s-.225.123-.183.191a1.109,1.109,0,0,1-.184.623c-.414.794-.475,2.254-.48,11.393,0,6.544.031,8.539.149,8.728.176.282.3.311.371.091Zm-.2-.422c-.138-.138-.094-17.658.047-18.546A4.533,4.533,0,0,1,51.223,83.8c1.006-.677,1.953-.91,4.079-1.006l1.851-.083v2.957l-1.411.076c-1.84.1-2.571.336-3.043.986a3.655,3.655,0,0,0-.489.98,6.172,6.172,0,0,0-.054,2.19,9.861,9.861,0,0,0,2.29.124H56.66V92.98H54.446a10.95,10.95,0,0,0-2.287.119c-.04.065-.07,2.786-.067,6.046s-.028,6.065-.071,6.234c-.077.305-.089.308-1.462.308a7.339,7.339,0,0,1-1.467-.082Zm31.1.457a4.323,4.323,0,0,0,2.266-.583,2.376,2.376,0,0,0,1.008-.778,7.754,7.754,0,0,0,.105-1.711,4.325,4.325,0,0,1,.121-1.573c.108-.13.106-.216-.01-.355-.084-.1-.188-.163-.231-.139a.569.569,0,0,1-.325-.047c-.2-.074-.384.053-.936.632-.493.518-.78.724-1.008.724-.175,0-.338.059-.362.13-.126.379-2.113.469-3.123.141-.765-.248-.742-.231-.574-.433.2-.237.046-.338-.281-.189-.485.221-1.454-.591-2.158-1.807a3.445,3.445,0,0,1-.35-1.743,4.741,4.741,0,0,1,.782-3.444,5.037,5.037,0,0,1,.982-.981c.178-.136.4-.317.491-.4a4.43,4.43,0,0,1,2.439-.739c.951-.058,1.1-.038,1.248.158.125.171.317.22.815.209a2.67,2.67,0,0,1,2.477,1.988,2.541,2.541,0,0,0,.248.649c.123.15.178,9.465.057,9.66-.171.277.517.43,2,.444a9.414,9.414,0,0,0,1.645-.069,37.3,37.3,0,0,0,.12-5.25c-.013-4.856-.03-5.227-.277-6.155a3.786,3.786,0,0,0-.366-1.028.242.242,0,0,1-.1-.216c0-.1-.052-.175-.115-.175s-.147-.1-.186-.216a10.2,10.2,0,0,0-1.794-1.935l-1.047-.594a4.429,4.429,0,0,0-.993-.463,8.79,8.79,0,0,1-1.6-.377,11.584,11.584,0,0,0-3.639-.06c-.305.1-.8.241-1.11.324a6.581,6.581,0,0,0-1.974.86c0,.053-.18.21-.4.348a8.389,8.389,0,0,0-1.858,1.866,11.928,11.928,0,0,0-1.113,2.529,22.056,22.056,0,0,0-.08,4.811,9.217,9.217,0,0,0,1.073,2.467c.227.339.528.8.668,1.018s.3.4.361.4a2.723,2.723,0,0,1,.636.5A6.522,6.522,0,0,0,76.954,106a10.109,10.109,0,0,0,3.235.06Zm-3.235-.245a7.564,7.564,0,0,1-5.356-4.562,11.329,11.329,0,0,1-.622-3.586,8,8,0,0,1,4.075-7.2,8.443,8.443,0,0,1,3.731-.892c2.9-.169,5.231.615,6.764,2.274a8.709,8.709,0,0,1,1.183,1.653c.737,1.487.779,1.89.743,7.273l-.032,4.848H84.232l-.062-5c-.059-4.81-.072-5.018-.331-5.58-.826-1.788-2.016-2.448-4.449-2.468a3.769,3.769,0,0,0-2.114.341,5.114,5.114,0,0,0-3.194,5.289,4.539,4.539,0,0,0,.406,1.9,5.165,5.165,0,0,0,3.453,2.679,4.558,4.558,0,0,0,4.5-1.168c.9-.812.864-.86.864,1.216V104.7l-.471.311a6.132,6.132,0,0,1-3.654.868,15.1,15.1,0,0,1-2.229-.06Zm-57.841.056a13.413,13.413,0,0,0,1.339-.142,3.882,3.882,0,0,1,.784-.065c.336.012.387-.017.274-.154s-.062-.2.235-.3a3.415,3.415,0,0,0,1.716-1.859,4.358,4.358,0,0,0,.261-1,.619.619,0,0,1,.216-.443c.183-.136.192-.2.059-.417a2.77,2.77,0,0,1-.236-.834,3.405,3.405,0,0,0-.243-.892,1.449,1.449,0,0,1-.165-.5A4.491,4.491,0,0,0,21.809,97.6c-.268-.127-.392-.26-.349-.372.049-.129-.039-.175-.337-.175a1.062,1.062,0,0,1-.6-.173,10.114,10.114,0,0,0-2.446-.9c-.22-.036-.4-.115-.4-.176s-.219-.11-.486-.11a.92.92,0,0,1-.563-.123.449.449,0,0,0-.34-.123,4.666,4.666,0,0,1-1.151-.433c-.834-.406-.892-.461-.948-.894q-.132-1.016.655-1.145a2.237,2.237,0,0,0,.572-.155c.075-.046,1.683-.092,3.573-.1s3.539-.043,3.664-.075c.39-.1.551-.733.465-1.823a5.058,5.058,0,0,0-.177-1.141,47.393,47.393,0,0,0-7.486-.028,10.707,10.707,0,0,0-3.924,1.1,3.988,3.988,0,0,0-1.137,2.539,9.035,9.035,0,0,1-.186,1.172c-.14.455-.138,1.289,0,1.339.07.024.111-.137.1-.37l-.028-.414.176.37a1.963,1.963,0,0,1,.182.539,1.645,1.645,0,0,0,.376.59,2.216,2.216,0,0,1,.373.51,1.6,1.6,0,0,0,.493.391c.27.166.49.374.49.463s.107.16.237.16a2.878,2.878,0,0,1,.833.3,13.084,13.084,0,0,0,1.83.63,27.212,27.212,0,0,1,3.871,1.341,1.508,1.508,0,0,1,.974,1.372c-.064.7-.275.732-5.084.709a33.527,33.527,0,0,0-4.462.105,1.314,1.314,0,0,0-.234.613c-.045.267-.133.486-.195.486s-.112.125-.111.278c0,.2.03.232.108.11.182-.287.28.055.247.864-.024.6.014.787.183.91a16,16,0,0,0,3.734.159c1.936,0,3.551.033,3.589.071a.138.138,0,0,0,.161.011,6.583,6.583,0,0,1,1.062-.12ZM10.6,105.6a7.442,7.442,0,0,1-.082-1.478v-1.4l.329-.083c.181-.045,2.134-.051,4.34-.012,3.364.059,4.085.041,4.466-.112a1.083,1.083,0,0,0,.48-1.723c-.34-.551-1.348-1.026-3.508-1.655a13.754,13.754,0,0,1-4.286-1.723,3.124,3.124,0,0,1-1.289-1.317,4.763,4.763,0,0,1-.357-3.376,2.64,2.64,0,0,1,1.591-2.1c1.321-.617,2.359-.752,6.5-.846,2.069-.047,3.834-.062,3.921-.033.119.039.15.381.123,1.363L22.8,92.425l-3.763.07c-3.736.07-4.25.127-4.888.545-.234.153-.293.3-.293.727,0,.945.829,1.519,3.022,2.094,3.289.861,5.538,2.07,6.186,3.323a5.28,5.28,0,0,1,0,4.627,4.029,4.029,0,0,1-1.556,1.324c-.987.505-1.489.55-6.24.551-2.516,0-4.612-.036-4.657-.081Zm52.6.316a5.188,5.188,0,0,0,1.369-.161l.358-.151v-7.8c0-5.213-.043-7.88-.13-8.042-.118-.22-.265-.242-1.6-.242s-1.484.022-1.6.242c-.076.142-.205.213-.313.172s-.183-.007-.183.07a.277.277,0,0,0,.187.212c.164.063.186,1,.181,7.715l-.006,7.643.281.227c.154.125.318.2.364.176A6.863,6.863,0,0,1,63.2,105.921Zm-1.409-.335c-.087-.14-.115-15.691-.029-15.777a10.222,10.222,0,0,1,2.206-.05l.71.014L64.648,97.7l-.032,7.926-1.378.035a5.22,5.22,0,0,1-1.446-.074Zm-8.588.156c0-.03-.056-.054-.123-.054a.128.128,0,0,0-.123.131c0,.072.056.1.123.054S53.205,105.772,53.205,105.742Zm29.917-.178c-.042-.068-.1-.123-.131-.123s-.054.056-.054.123a.127.127,0,0,0,.131.123C83.139,105.687,83.164,105.632,83.122,105.564Zm-9.314-.247a.128.128,0,0,0-.131-.123c-.072,0-.1.056-.054.123s.1.123.131.123S73.808,105.385,73.808,105.317Zm-50.321-.653c-.158-.158-.319-.036-.2.154a.153.153,0,0,0,.208.056C23.577,104.821,23.575,104.752,23.487,104.664Zm49.7.16a.128.128,0,0,0-.131-.123c-.072,0-.1.056-.054.123s.1.123.131.123S73.191,104.892,73.191,104.824ZM28.285,103.3a.512.512,0,0,0-.185-.323c-.156-.13-.185-.1-.185.17,0,.205.068.323.185.323A.178.178,0,0,0,28.285,103.3Zm43.672,0a.292.292,0,0,0-.185-.243c-.185-.071-.261.174-.1.332C71.808,103.523,71.957,103.476,71.957,103.295Zm-.74-1.185a.123.123,0,1,0-.123.123A.124.124,0,0,0,71.217,102.11Zm7.649-.192c0-.03-.056-.054-.123-.054a.128.128,0,0,0-.123.131c0,.072.056.1.123.054S78.866,101.947,78.866,101.917Zm2.036.069a.326.326,0,0,0-.254-.123c-.1,0-.178.056-.178.123s.114.123.254.123S80.943,102.054,80.9,101.986Zm-42.685-.123c.042-.068-.01-.123-.116-.123s-.192.056-.192.123a.12.12,0,0,0,.116.123A.264.264,0,0,0,38.216,101.863Zm-5.045-.308c-.129-.1-.282-.147-.341-.111-.178.11.017.3.305.292C33.4,101.732,33.4,101.726,33.171,101.554Zm48.471.062c.042-.068-.01-.123-.116-.123s-.192.056-.192.123a.12.12,0,0,0,.116.123A.265.265,0,0,0,81.641,101.616Zm-47.211-.979c.031-.093-.015-.139-.108-.108a.386.386,0,0,0-.216.216c-.031.093.015.139.108.108A.387.387,0,0,0,34.43,100.637ZM37.476,99.4c-.042-.068-.1-.123-.131-.123s-.054.056-.054.123a.128.128,0,0,0,.131.123C37.494,99.519,37.518,99.463,37.476,99.4Zm-23.748-.37a.123.123,0,1,0-.123.123A.124.124,0,0,0,13.728,99.025Zm26.307-.463c.074-.152.1-.314.055-.358-.109-.109-.452.725-.359.875.04.065.095.038.121-.061A3.294,3.294,0,0,1,40.035,98.563Zm-.77-.4c0-.068-.083-.123-.185-.123s-.185.056-.185.123.083.123.185.123S39.265,98.23,39.265,98.162Zm-7.346-1.1c.091-.148-.141-.294-.305-.192-.138.085-.047.307.125.307A.247.247,0,0,0,31.919,97.06Zm1.547-1.336c0-.184-.477-.4-.565-.26a.187.187,0,0,0,.087.242C33.2,95.84,33.467,95.85,33.467,95.724Zm2.159-.646c-.042-.068-.1-.123-.131-.123s-.054.056-.054.123a.128.128,0,0,0,.131.123C35.643,95.2,35.667,95.146,35.625,95.078Zm52.123-1.234c0-.136-.056-.247-.123-.247s-.123.111-.123.247.056.247.123.247S87.748,93.98,87.748,93.844Zm-72.64-.208a.248.248,0,0,0-.236.01c-.041.041.032.07.162.065s.173-.035.075-.075Zm63.333-.351c.232-.183.23-.188-.059-.154-.164.019-.322.1-.35.189-.069.21.119.194.409-.034Zm-43.309-.058a.326.326,0,0,0-.254-.123c-.1,0-.178.056-.178.123s.114.123.254.123S35.174,93.3,35.132,93.227Zm1.049,0c0-.068-.167-.123-.37-.123s-.37.056-.37.123.167.123.37.123S36.181,93.3,36.181,93.227ZM10.223,91.655c-.135-.135-.227.08-.13.3s.1.211.15,0A.4.4,0,0,0,10.223,91.655Zm76.045-.217c0-.1-.056-.185-.123-.185s-.123.083-.123.185.056.185.123.185S86.268,91.54,86.268,91.438Zm-55.921-.948c-.209-.129-.334,0-.334.352v.315l.236-.291C30.409,90.668,30.44,90.549,30.346,90.491ZM40.8,90.309c-.341-.249-.5-.2-.245.078.121.134.277.209.346.166S40.937,90.408,40.8,90.309Zm44.781-.054a.137.137,0,1,0-.045.189A.138.138,0,0,0,85.583,90.256Zm-55.817-.113a.123.123,0,1,0-.123.123A.124.124,0,0,0,29.766,90.143ZM64.846,87.7a14.567,14.567,0,0,0,1.93-2.142c0-.056.071-.1.157-.1a2.9,2.9,0,0,0,1.023-1.144c.02-.4-.227-.47-1.662-.453-.787.009-1.486.005-1.553-.009-.274-.059-.4.018-.542.331A9.925,9.925,0,0,1,62.688,86.2c-.059,0-.106.1-.106.228a1,1,0,0,1-.247.512,1,1,0,0,0-.247.436.541.541,0,0,1-.231.32c-.185.136-.211.243-.128.539l.1.37,1.1-.039,1.1-.039Zm-2.737.636c-.178-.038-.263-.125-.223-.228s.636-1.031,1.336-2.087L64.493,84.1h1.566a6.527,6.527,0,0,1,1.635.112,7.881,7.881,0,0,1-1.255,1.511l-1.9,2.009c-.563.6-.592.611-1.36.637a6.474,6.474,0,0,1-1.071-.034ZM48.345,86.969c-.041-.041-.07.032-.065.162s.035.173.075.075A.248.248,0,0,0,48.345,86.969Zm18.06.021c0-.03-.056-.054-.123-.054a.128.128,0,0,0-.123.131c0,.072.056.1.123.054S66.406,87.02,66.406,86.99ZM63.67,84.3c.023-.117-.038-.206-.141-.206-.2,0-.362.3-.237.422s.336,0,.378-.217ZM69,83.851a.123.123,0,1,0-.123.123A.124.124,0,0,0,69,83.851Zm-15.849-1.6a.217.217,0,0,0-.254-.048c-.255.1-.225.166.073.166C53.106,82.371,53.187,82.318,53.147,82.253Zm28.362-3.474a.479.479,0,0,0-.6,0c-.1.169.032.233.361.17.167-.032.274-.107.237-.167Zm-40.363-.068a.477.477,0,0,0-.308,0c-.085.034-.015.062.154.062S41.231,78.746,41.146,78.712Zm-6-.663c.219-.083.3-.183.246-.315a1.263,1.263,0,0,1-.074-.376c0-.1-.054-.149-.121-.108-.1.064-.851-.629-1.811-1.68-.147-.16-.632-.64-1.079-1.065s-.813-.787-.813-.8-.863-.891-1.918-1.941-2.068-2.073-2.251-2.273-1.25-1.288-2.369-2.418-2.183-2.216-2.364-2.412-.541-.554-.8-.795-.759-.754-1.108-1.141a2.588,2.588,0,0,0-.833-.7c-.109,0-.2-.064-.2-.141a4.574,4.574,0,0,0-1.144-1.264c-.027.026-.123-.09-.213-.26s-.236-.308-.322-.308-.256-.167-.376-.37a1.144,1.144,0,0,0-.408-.436,2.534,2.534,0,0,1-.62-.617,2.422,2.422,0,0,0-.518-.551,12.374,12.374,0,0,1-1.756-1.81.282.282,0,0,0-.246-.164.365.365,0,0,1-.282-.172c-.054-.095-.64-.734-1.3-1.42a12.883,12.883,0,0,1-1.2-1.346,1.291,1.291,0,0,0-.642-.639c-.076,0-.1.036-.059.08s-.01.146-.12.227c-.182.133-.2.991-.188,9.413.013,9.66.022,9.849.54,11.1a1.286,1.286,0,0,1,.119.429c-.011.051.036.093.1.093s.123.1.123.227a1.97,1.97,0,0,0,.524.771c.288.3.677.732.864.962s.339.387.339.349.22.149.489.415a2.311,2.311,0,0,0,.6.484.5.5,0,0,1,.268.187.4.4,0,0,0,.293.162,1.936,1.936,0,0,1,.631.2,6.244,6.244,0,0,0,.925.325l.838.2c.592.144,17.842.058,18.235-.091Zm47.237-.061a13.619,13.619,0,0,0,1.651-.706,8.9,8.9,0,0,0,3.29-3.022,2.194,2.194,0,0,1,.429-.648c.048,0,.121-.236.161-.524a11.13,11.13,0,0,1,.263-1.2c.168-.6.19-3.615.19-26.278v-25.6l-.294-1.048c-.431-1.539-1.5-3.577-1.883-3.577a.5.5,0,0,1-.32-.247c-.085-.136-.213-.247-.286-.247a1.376,1.376,0,0,1-.495-.34,10.115,10.115,0,0,0-2.768-1.41c-.452-.132-6.589-.162-32.877-.162-30.3,0-32.371.013-33.1.214a10.941,10.941,0,0,0-1.319.463,3.961,3.961,0,0,1-.633.249,2,2,0,0,0-.492.308,2.314,2.314,0,0,1-.473.308,8.119,8.119,0,0,0-2.169,2.415.688.688,0,0,1-.172.289,5.849,5.849,0,0,0-.52,1.12l-.347.925-.038,14.619-.038,14.619.774.834a5.815,5.815,0,0,0,.867.833,3.809,3.809,0,0,1,1.2,1.351c0,.134.139.28.339.357.5.193.754.433.731.7-.016.177.046.231.234.205.169-.023.42.144.744.493.269.291,1.084,1.08,1.811,1.755a8.744,8.744,0,0,1,1.322,1.388.164.164,0,0,0,.166.161,1.92,1.92,0,0,1,.656.524c.27.288.585.608.7.709s.6.588,1.083,1.079a5.948,5.948,0,0,0,.992.894c.066,0,.084.125.041.278-.058.207-.047.232.045.1s.263-.038.851.555c.4.4,1.067,1.067,1.482,1.474s.973.962,1.241,1.234.882.854,1.364,1.294a4.317,4.317,0,0,1,.877.956.159.159,0,0,0,.161.156,40.575,40.575,0,0,1,3.04,2.833c1.584,1.558,3.01,2.932,3.171,3.052a4.272,4.272,0,0,1,.67.746c.208.29.43.5.493.457s.167.066.231.235a.7.7,0,0,0,.365.384,2.1,2.1,0,0,1,.652.6c.452.581.6.711.734.631.049-.03.121.043.159.162a2.347,2.347,0,0,0,.61.65,2.842,2.842,0,0,1,.649.676.894.894,0,0,0,.366.371c.367.181,1.276,1.065,1.247,1.212-.013.068.114.165.284.215s9.524.1,20.787.1C79.234,78.172,81.841,78.151,82.382,77.987Zm-42.85-1.2c-.719-.7-2.405-2.347-3.748-3.666s-2.5-2.436-2.575-2.482-1-.938-2.066-1.983-3.79-3.7-6.061-5.907l-6.287-6.1c-2.275-2.211-5.182-5.028-7.2-6.977L10.39,48.507l0-14.26c0-13.954.01-14.281.256-15.222A7.674,7.674,0,0,1,16.445,13.4c.954-.237,1.544-.241,33.145-.207,30.669.033,32.209.045,32.914.259a8.111,8.111,0,0,1,5.484,5.941c.1.543.131,7.587.1,26.645l-.037,25.907-.452,1.078A7.828,7.828,0,0,1,83.924,77.1c-1.909.957.085.876-22.684.917l-20.4.037-1.307-1.267Zm19.2-9.915c4.581-.816,9.742-4.352,13.343-9.143,1.837-2.443,2.609-4.33,3.451-8.431a19.507,19.507,0,0,0-.438-10.262c-1.6-4.452-5.211-8.175-10.654-10.984a37.718,37.718,0,0,0-10.548-3.687,32.639,32.639,0,0,0-8.3-.068C37.774,25.634,30.361,30.372,24.7,37.65c-2.256,2.9-4.3,6.661-4.021,7.393.1.271.431.246,2.121-.165a22.239,22.239,0,0,1,4.5-.754,36.671,36.671,0,0,1,13.131,2.1,10.033,10.033,0,0,0,1.938.5c.387,0,.813-.235,2.573-1.42a14.854,14.854,0,0,1,4.471-2.422,9.3,9.3,0,0,1,6.629.3,9.19,9.19,0,0,1,5.629,5.64,9.192,9.192,0,0,1-.056,4.46q-.852,2.143-2.164,2.293c-.887.1-.915-.013-.765-3.052a7.717,7.717,0,0,0-.608-4.315c-.966-1.907-3.211-2.934-6.151-2.814a6.982,6.982,0,0,0-2.453.431A9.215,9.215,0,0,0,43.73,51.2a5.207,5.207,0,0,0-.307,2.242,23.274,23.274,0,0,0,.72,5.442c1.368,4.764,5,7.462,11.1,8.238a17.1,17.1,0,0,0,3.488-.245Zm27.662,9.573c0-.068-.083-.123-.185-.123s-.185.056-.185.123.083.123.185.123S86.391,76.517,86.391,76.449Zm2.3-3.421c-.125-.125-.229.063-.126.23.078.126.107.126.149,0A.253.253,0,0,0,88.686,73.028ZM32.973,71.272c0-.165-.059-.22-.185-.172-.2.076-.236.2-.1.332C32.841,71.588,32.973,71.514,32.973,71.272Zm-.74-.744c0-.068-.083-.123-.185-.123s-.185.056-.185.123.083.123.185.123S32.233,70.6,32.233,70.528ZM27.792,67.5c0-.106-.056-.157-.125-.115a.142.142,0,0,0-.054.192C27.718,67.746,27.792,67.715,27.792,67.5Zm.555-.548a.27.27,0,0,0-.2-.123c-.068,0-.089.056-.047.123a.27.27,0,0,0,.2.123C28.368,67.073,28.389,67.018,28.347,66.95Zm-.555-.617a.123.123,0,1,0-.123.123A.124.124,0,0,0,27.792,66.333Zm-5.428-4.811c0-.137-.082-.247-.185-.247-.336,0-.219.366.154.484C22.35,61.764,22.364,61.658,22.364,61.522Zm-6-6.482c-.04-.1-.1-.164-.132-.132s-.022.118.022.19C16.373,55.3,16.445,55.257,16.361,55.04ZM12,50.658c0-.072-.056-.1-.123-.054s-.123.1-.123.131.056.054.123.054A.127.127,0,0,0,12,50.658Zm-1.48-.671c0-.1-.056-.185-.123-.185s-.123.083-.123.185.056.185.123.185S10.52,50.089,10.52,49.987ZM12,14.766a.123.123,0,1,0-.123.123A.124.124,0,0,0,12,14.766Zm2.591-1.974c.15-.1.132-.12-.093-.122-.153,0-.278.054-.278.122C14.221,12.947,14.352,12.947,14.591,12.792Zm78.955-.61c0-.146-.241-.3-.329-.213s.067.329.213.329A.116.116,0,0,0,93.546,12.182ZM90.956,9.214a.123.123,0,1,0-.123.123A.124.124,0,0,0,90.956,9.214ZM10.089,8.351c-.042-.068-.1-.123-.131-.123s-.054.056-.054.123a.128.128,0,0,0,.131.123C10.106,8.474,10.131,8.419,10.089,8.351Z" transform="translate(0 0)" fill="#b54b1b"/>
    <path id="path2995" d="M12.124,126.655a8.81,8.81,0,0,1-2.251-.662c-.254-.111-.463-.163-.463-.116s-.125-.029-.278-.168a3.093,3.093,0,0,0-.541-.389,11.587,11.587,0,0,1-2.759-2.729,1.278,1.278,0,0,0-.241-.4,8.1,8.1,0,0,1-1.006-2.6c-.227-.937-.233-2.393-.233-52.874,0-50.684.006-51.932.236-52.831a11.241,11.241,0,0,1,1.481-3.238c.091-.109.128-.2.083-.2a3.576,3.576,0,0,1,.633-.719,11.006,11.006,0,0,1,2.713-2,2.426,2.426,0,0,0,.667-.253,8.741,8.741,0,0,1,1.621-.493c1.1-.235,1.916-.24,37.976-.24,36.366,0,36.867,0,38.067.247,1.151.234,3.5,1.211,3.5,1.457,0,.051.18.2.4.33A7.757,7.757,0,0,1,93.5,10.65a17.468,17.468,0,0,1,1.379,2.73c.389,1.195.4,3.5.366,54.619l-.038,51.2-.416,1.172a7.843,7.843,0,0,1-.586,1.367.709.709,0,0,0-.17.279,5.585,5.585,0,0,1-.5.818,6.8,6.8,0,0,1-1.86,1.921c-.126.04-.229.115-.229.167a4.482,4.482,0,0,1-1.328.876,3.707,3.707,0,0,0-.7.255c-1.608.711,1.576.656-39.24.679-20.559.011-37.685-.022-38.059-.075Zm75.951-.4a8.99,8.99,0,0,0,6.589-6.588c.236-.922.24-1.837.24-52.91,0-56.737.052-52.6-.687-54.277a9.1,9.1,0,0,0-6.162-5.194c-.806-.2-3.238-.217-37.5-.256-24.208-.028-37.038,0-37.812.083a8.5,8.5,0,0,0-5.3,2.434A8.381,8.381,0,0,0,4.728,14.7c-.109.651-.135,13.575-.106,52.616l.038,51.752L4.95,120a9.079,9.079,0,0,0,4.768,5.557,7.67,7.67,0,0,0,3.085.859c.543.05,17.531.081,37.75.068,34-.022,36.82-.039,37.522-.231ZM33.762,106a8.014,8.014,0,0,1-5.954-4.963,10.923,10.923,0,0,1-.39-4.361,7.238,7.238,0,0,1,2.012-4.36,8.61,8.61,0,0,1,5.264-2.678A7.684,7.684,0,0,1,41.611,92.2a10.331,10.331,0,0,1,1.847,2.557,7.5,7.5,0,0,1-1.573.973c-.865.458-1.933,1.031-2.374,1.274-.752.414-1.819.99-3.7,2-.441.237-1.163.633-1.6.881-1.234.693-1.449.786-1.646.71A7.224,7.224,0,0,1,31.3,98.3a5.839,5.839,0,0,1,.965-.6c1.62-.884,5.075-2.846,5.8-3.294.688-.424.707-.45.526-.708-.848-1.211-3.331-1.513-5.193-.632a5.554,5.554,0,0,0-2.661,3.806,7.054,7.054,0,0,0,.243,3.3,4.821,4.821,0,0,0,5.2,3.017c1.528-.09,2.2-.331,2.834-1.021A9.027,9.027,0,0,0,40.552,99.1c.11-.379.268-.694.351-.7a13.654,13.654,0,0,1,2.725.159c.209.112.228.229.169,1.069a6.218,6.218,0,0,1-2,4.155,7.627,7.627,0,0,1-4.133,2.242,14.535,14.535,0,0,1-3.9-.017Zm43.192-.188a7.564,7.564,0,0,1-5.356-4.562,11.33,11.33,0,0,1-.622-3.586,8,8,0,0,1,4.075-7.2,8.445,8.445,0,0,1,3.731-.892c2.9-.169,5.231.615,6.764,2.274a8.709,8.709,0,0,1,1.183,1.653c.737,1.487.779,1.89.743,7.273l-.032,4.848H84.232l-.062-5c-.059-4.81-.072-5.018-.331-5.58-.826-1.788-2.016-2.448-4.449-2.468a3.769,3.769,0,0,0-2.114.341,5.114,5.114,0,0,0-3.194,5.289,4.54,4.54,0,0,0,.406,1.9,5.165,5.165,0,0,0,3.453,2.679,4.558,4.558,0,0,0,4.5-1.168c.9-.812.864-.86.864,1.216V104.7l-.471.311a6.132,6.132,0,0,1-3.654.868,15.1,15.1,0,0,1-2.229-.06ZM10.6,105.6a7.442,7.442,0,0,1-.082-1.478v-1.4l.329-.082c.181-.045,2.134-.051,4.34-.012,3.364.059,4.085.041,4.466-.112a1.083,1.083,0,0,0,.48-1.723c-.34-.551-1.348-1.026-3.508-1.655a13.754,13.754,0,0,1-4.286-1.723,3.124,3.124,0,0,1-1.289-1.317,4.763,4.763,0,0,1-.357-3.376,2.64,2.64,0,0,1,1.591-2.1c1.321-.617,2.359-.752,6.5-.846,2.069-.047,3.834-.062,3.921-.033.119.039.15.381.123,1.363L22.8,92.425l-3.763.07c-3.736.07-4.25.127-4.888.545-.234.153-.293.3-.293.727,0,.945.829,1.519,3.022,2.094,3.289.861,5.538,2.07,6.186,3.323a5.28,5.28,0,0,1,0,4.627,4.028,4.028,0,0,1-1.556,1.324c-.987.505-1.489.55-6.24.551-2.516,0-4.612-.036-4.657-.081Zm38.49,0c-.138-.138-.094-17.658.047-18.546A4.533,4.533,0,0,1,51.223,83.8c1.006-.677,1.953-.91,4.079-1.006l1.851-.083v2.957l-1.411.076c-1.84.1-2.571.335-3.043.986a3.658,3.658,0,0,0-.489.98,6.172,6.172,0,0,0-.054,2.19,9.861,9.861,0,0,0,2.29.124H56.66V92.98H54.446a10.949,10.949,0,0,0-2.287.119c-.04.065-.07,2.786-.067,6.046s-.028,6.065-.071,6.234c-.077.305-.089.308-1.462.308a7.339,7.339,0,0,1-1.467-.082Zm12.7-.019c-.087-.14-.115-15.691-.029-15.777a10.222,10.222,0,0,1,2.206-.05l.71.014L64.648,97.7l-.032,7.926-1.378.035a5.215,5.215,0,0,1-1.446-.074Zm.316-17.252c-.178-.038-.263-.125-.223-.228s.636-1.031,1.336-2.087L64.493,84.1h1.566a6.524,6.524,0,0,1,1.635.112,7.881,7.881,0,0,1-1.255,1.511l-1.9,2.009c-.563.6-.592.611-1.36.637a6.474,6.474,0,0,1-1.071-.034ZM39.532,76.791c-.719-.7-2.405-2.347-3.748-3.666s-2.5-2.436-2.575-2.482-1-.938-2.066-1.983-3.79-3.7-6.061-5.907l-6.287-6.1c-2.275-2.211-5.182-5.028-7.2-6.977L10.39,48.507l0-14.26c0-13.954.01-14.281.256-15.222A7.674,7.674,0,0,1,16.445,13.4c.954-.237,1.544-.241,33.145-.207,30.669.033,32.209.045,32.914.259a8.111,8.111,0,0,1,5.484,5.941c.1.543.131,7.587.1,26.645l-.037,25.907-.452,1.078A7.828,7.828,0,0,1,83.924,77.1c-1.909.957.085.876-22.684.917l-20.4.037Zm19.2-9.915c4.581-.816,9.742-4.352,13.344-9.143,1.837-2.443,2.609-4.33,3.451-8.431a19.508,19.508,0,0,0-.438-10.262c-1.6-4.452-5.211-8.175-10.654-10.984a37.718,37.718,0,0,0-10.548-3.687,32.639,32.639,0,0,0-8.3-.068C37.774,25.634,30.361,30.372,24.7,37.65c-2.256,2.9-4.3,6.661-4.021,7.393.1.271.431.246,2.121-.165a22.242,22.242,0,0,1,4.5-.754,36.671,36.671,0,0,1,13.131,2.1,10.033,10.033,0,0,0,1.938.5c.387,0,.813-.235,2.573-1.42a14.855,14.855,0,0,1,4.471-2.422,9.3,9.3,0,0,1,6.629.3,9.19,9.19,0,0,1,5.629,5.64,9.192,9.192,0,0,1-.056,4.46q-.852,2.143-2.164,2.293c-.887.1-.915-.013-.765-3.052a7.717,7.717,0,0,0-.608-4.315c-.966-1.907-3.211-2.934-6.151-2.814a6.982,6.982,0,0,0-2.453.431A9.215,9.215,0,0,0,43.73,51.2a5.207,5.207,0,0,0-.307,2.242,23.274,23.274,0,0,0,.72,5.442c1.368,4.764,5,7.462,11.1,8.238A17.1,17.1,0,0,0,58.729,66.876Z" transform="translate(0 0)" fill="#734532"/>
    <path id="path2993" d="M12.715,126.652a8.828,8.828,0,0,1-1.727-.3c-.3-.11-.8-.29-1.106-.4a3.582,3.582,0,0,1-.9-.486,1.4,1.4,0,0,0-.463-.289.761.761,0,0,1-.336-.216c-.122-.119-.442-.41-.711-.648a9.012,9.012,0,0,1-2.885-5.181c-.108-.511-.134-13.506-.1-52.8l.038-52.123.273-.772A12.488,12.488,0,0,1,6.17,10.646c.091-.109.132-.2.091-.2A12.546,12.546,0,0,1,8.394,8.473c.309-.2.629-.419.709-.488a13.32,13.32,0,0,1,3.315-1.1c.543-.1,10.774-.139,37.464-.139,36.416,0,36.726,0,37.989.251a9.519,9.519,0,0,1,2.415.8,5.378,5.378,0,0,1,1.142.648c0,.053.179.2.4.331a3.332,3.332,0,0,1,.709.605c.172.2.405.458.52.564a10.908,10.908,0,0,1,2,3.916c.181.809.2,5.54.2,53.088v52.2l-.394,1.189a9.51,9.51,0,0,1-1.048,2.181c-.36.546-.668,1.02-.685,1.054-.035.067-1.2,1.1-1.469,1.3l-.613.457c-.246.184-.482.3-.524.257s-.077-.012-.077.067a.166.166,0,0,1-.181.144,2.49,2.49,0,0,0-.648.2,7.734,7.734,0,0,1-1.577.556c-.489.124-8.214.16-37.38.176-20.22.011-37.293-.024-37.939-.078Zm75.751-.382a9.333,9.333,0,0,0,4.02-2.377,9.48,9.48,0,0,0,2.32-3.833l.259-.74L95.1,67.258c.031-46.526.014-52.162-.156-53.01a9.252,9.252,0,0,0-6.415-6.963c-.716-.222-2.009-.23-38.676-.23H11.917l-.987.336A8.706,8.706,0,0,0,7.288,9.706a8.707,8.707,0,0,0-2.365,4.018l-.284.98V66.642c0,49.918.009,51.975.226,52.9a9.215,9.215,0,0,0,6.929,6.811c.608.134,7.488.16,38.429.141,34.548-.021,37.735-.04,38.244-.225Zm-54.9-20.4a7.988,7.988,0,0,1-5.635-5.057,6.276,6.276,0,0,1-.339-2.714,7.667,7.667,0,0,1,.753-3.939,8.728,8.728,0,0,1,3.929-3.729,8.28,8.28,0,0,1,7.536.263c1.171.677,3.761,3.6,3.588,4.052-.056.146-10.687,5.943-10.748,5.861a24.708,24.708,0,0,1-1.183-2.18c0-.09,5.924-3.526,7.248-4.2.376-.192.35-.355-.123-.781a3.36,3.36,0,0,0-2.511-.931,4.578,4.578,0,0,0-4.855,2.947,6.225,6.225,0,0,0-.306,4.553,6.6,6.6,0,0,0,1.754,2.387,6.4,6.4,0,0,0,5.8.4c.87-.441,1.68-1.757,2.248-3.654l.2-.679,1.348.044a5.747,5.747,0,0,1,1.472.161,1.693,1.693,0,0,1,.1.8,7.335,7.335,0,0,1-5.075,6.191,7.6,7.6,0,0,1-2.673.35,11.153,11.153,0,0,1-2.529-.141Zm43.549-.146a7.066,7.066,0,0,1-4.249-2.629,8.348,8.348,0,0,1-1.639-5.852,7.315,7.315,0,0,1,1.107-3.956,7.16,7.16,0,0,1,4.42-3.358,16.043,16.043,0,0,1,5.419,0A7.149,7.149,0,0,1,87.291,94.9c.155.593.189,1.63.189,5.7v4.97H84.408l-.037-4.972-.037-4.972-.425-.837a3.762,3.762,0,0,0-2.094-1.951,5.276,5.276,0,0,0-2.292-.279c-1.579,0-1.617,0-2.467.417a5.684,5.684,0,0,0-2.486,2.421,6.245,6.245,0,0,0-.157,4.558,5.427,5.427,0,0,0,4.152,3.038,4.358,4.358,0,0,0,3.894-1.179,2.706,2.706,0,0,1,.874-.6,9.855,9.855,0,0,1,.077,1.66c0,1.444-.023,1.606-.259,1.842a5.215,5.215,0,0,1-2.292.979A21.534,21.534,0,0,1,77.117,105.725Zm-66.372-1.586V102.7l4.41.037c3.935.034,4.452.015,4.8-.169.439-.235.539-.427.539-1.034,0-1-.758-1.558-3.084-2.267-.712-.217-1.823-.558-2.467-.758-2.194-.679-3.632-1.81-4.026-3.166a5.344,5.344,0,0,1,.253-3.4c.778-1.591,2.339-1.991,8.184-2.1l3.485-.064v2.582H19.76c-4.159,0-5.45.2-5.817.883a1.7,1.7,0,0,0,.2,1.462,6.887,6.887,0,0,0,2.5,1.125c2.682.734,4.916,1.716,5.752,2.528a3.788,3.788,0,0,1,1.158,2.842c.1,2.022-.451,3.047-2.043,3.835l-.941.465-4.911.036-4.911.036v-1.435ZM49.237,96.4c0-9.7,0-9.755.584-10.888a6.417,6.417,0,0,1,2.12-2.03,8.483,8.483,0,0,1,3.745-.619l1.577,0-.035,1.388-.035,1.388-1.48.067c-1.681.076-2.378.256-2.833.73a4.169,4.169,0,0,0-.807,2.723v1l2.226-.022a18.237,18.237,0,0,1,2.3.054,7.025,7.025,0,0,1,.1,1.372l.022,1.3h-4.65v12.707H49.236V96.4Zm12.612,1.3.032-7.869h2.837V105.5l-1.45.035-1.451.035Zm.418-9.935c.18-.288.776-1.19,1.323-2s1.006-1.5,1.019-1.52a25.8,25.8,0,0,1,3.087.016,9.187,9.187,0,0,1-1.1,1.273c-.633.67-1.477,1.565-1.875,1.989L64,88.293H61.94l.328-.524ZM39.12,76.175c-2.39-2.339-5.364-5.232-8.142-7.922-1.255-1.215-3.143-3.048-4.194-4.071-2.833-2.758-9.489-9.216-13.11-12.722l-3.179-3.077.038-14.311c.042-15.972-.024-14.773.917-16.646a8.73,8.73,0,0,1,3.335-3.31c1.824-.906-.967-.841,35.006-.8l32.322.034.832.324a8.266,8.266,0,0,1,2.937,1.872,7.729,7.729,0,0,1,1.928,3.11l.348.986V45.484c0,24.7-.01,25.881-.226,26.647a8.079,8.079,0,0,1-4.462,5.155c-1.5.666-.607.64-22.391.64H40.909l-1.789-1.75Zm20.109-9.338c5.747-1.3,12.15-6.547,14.888-12.211a26.677,26.677,0,0,0,1.974-9.265,15.938,15.938,0,0,0-4.135-11.8C68.322,29.392,61,25.635,53.924,24.307a22.313,22.313,0,0,0-4.194-.223,19.823,19.823,0,0,0-6.149.625C36.031,26.465,28.357,32.162,23.2,39.836a17.381,17.381,0,0,0-2.432,4.826l-.065.575h.434a17.459,17.459,0,0,0,2.206-.424,21.075,21.075,0,0,1,6.46-.651,33.7,33.7,0,0,1,6.982,1.012c1.373.343,1.525.387,4.031,1.178,1.5.474,1.67.5,2.031.353.217-.09,1.245-.735,2.284-1.433,2.736-1.839,4.1-2.469,5.978-2.762a10.6,10.6,0,0,1,9.79,4.468,7.567,7.567,0,0,1,.678,6.538A2.909,2.909,0,0,1,59.3,55.6c-.529,0-.58-.294-.493-2.869.086-2.539-.03-3.486-.55-4.5-.927-1.812-3.124-2.912-5.812-2.909a9.054,9.054,0,0,0-6.6,2.819,6.859,6.859,0,0,0-2.352,5.922c.258,4.371,1.2,7.149,3.1,9.176,1.94,2.062,4.4,3.229,8.2,3.892a20.638,20.638,0,0,0,4.441-.29Z" transform="translate(-0.102 0)" fill="#4d2b1f"/>
    <path id="path2991" d="M32.095,126.792c9.991-.018,26.34-.018,36.332,0s1.817.032-18.166.032S22.1,126.809,32.095,126.792Zm-19.739-.113a.477.477,0,0,1,.308,0c.085.034.015.062-.154.062S12.272,126.713,12.356,126.679Zm75.071.007a.248.248,0,0,1,.236-.01c.1.039.069.069-.075.075s-.2-.024-.162-.065Zm-76.257-.19c-.228-.066-.391-.143-.361-.172a1.6,1.6,0,0,1,.6.118C12.023,126.634,11.815,126.681,11.171,126.5Zm77.457-.029c0-.026.111-.076.247-.112s.216-.014.178.047C88.986,126.51,88.628,126.564,88.628,126.467Zm.954-.338c.084-.084.183-.122.221-.084s-.03.107-.152.153c-.176.067-.19.053-.069-.069Zm-79.539-.074-.48-.179c-.162-.06-.267-.136-.234-.17a1.4,1.4,0,0,1,.6.18C10.421,126.1,10.5,126.228,10.043,126.055Zm80.189-.206c0-.027.083-.08.185-.119s.185-.017.185.048-.083.12-.185.12S90.232,125.875,90.232,125.849Zm.495-.169a2.5,2.5,0,0,1,.922-.624c.02.022-.18.192-.443.378S90.726,125.73,90.727,125.68Zm-82.308-.509a3.51,3.51,0,0,0-.577-.555c-.295-.245-.489-.443-.432-.441.169.008,1.352,1.1,1.194,1.1A.2.2,0,0,1,8.419,125.171Zm83.417-.279.854-.789c.436-.4.749-.66.7-.57a8.543,8.543,0,0,1-1.409,1.3C91.865,124.9,91.8,124.922,91.835,124.891ZM6.846,123.63l-.3-.385.353.336c.194.185.328.358.3.385s-.189-.124-.353-.336Zm-.528-.662c-.235-.274-.379-.524-.3-.524a1.428,1.428,0,0,1,.324.37C6.63,123.217,6.615,123.313,6.318,122.967Zm-.6-.836c-.086-.1-.132-.212-.1-.241s.121.055.2.188C6,122.365,5.943,122.4,5.723,122.132Zm88.721-.474c.087-.194.181-.286.208-.2a.438.438,0,0,1-.158.353C94.3,122,94.3,121.989,94.444,121.658Zm-89.068-.269a1.463,1.463,0,0,1-.139-.463c0-.082.087.04.187.271C5.634,121.683,5.59,121.86,5.375,121.389Zm89.3-.241a.74.74,0,0,1,.12-.308c.066-.1.12-.13.12-.062a.742.742,0,0,1-.12.308C94.73,121.188,94.677,121.215,94.677,121.148Zm-89.682-.853c-.005-.13.024-.2.065-.162a.248.248,0,0,1,.01.236C5.03,120.467,5,120.438,4.995,120.294Zm-.123-.493c-.005-.13.024-.2.065-.162a.248.248,0,0,1,.01.236C4.907,119.974,4.877,119.945,4.872,119.8Zm90.322-.134a3.285,3.285,0,0,1,.1-.617c.085-.332.094-.339.1-.062a2.379,2.379,0,0,1-.1.617C95.212,119.847,95.191,119.861,95.193,119.667Zm-90.538-1.48c0-.475.021-.684.048-.465a4.6,4.6,0,0,1,0,.864C4.678,118.841,4.656,118.662,4.656,118.187Zm30.109-12.166a7.741,7.741,0,0,1-6.773-5.888,11.2,11.2,0,0,1,.187-4.768,6.511,6.511,0,0,1,1.044-2.111c.094-.094.271-.3.4-.452a11.436,11.436,0,0,1,2.768-2.132,8.371,8.371,0,0,1,3.734-.795c2.621,0,4.829,1.265,6.665,3.817.712.99.723,1.017.493,1.237a11.509,11.509,0,0,1-1.468.882l-2.1,1.118-1.419.754c-.305.162-1.011.553-1.569.869a11.461,11.461,0,0,1-1.087.575,12.155,12.155,0,0,0-1.128.623c-1.559.921-1.608.919-2.174-.084a3.061,3.061,0,0,1-.432-1.077c.035-.239,1.036-.879,2.874-1.838.407-.212.884-.484,1.06-.6s.676-.4,1.11-.634c1.473-.778,2.333-1.332,2.333-1.5,0-.2-.867-.928-1.48-1.239a6.709,6.709,0,0,0-3.38-.141c-1.985.523-3.491,2.616-3.723,5.175a5.469,5.469,0,0,0,2.655,5.144,6.483,6.483,0,0,0,5.778-.238,3.474,3.474,0,0,0,1.064-1.514,18.287,18.287,0,0,0,.755-1.782,1.449,1.449,0,0,1,.4-.714,8.24,8.24,0,0,1,2.391.192c.215.133.174,1.268-.075,2.107a7.734,7.734,0,0,1-2.657,3.577,7,7,0,0,1-3.763,1.405l-1.3.1a7.8,7.8,0,0,1-1.186-.057Zm41.612-.535a7.68,7.68,0,0,1-4.667-5.187,15.565,15.565,0,0,1-.05-4.648,8.224,8.224,0,0,1,3-4.5,8.963,8.963,0,0,1,5.615-1.242,7.9,7.9,0,0,1,3.611.82,7.439,7.439,0,0,1,3.362,3.953c.262.775.271.972.27,5.829v5.027H84.7l-.038-4.9c-.037-4.774-.046-4.92-.314-5.5a4.524,4.524,0,0,0-2.109-2.208c-.8-.391-.866-.4-2.426-.4-2.178,0-2.806.236-4.123,1.548a3.5,3.5,0,0,0-1.243,1.9,5.248,5.248,0,0,0,4.942,7.287,4.423,4.423,0,0,0,3.182-1.174c.352-.278.695-.473.761-.432a10.542,10.542,0,0,1,.041,2.872c-.086.322-.854.753-1.886,1.06a8.948,8.948,0,0,1-2.467.189,7,7,0,0,1-2.638-.293Zm-61.923.086-3.423-.034-.015-.985c-.008-.542-.026-1.054-.038-1.139-.069-.46.1-.477,4.485-.45,3.684.022,4.318,0,4.643-.169a1.405,1.405,0,0,0,.31-2.157,2.359,2.359,0,0,0-1.326-.871c-.53-.2-1.408-.493-1.951-.643-3.127-.861-4.538-1.542-5.371-2.595a3.606,3.606,0,0,1-.735-2.472c0-1.658.544-2.7,1.684-3.212,1.231-.557,2.724-.731,6.52-.759l3.578-.027.069.925a3.938,3.938,0,0,1-.027,1.126c-.085.177-.522.208-3.585.263-4.72.084-5.325.261-5.325,1.557,0,.675.135.9.786,1.305A12.992,12.992,0,0,0,17.692,96.3a19.766,19.766,0,0,1,3.948,1.593,4.149,4.149,0,0,1,1.947,4.376c-.273,2.123-1.741,3.2-4.476,3.3C18.432,105.587,16.336,105.591,14.453,105.572Zm35.1-9.437c.041-10.879-.046-10.1,1.263-11.386,1.281-1.262,2.317-1.634,4.631-1.663.78-.01,1.516-.013,1.635-.007.189.009.216.15.214,1.152a5.565,5.565,0,0,1-.093,1.278,4.571,4.571,0,0,1-1.509.2,4.942,4.942,0,0,0-2.1.369,1.612,1.612,0,0,0-1.026,1,4.011,4.011,0,0,0-.419,1.8c-.053.812-.029,1.161.087,1.3.134.161.485.186,2.264.158l2.105-.033.107.493a3.389,3.389,0,0,1-.166,2.048,11.448,11.448,0,0,1-2.153.089A13.571,13.571,0,0,0,52.263,93c-.116.072-.151,1.53-.151,6.316v6.223h-2.6l.035-9.407Zm12.614,9.257c-.033-.087-.046-3.573-.028-7.746l.032-7.587h2.591V105.48l-1.267.035C62.545,105.541,62.207,105.51,62.162,105.392Zm.375-17.242a24.344,24.344,0,0,1,2.243-3.561c.246-.246,2.752-.344,2.752-.108a2.761,2.761,0,0,1-.586.772c-.322.339-1.092,1.157-1.711,1.817l-1.125,1.2h-.749A1.763,1.763,0,0,1,62.538,88.15ZM39.123,75.965c-1.095-1.069-3.1-3.035-4.463-4.37s-2.591-2.53-2.737-2.655-1.755-1.677-3.578-3.448-3.785-3.676-4.362-4.233c-1.187-1.146-6.679-6.48-10.105-9.813-1.255-1.221-2.467-2.413-2.692-2.649l-.409-.428.034-14.314.034-14.314.347-.983a11,11,0,0,1,.777-1.692,9.285,9.285,0,0,1,3-2.736c1.7-.886-1.172-.818,34.552-.818,29.055,0,32.255.019,32.96.2a9.124,9.124,0,0,1,2.7,1.3,2.715,2.715,0,0,0,.384.308A11.256,11.256,0,0,1,87.454,17.7a9.8,9.8,0,0,1,.527,1.328c.2.664.217,2.423.248,26.276.038,28.481.1,26.486-.824,28.347a9.244,9.244,0,0,1-1.142,1.718,8.891,8.891,0,0,1-2.921,2.051c-1.655.494-.967.478-22.018.483l-20.21,0ZM59.2,67.007a19.578,19.578,0,0,0,5.86-2.391,34.565,34.565,0,0,0,2.961-2.122c.034-.038.485-.443,1-.9a23.49,23.49,0,0,0,5.835-8.132c.24-.706.844-3.243,1.141-4.793a28.563,28.563,0,0,0,0-7.4Q73.866,31.346,60.562,26.24A26.82,26.82,0,0,0,49.767,24.1a25.566,25.566,0,0,0-9.98,1.93c-.586.214-2.936,1.371-3.837,1.889a50.183,50.183,0,0,0-4.194,2.866,54.869,54.869,0,0,0-6.863,6.966c-2.276,3.008-3.851,5.774-3.965,6.96l-.06.627h.462a18.115,18.115,0,0,0,2.291-.43,23.607,23.607,0,0,1,10.6-.174,53.313,53.313,0,0,1,7.272,1.9,2.822,2.822,0,0,0,1.329.244,16.791,16.791,0,0,0,2.536-1.5c1.169-.783,2.514-1.609,2.989-1.835a9.3,9.3,0,0,1,7.228-.487c3.274,1.114,5.614,3.362,6.352,6.1.643,2.392-.136,5.409-1.614,6.248-.586.332-.96.362-1.226.1-.17-.17-.185-.5-.115-2.622.09-2.759-.005-3.49-.606-4.627-1.327-2.512-4.994-3.556-8.518-2.426-3.429,1.1-6.005,4.014-6.217,7.032a25.841,25.841,0,0,0,.405,4.893c.863,4.512,3.426,7.33,7.991,8.789a11.894,11.894,0,0,0,4.708.7,17.371,17.371,0,0,0,2.467-.237ZM4.652,15.484c0-.373.023-.526.051-.339a2.727,2.727,0,0,1,0,.679C4.675,16.01,4.652,15.857,4.652,15.484Zm.106-1.11c0-.17.028-.239.062-.154a.477.477,0,0,1,0,.308C4.786,14.613,4.758,14.543,4.758,14.374ZM95.176,14.2c-.005-.13.024-.2.065-.162a.248.248,0,0,1,.01.236c-.039.1-.069.069-.074-.075Zm-.247-.987c-.005-.13.024-.2.065-.162a.248.248,0,0,1,.01.236c-.039.1-.069.069-.074-.075Zm-89.574-.8a.263.263,0,0,1,.122-.191c.07-.043.091.006.048.116C5.444,12.545,5.355,12.585,5.355,12.407Zm.37-.712a.543.543,0,0,1,.216-.3c.2-.157.2-.151.035.077-.1.136-.2.27-.216.3S5.725,11.766,5.725,11.7Zm87.965-.876a3.658,3.658,0,0,0-.483-.609c-.1-.086-.124-.154-.047-.154a3.323,3.323,0,0,1,.868,1.179C94.007,11.257,93.855,11.07,93.69,10.819ZM6.1,11.078a.543.543,0,0,1,.216-.3c.2-.157.2-.151.035.077-.1.136-.2.27-.216.3S6.1,11.149,6.1,11.078Zm.393-.683c.09-.085.274-.236.41-.336.181-.133.167-.092-.053.154a1.135,1.135,0,0,1-.41.336C6.374,10.549,6.4,10.48,6.488,10.4ZM92.329,9.3c-.429-.392-.542-.542-.308-.406.3.177,1.177,1.051,1.03,1.032C93.027,9.924,92.7,9.642,92.329,9.3Zm-85,.315c0-.079.169-.243.621-.605.174-.14.122-.047-.121.216C7.4,9.689,7.329,9.745,7.329,9.615Zm1.11-.978c.085-.1.181-.185.215-.185s-.008.083-.092.185-.181.185-.215.185S8.355,8.739,8.439,8.637Zm82.905-.12c-.1-.117-.107-.188-.025-.188.149,0,.323.234.237.32C91.526,8.679,91.43,8.62,91.344,8.517Zm-.989-.558c-.373-.2-.635-.361-.582-.364a5.526,5.526,0,0,1,1.322.675C91.1,8.351,91.112,8.359,90.355,7.959ZM9.583,7.884a.248.248,0,0,1,.236-.01c.1.039.069.069-.075.075S9.542,7.925,9.583,7.884Zm79.662-.419c-.1-.066-.13-.12-.062-.12a.743.743,0,0,1,.308.12c.1.066.129.12.062.12A.741.741,0,0,1,89.245,7.465ZM10.817,7.391a.248.248,0,0,1,.236-.01c.1.039.069.069-.075.075S10.776,7.432,10.817,7.391Zm77.844-.123a.248.248,0,0,1,.236-.01c.1.039.069.069-.075.075S88.62,7.308,88.661,7.267ZM12.544,7.02a.248.248,0,0,1,.236-.01c.1.039.069.069-.075.075S12.5,7.061,12.544,7.02Zm74.82-.007a.475.475,0,0,1,.308,0c.085.034.015.062-.154.062S87.279,7.047,87.363,7.013ZM13.1,6.89a.475.475,0,0,1,.308,0c.085.034.015.062-.154.062S13.012,6.924,13.1,6.89Zm73.157-.005a1.76,1.76,0,0,1,.555,0c.153.029.028.054-.278.054S86.1,6.914,86.253,6.885Z" transform="translate(-0.263 -0.101)" fill="#082334"/>
  </g>
</svg>
