<svg xmlns="http://www.w3.org/2000/svg" width="34" height="34" viewBox="0 0 34 34">
  <defs>
    <style>
      .cls-1 {
        fill: #fff;
        stroke: #fff;
      }

      .cls-2 {
        fill: #1da1f2;
      }

      .cls-3 {
        stroke: none;
      }

      .cls-4 {
        fill: none;
      }
    </style>
  </defs>
  <g id="Grupo_3705" data-name="Grupo 3705" transform="translate(4685 5792)">
    <g id="Elipse_144" data-name="Elipse 144" class="cls-1" transform="translate(-4685 -5792)">
      <circle class="cls-3" cx="17" cy="17" r="17"/>
      <circle class="cls-4" cx="17" cy="17" r="16.5"/>
    </g>
    <path id="_013-twitter" data-name="013-twitter" class="cls-2" d="M16,0A16,16,0,1,0,32,16,16,16,0,0,0,16,0Zm7.305,12.475q.011.236.01.475A10.378,10.378,0,0,1,12.867,23.4h0a10.4,10.4,0,0,1-5.629-1.65,7.469,7.469,0,0,0,.876.051,7.369,7.369,0,0,0,4.561-1.572,3.677,3.677,0,0,1-3.431-2.551,3.66,3.66,0,0,0,1.659-.063,3.673,3.673,0,0,1-2.946-3.6c0-.017,0-.031,0-.047a3.647,3.647,0,0,0,1.663.459,3.676,3.676,0,0,1-1.137-4.9,10.427,10.427,0,0,0,7.57,3.837,3.674,3.674,0,0,1,6.258-3.349,7.366,7.366,0,0,0,2.332-.891,3.687,3.687,0,0,1-1.615,2.031,7.324,7.324,0,0,0,2.109-.578,7.463,7.463,0,0,1-1.832,1.9Zm0,0" transform="translate(-4684 -5791)"/>
  </g>
</svg>
