<svg xmlns="http://www.w3.org/2000/svg" width="88" height="88" viewBox="0 0 88 88">
  <path id="goal" d="M81.539,21.044l4.268-4.267A2.578,2.578,0,0,0,84.2,12.385l-7.918-.668L75.615,3.8a2.578,2.578,0,0,0-4.392-1.606L66.955,6.461A44,44,0,0,0,12.886,75.113,44,44,0,0,0,81.539,21.044ZM71.327,14.32a2.579,2.579,0,0,0,2.353,2.353l4.555.384-6.166,6.166-6.725-.567-.567-6.725,6.166-6.166ZM52.765,44A8.774,8.774,0,1,1,48.1,36.255l-5.922,5.922a2.578,2.578,0,1,0,3.646,3.646L51.744,39.9A8.706,8.706,0,0,1,52.765,44Zm-.919-11.493a13.937,13.937,0,1,0,3.646,3.646l7.361-7.361a24.263,24.263,0,1,1-3.646-3.646Zm19.62,38.959A38.843,38.843,0,1,1,16.533,16.534a38.861,38.861,0,0,1,46.66-6.311l-2.908,2.908a2.578,2.578,0,0,0-.755,1.757c0,.094,0,.188.008.283l.347,4.114a29.414,29.414,0,1,0,8.83,8.83l4.114.347c.073.005.145.009.217.009l.037,0c.034,0,.068,0,.1,0,.056,0,.112-.007.167-.013l.1-.015c.054-.009.108-.019.162-.031l.1-.026c.052-.014.1-.03.156-.048l.1-.036c.05-.019.1-.041.15-.064.032-.014.063-.028.095-.044.05-.026.1-.054.146-.082l.086-.051c.051-.034.1-.07.149-.107.023-.017.046-.033.068-.051a2.556,2.556,0,0,0,.2-.181l2.908-2.908a38.861,38.861,0,0,1-6.311,46.66Zm0,0" transform="translate(0.001 0)" fill="#fff"/>
</svg>
