<svg xmlns="http://www.w3.org/2000/svg" width="39" height="47.124" viewBox="0 0 39 47.124">
  <g id="award" transform="translate(-39.995)">
    <g id="Grupo_1573" data-name="Grupo 1573" transform="translate(39.995)">
      <g id="Grupo_1572" data-name="Grupo 1572">
        <path id="Trazado_2340" data-name="Trazado 2340" d="M78.824,40.938,73.88,34.582a7.156,7.156,0,0,0,3.911-2.9c1.164-2.013.638-4.469.128-6.841a18.686,18.686,0,0,1-.55-3.721,18.68,18.68,0,0,1,.55-3.724c.506-2.374,1.036-4.829-.128-6.838-1.206-2.083-3.633-2.854-5.981-3.6a17.4,17.4,0,0,1-3.377-1.323,16.506,16.506,0,0,1-2.706-2.194C63.984,1.831,62.009,0,59.5,0s-4.489,1.831-6.232,3.447a16.51,16.51,0,0,1-2.706,2.195,17.4,17.4,0,0,1-3.377,1.319c-2.348.744-4.776,1.515-5.981,3.6-1.164,2.013-.638,4.469-.128,6.841a18.679,18.679,0,0,1,.549,3.724,18.679,18.679,0,0,1-.55,3.724c-.506,2.374-1.036,4.829.128,6.838a7.156,7.156,0,0,0,3.915,2.895l-4.948,6.356a.813.813,0,0,0,.743,1.3l5.809-.726,1.434,5.018a.812.812,0,0,0,.626.574.829.829,0,0,0,.154.015.812.812,0,0,0,.642-.314l5.189-6.674A7.513,7.513,0,0,0,59.5,42.249a7.513,7.513,0,0,0,4.732-2.112l5.189,6.671a.812.812,0,0,0,.642.316.829.829,0,0,0,.154-.015.812.812,0,0,0,.626-.574l1.434-5.017,5.809.726a.812.812,0,0,0,.743-1.3Zm-29.55,3.611L48.089,40.4a.813.813,0,0,0-.882-.583l-4.55.569,4.078-5.242.449.144a17.4,17.4,0,0,1,3.373,1.319A16.506,16.506,0,0,1,53.264,38.8l.279.258ZM59.5,40.624c-1.877,0-3.455-1.462-5.128-3.013a17.909,17.909,0,0,0-3-2.411,18.839,18.839,0,0,0-3.7-1.462c-2.147-.682-4.176-1.325-5.067-2.864-.85-1.47-.411-3.518.054-5.687a19.9,19.9,0,0,0,.587-4.062,19.889,19.889,0,0,0-.586-4.062c-.466-2.169-.9-4.217-.054-5.687.894-1.539,2.919-2.182,5.067-2.864a18.844,18.844,0,0,0,3.7-1.462,17.909,17.909,0,0,0,3-2.411c1.673-1.55,3.252-3.013,5.128-3.013s3.455,1.462,5.128,3.013a17.909,17.909,0,0,0,3,2.411,18.839,18.839,0,0,0,3.7,1.462c2.147.682,4.176,1.325,5.067,2.864.85,1.47.411,3.518-.054,5.687a19.9,19.9,0,0,0-.587,4.062,19.888,19.888,0,0,0,.586,4.062c.466,2.169.9,4.217.054,5.687-.894,1.539-2.919,2.182-5.067,2.864a18.845,18.845,0,0,0-3.7,1.462,17.909,17.909,0,0,0-3,2.411C62.951,39.162,61.372,40.624,59.5,40.624Zm12.292-.806a.813.813,0,0,0-.882.583l-1.189,4.149-4.269-5.488.279-.258a16.51,16.51,0,0,1,2.706-2.195,17.4,17.4,0,0,1,3.377-1.319l.449-.144,4.079,5.242Z" transform="translate(-39.995)" fill="#fff"/>
      </g>
    </g>
    <g id="Grupo_1575" data-name="Grupo 1575" transform="translate(44.871 6.5)">
      <g id="Grupo_1574" data-name="Grupo 1574" transform="translate(0)">
        <path id="Trazado_2341" data-name="Trazado 2341" d="M102.625,64a14.625,14.625,0,1,0,14.625,14.625A14.625,14.625,0,0,0,102.625,64Zm0,27.624a13,13,0,1,1,13-13A13,13,0,0,1,102.625,91.624Z" transform="translate(-88 -64)" fill="#fff"/>
      </g>
    </g>
    <g id="Grupo_1577" data-name="Grupo 1577" transform="translate(49.808 11.21)">
      <g id="Grupo_1576" data-name="Grupo 1576" transform="translate(0)">
        <path id="Trazado_2342" data-name="Trazado 2342" d="M155.678,116.9a1.625,1.625,0,0,0-1.313-.669h-4.974l-1.544-4.734a1.625,1.625,0,0,0-3.087,0l-1.54,4.734h-4.978a1.625,1.625,0,0,0-.957,2.939l4.027,2.925-1.538,4.734a1.625,1.625,0,0,0,2.5,1.817l4.029-2.924,4.027,2.925a1.625,1.625,0,0,0,2.5-1.817l-1.538-4.735,4.027-2.925A1.625,1.625,0,0,0,155.678,116.9Zm-5.817,4.228a.813.813,0,0,0-.295.909l1.721,5.3-4.505-3.273a.812.812,0,0,0-.955,0l-4.505,3.273,1.72-5.3a.813.813,0,0,0-.295-.908l-4.5-3.273h5.568a.812.812,0,0,0,.773-.561L146.3,112l1.721,5.295a.812.812,0,0,0,.773.561h5.568Z" transform="translate(-136.616 -110.376)" fill="#fff"/>
      </g>
    </g>
  </g>
</svg>
