<?xml version="1.0" encoding="utf-8"?>
<!-- Generator: Adobe Illustrator 23.0.0, SVG Export Plug-In . SVG Version: 6.00 Build 0)  -->
<svg version="1.1" id="Capa_1" xmlns="http://www.w3.org/2000/svg" xmlns:xlink="http://www.w3.org/1999/xlink" x="0px" y="0px"
	 viewBox="0 0 182.44 28.62" style="enable-background:new 0 0 182.44 28.62;" xml:space="preserve">
<style type="text/css">
	.st0{fill:#005850;}
</style>
<path class="st0" d="M10.63,0.45L0,28.17h4.56l2.66-7.49h10.63l2.83,7.49h4.54L14.56,0.45H10.63z M12.53,6.18l3.93,10.68H8.63
	L12.53,6.18z"/>
<path class="st0" d="M90.74,0c-4.13,0-7.45,1.35-9.86,4c-2.4,2.64-3.61,6.22-3.61,10.62c0,4.11,1.19,7.5,3.55,10.08
	c2.37,2.59,5.56,3.91,9.47,3.91c4,0,7.25-1.33,9.65-3.97c2.39-2.62,3.6-6.21,3.6-10.68c0-4.12-1.18-7.52-3.51-10.08
	C97.69,1.31,94.56,0,90.74,0z M90.52,3.83c2.75,0,4.85,0.89,6.4,2.71c1.55,1.82,2.34,4.47,2.34,7.86c0,3.3-0.81,5.89-2.41,7.7
	c-1.58,1.79-3.79,2.7-6.56,2.7c-2.62,0-4.68-0.93-6.3-2.83c-1.62-1.9-2.44-4.47-2.44-7.63c0-3.15,0.84-5.73,2.51-7.65
	C85.72,4.77,87.84,3.83,90.52,3.83z"/>
<polygon class="st0" points="107.18,28.17 111.31,28.17 111.31,16.34 120.96,16.34 120.96,12.52 111.31,12.52 111.31,4.28 
	121.75,4.28 121.75,0.45 107.18,0.45 "/>
<rect x="127.08" y="0.45" class="st0" width="4.13" height="27.72"/>
<path class="st0" d="M150.63,2.66c-1.66-1.47-4.01-2.21-6.98-2.21h-7.84v27.72h4.13v-10.1h3.02c3.09,0,5.58-0.86,7.41-2.56
	c1.84-1.71,2.78-3.92,2.78-6.59C153.16,6.25,152.31,4.14,150.63,2.66z M139.95,4.28h3.17c3.88,0,5.76,1.57,5.76,4.79
	c0,1.67-0.5,2.91-1.53,3.81c-1.04,0.9-2.59,1.36-4.62,1.36h-2.78V4.28z"/>
<path class="st0" d="M169.64,0c-4.13,0-7.45,1.35-9.86,4c-2.4,2.64-3.62,6.22-3.62,10.62c0,4.11,1.19,7.5,3.55,10.08
	c2.37,2.59,5.56,3.91,9.47,3.91c4.01,0,7.25-1.33,9.65-3.97c2.39-2.62,3.6-6.21,3.6-10.68c0-4.12-1.18-7.52-3.51-10.08
	C176.59,1.31,173.46,0,169.64,0z M178.16,14.4c0,3.3-0.81,5.89-2.41,7.7c-1.58,1.79-3.79,2.7-6.56,2.7c-2.62,0-4.68-0.93-6.3-2.83
	c-1.62-1.9-2.44-4.47-2.44-7.63c0-3.15,0.84-5.73,2.51-7.65c1.67-1.93,3.78-2.87,6.46-2.87c2.75,0,4.85,0.89,6.4,2.71
	C177.38,8.37,178.16,11.01,178.16,14.4z"/>
<g>
	<path class="st0" d="M63.08,5.85c0.02-0.02,0.02-0.06,0.04-0.08c0.29-0.44,0.68-0.81,1.15-1.1c0.11-0.07,0.25-0.12,0.37-0.18
		C63.75,4.97,63.28,5.55,63.08,5.85c-0.04,0.06-0.06,0.14-0.09,0.21"/>
	<path class="st0" d="M63.56,5.43c-0.52,0.5-0.86,1.19-0.86,1.92c0,0.01,0,0.01,0,0.02c0,0.6,0.11,1.12,0.33,1.54
		c0.22,0.43,0.56,0.84,1,1.2c0.47,0.39,1.05,0.77,1.74,1.14c0.71,0.38,1.53,0.8,2.45,1.26c0.97,0.48,1.9,0.99,2.76,1.51
		c0.89,0.54,1.68,1.15,2.34,1.8c0.68,0.67,1.23,1.42,1.64,2.24c0.41,0.84,0.62,1.8,0.62,2.87c0,1.4-0.28,2.61-0.84,3.59
		c-0.55,0.98-1.31,1.79-2.25,2.4c-0.92,0.6-2,1.04-3.19,1.31c-1.17,0.26-2.43,0.39-3.72,0.39c-0.44,0-0.99-0.04-1.62-0.11
		c-0.63-0.07-1.28-0.17-1.94-0.3c-0.66-0.13-1.3-0.3-1.9-0.5c-0.61-0.2-1.12-0.44-1.51-0.7l-0.22-0.15v-4.3l0,0
		c1.62,0.85,3.06,1.38,4.35,1.72c0.52,0.15,1.05,0.28,1.58,0.37c0.63,0.11,1.22,0.16,1.74,0.16c1.66,0,2.91-0.29,3.77-0.83
		c0.16-0.08,0.24-0.14,0.24-0.14v0c0.83-0.62,1.23-1.5,1.23-2.69c0-0.63-0.14-1.17-0.4-1.63c-0.28-0.48-0.69-0.93-1.19-1.33
		c-0.53-0.42-1.18-0.83-1.91-1.22c-0.76-0.4-1.58-0.83-2.46-1.27c-0.93-0.47-1.82-0.96-2.64-1.45c-0.84-0.5-1.58-1.06-2.2-1.67
		c-0.64-0.62-1.15-1.34-1.51-2.13c-0.37-0.8-0.56-1.75-0.56-2.81c0-1.3,0.29-2.46,0.87-3.43c0.57-0.96,1.33-1.76,2.26-2.39
		c0.91-0.61,1.96-1.07,3.13-1.37C65.82,0.15,67.01,0,68.2,0c2.74,0,4.7,0.33,5.99,1.01l0.27,0.14v4.08
		C71.14,3.87,68.73,3.59,67,3.79c-1.29,0.15-2.47,0.71-3.41,1.61C63.58,5.41,63.57,5.42,63.56,5.43z"/>
</g>
<polygon class="st0" points="49.76,0.45 40.75,20.18 31.74,0.45 31.74,0.45 31.74,0.45 27.31,0.45 27.31,28.17 31.74,28.17 
	31.74,11.42 34.16,16.96 39.06,28.17 40.75,28.17 42.44,28.17 42.68,27.61 42.69,27.62 49.76,11.48 49.76,28.17 54.19,28.17 
	54.19,0.45 "/>
</svg>
