<?xml version="1.0" encoding="utf-8"?>
<!-- Generator: Adobe Illustrator 23.0.0, SVG Export Plug-In . SVG Version: 6.00 Build 0)  -->
<svg version="1.1" id="Capa_1" xmlns="http://www.w3.org/2000/svg" xmlns:xlink="http://www.w3.org/1999/xlink" x="0px" y="0px"
	 viewBox="0 0 223.37 59" style="enable-background:new 0 0 223.37 59;" xml:space="preserve">
<style type="text/css">
	.st0{fill:#9DD4CA;}
	.st1{fill:#005850;}
	.st2{fill:#007F6E;}
	.st3{fill:#004545;}
</style>
<g>
	<g>
		
			<rect x="23.55" y="32.71" transform="matrix(0.7071 -0.7071 0.7071 0.7071 -18.6392 32.103)" class="st0" width="11.77" height="11.68"/>
		
			<rect x="32.64" y="23.61" transform="matrix(0.7071 -0.7071 0.7071 0.7071 -9.5731 35.9034)" class="st0" width="11.83" height="11.79"/>
		
			<rect x="23.55" y="14.52" transform="matrix(0.7071 -0.7071 0.7071 0.7071 -5.8102 26.8236)" class="st0" width="11.84" height="11.8"/>
		<polygon class="st0" points="20.4,37.84 28.72,29.52 20.38,21.17 12.06,29.5 12.06,29.5 12.06,29.5 		"/>
		<polygon class="st1" points="17.34,58.9 29.4,46.84 21.14,38.58 9.1,50.65 		"/>
		
			<rect x="1.68" y="33.8" transform="matrix(0.7071 -0.7071 0.7071 0.7071 -25.0834 18.8408)" class="st2" width="17.05" height="11.8"/>
		
			<rect x="31.16" y="4.3" transform="matrix(0.7071 -0.7071 0.7071 0.7071 4.4097 31.0543)" class="st1" width="17.05" height="11.81"/>
		<polygon class="st2" points="46.91,29.49 46.92,29.48 46.92,29.48 58.97,17.44 50.62,9.1 38.57,21.15 		"/>
		
			<rect x="4.34" y="10.77" transform="matrix(0.7071 -0.7071 0.7071 0.7071 -10.6536 12.8631)" class="st1" width="11.73" height="17.05"/>
		
			<rect x="13.35" y="1.7" transform="matrix(0.7071 -0.7071 0.7071 0.7071 -1.5828 16.6204)" class="st2" width="11.84" height="17.05"/>
		<polygon class="st1" points="46.92,29.5 38.55,37.87 50.6,49.92 58.98,41.54 46.92,29.48 46.91,29.49 		"/>
		<polygon class="st3" points="46.91,29.5 46.91,29.49 46.91,29.49 46.91,29.49 		"/>
		<polygon class="st2" points="37.72,38.52 29.4,46.84 41.52,59 49.86,50.66 		"/>
	</g>
	<g>
		<path class="st1" d="M76.46,17.65l-9.09,23.71h3.9l2.28-6.41h9.09l2.42,6.41h3.88l-9.13-23.71H76.46z M78.09,22.55l3.36,9.13h-6.7
			L78.09,22.55z"/>
		<path class="st1" d="M144.96,17.26c-3.53,0-6.37,1.15-8.43,3.42c-2.05,2.26-3.09,5.31-3.09,9.08c0,3.52,1.02,6.42,3.04,8.62
			c2.02,2.22,4.75,3.34,8.1,3.34c3.42,0,6.2-1.14,8.25-3.39c2.04-2.24,3.08-5.31,3.08-9.13c0-3.53-1.01-6.43-3-8.62
			C150.9,18.38,148.23,17.26,144.96,17.26z M144.77,20.54c2.36,0,4.15,0.76,5.48,2.32c1.33,1.56,2,3.82,2,6.72
			c0,2.82-0.69,5.04-2.06,6.59c-1.35,1.53-3.24,2.31-5.61,2.31c-2.24,0-4-0.79-5.39-2.42c-1.39-1.63-2.09-3.82-2.09-6.52
			c0-2.7,0.72-4.9,2.14-6.54C140.67,21.34,142.48,20.54,144.77,20.54z"/>
		<polygon class="st1" points="159.02,41.35 162.55,41.35 162.55,31.23 170.8,31.23 170.8,27.97 162.55,27.97 162.55,20.92 
			171.47,20.92 171.47,17.65 159.02,17.65 		"/>
		<rect x="176.04" y="17.65" class="st1" width="3.53" height="23.71"/>
		<path class="st1" d="M196.17,19.54c-1.42-1.26-3.42-1.89-5.96-1.89h-6.71v23.71h3.53v-8.64h2.58c2.64,0,4.77-0.74,6.34-2.19
			c1.58-1.46,2.38-3.35,2.38-5.64C198.33,22.61,197.61,20.81,196.17,19.54z M187.03,20.92h2.71c3.32,0,4.93,1.34,4.93,4.1
			c0,1.42-0.43,2.49-1.31,3.25c-0.89,0.77-2.22,1.16-3.95,1.16h-2.38V20.92z"/>
		<path class="st1" d="M212.43,17.26c-3.53,0-6.37,1.15-8.43,3.42c-2.05,2.26-3.09,5.32-3.09,9.08c0,3.52,1.02,6.42,3.04,8.62
			c2.03,2.22,4.75,3.34,8.1,3.34c3.42,0,6.2-1.14,8.25-3.39c2.04-2.24,3.08-5.31,3.08-9.13c0-3.53-1.01-6.43-3-8.62
			C218.36,18.38,215.69,17.26,212.43,17.26z M219.71,29.58c0,2.82-0.69,5.04-2.06,6.59c-1.35,1.53-3.24,2.31-5.61,2.31
			c-2.24,0-4-0.79-5.39-2.42c-1.39-1.63-2.09-3.82-2.09-6.52c0-2.7,0.72-4.9,2.14-6.54c1.43-1.65,3.23-2.45,5.53-2.45
			c2.35,0,4.15,0.76,5.48,2.32C219.04,24.42,219.71,26.68,219.71,29.58z"/>
		<g>
			<path class="st1" d="M121.31,22.27c0.01-0.02,0.02-0.05,0.03-0.07c0.25-0.38,0.58-0.69,0.98-0.94c0.1-0.06,0.21-0.1,0.32-0.15
				C121.88,21.52,121.48,22.01,121.31,22.27c-0.03,0.05-0.05,0.12-0.08,0.18"/>
			<path class="st1" d="M121.72,21.9c-0.44,0.43-0.73,1.02-0.74,1.64c0,0,0,0.01,0,0.01c0,0.51,0.09,0.96,0.28,1.32
				c0.19,0.37,0.48,0.72,0.86,1.03c0.4,0.33,0.9,0.66,1.48,0.97c0.61,0.33,1.31,0.69,2.1,1.08c0.83,0.41,1.62,0.84,2.36,1.29
				c0.76,0.46,1.43,0.98,2,1.54c0.58,0.57,1.06,1.22,1.4,1.92c0.35,0.72,0.53,1.54,0.53,2.45c0,1.2-0.24,2.23-0.72,3.07
				c-0.47,0.84-1.12,1.53-1.92,2.05c-0.79,0.51-1.71,0.89-2.73,1.12c-1,0.22-2.08,0.34-3.18,0.34c-0.38,0-0.84-0.03-1.39-0.09
				c-0.54-0.06-1.1-0.15-1.66-0.26c-0.56-0.11-1.11-0.26-1.62-0.43c-0.53-0.18-0.96-0.38-1.29-0.6l-0.19-0.13v-3.68l0,0
				c1.39,0.73,2.62,1.18,3.72,1.47c0.45,0.13,0.9,0.24,1.35,0.32c0.54,0.09,1.04,0.14,1.49,0.14c1.42,0,2.49-0.25,3.23-0.71
				c0.13-0.07,0.21-0.12,0.21-0.12v0c0.71-0.53,1.05-1.28,1.05-2.3c0-0.54-0.12-1-0.35-1.39c-0.24-0.41-0.59-0.79-1.02-1.13
				c-0.46-0.36-1.01-0.71-1.63-1.04c-0.65-0.34-1.35-0.71-2.11-1.09c-0.8-0.4-1.56-0.82-2.26-1.24c-0.72-0.43-1.35-0.91-1.88-1.43
				c-0.54-0.53-0.98-1.15-1.29-1.82c-0.32-0.69-0.48-1.5-0.48-2.4c0-1.11,0.25-2.1,0.75-2.94c0.49-0.82,1.14-1.51,1.93-2.04
				c0.78-0.52,1.68-0.92,2.67-1.17c0.98-0.25,2-0.38,3.02-0.38c2.34,0,4.02,0.28,5.12,0.86l0.23,0.12v3.49
				c-2.84-1.16-4.9-1.4-6.38-1.23c-1.1,0.13-2.12,0.61-2.92,1.37C121.73,21.89,121.73,21.9,121.72,21.9z"/>
		</g>
		<polygon class="st1" points="109.92,17.65 102.21,34.52 94.51,17.65 94.51,17.65 94.51,17.65 90.72,17.65 90.72,41.35 
			94.51,41.35 94.51,27.03 96.58,31.76 100.77,41.35 102.21,41.35 103.66,41.35 103.87,40.88 103.88,40.88 109.92,27.08 
			109.92,41.35 113.7,41.35 113.7,17.65 		"/>
	</g>
</g>
</svg>
