<svg xmlns="http://www.w3.org/2000/svg" width="144.594" height="48" viewBox="0 0 144.594 48">
  <g id="Grupo_3241" data-name="Grupo 3241" transform="translate(-171 -12)">
    <g id="Grupo_503" data-name="Grupo 503" transform="translate(171 12)">
      <rect id="Rectángulo_707" data-name="Rectángulo 707" width="9.051" height="9.024" transform="matrix(0.707, 0.707, -0.707, 0.707, 23.999, 10.4)" fill="#9dd4ca"/>
      <rect id="Rectángulo_712" data-name="Rectángulo 712" width="9.051" height="9.024" transform="matrix(0.707, 0.707, -0.707, 0.707, 16.8, 17.6)" fill="#9dd4ca"/>
      <rect id="Rectángulo_710" data-name="Rectángulo 710" width="9.051" height="9.024" transform="matrix(0.707, 0.707, -0.707, 0.707, 31.181, 17.619)" fill="#9dd4ca"/>
      <rect id="Rectángulo_711" data-name="Rectángulo 711" width="9.051" height="9.024" transform="matrix(0.707, 0.707, -0.707, 0.707, 23.999, 24.8)" fill="#9dd4ca"/>
      <rect id="Rectángulo_705" data-name="Rectángulo 705" width="9.051" height="13.576" transform="matrix(0.707, 0.707, -0.707, 0.707, 34.401, 0)" fill="#005850"/>
      <rect id="Rectángulo_715" data-name="Rectángulo 715" width="9.051" height="13.576" transform="matrix(0.707, 0.707, -0.707, 0.707, 16.8, 32)" fill="#005850"/>
      <rect id="Rectángulo_713" data-name="Rectángulo 713" width="9.051" height="13.576" transform="translate(47.999 34.4) rotate(135)" fill="#005850"/>
      <rect id="Rectángulo_717" data-name="Rectángulo 717" width="9.051" height="13.576" transform="translate(16 16.8) rotate(135)" fill="#005850"/>
      <rect id="Rectángulo_708" data-name="Rectángulo 708" width="9.051" height="13.576" transform="matrix(0.707, 0.707, -0.707, 0.707, 41.601, 7.2)" fill="#007f6e"/>
      <rect id="Rectángulo_716" data-name="Rectángulo 716" width="9.051" height="13.576" transform="matrix(0.707, 0.707, -0.707, 0.707, 9.6, 24.8)" fill="#007f6e"/>
      <rect id="Rectángulo_714" data-name="Rectángulo 714" width="9.051" height="13.576" transform="translate(40.799 41.6) rotate(135)" fill="#007f6e"/>
      <rect id="Rectángulo_718" data-name="Rectángulo 718" width="9.051" height="13.576" transform="translate(23.2 9.6) rotate(135)" fill="#007f6e"/>
      <path id="Trazado_1295" data-name="Trazado 1295" d="M0,.005,0,0,0,0,0,0Z" transform="translate(18.471 38.96) rotate(90)" fill="#004545"/>
    </g>
    <g id="Grupo_502" data-name="Grupo 502" transform="translate(223.799 28.8)">
      <path id="Trazado_1254" data-name="Trazado 1254" d="M4272.749,802.3l-5.35,13.949h2.3l1.341-3.77h5.349l1.426,3.77h2.284l-5.37-13.949Zm.956,2.886,1.979,5.374h-3.94Z" transform="translate(-4267.398 -802.077)" fill="#195852"/>
      <path id="Trazado_1255" data-name="Trazado 1255" d="M4339.533,801.924a6.387,6.387,0,0,0-4.958,2.014,7.681,7.681,0,0,0-1.819,5.345,7.257,7.257,0,0,0,1.786,5.074,6.171,6.171,0,0,0,4.767,1.967,6.277,6.277,0,0,0,4.855-2,7.7,7.7,0,0,0,1.809-5.373,7.28,7.28,0,0,0-1.768-5.073A6.032,6.032,0,0,0,4339.533,801.924Zm-.112,1.928a3.975,3.975,0,0,1,3.223,1.365,5.956,5.956,0,0,1,1.177,3.954,5.684,5.684,0,0,1-1.212,3.875,4.2,4.2,0,0,1-3.3,1.36,3.93,3.93,0,0,1-3.171-1.426,6.555,6.555,0,0,1,.031-7.685A4.063,4.063,0,0,1,4339.421,803.852Z" transform="translate(-4293.879 -801.924)" fill="#195852"/>
      <path id="Trazado_1256" data-name="Trazado 1256" d="M4358.055,816.251h2.076V810.3h4.858v-1.918h-4.858V804.23h5.252V802.3h-7.328Z" transform="translate(-4304.127 -802.077)" fill="#195852"/>
      <rect id="Rectángulo_687" data-name="Rectángulo 687" width="2.078" height="13.949" transform="translate(63.941 0.225)" fill="#195852"/>
      <path id="Trazado_1257" data-name="Trazado 1257" d="M4389.732,803.415a5.14,5.14,0,0,0-3.51-1.114h-3.946v13.949h2.079v-5.082h1.52a5.3,5.3,0,0,0,3.729-1.285,4.333,4.333,0,0,0,1.4-3.317A4.007,4.007,0,0,0,4389.732,803.415Zm-5.377.814h1.6c1.951,0,2.9.789,2.9,2.412a2.384,2.384,0,0,1-.771,1.915,3.475,3.475,0,0,1-2.326.684h-1.4Z" transform="translate(-4313.943 -802.077)" fill="#195852"/>
      <path id="Trazado_1258" data-name="Trazado 1258" d="M4406.27,801.924a6.391,6.391,0,0,0-4.958,2.014,7.682,7.682,0,0,0-1.819,5.345,7.259,7.259,0,0,0,1.788,5.074,6.165,6.165,0,0,0,4.765,1.967,6.278,6.278,0,0,0,4.857-2,7.71,7.71,0,0,0,1.809-5.373,7.284,7.284,0,0,0-1.767-5.073A6.036,6.036,0,0,0,4406.27,801.924Zm4.288,7.247a5.681,5.681,0,0,1-1.212,3.875,4.2,4.2,0,0,1-3.3,1.36,3.929,3.929,0,0,1-3.168-1.426,6.551,6.551,0,0,1,.03-7.685,4.064,4.064,0,0,1,3.253-1.442,3.97,3.97,0,0,1,3.221,1.365A5.956,5.956,0,0,1,4410.558,809.17Z" transform="translate(-4320.915 -801.924)" fill="#195852"/>
      <g id="Grupo_496" data-name="Grupo 496" transform="translate(29.375)">
        <path id="Trazado_1269" data-name="Trazado 1269" d="M4320.726,806.407a.269.269,0,0,1,.019-.041,1.784,1.784,0,0,1,.575-.551c.059-.035.125-.06.188-.09a2.172,2.172,0,0,0-.782.682c-.019.031-.029.07-.045.1" transform="translate(-4318.362 -803.464)" fill="#195852"/>
        <path id="Trazado_1270" data-name="Trazado 1270" d="M4319.385,804.654a1.371,1.371,0,0,0-.433.964v.008a1.68,1.68,0,0,0,.165.776,1.923,1.923,0,0,0,.5.606,5.372,5.372,0,0,0,.873.572q.535.289,1.234.634c.489.24.955.5,1.389.761a6.482,6.482,0,0,1,1.18.908,4.129,4.129,0,0,1,.823,1.128,3.244,3.244,0,0,1,.312,1.442,3.638,3.638,0,0,1-.421,1.807,3.472,3.472,0,0,1-1.132,1.208,4.878,4.878,0,0,1-1.607.658,8.635,8.635,0,0,1-1.874.2,7.736,7.736,0,0,1-.816-.054c-.316-.034-.645-.086-.978-.153a8.01,8.01,0,0,1-.954-.252,3.145,3.145,0,0,1-.761-.353l-.109-.075v-2.165h0a10.409,10.409,0,0,0,2.189.866,7.154,7.154,0,0,0,.795.186,5.273,5.273,0,0,0,.876.082,3.566,3.566,0,0,0,1.9-.419c.08-.042.123-.07.123-.07h0a1.768,1.768,0,0,0,.413-2.169,2.44,2.44,0,0,0-.6-.667,6.383,6.383,0,0,0-.961-.613q-.575-.3-1.238-.641c-.47-.237-.917-.482-1.328-.731a5.915,5.915,0,0,1-1.107-.842,3.639,3.639,0,0,1-.76-1.073,3.664,3.664,0,0,1,.157-3.141,3.734,3.734,0,0,1,1.135-1.2,5.1,5.1,0,0,1,1.574-.691,7.128,7.128,0,0,1,1.775-.224,6.705,6.705,0,0,1,3.013.508l.135.071v2.052a7.771,7.771,0,0,0-3.754-.721,2.971,2.971,0,0,0-1.716.808Z" transform="translate(-4316.782 -801.924)" fill="#195852"/>
      </g>
      <path id="Trazado_1271" data-name="Trazado 1271" d="M4301.794,802.3l-4.533,9.929-4.534-9.929v0H4290.5v13.949h2.228v-8.428l1.22,2.786,2.464,5.643h1.7l.122-.281.006,0,3.556-8.12v8.4h2.227V802.3Z" transform="translate(-4276.759 -802.077)" fill="#195852"/>
    </g>
  </g>
</svg>
