<?xml version="1.0" encoding="utf-8"?>
<!-- Generator: Adobe Illustrator 23.0.0, SVG Export Plug-In . SVG Version: 6.00 Build 0)  -->
<svg version="1.1" id="Capa_1" xmlns="http://www.w3.org/2000/svg" xmlns:xlink="http://www.w3.org/1999/xlink" x="0px" y="0px"
	 viewBox="0 0 58.98 59" style="enable-background:new 0 0 58.98 59;" xml:space="preserve">
<style type="text/css">
	.st0{fill:#9DD4CA;}
	.st1{fill:#005850;}
	.st2{fill:#007F6E;}
	.st3{fill:#004545;}
</style>
<g>
	
		<rect x="23.55" y="32.71" transform="matrix(0.7071 -0.7071 0.7071 0.7071 -18.6392 32.103)" class="st0" width="11.77" height="11.68"/>
	
		<rect x="32.64" y="23.61" transform="matrix(0.7071 -0.7071 0.7071 0.7071 -9.5731 35.9034)" class="st0" width="11.83" height="11.79"/>
	
		<rect x="23.55" y="14.52" transform="matrix(0.7071 -0.7071 0.7071 0.7071 -5.8102 26.8236)" class="st0" width="11.84" height="11.8"/>
	<polygon class="st0" points="20.4,37.84 28.72,29.52 20.38,21.17 12.06,29.5 12.06,29.5 12.06,29.5 	"/>
	<polygon class="st1" points="17.34,58.9 29.4,46.84 21.14,38.58 9.1,50.65 	"/>
	
		<rect x="1.68" y="33.8" transform="matrix(0.7071 -0.7071 0.7071 0.7071 -25.0834 18.8408)" class="st2" width="17.05" height="11.8"/>
	
		<rect x="31.16" y="4.3" transform="matrix(0.7071 -0.7071 0.7071 0.7071 4.4097 31.0543)" class="st1" width="17.05" height="11.81"/>
	<polygon class="st2" points="46.91,29.49 46.92,29.48 46.92,29.48 58.97,17.44 50.62,9.1 38.57,21.15 	"/>
	
		<rect x="4.34" y="10.77" transform="matrix(0.7071 -0.7071 0.7071 0.7071 -10.6536 12.8631)" class="st1" width="11.73" height="17.05"/>
	
		<rect x="13.35" y="1.7" transform="matrix(0.7071 -0.7071 0.7071 0.7071 -1.5828 16.6204)" class="st2" width="11.84" height="17.05"/>
	<polygon class="st1" points="46.92,29.5 38.55,37.87 50.6,49.92 58.98,41.54 46.92,29.48 46.91,29.49 	"/>
	<polygon class="st3" points="46.91,29.5 46.91,29.49 46.91,29.49 46.91,29.49 	"/>
	<polygon class="st2" points="37.72,38.52 29.4,46.84 41.52,59 49.86,50.66 	"/>
</g>
</svg>
