<svg id="Grupo_3308" data-name="Grupo 3308" xmlns="http://www.w3.org/2000/svg" width="72" height="56" viewBox="0 0 72 56">
  <g id="Grupo_1592" data-name="Grupo 1592">
    <path id="Trazado_2361" data-name="Trazado 2361" d="M394.621,295.816a6.684,6.684,0,1,0-6.207-6.667A6.386,6.386,0,0,0,394.621,295.816Zm0-10.667a4.01,4.01,0,1,1-3.724,4A3.8,3.8,0,0,1,394.621,285.15Z" transform="translate(-333.793 -250.483)" fill="#939"/>
    <path id="Trazado_2362" data-name="Trazado 2362" d="M65.793,70.621H6.207A6.386,6.386,0,0,0,0,77.288v42.667a6.386,6.386,0,0,0,6.207,6.667H65.793A6.386,6.386,0,0,0,72,119.954V77.288A6.386,6.386,0,0,0,65.793,70.621Zm3.724,49.333a3.8,3.8,0,0,1-3.724,4H6.207a3.8,3.8,0,0,1-3.724-4V94.621H69.517Zm0-28H2.483v-8H69.517Zm0-10.667H2.483v-4a3.8,3.8,0,0,1,3.724-4H65.793a3.8,3.8,0,0,1,3.724,4Z" transform="translate(0 -70.621)" fill="#939"/>
    <path id="Trazado_2363" data-name="Trazado 2363" d="M36.551,355.77h4.965a1.337,1.337,0,0,0,0-2.667H36.551a1.337,1.337,0,0,0,0,2.667Z" transform="translate(-30.345 -310.436)" fill="#939"/>
    <path id="Trazado_2364" data-name="Trazado 2364" d="M112.138,353.1h-4.965a1.337,1.337,0,0,0,0,2.667h4.965a1.337,1.337,0,0,0,0-2.667Z" transform="translate(-91.034 -310.436)" fill="#939"/>
    <path id="Trazado_2365" data-name="Trazado 2365" d="M176.552,354.436a1.218,1.218,0,0,0,1.241,1.333h4.965a1.337,1.337,0,0,0,0-2.667h-4.965A1.218,1.218,0,0,0,176.552,354.436Z" transform="translate(-151.724 -310.436)" fill="#939"/>
    <path id="Trazado_2366" data-name="Trazado 2366" d="M248.413,355.77h4.965a1.337,1.337,0,0,0,0-2.667h-4.965a1.337,1.337,0,0,0,0,2.667Z" transform="translate(-212.413 -310.436)" fill="#939"/>
    <path id="Trazado_2367" data-name="Trazado 2367" d="M36.551,320.459H56.413a1.337,1.337,0,0,0,0-2.667H36.551a1.337,1.337,0,0,0,0,2.667Z" transform="translate(-30.345 -280.459)" fill="#939"/>
  </g>
</svg>
