<svg xmlns="http://www.w3.org/2000/svg" width="64" height="72" viewBox="0 0 64 72">
  <path id="Trazado_4473" data-name="Trazado 4473" d="M102.173,11.659,73.136.215a3.11,3.11,0,0,0-2.272,0L41.827,11.659A2.815,2.815,0,0,0,40,14.256V28.168c0,19.155,12.2,36.385,30.88,43.624a3.111,3.111,0,0,0,2.239,0C91.8,64.553,104,47.323,104,28.168V14.256A2.815,2.815,0,0,0,102.173,11.659Zm-4.1,16.509C98.074,44.451,88,59.441,72,66.133,56.428,59.62,45.926,44.893,45.926,28.168V16.134L72,5.858,98.074,16.134Zm-29.349,9.48L81.46,25.559a3.076,3.076,0,0,1,4.19,0,2.712,2.712,0,0,1,0,3.977L70.82,43.614a3.076,3.076,0,0,1-4.19,0l-8.281-7.86a2.712,2.712,0,0,1,0-3.977,3.076,3.076,0,0,1,4.19,0Z" transform="translate(-40 0)" fill="#939"/>
</svg>
