<svg xmlns="http://www.w3.org/2000/svg" width="40" height="36.25" viewBox="0 0 40 36.25">
  <path id="work" d="M38,6.042H29.333V3.356A3.349,3.349,0,0,0,26,0H14a3.349,3.349,0,0,0-3.333,3.356V6.042H2A2.007,2.007,0,0,0,0,8.056V23a2.022,2.022,0,0,0,1.333,1.9v9.342a2.007,2.007,0,0,0,2,2.014H36.667a2.007,2.007,0,0,0,2-2.014V24.894A2.023,2.023,0,0,0,40,23V8.056a2.007,2.007,0,0,0-2-2.014ZM12,3.356a2.007,2.007,0,0,1,2-2.014H26a2.007,2.007,0,0,1,2,2.014V6.042H26.667V3.356A.669.669,0,0,0,26,2.685H14a.669.669,0,0,0-.667.671V6.042H12ZM25.333,6.042H14.667V4.028H25.333Zm12,28.194a.669.669,0,0,1-.667.671H3.333a.669.669,0,0,1-.667-.671V25.124l14.667,2.037v1.7a2.007,2.007,0,0,0,2,2.014h1.333a2.007,2.007,0,0,0,2-2.014v-1.7l14.667-2.037Zm-16-5.37a.669.669,0,0,1-.667.671H19.333a.669.669,0,0,1-.667-.671V24.838a.669.669,0,0,1,.667-.671h1.333a.669.669,0,0,1,.667.671ZM38.667,23a.67.67,0,0,1-.573.665l-.185.026L22.667,25.806v-.968a2.007,2.007,0,0,0-2-2.014H19.333a2.007,2.007,0,0,0-2,2.014v.968L1.907,23.664A.67.67,0,0,1,1.333,23V8.056A.669.669,0,0,1,2,7.384H38a.669.669,0,0,1,.667.671Zm0,0" fill="#195852"/>
</svg>
