<svg xmlns="http://www.w3.org/2000/svg" width="72" height="72" viewBox="0 0 72 72">
  <g id="Grupo_3309" data-name="Grupo 3309" transform="translate(-551 -2619)">
    <g id="Grupo_1595" data-name="Grupo 1595" transform="translate(604.61 2657.097)">
      <g id="Grupo_1594" data-name="Grupo 1594">
        <path id="Trazado_2368" data-name="Trazado 2368" d="M387.032,270.613a1.059,1.059,0,0,0-1.048,1.069,1.331,1.331,0,1,1-2.661,0,1.048,1.048,0,1,0-2.1,0,3.427,3.427,0,1,0,6.852,0A1.059,1.059,0,0,0,387.032,270.613Z" transform="translate(-381.228 -270.613)" fill="#939"/>
      </g>
    </g>
    <g id="Grupo_1597" data-name="Grupo 1597" transform="translate(551 2619)">
      <g id="Grupo_1596" data-name="Grupo 1596">
        <path id="Trazado_2369" data-name="Trazado 2369" d="M69.25,43.387,66.3,42.423a1.247,1.247,0,0,1-.8-.823,19.556,19.556,0,0,0-2.788-5.627,20.544,20.544,0,0,0-1.862-2.242,27.039,27.039,0,0,0,.641-6.056c-.044-2.724-.577-4.322-1.631-4.885-.567-.3-2.294-1.226-11.641,3.14a3.387,3.387,0,0,0-.619.376c-.63-.173-1.274-.333-1.922-.476-.078-.017-.158-.033-.237-.05a14.809,14.809,0,0,0,1.283-5.415,1.048,1.048,0,1,0-2.094-.1,12.542,12.542,0,0,1-3.563,8.246,12.1,12.1,0,0,1-4.414,2.877,29.785,29.785,0,0,0-8.434,0,12.1,12.1,0,0,1-4.414-2.877,12.635,12.635,0,0,1,0-17.614,12.034,12.034,0,0,1,17.262,0,12.444,12.444,0,0,1,2.275,3.206,1.038,1.038,0,0,0,1.407.474,1.079,1.079,0,0,0,.465-1.436,14.572,14.572,0,0,0-2.665-3.757,14.1,14.1,0,0,0-20.226,0,14.8,14.8,0,0,0,0,20.638,14.346,14.346,0,0,0,2.524,2.052h0q-.977.259-1.938.585a1.074,1.074,0,0,0-.662,1.353,1.043,1.043,0,0,0,1.326.675,27.587,27.587,0,0,1,17.723,0,1.028,1.028,0,0,0,.332.055,1.05,1.05,0,0,0,.994-.731,1.074,1.074,0,0,0-.661-1.353q-.959-.327-1.938-.585h0a14.341,14.341,0,0,0,2.524-2.052,14.588,14.588,0,0,0,1.826-2.288c.289.057.576.117.858.18q.564.125,1.122.267c-.012.046-.024.093-.033.14a13,13,0,0,0,.1,6.5A7.738,7.738,0,0,0,49.2,38.817a8.694,8.694,0,0,0,5.158,1.67A6.8,6.8,0,0,0,57.7,39.7a6.505,6.505,0,0,0,2.463-3.57q.453.539.858,1.105a17.4,17.4,0,0,1,2.481,5.008,3.368,3.368,0,0,0,2.156,2.218l2.949.964A1.89,1.89,0,0,1,69.9,47.232v4.99a1.89,1.89,0,0,1-1.294,1.809l-4.752,1.553a3.252,3.252,0,0,0-1.812,1.5,21.049,21.049,0,0,1-8.724,8.1,1.672,1.672,0,0,0-.861,1.181l-1.522,8.223a.474.474,0,0,1-.463.391H45.53a.474.474,0,0,1-.463-.391l-.843-4.544a1.65,1.65,0,0,0-1.872-1.351,42.943,42.943,0,0,1-6.528.5,40.95,40.95,0,0,1-4.8-.277,1.665,1.665,0,0,0-1.816,1.359l-.8,4.318a.474.474,0,0,1-.463.391H22.995a.475.475,0,0,1-.463-.394l-1.465-7.766a1.676,1.676,0,0,0-.845-1.167C13.535,62.007,10,55.922,10,48.053A20.887,20.887,0,0,1,12.535,37.6a18.462,18.462,0,0,1,6.81-6.784,1.081,1.081,0,0,0,.382-1.461,1.037,1.037,0,0,0-1.432-.39A20.362,20.362,0,0,0,8.175,44.17h0c-.1-.009-.2-.018-.3-.029a5.42,5.42,0,0,0-.384-2.133,4.318,4.318,0,0,0-3.182-2.835A2.872,2.872,0,0,0,1.58,40.412a2.861,2.861,0,0,0-.524,3.072c.528,1.11,1.884,1.895,4.136,2.388q-.093.142-.2.285a5.107,5.107,0,0,1-3.915,2.114A1.112,1.112,0,0,0,0,49.388v.005A1.11,1.11,0,0,0,1.051,50.51q.113.005.236.005c1.288,0,3.354-.485,5.339-3.025a6.12,6.12,0,0,0,.765-1.261q.3.034.57.06h0c-.036.579-.056,1.167-.056,1.766A22.378,22.378,0,0,0,11,59.853a21.357,21.357,0,0,0,8.051,7.581l1.425,7.55a2.583,2.583,0,0,0,2.522,2.132h4.948a2.583,2.583,0,0,0,2.522-2.132l.724-3.9a43.282,43.282,0,0,0,4.636.245,45.129,45.129,0,0,0,6.42-.457l.763,4.116a2.583,2.583,0,0,0,2.522,2.132h4.948A2.583,2.583,0,0,0,53,74.983l1.482-8.006a23.034,23.034,0,0,0,9.38-8.821,1.151,1.151,0,0,1,.637-.536l4.751-1.553A4.018,4.018,0,0,0,72,52.222v-4.99A4.018,4.018,0,0,0,69.25,43.387ZM59.242,30.679c-.4,3.519-1.485,6.53-2.572,7.158a6.3,6.3,0,0,1-6.23-.747c-2.144-1.6-2.858-4.479-2.064-8.323h0a1.285,1.285,0,0,1,.719-.893c5.246-2.45,8.27-3.252,9.394-3.252a1.076,1.076,0,0,1,.38.052C59.207,25.041,59.649,27.128,59.242,30.679ZM2.942,42.55c-.108-.228.148-.629.31-.848a.832.832,0,0,1,.673-.418.771.771,0,0,1,.105.008,2.3,2.3,0,0,1,1.514,1.514,3.3,3.3,0,0,1,.219,1.008C4.314,43.507,3.187,43.065,2.942,42.55Z" transform="translate(0 -5.115)" fill="#939"/>
      </g>
    </g>
    <g id="Grupo_1599" data-name="Grupo 1599" transform="translate(579.525 2625.865)">
      <g id="Grupo_1598" data-name="Grupo 1598">
        <path id="Trazado_2370" data-name="Trazado 2370" d="M207.777,59.462V55.636c1.293.094,1.773.7,2.217.7.554,0,.813-.716.813-1.074,0-.924-1.773-1.319-3.029-1.357v-.509c0-.226-.277-.433-.554-.433a.49.49,0,0,0-.536.433v.547c-1.755.189-3.51,1.131-3.51,3.506,0,2.413,1.847,3.091,3.51,3.694v4.429c-1.884-.151-2.383-1.47-2.992-1.47-.462,0-.85.622-.85,1.074,0,.924,1.552,2.186,3.842,2.224h0v.584a.49.49,0,0,0,.536.434c.277,0,.554-.207.554-.434v-.641a3.626,3.626,0,0,0,3.362-3.883C211.139,60.894,209.384,60.065,207.777,59.462ZM206.8,59.1c-.979-.377-1.773-.773-1.773-1.847,0-.98.739-1.451,1.773-1.583Zm.868,6.427V61.554a2.2,2.2,0,0,1,1.626,2.111A1.78,1.78,0,0,1,207.666,65.531Z" transform="translate(-202.845 -52.959)" fill="#939"/>
      </g>
    </g>
  </g>
</svg>
